<svg width="149" height="38" viewBox="0 0 149 38" fill="none" xmlns="http://www.w3.org/2000/svg">
<path d="M32.08 37.86H4.61C2.06 37.86 0 35.79 0 33.25V4.61C0 2.07 2.07 0 4.61 0H32.08C34.63 0 36.69 2.06 36.7 4.61V33.25C36.7 35.8 34.63 37.86 32.08 37.86ZM4.61 1.9C3.11 1.9 1.9 3.12 1.9 4.61V33.25C1.9 34.75 3.12 35.96 4.62 35.97H32.09C33.59 35.97 34.8 34.75 34.81 33.25V4.61C34.81 3.11 33.59 1.9 32.09 1.9H4.61Z" fill="#1094AB"/>
<path fill-rule="evenodd" clip-rule="evenodd" d="M20.47 12.63H28.29V8.41H8.49V12.62H5.42V5.44H31.27V15.62H23.45V24.62H20.47V12.63Z" fill="#1094AB"/>
<path fill-rule="evenodd" clip-rule="evenodd" d="M16.23 29.46H23.45V32.44H13.25V12.63H16.23V29.46Z" fill="#FFB500"/>
<path d="M31.27 29.3701H25.5V32.4401H31.27V29.3701Z" fill="#00FF77"/>
<path d="M142.662 22.3082C141.518 22.3082 140.409 22.0915 139.334 21.6582C138.277 21.2248 137.341 20.6095 136.526 19.8122L138.294 17.7582C138.901 18.3302 139.594 18.7982 140.374 19.1622C141.154 19.5088 141.934 19.6822 142.714 19.6822C143.685 19.6822 144.422 19.4828 144.924 19.0842C145.427 18.6855 145.678 18.1568 145.678 17.4982C145.678 16.7875 145.427 16.2762 144.924 15.9642C144.439 15.6522 143.815 15.3315 143.052 15.0022L140.712 13.9882C140.158 13.7455 139.612 13.4335 139.074 13.0522C138.554 12.6708 138.121 12.1855 137.774 11.5962C137.445 11.0068 137.28 10.2962 137.28 9.46418C137.28 8.56284 137.523 7.75684 138.008 7.04618C138.511 6.31818 139.187 5.74618 140.036 5.33018C140.903 4.89684 141.891 4.68018 143 4.68018C143.988 4.68018 144.942 4.87951 145.86 5.27818C146.779 5.65951 147.568 6.17951 148.226 6.83818L146.692 8.76218C146.155 8.31151 145.583 7.95618 144.976 7.69618C144.387 7.43618 143.728 7.30618 143 7.30618C142.203 7.30618 141.553 7.48818 141.05 7.85217C140.565 8.19884 140.322 8.68417 140.322 9.30818C140.322 9.74151 140.444 10.1055 140.686 10.4002C140.946 10.6775 141.284 10.9202 141.7 11.1282C142.116 11.3188 142.558 11.5095 143.026 11.7002L145.34 12.6622C146.346 13.0955 147.169 13.6675 147.81 14.3782C148.452 15.0715 148.772 16.0335 148.772 17.2642C148.772 18.1828 148.53 19.0235 148.044 19.7862C147.559 20.5488 146.857 21.1642 145.938 21.6322C145.037 22.0828 143.945 22.3082 142.662 22.3082Z" fill="black"/>
<path d="M123.706 21.9962V4.99219H133.95V7.54019H126.722V11.8822H132.832V14.4302H126.722V19.4482H134.21V21.9962H123.706Z" fill="black"/>
<path d="M112.791 22.308C111.317 22.308 110.017 21.9527 108.891 21.242C107.764 20.514 106.88 19.4913 106.239 18.174C105.615 16.8393 105.303 15.2533 105.303 13.416C105.303 11.5787 105.615 10.01 106.239 8.71C106.88 7.41 107.764 6.41333 108.891 5.72C110.017 5.02667 111.317 4.68 112.791 4.68C114.281 4.68 115.59 5.02667 116.717 5.72C117.843 6.41333 118.719 7.41 119.343 8.71C119.984 10.01 120.305 11.5787 120.305 13.416C120.305 15.2533 119.984 16.8393 119.343 18.174C118.719 19.4913 117.843 20.514 116.717 21.242C115.59 21.9527 114.281 22.308 112.791 22.308ZM112.791 19.682C114.125 19.682 115.191 19.1187 115.989 17.992C116.786 16.848 117.185 15.3227 117.185 13.416C117.185 11.5093 116.786 10.0187 115.989 8.944C115.191 7.852 114.125 7.306 112.791 7.306C111.456 7.306 110.39 7.852 109.593 8.944C108.795 10.0187 108.397 11.5093 108.397 13.416C108.397 15.3227 108.795 16.848 109.593 17.992C110.39 19.1187 111.456 19.682 112.791 19.682ZM114.689 3.796C114.221 3.796 113.805 3.718 113.441 3.562C113.094 3.38867 112.782 3.18933 112.505 2.964C112.227 2.73867 111.967 2.548 111.725 2.392C111.482 2.21867 111.231 2.132 110.971 2.132C110.693 2.132 110.451 2.25333 110.243 2.496C110.052 2.72133 109.931 3.094 109.879 3.614L107.903 3.458C107.972 2.29667 108.275 1.43 108.813 0.858C109.35 0.286 110.043 0 110.893 0C111.361 0 111.768 0.0866666 112.115 0.26C112.479 0.416 112.799 0.606666 113.077 0.832C113.354 1.05733 113.614 1.25667 113.857 1.43C114.099 1.586 114.351 1.664 114.611 1.664C115.217 1.664 115.581 1.16133 115.703 0.155999L117.679 0.311999C117.609 1.47333 117.306 2.34867 116.769 2.938C116.231 3.51 115.538 3.796 114.689 3.796Z" fill="black"/>
<path d="M98.8553 22.3082C97.434 22.3082 96.1427 21.9702 94.9813 21.2942C93.82 20.6182 92.8927 19.6302 92.1993 18.3302C91.5233 17.0128 91.1853 15.4182 91.1853 13.5462C91.1853 11.6915 91.532 10.1055 92.2253 8.78818C92.936 7.45351 93.8807 6.43951 95.0593 5.74618C96.238 5.03551 97.538 4.68018 98.9593 4.68018C100.034 4.68018 100.987 4.89684 101.819 5.33018C102.651 5.76351 103.336 6.26617 103.873 6.83818L102.261 8.78818C101.828 8.33751 101.343 7.98218 100.805 7.72218C100.285 7.44484 99.696 7.30618 99.0373 7.30618C98.1187 7.30618 97.2953 7.55751 96.5673 8.06017C95.8567 8.54551 95.2933 9.24751 94.8773 10.1662C94.4787 11.0848 94.2793 12.1855 94.2793 13.4682C94.2793 15.4095 94.704 16.9348 95.5533 18.0442C96.4027 19.1362 97.538 19.6822 98.9593 19.6822C99.722 19.6822 100.398 19.5262 100.987 19.2142C101.577 18.8848 102.114 18.4602 102.599 17.9402L104.211 19.8382C103.518 20.6355 102.721 21.2508 101.819 21.6842C100.935 22.1002 99.9473 22.3082 98.8553 22.3082ZM96.4633 28.0542L96.2033 26.7542C97.2607 26.6848 97.98 26.5548 98.3613 26.3642C98.76 26.1908 98.9593 25.9135 98.9593 25.5322C98.9593 25.2375 98.812 24.9948 98.5173 24.8042C98.24 24.6135 97.72 24.4662 96.9573 24.3622L98.1533 21.9182H99.9733L99.2193 23.6082C99.8433 23.7642 100.32 23.9808 100.649 24.2582C100.996 24.5528 101.169 24.9688 101.169 25.5062C101.169 26.3208 100.753 26.9275 99.9213 27.3262C99.1067 27.7422 97.954 27.9848 96.4633 28.0542Z" fill="black"/>
<path d="M84.7315 21.9962V4.99219H87.7475V21.9962H84.7315Z" fill="black"/>
<path d="M70.7412 21.9962V4.99219H80.9852V7.54019H73.7572V11.8822H79.8672V14.4302H73.7572V19.4482H81.2452V21.9962H70.7412Z" fill="black"/>
<path d="M57.6905 21.9962V4.99219H60.7065V19.4482H67.7785V21.9962H57.6905Z" fill="black"/>
<path d="M43.7002 21.9962V4.99219H53.9442V7.54019H46.7162V11.8822H52.8262V14.4302H46.7162V19.4482H54.2042V21.9962H43.7002Z" fill="black"/>
<path d="M145.886 35.8342C145.446 35.8342 145.019 35.7508 144.606 35.5842C144.199 35.4175 143.839 35.1808 143.526 34.8742L144.206 34.0842C144.439 34.3042 144.706 34.4842 145.006 34.6242C145.306 34.7575 145.606 34.8242 145.906 34.8242C146.279 34.8242 146.563 34.7475 146.756 34.5942C146.949 34.4408 147.046 34.2375 147.046 33.9842C147.046 33.7108 146.949 33.5142 146.756 33.3942C146.569 33.2742 146.329 33.1508 146.036 33.0242L145.136 32.6342C144.923 32.5408 144.713 32.4208 144.506 32.2742C144.306 32.1275 144.139 31.9408 144.006 31.7142C143.879 31.4875 143.816 31.2142 143.816 30.8942C143.816 30.5475 143.909 30.2375 144.096 29.9642C144.289 29.6842 144.549 29.4642 144.876 29.3042C145.209 29.1375 145.589 29.0542 146.016 29.0542C146.396 29.0542 146.763 29.1308 147.116 29.2842C147.469 29.4308 147.773 29.6308 148.026 29.8842L147.436 30.6242C147.229 30.4508 147.009 30.3142 146.776 30.2142C146.549 30.1142 146.296 30.0642 146.016 30.0642C145.709 30.0642 145.459 30.1342 145.266 30.2742C145.079 30.4075 144.986 30.5942 144.986 30.8342C144.986 31.0008 145.033 31.1408 145.126 31.2542C145.226 31.3608 145.356 31.4542 145.516 31.5342C145.676 31.6075 145.846 31.6808 146.026 31.7542L146.916 32.1242C147.303 32.2908 147.619 32.5108 147.866 32.7842C148.113 33.0508 148.236 33.4208 148.236 33.8942C148.236 34.2475 148.143 34.5708 147.956 34.8642C147.769 35.1575 147.499 35.3942 147.146 35.5742C146.799 35.7475 146.379 35.8342 145.886 35.8342Z" fill="black"/>
<path d="M135.995 35.714V29.174H139.935V30.154H137.155V31.824H139.505V32.804H137.155V34.734H140.035V35.714H135.995Z" fill="black"/>
<path d="M129.256 35.714V30.154H127.366V29.174H132.306V30.154H130.416V35.714H129.256Z" fill="black"/>
<path d="M118.774 35.714V29.174H119.964L122.004 32.854L122.674 34.244H122.714C122.687 33.9107 122.654 33.5474 122.614 33.154C122.58 32.7607 122.564 32.3807 122.564 32.014V29.174H123.674V35.714H122.484L120.444 32.034L119.774 30.644H119.734C119.76 30.9907 119.79 31.354 119.824 31.734C119.864 32.114 119.884 32.4874 119.884 32.854V35.714H118.774Z" fill="black"/>
<path d="M110.793 35.714V29.174H114.733V30.154H111.953V31.824H114.303V32.804H111.953V34.734H114.833V35.714H110.793Z" fill="black"/>
<path d="M102.275 35.714V29.174H104.485C104.938 29.174 105.345 29.234 105.705 29.354C106.072 29.474 106.358 29.6774 106.565 29.964C106.778 30.244 106.885 30.6274 106.885 31.114C106.885 31.614 106.765 32.0174 106.525 32.324C106.292 32.6307 105.978 32.8507 105.585 32.984L107.145 35.714H105.845L104.435 33.154H103.435V35.714H102.275ZM103.435 32.234H104.365C104.812 32.234 105.152 32.1407 105.385 31.954C105.625 31.7607 105.745 31.4807 105.745 31.114C105.745 30.7407 105.625 30.4807 105.385 30.334C105.152 30.1807 104.812 30.104 104.365 30.104H103.435V32.234Z" fill="black"/>
<path d="M95.4387 32.234L95.2087 33.034H96.8787L96.6487 32.234C96.5421 31.8874 96.4387 31.5307 96.3387 31.164C96.2454 30.7974 96.1521 30.434 96.0587 30.074H96.0187C95.9321 30.4407 95.8387 30.8074 95.7387 31.174C95.6454 31.534 95.5454 31.8874 95.4387 32.234ZM93.2487 35.714L95.3787 29.174H96.7387L98.8687 35.714H97.6487L97.1387 33.944H94.9387L94.4287 35.714H93.2487Z" fill="black"/>
<path d="M86.1765 35.714V29.174H88.2365C88.7231 29.174 89.1564 29.2374 89.5364 29.364C89.9165 29.4907 90.2164 29.7007 90.4365 29.994C90.6565 30.2874 90.7665 30.6874 90.7665 31.194C90.7665 31.674 90.6565 32.0707 90.4365 32.384C90.2164 32.6974 89.9198 32.9307 89.5465 33.084C89.1731 33.2374 88.7498 33.314 88.2765 33.314H87.3365V35.714H86.1765ZM87.3365 32.384H88.1865C89.1465 32.384 89.6264 31.9874 89.6264 31.194C89.6264 30.7807 89.4998 30.4974 89.2465 30.344C88.9998 30.184 88.6331 30.104 88.1465 30.104H87.3365V32.384Z" fill="black"/>
<path d="M80.0372 35.8342C79.5972 35.8342 79.1706 35.7508 78.7572 35.5842C78.3506 35.4175 77.9906 35.1808 77.6772 34.8742L78.3572 34.0842C78.5906 34.3042 78.8572 34.4842 79.1572 34.6242C79.4572 34.7575 79.7572 34.8242 80.0572 34.8242C80.4306 34.8242 80.7139 34.7475 80.9072 34.5942C81.1006 34.4408 81.1972 34.2375 81.1972 33.9842C81.1972 33.7108 81.1006 33.5142 80.9072 33.3942C80.7206 33.2742 80.4806 33.1508 80.1872 33.0242L79.2872 32.6342C79.0739 32.5408 78.8639 32.4208 78.6572 32.2742C78.4572 32.1275 78.2906 31.9408 78.1572 31.7142C78.0306 31.4875 77.9672 31.2142 77.9672 30.8942C77.9672 30.5475 78.0606 30.2375 78.2472 29.9642C78.4406 29.6842 78.7006 29.4642 79.0272 29.3042C79.3606 29.1375 79.7406 29.0542 80.1672 29.0542C80.5472 29.0542 80.9139 29.1308 81.2672 29.2842C81.6206 29.4308 81.9239 29.6308 82.1772 29.8842L81.5872 30.6242C81.3806 30.4508 81.1606 30.3142 80.9272 30.2142C80.7006 30.1142 80.4472 30.0642 80.1672 30.0642C79.8606 30.0642 79.6106 30.1342 79.4172 30.2742C79.2306 30.4075 79.1372 30.5942 79.1372 30.8342C79.1372 31.0008 79.1839 31.1408 79.2772 31.2542C79.3772 31.3608 79.5072 31.4542 79.6672 31.5342C79.8272 31.6075 79.9972 31.6808 80.1772 31.7542L81.0672 32.1242C81.4539 32.2908 81.7706 32.5108 82.0172 32.7842C82.2639 33.0508 82.3872 33.4208 82.3872 33.8942C82.3872 34.2475 82.2939 34.5708 82.1072 34.8642C81.9206 35.1575 81.6506 35.3942 81.2972 35.5742C80.9506 35.7475 80.5306 35.8342 80.0372 35.8342Z" fill="black"/>
<path d="M68.9647 35.714V29.174H70.1547L72.1947 32.854L72.8647 34.244H72.9047C72.8781 33.9107 72.8447 33.5474 72.8047 33.154C72.7714 32.7607 72.7547 32.3807 72.7547 32.014V29.174H73.8647V35.714H72.6747L70.6347 32.034L69.9647 30.644H69.9247C69.9514 30.9907 69.9814 31.354 70.0147 31.734C70.0547 32.114 70.0747 32.4874 70.0747 32.854V35.714H68.9647Z" fill="black"/>
<path d="M62.1285 32.234L61.8985 33.034H63.5685L63.3385 32.234C63.2319 31.8874 63.1285 31.5307 63.0285 31.164C62.9352 30.7974 62.8419 30.434 62.7485 30.074H62.7085C62.6219 30.4407 62.5285 30.8074 62.4285 31.174C62.3352 31.534 62.2352 31.8874 62.1285 32.234ZM59.9385 35.714L62.0685 29.174H63.4285L65.5585 35.714H64.3385L63.8285 33.944H61.6285L61.1185 35.714H59.9385Z" fill="black"/>
<path d="M52.3292 35.714V29.174H54.5392C54.9925 29.174 55.3992 29.234 55.7592 29.354C56.1258 29.474 56.4125 29.6774 56.6192 29.964C56.8325 30.244 56.9392 30.6274 56.9392 31.114C56.9392 31.614 56.8192 32.0174 56.5792 32.324C56.3458 32.6307 56.0325 32.8507 55.6392 32.984L57.1992 35.714H55.8992L54.4892 33.154H53.4892V35.714H52.3292ZM53.4892 32.234H54.4192C54.8658 32.234 55.2058 32.1407 55.4392 31.954C55.6792 31.7607 55.7992 31.4807 55.7992 31.114C55.7992 30.7407 55.6792 30.4807 55.4392 30.334C55.2058 30.1807 54.8658 30.104 54.4192 30.104H53.4892V32.234Z" fill="black"/>
<path d="M45.5902 35.714V30.154H43.7002V29.174H48.6402V30.154H46.7502V35.714H45.5902Z" fill="black"/>
</svg>
