<?xml version="1.0" encoding="UTF-8" standalone="no"?>
<!DOCTYPE svg PUBLIC "-//W3C//DTD SVG 1.1//EN" "http://www.w3.org/Graphics/SVG/1.1/DTD/svg11.dtd">
<svg xmlns="http://www.w3.org/2000/svg" version="1.1" viewBox="0.00 0.00 267.00 246.00">
<g stroke-width="2.00" fill="none" stroke-linecap="butt">
<path stroke="#80e3ea" vector-effect="non-scaling-stroke" d="
  M 126.54 144.50
  Q 122.71 156.29 114.83 165.51
  C 113.21 167.41 112.86 169.79 114.97 171.57
  Q 116.16 172.56 117.76 172.53
  Q 139.47 172.04 156.67 161.90
  A 1.04 1.03 36.7 0 1 157.46 161.79
  Q 188.18 169.56 214.00 154.76
  Q 235.21 142.59 244.47 120.06
  C 258.59 85.74 242.00 47.12 209.05 31.64
  C 178.58 17.33 142.59 25.01 121.16 51.05
  C 98.32 78.79 100.91 118.33 126.33 143.63
  A 0.86 0.86 0.0 0 1 126.54 144.50"
/>
<path stroke="#80e3ea" vector-effect="non-scaling-stroke" d="
  M 134.05 208.44
  A 2.50 2.27 36.4 0 1 133.56 208.49
  L 69.75 208.50
  A 4.25 4.24 -90.0 0 1 65.51 204.25
  L 65.51 84.71
  A 4.19 4.18 -90.0 0 1 69.69 80.52
  Q 82.75 80.50 96.98 80.51
  C 102.99 80.51 102.83 72.43 96.91 72.49
  Q 85.12 72.62 72.84 72.40
  Q 66.98 72.30 63.82 74.01
  Q 57.48 77.43 57.49 85.62
  Q 57.54 143.16 57.49 204.11
  C 57.49 208.84 60.07 213.31 64.36 215.28
  Q 67.15 216.57 72.08 216.55
  Q 101.10 216.41 131.80 216.55
  C 137.31 216.58 141.59 214.77 144.26 209.75
  Q 145.68 207.07 145.57 200.51
  Q 145.40 190.26 145.54 181.34
  Q 145.60 177.22 141.59 176.49
  Q 141.50 176.47 141.41 176.49
  Q 137.49 177.09 137.49 181.04
  Q 137.49 192.52 137.51 203.97
  C 137.51 206.19 136.31 207.91 134.05 208.44"
/>
<path stroke="#80e3ea" vector-effect="non-scaling-stroke" d="
  M 109.42 200.31
  A 3.77 3.77 0.0 0 0 105.65 196.54
  L 97.35 196.54
  A 3.77 3.77 0.0 0 0 93.58 200.31
  L 93.58 200.69
  A 3.77 3.77 0.0 0 0 97.35 204.46
  L 105.65 204.46
  A 3.77 3.77 0.0 0 0 109.42 200.69
  L 109.42 200.31"
/>
<path stroke="#80e3ea" vector-effect="non-scaling-stroke" d="
  M 154.78 153.70
  Q 155.95 152.96 157.25 153.34
  Q 185.63 161.72 210.11 147.76
  C 248.12 126.09 252.36 74.19 218.21 46.73
  C 201.99 33.68 180.21 29.38 160.36 34.80
  C 113.44 47.63 96.89 105.09 133.40 139.29
  C 134.61 140.42 135.66 141.92 135.17 143.67
  Q 132.16 154.45 126.28 163.53
  A 0.21 0.21 0.0 0 0 126.48 163.85
  Q 141.82 161.93 154.78 153.70"
/>
<path stroke="#80e3ea" vector-effect="non-scaling-stroke" d="
  M 164.88 59.35
  A 0.35 0.35 0.0 0 0 164.53 59.00
  L 140.97 59.00
  A 0.35 0.35 0.0 0 0 140.62 59.35
  L 140.62 82.91
  A 0.35 0.35 0.0 0 0 140.97 83.26
  L 164.53 83.26
  A 0.35 0.35 0.0 0 0 164.88 82.91
  L 164.88 59.35"
/>
<path stroke="#80e3ea" vector-effect="non-scaling-stroke" d="
  M 175.27 62.53
  L 175.37 65.39
  Q 175.39 66.01 176.01 66.00
  L 178.49 65.99
  Q 178.75 65.98 178.75 66.24
  L 178.72 69.04
  Q 178.72 69.37 178.38 69.37
  L 168.85 69.36
  A 0.44 0.43 1.4 0 0 168.41 69.77
  L 168.30 72.33
  A 0.52 0.52 0.0 0 0 168.82 72.87
  L 174.69 72.87
  Q 175.26 72.87 175.25 73.44
  L 175.25 75.73
  Q 175.25 76.47 174.51 76.43
  L 172.51 76.33
  Q 171.82 76.30 171.84 76.99
  L 171.89 79.07
  A 0.83 0.83 0.0 0 0 172.75 79.88
  L 174.76 79.82
  A 0.65 0.65 0.0 0 1 175.43 80.51
  L 175.30 82.90
  Q 175.28 83.27 175.65 83.26
  L 178.25 83.23
  Q 178.73 83.23 178.73 82.75
  L 178.76 80.28
  Q 178.77 79.84 179.22 79.84
  L 181.66 79.87
  A 0.61 0.60 0.5 0 1 182.26 80.47
  L 182.25 82.63
  Q 182.24 83.25 181.62 83.25
  L 179.24 83.24
  Q 178.72 83.24 178.72 83.76
  L 178.77 86.23
  Q 178.78 86.75 178.27 86.75
  L 175.78 86.75
  Q 175.32 86.75 175.34 87.22
  L 175.42 89.53
  Q 175.44 90.25 174.72 90.25
  L 169.01 90.25
  Q 168.27 90.25 168.30 89.51
  L 168.40 87.44
  Q 168.43 86.76 167.75 86.76
  L 158.63 86.75
  Q 158.01 86.74 158.01 87.37
  L 157.99 89.76
  Q 157.99 90.26 157.49 90.26
  L 155.00 90.24
  A 0.50 0.50 0.0 0 0 154.50 90.75
  L 154.50 93.49
  Q 154.50 93.73 154.26 93.73
  L 151.38 93.75
  Q 151.01 93.75 151.01 93.38
  L 151.00 90.90
  Q 151.00 90.30 151.60 90.28
  L 153.73 90.20
  Q 154.50 90.17 154.50 89.40
  L 154.51 87.26
  Q 154.51 86.75 154.01 86.75
  L 148.01 86.75
  Q 147.51 86.75 147.51 87.24
  L 147.49 89.51
  Q 147.49 90.26 146.74 90.26
  L 144.73 90.23
  Q 144.19 90.23 144.18 90.78
  L 144.18 100.79"
/>
<path stroke="#80e3ea" vector-effect="non-scaling-stroke" d="
  M 144.18 100.79
  L 141.12 100.55
  Q 140.66 100.51 140.65 100.98
  L 140.62 103.56
  A 0.58 0.58 0.0 0 0 141.19 104.14
  L 143.44 104.18
  Q 144.04 104.19 144.06 103.59
  L 144.18 100.79"
/>
<path stroke="#80e3ea" vector-effect="non-scaling-stroke" d="
  M 144.18 100.79
  L 147.08 100.77
  Q 147.64 100.76 147.63 100.21
  L 147.61 97.79
  A 0.61 0.60 89.5 0 1 148.21 97.17
  L 157.20 97.12
  Q 157.64 97.12 157.84 96.73
  Q 158.24 95.97 157.94 95.10
  A 1.03 1.03 0.0 0 1 158.93 93.73
  L 161.50 93.78
  L 161.45 96.56
  Q 161.44 97.13 160.87 97.13
  L 158.69 97.13
  Q 157.99 97.13 158.00 97.83
  L 158.03 100.04
  Q 158.03 100.61 157.46 100.61
  L 147.97 100.65
  Q 147.58 100.65 147.59 101.04
  L 147.62 103.68
  Q 147.63 104.11 148.06 104.11
  L 157.29 104.15
  Q 157.99 104.15 158.00 103.46
  L 158.01 101.44
  A 0.80 0.80 0.0 0 1 158.82 100.64
  L 160.91 100.65
  Q 161.47 100.65 161.48 100.09
  L 161.51 97.73
  Q 161.51 97.16 162.08 97.15
  L 164.48 97.11
  Q 164.86 97.11 164.86 97.49
  L 164.91 100.24
  Q 164.92 100.64 164.51 100.64
  L 161.80 100.63
  Q 161.49 100.63 161.49 100.95
  L 161.49 103.82
  Q 161.49 104.15 161.82 104.15
  L 167.74 104.13
  Q 168.36 104.13 168.36 104.74
  L 168.37 113.82
  Q 168.37 114.52 169.07 114.51
  L 171.48 114.48
  Q 171.73 114.48 171.74 114.73
  L 171.74 117.50
  Q 171.74 117.99 171.25 117.99
  L 169.05 118.01
  Q 168.37 118.02 168.37 118.70
  L 168.35 124.29
  Q 168.34 124.98 169.04 124.99
  L 171.25 125.01
  Q 171.98 125.02 171.93 125.75
  L 171.77 127.98
  Q 171.74 128.44 171.27 128.43
  L 169.04 128.34
  Q 168.41 128.32 168.39 128.96
  L 168.33 131.19
  A 0.62 0.62 0.0 0 0 168.95 131.83
  L 174.63 131.88
  Q 175.39 131.88 175.38 131.12
  L 175.36 128.77
  Q 175.36 128.41 175.73 128.40
  L 178.30 128.35
  A 0.45 0.44 0.6 0 1 178.75 128.80
  L 178.73 131.28
  Q 178.73 131.83 179.28 131.84
  L 192.02 131.89
  A 0.64 0.64 0.0 0 0 192.66 131.23
  L 192.59 128.95
  A 0.61 0.60 4.6 0 1 193.31 128.34
  Q 194.31 128.52 195.38 128.34
  Q 196.16 128.21 196.14 128.99
  L 196.09 131.22
  A 0.64 0.63 -89.6 0 0 196.72 131.87
  L 206.07 131.88
  A 0.45 0.44 -90.0 0 0 206.51 131.43
  L 206.50 128.80
  Q 206.50 128.35 206.05 128.35
  L 199.98 128.40
  A 0.41 0.41 0.0 0 1 199.57 127.98
  L 199.60 125.44
  Q 199.61 124.99 200.06 124.99
  L 206.01 125.00
  Q 206.53 125.00 206.52 124.49
  L 206.48 122.12
  Q 206.48 121.52 205.87 121.51
  L 200.35 121.49
  Q 199.68 121.49 199.65 122.15
  L 199.55 124.21
  Q 199.51 124.94 198.79 124.91
  L 196.68 124.84
  Q 196.03 124.82 196.06 124.18
  L 196.15 122.21
  Q 196.18 121.49 195.46 121.49
  L 193.25 121.51
  Q 192.52 121.52 192.57 122.25
  L 192.69 124.23
  Q 192.73 124.73 192.22 124.75
  L 185.75 124.94
  L 185.78 115.00
  Q 185.78 114.49 186.29 114.50
  L 188.67 114.51
  Q 189.11 114.52 189.12 114.08
  L 189.18 111.47
  Q 189.20 111.00 188.72 111.00
  L 182.73 111.00
  Q 182.21 111.00 182.22 110.48
  L 182.27 108.01
  Q 182.28 107.54 182.74 107.57
  L 185.01 107.70
  Q 185.75 107.74 185.75 106.99
  L 185.76 97.80
  Q 185.76 97.09 185.05 97.11
  L 182.70 97.19
  Q 182.19 97.21 182.20 96.70
  L 182.28 94.66
  A 0.88 0.88 0.0 0 0 181.41 93.75
  L 179.49 93.74
  Q 178.72 93.74 178.74 94.51
  L 178.77 96.43
  A 0.70 0.69 -0.4 0 1 178.07 97.13
  L 176.00 97.12
  Q 175.38 97.12 175.38 97.74
  L 175.36 103.55
  Q 175.36 104.07 174.84 104.09
  L 172.29 104.20
  A 0.41 0.40 88.7 0 1 171.87 103.79
  L 171.88 97.58
  Q 171.88 97.03 171.33 97.06
  L 168.92 97.20
  Q 168.36 97.24 168.36 96.67
  L 168.36 94.45
  Q 168.35 93.76 169.05 93.75
  L 171.17 93.75
  Q 171.85 93.75 171.85 94.42
  L 171.86 96.51
  Q 171.86 97.15 172.50 97.14
  L 174.75 97.11
  Q 175.36 97.10 175.36 96.50
  L 175.37 90.94
  Q 175.37 90.26 176.05 90.26
  L 181.49 90.25
  Q 182.24 90.25 182.24 90.99
  L 182.26 93.26
  A 0.50 0.49 -0.0 0 0 182.76 93.75
  L 185.50 93.75
  Q 185.76 93.76 185.76 93.50
  L 185.75 77.03
  Q 185.75 76.30 185.03 76.33
  L 182.70 76.43
  Q 182.20 76.45 182.21 75.95
  L 182.27 73.53
  Q 182.29 72.78 181.53 72.80
  L 179.32 72.89
  Q 178.73 72.91 178.74 72.32
  L 178.75 69.94
  A 0.57 0.57 0.0 0 1 179.32 69.38
  L 185.05 69.41
  A 0.71 0.70 -90.0 0 0 185.75 68.70
  L 185.76 59.51
  Q 185.76 59.01 185.26 59.01
  L 182.50 59.01
  Q 182.25 59.01 182.25 59.26
  L 182.25 65.50
  Q 182.25 65.88 181.87 65.88
  L 179.19 65.87
  Q 178.75 65.87 178.75 65.44
  L 178.75 63.19
  Q 178.75 62.55 178.11 62.55
  L 175.27 62.53"
/>
<path stroke="#80e3ea" vector-effect="non-scaling-stroke" d="
  M 175.27 62.53
  L 175.45 59.80
  A 0.74 0.74 0.0 0 0 174.71 59.00
  L 169.20 59.00
  Q 168.39 59.00 168.38 59.80
  L 168.34 65.29
  Q 168.33 66.00 169.04 66.00
  L 171.31 66.00
  Q 171.87 66.00 171.87 65.44
  L 171.86 63.18
  Q 171.86 62.60 172.44 62.59
  L 175.27 62.53"
/>
<path stroke="#80e3ea" vector-effect="non-scaling-stroke" d="
  M 185.75 124.94
  L 182.54 125.02
  Q 182.28 125.03 182.27 125.29
  L 182.21 128.05
  Q 182.20 128.39 182.55 128.39
  L 185.12 128.37
  Q 185.72 128.37 185.72 127.77
  L 185.75 124.94"
/>
<path stroke="#80e3ea" vector-effect="non-scaling-stroke" d="
  M 161.50 93.78
  L 164.30 93.69
  Q 164.88 93.67 164.89 93.09
  L 164.91 90.47
  Q 164.92 90.27 164.71 90.26
  L 161.76 90.25
  A 0.26 0.26 0.0 0 0 161.50 90.52
  L 161.50 93.78"
/>
<path stroke="#80e3ea" vector-effect="non-scaling-stroke" d="
  M 213.51 59.35
  A 0.35 0.35 0.0 0 0 213.16 59.00
  L 189.60 59.00
  A 0.35 0.35 0.0 0 0 189.25 59.35
  L 189.25 82.91
  A 0.35 0.35 0.0 0 0 189.60 83.26
  L 213.16 83.26
  A 0.35 0.35 0.0 0 0 213.51 82.91
  L 213.51 59.35"
/>
<path stroke="#80e3ea" vector-effect="non-scaling-stroke" d="
  M 171.8847 80.2569
  A 0.38 0.38 0.0 0 0 171.5040 79.8776
  L 168.7440 79.8824
  A 0.38 0.38 0.0 0 0 168.3647 80.2631
  L 168.3753 86.3831
  A 0.38 0.38 0.0 0 0 168.7560 86.7624
  L 171.5160 86.7576
  A 0.38 0.38 0.0 0 0 171.8953 86.3769
  L 171.8847 80.2569"
/>
<path stroke="#80e3ea" vector-effect="non-scaling-stroke" d="
  M 144.1277 87.0292
  A 0.27 0.27 0.0 0 0 143.8591 86.7578
  L 140.8791 86.7422
  A 0.27 0.27 0.0 0 0 140.6077 87.0108
  L 140.5923 89.9508
  A 0.27 0.27 0.0 0 0 140.8609 90.2222
  L 143.8409 90.2378
  A 0.27 0.27 0.0 0 0 144.1123 89.9692
  L 144.1277 87.0292"
/>
<path stroke="#80e3ea" vector-effect="non-scaling-stroke" d="
  M 192.6725 87.0630
  A 0.29 0.29 0.0 0 0 192.3830 86.7725
  L 189.5230 86.7675
  A 0.29 0.29 0.0 0 0 189.2325 87.0570
  L 189.2275 89.9570
  A 0.29 0.29 0.0 0 0 189.5170 90.2475
  L 192.3770 90.2525
  A 0.29 0.29 0.0 0 0 192.6675 89.9630
  L 192.6725 87.0630"
/>
<path stroke="#80e3ea" vector-effect="non-scaling-stroke" d="
  M 210.00 101.02
  A 0.36 0.36 0.0 0 1 210.36 100.66
  L 213.14 100.64
  A 0.36 0.36 0.0 0 0 213.50 100.28
  L 213.51 94.08
  A 0.36 0.36 0.0 0 0 213.14 93.72
  L 210.36 93.78
  A 0.36 0.36 0.0 0 1 209.99 93.42
  L 210.01 90.57
  A 0.36 0.36 0.0 0 1 210.38 90.21
  L 213.12 90.29
  A 0.36 0.36 0.0 0 0 213.49 89.93
  L 213.52 87.11
  A 0.36 0.36 0.0 0 0 213.16 86.75
  L 206.84 86.74
  A 0.36 0.36 0.0 0 0 206.48 87.11
  L 206.51 89.88
  A 0.36 0.36 0.0 0 1 206.16 90.24
  L 203.36 90.26
  A 0.36 0.36 0.0 0 1 203.00 89.90
  L 202.98 87.09
  A 0.36 0.36 0.0 0 0 202.62 86.73
  L 199.95 86.75
  A 0.36 0.36 0.0 0 0 199.59 87.12
  L 199.67 89.86
  A 0.36 0.36 0.0 0 1 199.31 90.23
  L 196.46 90.27
  A 0.36 0.36 0.0 0 0 196.10 90.64
  L 196.17 93.38
  A 0.36 0.36 0.0 0 0 196.53 93.73
  L 199.28 93.76
  A 0.36 0.36 0.0 0 1 199.64 94.12
  L 199.61 103.78
  A 0.36 0.36 0.0 0 1 199.25 104.14
  L 196.49 104.14
  A 0.36 0.36 0.0 0 0 196.13 104.50
  L 196.12 107.32
  A 0.36 0.36 0.0 0 1 195.75 107.68
  L 192.99 107.59
  A 0.36 0.36 0.0 0 0 192.62 107.95
  L 192.62 114.15
  A 0.36 0.36 0.0 0 0 192.98 114.51
  L 195.82 114.50
  A 0.36 0.36 0.0 0 0 196.18 114.13
  L 196.11 111.46
  A 0.36 0.36 0.0 0 1 196.48 111.09
  L 199.33 111.18
  A 0.36 0.36 0.0 0 1 199.68 111.55
  L 199.56 117.62
  A 0.36 0.36 0.0 0 0 199.92 117.99
  L 206.14 118.02
  A 0.36 0.36 0.0 0 1 206.50 118.38
  L 206.48 121.23
  A 0.36 0.36 0.0 0 0 206.86 121.60
  L 209.65 121.48
  A 0.36 0.36 0.0 0 0 210.00 121.12
  L 209.99 107.96
  A 0.36 0.36 0.0 0 0 209.63 107.60
  L 199.96 107.63
  A 0.36 0.36 0.0 0 1 199.60 107.27
  L 199.60 104.49
  A 0.36 0.36 0.0 0 1 199.97 104.13
  L 202.77 104.16
  A 0.36 0.36 0.0 0 0 203.14 103.80
  L 203.13 94.11
  A 0.36 0.36 0.0 0 1 203.49 93.75
  L 206.14 93.74
  A 0.36 0.36 0.0 0 1 206.50 94.10
  L 206.48 96.90
  A 0.36 0.36 0.0 0 0 206.85 97.26
  L 209.62 97.23
  A 0.36 0.36 0.0 0 1 209.99 97.58
  L 210.02 100.28
  A 0.36 0.36 0.0 0 1 209.66 100.64
  L 206.86 100.61
  A 0.36 0.36 0.0 0 0 206.50 100.96
  L 206.48 103.81
  A 0.36 0.36 0.0 0 0 206.85 104.18
  L 209.63 104.15
  A 0.36 0.36 0.0 0 0 209.98 103.80
  L 210.00 101.02"
/>
<path stroke="#80e3ea" vector-effect="non-scaling-stroke" d="
  M 196.14 94.24
  A 0.48 0.48 0.0 0 0 195.66 93.76
  L 193.06 93.76
  A 0.48 0.48 0.0 0 0 192.58 94.24
  L 192.58 96.68
  A 0.48 0.48 0.0 0 0 193.06 97.16
  L 195.66 97.16
  A 0.48 0.48 0.0 0 0 196.14 96.68
  L 196.14 94.24"
/>
<path stroke="#80e3ea" vector-effect="non-scaling-stroke" d="
  M 196.1375 100.9240
  A 0.31 0.31 0.0 0 0 195.8269 100.6145
  L 189.5470 100.6255
  A 0.31 0.31 0.0 0 0 189.2375 100.9360
  L 189.2425 103.8160
  A 0.31 0.31 0.0 0 0 189.5531 104.1255
  L 195.8330 104.1145
  A 0.31 0.31 0.0 0 0 196.1425 103.8040
  L 196.1375 100.9240"
/>
<path stroke="#80e3ea" vector-effect="non-scaling-stroke" d="
  M 164.88 108.07
  A 0.45 0.45 0.0 0 0 164.43 107.62
  L 141.07 107.62
  A 0.45 0.45 0.0 0 0 140.62 108.07
  L 140.62 131.43
  A 0.45 0.45 0.0 0 0 141.07 131.88
  L 164.43 131.88
  A 0.45 0.45 0.0 0 0 164.88 131.43
  L 164.88 108.07"
/>
<path stroke="#80e3ea" vector-effect="non-scaling-stroke" d="
  M 192.6507 118.4469
  A 0.41 0.41 0.0 0 0 192.2472 118.0305
  L 189.6675 117.9900
  A 0.41 0.41 0.0 0 0 189.2511 118.3935
  L 189.2093 121.0531
  A 0.41 0.41 0.0 0 0 189.6128 121.4695
  L 192.1925 121.5100
  A 0.41 0.41 0.0 0 0 192.6089 121.1065
  L 192.6507 118.4469"
/>
<path stroke="#80e3ea" vector-effect="non-scaling-stroke" d="
  M 213.48 125.31
  A 0.35 0.35 0.0 0 0 213.13 124.96
  L 210.37 124.96
  A 0.35 0.35 0.0 0 0 210.02 125.31
  L 210.02 128.05
  A 0.35 0.35 0.0 0 0 210.37 128.40
  L 213.13 128.40
  A 0.35 0.35 0.0 0 0 213.48 128.05
  L 213.48 125.31"
/>
<path stroke="#80e3ea" vector-effect="non-scaling-stroke" d="
  M 161.37 62.85
  A 0.34 0.34 0.0 0 0 161.03 62.51
  L 144.47 62.51
  A 0.34 0.34 0.0 0 0 144.13 62.85
  L 144.13 79.41
  A 0.34 0.34 0.0 0 0 144.47 79.75
  L 161.03 79.75
  A 0.34 0.34 0.0 0 0 161.37 79.41
  L 161.37 62.85"
/>
<path stroke="#80e3ea" vector-effect="non-scaling-stroke" d="
  M 175.40 107.27
  A 0.43 0.43 0.0 0 1 174.94 107.71
  L 172.33 107.56
  A 0.43 0.43 0.0 0 0 171.88 107.97
  L 171.81 110.57
  A 0.43 0.43 0.0 0 0 172.24 111.01
  L 178.32 110.99
  A 0.43 0.43 0.0 0 0 178.75 110.56
  L 178.75 104.56
  A 0.43 0.43 0.0 0 0 178.31 104.13
  L 175.74 104.18
  A 0.43 0.43 0.0 0 0 175.32 104.62
  L 175.40 107.27"
/>
<path stroke="#80e3ea" vector-effect="non-scaling-stroke" d="
  M 182.2525 118.3391
  A 0.33 0.33 0.0 0 0 181.9230 118.0085
  L 172.2031 117.9915
  A 0.33 0.33 0.0 0 0 171.8725 118.3209
  L 171.8675 121.1609
  A 0.33 0.33 0.0 0 0 172.1970 121.4915
  L 181.9169 121.5085
  A 0.33 0.33 0.0 0 0 182.2475 121.1791
  L 182.2525 118.3391"
/>
<path stroke="#80e3ea" vector-effect="non-scaling-stroke" d="
  M 210.00 62.78
  A 0.27 0.27 0.0 0 0 209.73 62.51
  L 193.03 62.51
  A 0.27 0.27 0.0 0 0 192.76 62.78
  L 192.76 79.48
  A 0.27 0.27 0.0 0 0 193.03 79.75
  L 209.73 79.75
  A 0.27 0.27 0.0 0 0 210.00 79.48
  L 210.00 62.78"
/>
<path stroke="#80e3ea" vector-effect="non-scaling-stroke" d="
  M 158.0084 66.4092
  A 0.40 0.40 0.0 0 0 157.6091 66.0085
  L 147.9091 65.9915
  A 0.40 0.40 0.0 0 0 147.5084 66.3908
  L 147.4916 75.9908
  A 0.40 0.40 0.0 0 0 147.8909 76.3915
  L 157.5909 76.4085
  A 0.40 0.40 0.0 0 0 157.9916 76.0092
  L 158.0084 66.4092"
/>
<path stroke="#80e3ea" vector-effect="non-scaling-stroke" d="
  M 206.5668 66.3983
  A 0.37 0.37 0.0 0 0 206.1981 66.0270
  L 196.4981 65.9931
  A 0.37 0.37 0.0 0 0 196.1269 66.3618
  L 196.0932 76.0017
  A 0.37 0.37 0.0 0 0 196.4619 76.3730
  L 206.1619 76.4069
  A 0.37 0.37 0.0 0 0 206.5331 76.0382
  L 206.5668 66.3983"
/>
<path stroke="#80e3ea" vector-effect="non-scaling-stroke" d="
  M 161.3844 111.5351
  A 0.39 0.39 0.0 0 0 160.9950 111.1444
  L 144.5351 111.1156
  A 0.39 0.39 0.0 0 0 144.1444 111.5050
  L 144.1156 127.9649
  A 0.39 0.39 0.0 0 0 144.5050 128.3556
  L 160.9649 128.3844
  A 0.39 0.39 0.0 0 0 161.3556 127.9950
  L 161.3844 111.5351"
/>
<path stroke="#80e3ea" vector-effect="non-scaling-stroke" d="
  M 157.9917 114.9708
  A 0.49 0.49 0.0 0 0 157.5008 114.4817
  L 147.9808 114.4983
  A 0.49 0.49 0.0 0 0 147.4917 114.9892
  L 147.5083 124.5092
  A 0.49 0.49 0.0 0 0 147.9992 124.9983
  L 157.5192 124.9817
  A 0.49 0.49 0.0 0 0 158.0083 124.4908
  L 157.9917 114.9708"
/>
</g>
<path fill="#ffffff" d="
  M 0.00 0.00
  L 267.00 0.00
  L 267.00 246.00
  L 0.00 246.00
  L 0.00 0.00
  Z
  M 126.54 144.50
  Q 122.71 156.29 114.83 165.51
  C 113.21 167.41 112.86 169.79 114.97 171.57
  Q 116.16 172.56 117.76 172.53
  Q 139.47 172.04 156.67 161.90
  A 1.04 1.03 36.7 0 1 157.46 161.79
  Q 188.18 169.56 214.00 154.76
  Q 235.21 142.59 244.47 120.06
  C 258.59 85.74 242.00 47.12 209.05 31.64
  C 178.58 17.33 142.59 25.01 121.16 51.05
  C 98.32 78.79 100.91 118.33 126.33 143.63
  A 0.86 0.86 0.0 0 1 126.54 144.50
  Z
  M 134.05 208.44
  A 2.50 2.27 36.4 0 1 133.56 208.49
  L 69.75 208.50
  A 4.25 4.24 -90.0 0 1 65.51 204.25
  L 65.51 84.71
  A 4.19 4.18 -90.0 0 1 69.69 80.52
  Q 82.75 80.50 96.98 80.51
  C 102.99 80.51 102.83 72.43 96.91 72.49
  Q 85.12 72.62 72.84 72.40
  Q 66.98 72.30 63.82 74.01
  Q 57.48 77.43 57.49 85.62
  Q 57.54 143.16 57.49 204.11
  C 57.49 208.84 60.07 213.31 64.36 215.28
  Q 67.15 216.57 72.08 216.55
  Q 101.10 216.41 131.80 216.55
  C 137.31 216.58 141.59 214.77 144.26 209.75
  Q 145.68 207.07 145.57 200.51
  Q 145.40 190.26 145.54 181.34
  Q 145.60 177.22 141.59 176.49
  Q 141.50 176.47 141.41 176.49
  Q 137.49 177.09 137.49 181.04
  Q 137.49 192.52 137.51 203.97
  C 137.51 206.19 136.31 207.91 134.05 208.44
  Z
  M 109.42 200.31
  A 3.77 3.77 0.0 0 0 105.65 196.54
  L 97.35 196.54
  A 3.77 3.77 0.0 0 0 93.58 200.31
  L 93.58 200.69
  A 3.77 3.77 0.0 0 0 97.35 204.46
  L 105.65 204.46
  A 3.77 3.77 0.0 0 0 109.42 200.69
  L 109.42 200.31
  Z"
/>
<path fill="#00c6d4" d="
  M 126.54 144.50
  A 0.86 0.86 0.0 0 0 126.33 143.63
  C 100.91 118.33 98.32 78.79 121.16 51.05
  C 142.59 25.01 178.58 17.33 209.05 31.64
  C 242.00 47.12 258.59 85.74 244.47 120.06
  Q 235.21 142.59 214.00 154.76
  Q 188.18 169.56 157.46 161.79
  A 1.04 1.03 36.7 0 0 156.67 161.90
  Q 139.47 172.04 117.76 172.53
  Q 116.16 172.56 114.97 171.57
  C 112.86 169.79 113.21 167.41 114.83 165.51
  Q 122.71 156.29 126.54 144.50
  Z
  M 154.78 153.70
  Q 155.95 152.96 157.25 153.34
  Q 185.63 161.72 210.11 147.76
  C 248.12 126.09 252.36 74.19 218.21 46.73
  C 201.99 33.68 180.21 29.38 160.36 34.80
  C 113.44 47.63 96.89 105.09 133.40 139.29
  C 134.61 140.42 135.66 141.92 135.17 143.67
  Q 132.16 154.45 126.28 163.53
  A 0.21 0.21 0.0 0 0 126.48 163.85
  Q 141.82 161.93 154.78 153.70
  Z"
/>
<path fill="#ffffff" d="
  M 154.78 153.70
  Q 141.82 161.93 126.48 163.85
  A 0.21 0.21 0.0 0 1 126.28 163.53
  Q 132.16 154.45 135.17 143.67
  C 135.66 141.92 134.61 140.42 133.40 139.29
  C 96.89 105.09 113.44 47.63 160.36 34.80
  C 180.21 29.38 201.99 33.68 218.21 46.73
  C 252.36 74.19 248.12 126.09 210.11 147.76
  Q 185.63 161.72 157.25 153.34
  Q 155.95 152.96 154.78 153.70
  Z
  M 164.88 59.35
  A 0.35 0.35 0.0 0 0 164.53 59.00
  L 140.97 59.00
  A 0.35 0.35 0.0 0 0 140.62 59.35
  L 140.62 82.91
  A 0.35 0.35 0.0 0 0 140.97 83.26
  L 164.53 83.26
  A 0.35 0.35 0.0 0 0 164.88 82.91
  L 164.88 59.35
  Z
  M 175.27 62.53
  L 175.37 65.39
  Q 175.39 66.01 176.01 66.00
  L 178.49 65.99
  Q 178.75 65.98 178.75 66.24
  L 178.72 69.04
  Q 178.72 69.37 178.38 69.37
  L 168.85 69.36
  A 0.44 0.43 1.4 0 0 168.41 69.77
  L 168.30 72.33
  A 0.52 0.52 0.0 0 0 168.82 72.87
  L 174.69 72.87
  Q 175.26 72.87 175.25 73.44
  L 175.25 75.73
  Q 175.25 76.47 174.51 76.43
  L 172.51 76.33
  Q 171.82 76.30 171.84 76.99
  L 171.89 79.07
  A 0.83 0.83 0.0 0 0 172.75 79.88
  L 174.76 79.82
  A 0.65 0.65 0.0 0 1 175.43 80.51
  L 175.30 82.90
  Q 175.28 83.27 175.65 83.26
  L 178.25 83.23
  Q 178.73 83.23 178.73 82.75
  L 178.76 80.28
  Q 178.77 79.84 179.22 79.84
  L 181.66 79.87
  A 0.61 0.60 0.5 0 1 182.26 80.47
  L 182.25 82.63
  Q 182.24 83.25 181.62 83.25
  L 179.24 83.24
  Q 178.72 83.24 178.72 83.76
  L 178.77 86.23
  Q 178.78 86.75 178.27 86.75
  L 175.78 86.75
  Q 175.32 86.75 175.34 87.22
  L 175.42 89.53
  Q 175.44 90.25 174.72 90.25
  L 169.01 90.25
  Q 168.27 90.25 168.30 89.51
  L 168.40 87.44
  Q 168.43 86.76 167.75 86.76
  L 158.63 86.75
  Q 158.01 86.74 158.01 87.37
  L 157.99 89.76
  Q 157.99 90.26 157.49 90.26
  L 155.00 90.24
  A 0.50 0.50 0.0 0 0 154.50 90.75
  L 154.50 93.49
  Q 154.50 93.73 154.26 93.73
  L 151.38 93.75
  Q 151.01 93.75 151.01 93.38
  L 151.00 90.90
  Q 151.00 90.30 151.60 90.28
  L 153.73 90.20
  Q 154.50 90.17 154.50 89.40
  L 154.51 87.26
  Q 154.51 86.75 154.01 86.75
  L 148.01 86.75
  Q 147.51 86.75 147.51 87.24
  L 147.49 89.51
  Q 147.49 90.26 146.74 90.26
  L 144.73 90.23
  Q 144.19 90.23 144.18 90.78
  L 144.18 100.79
  L 141.12 100.55
  Q 140.66 100.51 140.65 100.98
  L 140.62 103.56
  A 0.58 0.58 0.0 0 0 141.19 104.14
  L 143.44 104.18
  Q 144.04 104.19 144.06 103.59
  L 144.18 100.79
  L 147.08 100.77
  Q 147.64 100.76 147.63 100.21
  L 147.61 97.79
  A 0.61 0.60 89.5 0 1 148.21 97.17
  L 157.20 97.12
  Q 157.64 97.12 157.84 96.73
  Q 158.24 95.97 157.94 95.10
  A 1.03 1.03 0.0 0 1 158.93 93.73
  L 161.50 93.78
  L 161.45 96.56
  Q 161.44 97.13 160.87 97.13
  L 158.69 97.13
  Q 157.99 97.13 158.00 97.83
  L 158.03 100.04
  Q 158.03 100.61 157.46 100.61
  L 147.97 100.65
  Q 147.58 100.65 147.59 101.04
  L 147.62 103.68
  Q 147.63 104.11 148.06 104.11
  L 157.29 104.15
  Q 157.99 104.15 158.00 103.46
  L 158.01 101.44
  A 0.80 0.80 0.0 0 1 158.82 100.64
  L 160.91 100.65
  Q 161.47 100.65 161.48 100.09
  L 161.51 97.73
  Q 161.51 97.16 162.08 97.15
  L 164.48 97.11
  Q 164.86 97.11 164.86 97.49
  L 164.91 100.24
  Q 164.92 100.64 164.51 100.64
  L 161.80 100.63
  Q 161.49 100.63 161.49 100.95
  L 161.49 103.82
  Q 161.49 104.15 161.82 104.15
  L 167.74 104.13
  Q 168.36 104.13 168.36 104.74
  L 168.37 113.82
  Q 168.37 114.52 169.07 114.51
  L 171.48 114.48
  Q 171.73 114.48 171.74 114.73
  L 171.74 117.50
  Q 171.74 117.99 171.25 117.99
  L 169.05 118.01
  Q 168.37 118.02 168.37 118.70
  L 168.35 124.29
  Q 168.34 124.98 169.04 124.99
  L 171.25 125.01
  Q 171.98 125.02 171.93 125.75
  L 171.77 127.98
  Q 171.74 128.44 171.27 128.43
  L 169.04 128.34
  Q 168.41 128.32 168.39 128.96
  L 168.33 131.19
  A 0.62 0.62 0.0 0 0 168.95 131.83
  L 174.63 131.88
  Q 175.39 131.88 175.38 131.12
  L 175.36 128.77
  Q 175.36 128.41 175.73 128.40
  L 178.30 128.35
  A 0.45 0.44 0.6 0 1 178.75 128.80
  L 178.73 131.28
  Q 178.73 131.83 179.28 131.84
  L 192.02 131.89
  A 0.64 0.64 0.0 0 0 192.66 131.23
  L 192.59 128.95
  A 0.61 0.60 4.6 0 1 193.31 128.34
  Q 194.31 128.52 195.38 128.34
  Q 196.16 128.21 196.14 128.99
  L 196.09 131.22
  A 0.64 0.63 -89.6 0 0 196.72 131.87
  L 206.07 131.88
  A 0.45 0.44 -90.0 0 0 206.51 131.43
  L 206.50 128.80
  Q 206.50 128.35 206.05 128.35
  L 199.98 128.40
  A 0.41 0.41 0.0 0 1 199.57 127.98
  L 199.60 125.44
  Q 199.61 124.99 200.06 124.99
  L 206.01 125.00
  Q 206.53 125.00 206.52 124.49
  L 206.48 122.12
  Q 206.48 121.52 205.87 121.51
  L 200.35 121.49
  Q 199.68 121.49 199.65 122.15
  L 199.55 124.21
  Q 199.51 124.94 198.79 124.91
  L 196.68 124.84
  Q 196.03 124.82 196.06 124.18
  L 196.15 122.21
  Q 196.18 121.49 195.46 121.49
  L 193.25 121.51
  Q 192.52 121.52 192.57 122.25
  L 192.69 124.23
  Q 192.73 124.73 192.22 124.75
  L 185.75 124.94
  L 185.78 115.00
  Q 185.78 114.49 186.29 114.50
  L 188.67 114.51
  Q 189.11 114.52 189.12 114.08
  L 189.18 111.47
  Q 189.20 111.00 188.72 111.00
  L 182.73 111.00
  Q 182.21 111.00 182.22 110.48
  L 182.27 108.01
  Q 182.28 107.54 182.74 107.57
  L 185.01 107.70
  Q 185.75 107.74 185.75 106.99
  L 185.76 97.80
  Q 185.76 97.09 185.05 97.11
  L 182.70 97.19
  Q 182.19 97.21 182.20 96.70
  L 182.28 94.66
  A 0.88 0.88 0.0 0 0 181.41 93.75
  L 179.49 93.74
  Q 178.72 93.74 178.74 94.51
  L 178.77 96.43
  A 0.70 0.69 -0.4 0 1 178.07 97.13
  L 176.00 97.12
  Q 175.38 97.12 175.38 97.74
  L 175.36 103.55
  Q 175.36 104.07 174.84 104.09
  L 172.29 104.20
  A 0.41 0.40 88.7 0 1 171.87 103.79
  L 171.88 97.58
  Q 171.88 97.03 171.33 97.06
  L 168.92 97.20
  Q 168.36 97.24 168.36 96.67
  L 168.36 94.45
  Q 168.35 93.76 169.05 93.75
  L 171.17 93.75
  Q 171.85 93.75 171.85 94.42
  L 171.86 96.51
  Q 171.86 97.15 172.50 97.14
  L 174.75 97.11
  Q 175.36 97.10 175.36 96.50
  L 175.37 90.94
  Q 175.37 90.26 176.05 90.26
  L 181.49 90.25
  Q 182.24 90.25 182.24 90.99
  L 182.26 93.26
  A 0.50 0.49 -0.0 0 0 182.76 93.75
  L 185.50 93.75
  Q 185.76 93.76 185.76 93.50
  L 185.75 77.03
  Q 185.75 76.30 185.03 76.33
  L 182.70 76.43
  Q 182.20 76.45 182.21 75.95
  L 182.27 73.53
  Q 182.29 72.78 181.53 72.80
  L 179.32 72.89
  Q 178.73 72.91 178.74 72.32
  L 178.75 69.94
  A 0.57 0.57 0.0 0 1 179.32 69.38
  L 185.05 69.41
  A 0.71 0.70 -90.0 0 0 185.75 68.70
  L 185.76 59.51
  Q 185.76 59.01 185.26 59.01
  L 182.50 59.01
  Q 182.25 59.01 182.25 59.26
  L 182.25 65.50
  Q 182.25 65.88 181.87 65.88
  L 179.19 65.87
  Q 178.75 65.87 178.75 65.44
  L 178.75 63.19
  Q 178.75 62.55 178.11 62.55
  L 175.27 62.53
  L 175.45 59.80
  A 0.74 0.74 0.0 0 0 174.71 59.00
  L 169.20 59.00
  Q 168.39 59.00 168.38 59.80
  L 168.34 65.29
  Q 168.33 66.00 169.04 66.00
  L 171.31 66.00
  Q 171.87 66.00 171.87 65.44
  L 171.86 63.18
  Q 171.86 62.60 172.44 62.59
  L 175.27 62.53
  Z
  M 213.51 59.35
  A 0.35 0.35 0.0 0 0 213.16 59.00
  L 189.60 59.00
  A 0.35 0.35 0.0 0 0 189.25 59.35
  L 189.25 82.91
  A 0.35 0.35 0.0 0 0 189.60 83.26
  L 213.16 83.26
  A 0.35 0.35 0.0 0 0 213.51 82.91
  L 213.51 59.35
  Z
  M 171.8847 80.2569
  A 0.38 0.38 0.0 0 0 171.5040 79.8776
  L 168.7440 79.8824
  A 0.38 0.38 0.0 0 0 168.3647 80.2631
  L 168.3753 86.3831
  A 0.38 0.38 0.0 0 0 168.7560 86.7624
  L 171.5160 86.7576
  A 0.38 0.38 0.0 0 0 171.8953 86.3769
  L 171.8847 80.2569
  Z
  M 144.1277 87.0292
  A 0.27 0.27 0.0 0 0 143.8591 86.7578
  L 140.8791 86.7422
  A 0.27 0.27 0.0 0 0 140.6077 87.0108
  L 140.5923 89.9508
  A 0.27 0.27 0.0 0 0 140.8609 90.2222
  L 143.8409 90.2378
  A 0.27 0.27 0.0 0 0 144.1123 89.9692
  L 144.1277 87.0292
  Z
  M 192.6725 87.0630
  A 0.29 0.29 0.0 0 0 192.3830 86.7725
  L 189.5230 86.7675
  A 0.29 0.29 0.0 0 0 189.2325 87.0570
  L 189.2275 89.9570
  A 0.29 0.29 0.0 0 0 189.5170 90.2475
  L 192.3770 90.2525
  A 0.29 0.29 0.0 0 0 192.6675 89.9630
  L 192.6725 87.0630
  Z
  M 210.00 101.02
  A 0.36 0.36 0.0 0 1 210.36 100.66
  L 213.14 100.64
  A 0.36 0.36 0.0 0 0 213.50 100.28
  L 213.51 94.08
  A 0.36 0.36 0.0 0 0 213.14 93.72
  L 210.36 93.78
  A 0.36 0.36 0.0 0 1 209.99 93.42
  L 210.01 90.57
  A 0.36 0.36 0.0 0 1 210.38 90.21
  L 213.12 90.29
  A 0.36 0.36 0.0 0 0 213.49 89.93
  L 213.52 87.11
  A 0.36 0.36 0.0 0 0 213.16 86.75
  L 206.84 86.74
  A 0.36 0.36 0.0 0 0 206.48 87.11
  L 206.51 89.88
  A 0.36 0.36 0.0 0 1 206.16 90.24
  L 203.36 90.26
  A 0.36 0.36 0.0 0 1 203.00 89.90
  L 202.98 87.09
  A 0.36 0.36 0.0 0 0 202.62 86.73
  L 199.95 86.75
  A 0.36 0.36 0.0 0 0 199.59 87.12
  L 199.67 89.86
  A 0.36 0.36 0.0 0 1 199.31 90.23
  L 196.46 90.27
  A 0.36 0.36 0.0 0 0 196.10 90.64
  L 196.17 93.38
  A 0.36 0.36 0.0 0 0 196.53 93.73
  L 199.28 93.76
  A 0.36 0.36 0.0 0 1 199.64 94.12
  L 199.61 103.78
  A 0.36 0.36 0.0 0 1 199.25 104.14
  L 196.49 104.14
  A 0.36 0.36 0.0 0 0 196.13 104.50
  L 196.12 107.32
  A 0.36 0.36 0.0 0 1 195.75 107.68
  L 192.99 107.59
  A 0.36 0.36 0.0 0 0 192.62 107.95
  L 192.62 114.15
  A 0.36 0.36 0.0 0 0 192.98 114.51
  L 195.82 114.50
  A 0.36 0.36 0.0 0 0 196.18 114.13
  L 196.11 111.46
  A 0.36 0.36 0.0 0 1 196.48 111.09
  L 199.33 111.18
  A 0.36 0.36 0.0 0 1 199.68 111.55
  L 199.56 117.62
  A 0.36 0.36 0.0 0 0 199.92 117.99
  L 206.14 118.02
  A 0.36 0.36 0.0 0 1 206.50 118.38
  L 206.48 121.23
  A 0.36 0.36 0.0 0 0 206.86 121.60
  L 209.65 121.48
  A 0.36 0.36 0.0 0 0 210.00 121.12
  L 209.99 107.96
  A 0.36 0.36 0.0 0 0 209.63 107.60
  L 199.96 107.63
  A 0.36 0.36 0.0 0 1 199.60 107.27
  L 199.60 104.49
  A 0.36 0.36 0.0 0 1 199.97 104.13
  L 202.77 104.16
  A 0.36 0.36 0.0 0 0 203.14 103.80
  L 203.13 94.11
  A 0.36 0.36 0.0 0 1 203.49 93.75
  L 206.14 93.74
  A 0.36 0.36 0.0 0 1 206.50 94.10
  L 206.48 96.90
  A 0.36 0.36 0.0 0 0 206.85 97.26
  L 209.62 97.23
  A 0.36 0.36 0.0 0 1 209.99 97.58
  L 210.02 100.28
  A 0.36 0.36 0.0 0 1 209.66 100.64
  L 206.86 100.61
  A 0.36 0.36 0.0 0 0 206.50 100.96
  L 206.48 103.81
  A 0.36 0.36 0.0 0 0 206.85 104.18
  L 209.63 104.15
  A 0.36 0.36 0.0 0 0 209.98 103.80
  L 210.00 101.02
  Z
  M 196.14 94.24
  A 0.48 0.48 0.0 0 0 195.66 93.76
  L 193.06 93.76
  A 0.48 0.48 0.0 0 0 192.58 94.24
  L 192.58 96.68
  A 0.48 0.48 0.0 0 0 193.06 97.16
  L 195.66 97.16
  A 0.48 0.48 0.0 0 0 196.14 96.68
  L 196.14 94.24
  Z
  M 196.1375 100.9240
  A 0.31 0.31 0.0 0 0 195.8269 100.6145
  L 189.5470 100.6255
  A 0.31 0.31 0.0 0 0 189.2375 100.9360
  L 189.2425 103.8160
  A 0.31 0.31 0.0 0 0 189.5531 104.1255
  L 195.8330 104.1145
  A 0.31 0.31 0.0 0 0 196.1425 103.8040
  L 196.1375 100.9240
  Z
  M 164.88 108.07
  A 0.45 0.45 0.0 0 0 164.43 107.62
  L 141.07 107.62
  A 0.45 0.45 0.0 0 0 140.62 108.07
  L 140.62 131.43
  A 0.45 0.45 0.0 0 0 141.07 131.88
  L 164.43 131.88
  A 0.45 0.45 0.0 0 0 164.88 131.43
  L 164.88 108.07
  Z
  M 192.6507 118.4469
  A 0.41 0.41 0.0 0 0 192.2472 118.0305
  L 189.6675 117.9900
  A 0.41 0.41 0.0 0 0 189.2511 118.3935
  L 189.2093 121.0531
  A 0.41 0.41 0.0 0 0 189.6128 121.4695
  L 192.1925 121.5100
  A 0.41 0.41 0.0 0 0 192.6089 121.1065
  L 192.6507 118.4469
  Z
  M 213.48 125.31
  A 0.35 0.35 0.0 0 0 213.13 124.96
  L 210.37 124.96
  A 0.35 0.35 0.0 0 0 210.02 125.31
  L 210.02 128.05
  A 0.35 0.35 0.0 0 0 210.37 128.40
  L 213.13 128.40
  A 0.35 0.35 0.0 0 0 213.48 128.05
  L 213.48 125.31
  Z"
/>
<path fill="#00c6d4" d="
  M 164.88 82.91
  A 0.35 0.35 0.0 0 1 164.53 83.26
  L 140.97 83.26
  A 0.35 0.35 0.0 0 1 140.62 82.91
  L 140.62 59.35
  A 0.35 0.35 0.0 0 1 140.97 59.00
  L 164.53 59.00
  A 0.35 0.35 0.0 0 1 164.88 59.35
  L 164.88 82.91
  Z
  M 161.37 62.85
  A 0.34 0.34 0.0 0 0 161.03 62.51
  L 144.47 62.51
  A 0.34 0.34 0.0 0 0 144.13 62.85
  L 144.13 79.41
  A 0.34 0.34 0.0 0 0 144.47 79.75
  L 161.03 79.75
  A 0.34 0.34 0.0 0 0 161.37 79.41
  L 161.37 62.85
  Z"
/>
<path fill="#00c6d4" d="
  M 175.27 62.53
  L 172.44 62.59
  Q 171.86 62.60 171.86 63.18
  L 171.87 65.44
  Q 171.87 66.00 171.31 66.00
  L 169.04 66.00
  Q 168.33 66.00 168.34 65.29
  L 168.38 59.80
  Q 168.39 59.00 169.20 59.00
  L 174.71 59.00
  A 0.74 0.74 0.0 0 1 175.45 59.80
  L 175.27 62.53
  Z"
/>
<path fill="#00c6d4" d="
  M 185.75 124.94
  L 182.54 125.02
  Q 182.28 125.03 182.27 125.29
  L 182.21 128.05
  Q 182.20 128.39 182.55 128.39
  L 185.12 128.37
  Q 185.72 128.37 185.72 127.77
  L 185.75 124.94
  L 192.22 124.75
  Q 192.73 124.73 192.69 124.23
  L 192.57 122.25
  Q 192.52 121.52 193.25 121.51
  L 195.46 121.49
  Q 196.18 121.49 196.15 122.21
  L 196.06 124.18
  Q 196.03 124.82 196.68 124.84
  L 198.79 124.91
  Q 199.51 124.94 199.55 124.21
  L 199.65 122.15
  Q 199.68 121.49 200.35 121.49
  L 205.87 121.51
  Q 206.48 121.52 206.48 122.12
  L 206.52 124.49
  Q 206.53 125.00 206.01 125.00
  L 200.06 124.99
  Q 199.61 124.99 199.60 125.44
  L 199.57 127.98
  A 0.41 0.41 0.0 0 0 199.98 128.40
  L 206.05 128.35
  Q 206.50 128.35 206.50 128.80
  L 206.51 131.43
  A 0.45 0.44 -90.0 0 1 206.07 131.88
  L 196.72 131.87
  A 0.64 0.63 -89.6 0 1 196.09 131.22
  L 196.14 128.99
  Q 196.16 128.21 195.38 128.34
  Q 194.31 128.52 193.31 128.34
  A 0.61 0.60 4.6 0 0 192.59 128.95
  L 192.66 131.23
  A 0.64 0.64 0.0 0 1 192.02 131.89
  L 179.28 131.84
  Q 178.73 131.83 178.73 131.28
  L 178.75 128.80
  A 0.45 0.44 0.6 0 0 178.30 128.35
  L 175.73 128.40
  Q 175.36 128.41 175.36 128.77
  L 175.38 131.12
  Q 175.39 131.88 174.63 131.88
  L 168.95 131.83
  A 0.62 0.62 0.0 0 1 168.33 131.19
  L 168.39 128.96
  Q 168.41 128.32 169.04 128.34
  L 171.27 128.43
  Q 171.74 128.44 171.77 127.98
  L 171.93 125.75
  Q 171.98 125.02 171.25 125.01
  L 169.04 124.99
  Q 168.34 124.98 168.35 124.29
  L 168.37 118.70
  Q 168.37 118.02 169.05 118.01
  L 171.25 117.99
  Q 171.74 117.99 171.74 117.50
  L 171.74 114.73
  Q 171.73 114.48 171.48 114.48
  L 169.07 114.51
  Q 168.37 114.52 168.37 113.82
  L 168.36 104.74
  Q 168.36 104.13 167.74 104.13
  L 161.82 104.15
  Q 161.49 104.15 161.49 103.82
  L 161.49 100.95
  Q 161.49 100.63 161.80 100.63
  L 164.51 100.64
  Q 164.92 100.64 164.91 100.24
  L 164.86 97.49
  Q 164.86 97.11 164.48 97.11
  L 162.08 97.15
  Q 161.51 97.16 161.51 97.73
  L 161.48 100.09
  Q 161.47 100.65 160.91 100.65
  L 158.82 100.64
  A 0.80 0.80 0.0 0 0 158.01 101.44
  L 158.00 103.46
  Q 157.99 104.15 157.29 104.15
  L 148.06 104.11
  Q 147.63 104.11 147.62 103.68
  L 147.59 101.04
  Q 147.58 100.65 147.97 100.65
  L 157.46 100.61
  Q 158.03 100.61 158.03 100.04
  L 158.00 97.83
  Q 157.99 97.13 158.69 97.13
  L 160.87 97.13
  Q 161.44 97.13 161.45 96.56
  L 161.50 93.78
  L 164.30 93.69
  Q 164.88 93.67 164.89 93.09
  L 164.91 90.47
  Q 164.92 90.27 164.71 90.26
  L 161.76 90.25
  A 0.26 0.26 0.0 0 0 161.50 90.52
  L 161.50 93.78
  L 158.93 93.73
  A 1.03 1.03 0.0 0 0 157.94 95.10
  Q 158.24 95.97 157.84 96.73
  Q 157.64 97.12 157.20 97.12
  L 148.21 97.17
  A 0.61 0.60 89.5 0 0 147.61 97.79
  L 147.63 100.21
  Q 147.64 100.76 147.08 100.77
  L 144.18 100.79
  L 144.18 90.78
  Q 144.19 90.23 144.73 90.23
  L 146.74 90.26
  Q 147.49 90.26 147.49 89.51
  L 147.51 87.24
  Q 147.51 86.75 148.01 86.75
  L 154.01 86.75
  Q 154.51 86.75 154.51 87.26
  L 154.50 89.40
  Q 154.50 90.17 153.73 90.20
  L 151.60 90.28
  Q 151.00 90.30 151.00 90.90
  L 151.01 93.38
  Q 151.01 93.75 151.38 93.75
  L 154.26 93.73
  Q 154.50 93.73 154.50 93.49
  L 154.50 90.75
  A 0.50 0.50 0.0 0 1 155.00 90.24
  L 157.49 90.26
  Q 157.99 90.26 157.99 89.76
  L 158.01 87.37
  Q 158.01 86.74 158.63 86.75
  L 167.75 86.76
  Q 168.43 86.76 168.40 87.44
  L 168.30 89.51
  Q 168.27 90.25 169.01 90.25
  L 174.72 90.25
  Q 175.44 90.25 175.42 89.53
  L 175.34 87.22
  Q 175.32 86.75 175.78 86.75
  L 178.27 86.75
  Q 178.78 86.75 178.77 86.23
  L 178.72 83.76
  Q 178.72 83.24 179.24 83.24
  L 181.62 83.25
  Q 182.24 83.25 182.25 82.63
  L 182.26 80.47
  A 0.61 0.60 0.5 0 0 181.66 79.87
  L 179.22 79.84
  Q 178.77 79.84 178.76 80.28
  L 178.73 82.75
  Q 178.73 83.23 178.25 83.23
  L 175.65 83.26
  Q 175.28 83.27 175.30 82.90
  L 175.43 80.51
  A 0.65 0.65 0.0 0 0 174.76 79.82
  L 172.75 79.88
  A 0.83 0.83 0.0 0 1 171.89 79.07
  L 171.84 76.99
  Q 171.82 76.30 172.51 76.33
  L 174.51 76.43
  Q 175.25 76.47 175.25 75.73
  L 175.25 73.44
  Q 175.26 72.87 174.69 72.87
  L 168.82 72.87
  A 0.52 0.52 0.0 0 1 168.30 72.33
  L 168.41 69.77
  A 0.44 0.43 1.4 0 1 168.85 69.36
  L 178.38 69.37
  Q 178.72 69.37 178.72 69.04
  L 178.75 66.24
  Q 178.75 65.98 178.49 65.99
  L 176.01 66.00
  Q 175.39 66.01 175.37 65.39
  L 175.27 62.53
  L 178.11 62.55
  Q 178.75 62.55 178.75 63.19
  L 178.75 65.44
  Q 178.75 65.87 179.19 65.87
  L 181.87 65.88
  Q 182.25 65.88 182.25 65.50
  L 182.25 59.26
  Q 182.25 59.01 182.50 59.01
  L 185.26 59.01
  Q 185.76 59.01 185.76 59.51
  L 185.75 68.70
  A 0.71 0.70 90.0 0 1 185.05 69.41
  L 179.32 69.38
  A 0.57 0.57 0.0 0 0 178.75 69.94
  L 178.74 72.32
  Q 178.73 72.91 179.32 72.89
  L 181.53 72.80
  Q 182.29 72.78 182.27 73.53
  L 182.21 75.95
  Q 182.20 76.45 182.70 76.43
  L 185.03 76.33
  Q 185.75 76.30 185.75 77.03
  L 185.76 93.50
  Q 185.76 93.76 185.50 93.75
  L 182.76 93.75
  A 0.50 0.49 -0.0 0 1 182.26 93.26
  L 182.24 90.99
  Q 182.24 90.25 181.49 90.25
  L 176.05 90.26
  Q 175.37 90.26 175.37 90.94
  L 175.36 96.50
  Q 175.36 97.10 174.75 97.11
  L 172.50 97.14
  Q 171.86 97.15 171.86 96.51
  L 171.85 94.42
  Q 171.85 93.75 171.17 93.75
  L 169.05 93.75
  Q 168.35 93.76 168.36 94.45
  L 168.36 96.67
  Q 168.36 97.24 168.92 97.20
  L 171.33 97.06
  Q 171.88 97.03 171.88 97.58
  L 171.87 103.79
  A 0.41 0.40 88.7 0 0 172.29 104.20
  L 174.84 104.09
  Q 175.36 104.07 175.36 103.55
  L 175.38 97.74
  Q 175.38 97.12 176.00 97.12
  L 178.07 97.13
  A 0.70 0.69 -0.4 0 0 178.77 96.43
  L 178.74 94.51
  Q 178.72 93.74 179.49 93.74
  L 181.41 93.75
  A 0.88 0.88 0.0 0 1 182.28 94.66
  L 182.20 96.70
  Q 182.19 97.21 182.70 97.19
  L 185.05 97.11
  Q 185.76 97.09 185.76 97.80
  L 185.75 106.99
  Q 185.75 107.74 185.01 107.70
  L 182.74 107.57
  Q 182.28 107.54 182.27 108.01
  L 182.22 110.48
  Q 182.21 111.00 182.73 111.00
  L 188.72 111.00
  Q 189.20 111.00 189.18 111.47
  L 189.12 114.08
  Q 189.11 114.52 188.67 114.51
  L 186.29 114.50
  Q 185.78 114.49 185.78 115.00
  L 185.75 124.94
  Z
  M 175.40 107.27
  A 0.43 0.43 0.0 0 1 174.94 107.71
  L 172.33 107.56
  A 0.43 0.43 0.0 0 0 171.88 107.97
  L 171.81 110.57
  A 0.43 0.43 0.0 0 0 172.24 111.01
  L 178.32 110.99
  A 0.43 0.43 0.0 0 0 178.75 110.56
  L 178.75 104.56
  A 0.43 0.43 0.0 0 0 178.31 104.13
  L 175.74 104.18
  A 0.43 0.43 0.0 0 0 175.32 104.62
  L 175.40 107.27
  Z
  M 182.2525 118.3391
  A 0.33 0.33 0.0 0 0 181.9230 118.0085
  L 172.2031 117.9915
  A 0.33 0.33 0.0 0 0 171.8725 118.3209
  L 171.8675 121.1609
  A 0.33 0.33 0.0 0 0 172.1970 121.4915
  L 181.9169 121.5085
  A 0.33 0.33 0.0 0 0 182.2475 121.1791
  L 182.2525 118.3391
  Z"
/>
<path fill="#00c6d4" d="
  M 213.51 82.91
  A 0.35 0.35 0.0 0 1 213.16 83.26
  L 189.60 83.26
  A 0.35 0.35 0.0 0 1 189.25 82.91
  L 189.25 59.35
  A 0.35 0.35 0.0 0 1 189.60 59.00
  L 213.16 59.00
  A 0.35 0.35 0.0 0 1 213.51 59.35
  L 213.51 82.91
  Z
  M 210.00 62.78
  A 0.27 0.27 0.0 0 0 209.73 62.51
  L 193.03 62.51
  A 0.27 0.27 0.0 0 0 192.76 62.78
  L 192.76 79.48
  A 0.27 0.27 0.0 0 0 193.03 79.75
  L 209.73 79.75
  A 0.27 0.27 0.0 0 0 210.00 79.48
  L 210.00 62.78
  Z"
/>
<path fill="#ffffff" d="
  M 161.37 79.41
  A 0.34 0.34 0.0 0 1 161.03 79.75
  L 144.47 79.75
  A 0.34 0.34 0.0 0 1 144.13 79.41
  L 144.13 62.85
  A 0.34 0.34 0.0 0 1 144.47 62.51
  L 161.03 62.51
  A 0.34 0.34 0.0 0 1 161.37 62.85
  L 161.37 79.41
  Z
  M 158.0084 66.4092
  A 0.40 0.40 0.0 0 0 157.6091 66.0085
  L 147.9091 65.9915
  A 0.40 0.40 0.0 0 0 147.5084 66.3908
  L 147.4916 75.9908
  A 0.40 0.40 0.0 0 0 147.8909 76.3915
  L 157.5909 76.4085
  A 0.40 0.40 0.0 0 0 157.9916 76.0092
  L 158.0084 66.4092
  Z"
/>
<path fill="#ffffff" d="
  M 210.00 79.48
  A 0.27 0.27 0.0 0 1 209.73 79.75
  L 193.03 79.75
  A 0.27 0.27 0.0 0 1 192.76 79.48
  L 192.76 62.78
  A 0.27 0.27 0.0 0 1 193.03 62.51
  L 209.73 62.51
  A 0.27 0.27 0.0 0 1 210.00 62.78
  L 210.00 79.48
  Z
  M 206.5668 66.3983
  A 0.37 0.37 0.0 0 0 206.1981 66.0270
  L 196.4981 65.9931
  A 0.37 0.37 0.0 0 0 196.1269 66.3618
  L 196.0932 76.0017
  A 0.37 0.37 0.0 0 0 196.4619 76.3730
  L 206.1619 76.4069
  A 0.37 0.37 0.0 0 0 206.5331 76.0382
  L 206.5668 66.3983
  Z"
/>
<rect fill="#00c6d4" x="-5.25" y="-5.20" transform="translate(152.75,71.20) rotate(0.1)" width="10.50" height="10.40" rx="0.40"/>
<rect fill="#00c6d4" x="-5.22" y="-5.19" transform="translate(201.33,71.20) rotate(0.2)" width="10.44" height="10.38" rx="0.37"/>
<path fill="#00c6d4" d="
  M 134.05 208.44
  C 136.31 207.91 137.51 206.19 137.51 203.97
  Q 137.49 192.52 137.49 181.04
  Q 137.49 177.09 141.41 176.49
  Q 141.50 176.47 141.59 176.49
  Q 145.60 177.22 145.54 181.34
  Q 145.40 190.26 145.57 200.51
  Q 145.68 207.07 144.26 209.75
  C 141.59 214.77 137.31 216.58 131.80 216.55
  Q 101.10 216.41 72.08 216.55
  Q 67.15 216.57 64.36 215.28
  C 60.07 213.31 57.49 208.84 57.49 204.11
  Q 57.54 143.16 57.49 85.62
  Q 57.48 77.43 63.82 74.01
  Q 66.98 72.30 72.84 72.40
  Q 85.12 72.62 96.91 72.49
  C 102.83 72.43 102.99 80.51 96.98 80.51
  Q 82.75 80.50 69.69 80.52
  A 4.19 4.18 -90.0 0 0 65.51 84.71
  L 65.51 204.25
  A 4.25 4.24 90.0 0 0 69.75 208.50
  L 133.56 208.49
  A 2.50 2.27 36.4 0 0 134.05 208.44
  Z"
/>
<rect fill="#00c6d4" x="-1.76" y="-3.44" transform="translate(170.13,83.32) rotate(-0.1)" width="3.52" height="6.88" rx="0.38"/>
<rect fill="#00c6d4" x="-1.76" y="-1.74" transform="translate(142.36,88.49) rotate(0.3)" width="3.52" height="3.48" rx="0.27"/>
<rect fill="#00c6d4" x="-1.72" y="-1.74" transform="translate(190.95,88.51) rotate(0.1)" width="3.44" height="3.48" rx="0.29"/>
<path fill="#00c6d4" d="
  M 210.00 101.02
  L 209.98 103.80
  A 0.36 0.36 0.0 0 1 209.63 104.15
  L 206.85 104.18
  A 0.36 0.36 0.0 0 1 206.48 103.81
  L 206.50 100.96
  A 0.36 0.36 0.0 0 1 206.86 100.61
  L 209.66 100.64
  A 0.36 0.36 0.0 0 0 210.02 100.28
  L 209.99 97.58
  A 0.36 0.36 0.0 0 0 209.62 97.23
  L 206.85 97.26
  A 0.36 0.36 0.0 0 1 206.48 96.90
  L 206.50 94.10
  A 0.36 0.36 0.0 0 0 206.14 93.74
  L 203.49 93.75
  A 0.36 0.36 0.0 0 0 203.13 94.11
  L 203.14 103.80
  A 0.36 0.36 0.0 0 1 202.77 104.16
  L 199.97 104.13
  A 0.36 0.36 0.0 0 0 199.60 104.49
  L 199.60 107.27
  A 0.36 0.36 0.0 0 0 199.96 107.63
  L 209.63 107.60
  A 0.36 0.36 0.0 0 1 209.99 107.96
  L 210.00 121.12
  A 0.36 0.36 0.0 0 1 209.65 121.48
  L 206.86 121.60
  A 0.36 0.36 0.0 0 1 206.48 121.23
  L 206.50 118.38
  A 0.36 0.36 0.0 0 0 206.14 118.02
  L 199.92 117.99
  A 0.36 0.36 0.0 0 1 199.56 117.62
  L 199.68 111.55
  A 0.36 0.36 0.0 0 0 199.33 111.18
  L 196.48 111.09
  A 0.36 0.36 0.0 0 0 196.11 111.46
  L 196.18 114.13
  A 0.36 0.36 0.0 0 1 195.82 114.50
  L 192.98 114.51
  A 0.36 0.36 0.0 0 1 192.62 114.15
  L 192.62 107.95
  A 0.36 0.36 0.0 0 1 192.99 107.59
  L 195.75 107.68
  A 0.36 0.36 0.0 0 0 196.12 107.32
  L 196.13 104.50
  A 0.36 0.36 0.0 0 1 196.49 104.14
  L 199.25 104.14
  A 0.36 0.36 0.0 0 0 199.61 103.78
  L 199.64 94.12
  A 0.36 0.36 0.0 0 0 199.28 93.76
  L 196.53 93.73
  A 0.36 0.36 0.0 0 1 196.17 93.38
  L 196.10 90.64
  A 0.36 0.36 0.0 0 1 196.46 90.27
  L 199.31 90.23
  A 0.36 0.36 0.0 0 0 199.67 89.86
  L 199.59 87.12
  A 0.36 0.36 0.0 0 1 199.95 86.75
  L 202.62 86.73
  A 0.36 0.36 0.0 0 1 202.98 87.09
  L 203.00 89.90
  A 0.36 0.36 0.0 0 0 203.36 90.26
  L 206.16 90.24
  A 0.36 0.36 0.0 0 0 206.51 89.88
  L 206.48 87.11
  A 0.36 0.36 0.0 0 1 206.84 86.74
  L 213.16 86.75
  A 0.36 0.36 0.0 0 1 213.52 87.11
  L 213.49 89.93
  A 0.36 0.36 0.0 0 1 213.12 90.29
  L 210.38 90.21
  A 0.36 0.36 0.0 0 0 210.01 90.57
  L 209.99 93.42
  A 0.36 0.36 0.0 0 0 210.36 93.78
  L 213.14 93.72
  A 0.36 0.36 0.0 0 1 213.51 94.08
  L 213.50 100.28
  A 0.36 0.36 0.0 0 1 213.14 100.64
  L 210.36 100.66
  A 0.36 0.36 0.0 0 0 210.00 101.02
  Z"
/>
<path fill="#ffffff" d="
  M 161.50 93.78
  L 161.50 90.52
  A 0.26 0.26 0.0 0 1 161.76 90.25
  L 164.71 90.26
  Q 164.92 90.27 164.91 90.47
  L 164.89 93.09
  Q 164.88 93.67 164.30 93.69
  L 161.50 93.78
  Z"
/>
<rect fill="#00c6d4" x="192.58" y="93.76" width="3.56" height="3.40" rx="0.48"/>
<path fill="#00c6d4" d="
  M 144.18 100.79
  L 144.06 103.59
  Q 144.04 104.19 143.44 104.18
  L 141.19 104.14
  A 0.58 0.58 0.0 0 1 140.62 103.56
  L 140.65 100.98
  Q 140.66 100.51 141.12 100.55
  L 144.18 100.79
  Z"
/>
<rect fill="#00c6d4" x="-3.45" y="-1.75" transform="translate(192.69,102.37) rotate(-0.1)" width="6.90" height="3.50" rx="0.31"/>
<path fill="#ffffff" d="
  M 175.40 107.27
  L 175.32 104.62
  A 0.43 0.43 0.0 0 1 175.74 104.18
  L 178.31 104.13
  A 0.43 0.43 0.0 0 1 178.75 104.56
  L 178.75 110.56
  A 0.43 0.43 0.0 0 1 178.32 110.99
  L 172.24 111.01
  A 0.43 0.43 0.0 0 1 171.81 110.57
  L 171.88 107.97
  A 0.43 0.43 0.0 0 1 172.33 107.56
  L 174.94 107.71
  A 0.43 0.43 0.0 0 0 175.40 107.27
  Z"
/>
<path fill="#00c6d4" d="
  M 164.88 131.43
  A 0.45 0.45 0.0 0 1 164.43 131.88
  L 141.07 131.88
  A 0.45 0.45 0.0 0 1 140.62 131.43
  L 140.62 108.07
  A 0.45 0.45 0.0 0 1 141.07 107.62
  L 164.43 107.62
  A 0.45 0.45 0.0 0 1 164.88 108.07
  L 164.88 131.43
  Z
  M 161.3844 111.5351
  A 0.39 0.39 0.0 0 0 160.9950 111.1444
  L 144.5351 111.1156
  A 0.39 0.39 0.0 0 0 144.1444 111.5050
  L 144.1156 127.9649
  A 0.39 0.39 0.0 0 0 144.5050 128.3556
  L 160.9649 128.3844
  A 0.39 0.39 0.0 0 0 161.3556 127.9950
  L 161.3844 111.5351
  Z"
/>
<path fill="#ffffff" d="
  M 161.3556 127.9950
  A 0.39 0.39 0.0 0 1 160.9649 128.3844
  L 144.5050 128.3556
  A 0.39 0.39 0.0 0 1 144.1156 127.9649
  L 144.1444 111.5050
  A 0.39 0.39 0.0 0 1 144.5351 111.1156
  L 160.9950 111.1444
  A 0.39 0.39 0.0 0 1 161.3844 111.5351
  L 161.3556 127.9950
  Z
  M 157.9917 114.9708
  A 0.49 0.49 0.0 0 0 157.5008 114.4817
  L 147.9808 114.4983
  A 0.49 0.49 0.0 0 0 147.4917 114.9892
  L 147.5083 124.5092
  A 0.49 0.49 0.0 0 0 147.9992 124.9983
  L 157.5192 124.9817
  A 0.49 0.49 0.0 0 0 158.0083 124.4908
  L 157.9917 114.9708
  Z"
/>
<rect fill="#00c6d4" x="-5.25" y="-5.25" transform="translate(152.75,119.74) rotate(-0.1)" width="10.50" height="10.50" rx="0.49"/>
<rect fill="#ffffff" x="-5.19" y="-1.75" transform="translate(177.06,119.75) rotate(0.1)" width="10.38" height="3.50" rx="0.33"/>
<rect fill="#00c6d4" x="-1.70" y="-1.74" transform="translate(190.93,119.75) rotate(0.9)" width="3.40" height="3.48" rx="0.41"/>
<path fill="#ffffff" d="
  M 185.75 124.94
  L 185.72 127.77
  Q 185.72 128.37 185.12 128.37
  L 182.55 128.39
  Q 182.20 128.39 182.21 128.05
  L 182.27 125.29
  Q 182.28 125.03 182.54 125.02
  L 185.75 124.94
  Z"
/>
<rect fill="#00c6d4" x="210.02" y="124.96" width="3.46" height="3.44" rx="0.35"/>
<rect fill="#00c6d4" x="93.58" y="196.54" width="15.84" height="7.92" rx="3.77"/>
</svg>
