<svg width="115" height="35" viewBox="0 0 115 35" fill="none" xmlns="http://www.w3.org/2000/svg">
<rect width="115" height="35" rx="17.5" fill="#FFB500"/>
<path d="M23.8438 14.4205C23.7831 13.8826 23.5331 13.4659 23.0938 13.1705C22.6544 12.8712 22.1013 12.7216 21.4347 12.7216C20.9574 12.7216 20.5445 12.7973 20.196 12.9489C19.8475 13.0966 19.5767 13.3011 19.3835 13.5625C19.1941 13.8201 19.0994 14.1136 19.0994 14.4432C19.0994 14.7197 19.1638 14.9583 19.2926 15.1591C19.4252 15.3598 19.5975 15.5284 19.8097 15.6648C20.0256 15.7973 20.2566 15.9091 20.5028 16C20.7491 16.0871 20.9858 16.1591 21.2131 16.2159L22.3494 16.5114C22.7206 16.6023 23.1013 16.7254 23.4915 16.8807C23.8816 17.036 24.2434 17.2405 24.5767 17.4943C24.91 17.7481 25.179 18.0625 25.3835 18.4375C25.5919 18.8125 25.696 19.2614 25.696 19.7841C25.696 20.4432 25.5256 21.0284 25.1847 21.5398C24.8475 22.0511 24.357 22.4545 23.7131 22.75C23.0729 23.0455 22.2983 23.1932 21.3892 23.1932C20.518 23.1932 19.7642 23.0549 19.1278 22.7784C18.4915 22.5019 17.9934 22.1098 17.6335 21.6023C17.2737 21.0909 17.0748 20.4848 17.0369 19.7841H18.7983C18.8324 20.2045 18.9688 20.5549 19.2074 20.8352C19.4498 21.1117 19.7585 21.3182 20.1335 21.4545C20.5123 21.5871 20.9271 21.6534 21.3778 21.6534C21.8741 21.6534 22.3153 21.5758 22.7017 21.4205C23.0919 21.2614 23.3987 21.0417 23.6222 20.7614C23.8456 20.4773 23.9574 20.1458 23.9574 19.767C23.9574 19.4223 23.8589 19.1402 23.6619 18.9205C23.4688 18.7008 23.2055 18.5189 22.8722 18.375C22.5426 18.2311 22.1695 18.1042 21.7528 17.9943L20.3778 17.6193C19.446 17.3655 18.7074 16.9924 18.1619 16.5C17.6203 16.0076 17.3494 15.3561 17.3494 14.5455C17.3494 13.875 17.5313 13.2898 17.8949 12.7898C18.2585 12.2898 18.7509 11.9015 19.3722 11.625C19.9934 11.3447 20.6941 11.2045 21.4744 11.2045C22.2623 11.2045 22.9574 11.3428 23.5597 11.6193C24.1657 11.8958 24.643 12.2765 24.9915 12.7614C25.34 13.2424 25.5218 13.7955 25.5369 14.4205H23.8438ZM30.1974 23.1932C29.6444 23.1932 29.1444 23.0909 28.6974 22.8864C28.2505 22.678 27.8963 22.3769 27.6349 21.983C27.3774 21.589 27.2486 21.1061 27.2486 20.5341C27.2486 20.0417 27.3433 19.6364 27.5327 19.3182C27.7221 19 27.9777 18.7481 28.2997 18.5625C28.6217 18.3769 28.9815 18.2367 29.3793 18.142C29.777 18.0473 30.1823 17.9754 30.5952 17.9261C31.1179 17.8655 31.5421 17.8163 31.8679 17.7784C32.1937 17.7367 32.4304 17.6705 32.5781 17.5795C32.7259 17.4886 32.7997 17.3409 32.7997 17.1364V17.0966C32.7997 16.6004 32.6596 16.2159 32.3793 15.9432C32.1027 15.6705 31.6899 15.5341 31.1406 15.5341C30.5687 15.5341 30.1179 15.661 29.7884 15.9148C29.4626 16.1648 29.2372 16.4432 29.1122 16.75L27.5156 16.3864C27.705 15.8561 27.9815 15.428 28.3452 15.1023C28.7126 14.7727 29.1349 14.5341 29.6122 14.3864C30.0895 14.2348 30.5914 14.1591 31.1179 14.1591C31.4664 14.1591 31.8357 14.2008 32.2259 14.2841C32.6198 14.3636 32.9872 14.5114 33.3281 14.7273C33.6728 14.9432 33.955 15.2519 34.1747 15.6534C34.3944 16.0511 34.5043 16.5682 34.5043 17.2045V23H32.8452V21.8068H32.777C32.6671 22.0265 32.5024 22.2424 32.2827 22.4545C32.063 22.6667 31.7808 22.8428 31.4361 22.983C31.0914 23.1231 30.6785 23.1932 30.1974 23.1932ZM30.5668 21.8295C31.0365 21.8295 31.438 21.7367 31.7713 21.5511C32.1084 21.3655 32.3641 21.1231 32.5384 20.8239C32.7164 20.5208 32.8054 20.197 32.8054 19.8523V18.7273C32.7448 18.7879 32.6274 18.8447 32.4531 18.8977C32.2827 18.947 32.0876 18.9905 31.8679 19.0284C31.6482 19.0625 31.4342 19.0947 31.2259 19.125C31.0175 19.1515 30.8433 19.1742 30.7031 19.1932C30.3736 19.2348 30.0724 19.3049 29.7997 19.4034C29.5308 19.5019 29.3149 19.6439 29.152 19.8295C28.9929 20.0114 28.9134 20.2538 28.9134 20.5568C28.9134 20.9773 29.0687 21.2955 29.3793 21.5114C29.6899 21.7235 30.0857 21.8295 30.5668 21.8295ZM36.767 23V14.2727H38.4659V23H36.767ZM37.625 12.9261C37.3295 12.9261 37.0758 12.8277 36.8636 12.6307C36.6553 12.4299 36.5511 12.1913 36.5511 11.9148C36.5511 11.6345 36.6553 11.3958 36.8636 11.1989C37.0758 10.9981 37.3295 10.8977 37.625 10.8977C37.9205 10.8977 38.1723 10.9981 38.3807 11.1989C38.5928 11.3958 38.6989 11.6345 38.6989 11.9148C38.6989 12.1913 38.5928 12.4299 38.3807 12.6307C38.1723 12.8277 37.9205 12.9261 37.625 12.9261ZM40.8878 23V11.3636H42.5866V15.6875H42.6889C42.7874 15.5057 42.9295 15.2955 43.1151 15.0568C43.3007 14.8182 43.5582 14.6098 43.8878 14.4318C44.2173 14.25 44.6529 14.1591 45.1946 14.1591C45.8991 14.1591 46.5279 14.3371 47.081 14.6932C47.634 15.0492 48.0677 15.5625 48.3821 16.233C48.7003 16.9034 48.8594 17.7102 48.8594 18.6534C48.8594 19.5966 48.7022 20.4053 48.3878 21.0795C48.0734 21.75 47.6416 22.267 47.0923 22.6307C46.5431 22.9905 45.9162 23.1705 45.2116 23.1705C44.6813 23.1705 44.2476 23.0814 43.9105 22.9034C43.5772 22.7254 43.3158 22.517 43.1264 22.2784C42.937 22.0398 42.7912 21.8277 42.6889 21.642H42.5469V23H40.8878ZM42.5526 18.6364C42.5526 19.25 42.6416 19.7879 42.8196 20.25C42.9976 20.7121 43.2552 21.0739 43.5923 21.3352C43.9295 21.5928 44.3423 21.7216 44.831 21.7216C45.3385 21.7216 45.7628 21.5871 46.1037 21.3182C46.4446 21.0455 46.7022 20.6761 46.8764 20.2102C47.0545 19.7443 47.1435 19.2197 47.1435 18.6364C47.1435 18.0606 47.0563 17.5436 46.8821 17.0852C46.7116 16.6269 46.4541 16.2652 46.1094 16C45.7685 15.7348 45.3423 15.6023 44.831 15.6023C44.3385 15.6023 43.9219 15.7292 43.581 15.983C43.2438 16.2367 42.9882 16.5909 42.8139 17.0455C42.6397 17.5 42.5526 18.0303 42.5526 18.6364ZM53.3068 23.1932C52.7538 23.1932 52.2538 23.0909 51.8068 22.8864C51.3598 22.678 51.0057 22.3769 50.7443 21.983C50.4867 21.589 50.358 21.1061 50.358 20.5341C50.358 20.0417 50.4527 19.6364 50.642 19.3182C50.8314 19 51.0871 18.7481 51.4091 18.5625C51.7311 18.3769 52.0909 18.2367 52.4886 18.142C52.8864 18.0473 53.2917 17.9754 53.7045 17.9261C54.2273 17.8655 54.6515 17.8163 54.9773 17.7784C55.303 17.7367 55.5398 17.6705 55.6875 17.5795C55.8352 17.4886 55.9091 17.3409 55.9091 17.1364V17.0966C55.9091 16.6004 55.7689 16.2159 55.4886 15.9432C55.2121 15.6705 54.7992 15.5341 54.25 15.5341C53.678 15.5341 53.2273 15.661 52.8977 15.9148C52.572 16.1648 52.3466 16.4432 52.2216 16.75L50.625 16.3864C50.8144 15.8561 51.0909 15.428 51.4545 15.1023C51.822 14.7727 52.2443 14.5341 52.7216 14.3864C53.1989 14.2348 53.7008 14.1591 54.2273 14.1591C54.5758 14.1591 54.9451 14.2008 55.3352 14.2841C55.7292 14.3636 56.0966 14.5114 56.4375 14.7273C56.7822 14.9432 57.0644 15.2519 57.2841 15.6534C57.5038 16.0511 57.6136 16.5682 57.6136 17.2045V23H55.9545V21.8068H55.8864C55.7765 22.0265 55.6117 22.2424 55.392 22.4545C55.1723 22.6667 54.8902 22.8428 54.5455 22.983C54.2008 23.1231 53.7879 23.1932 53.3068 23.1932ZM53.6761 21.8295C54.1458 21.8295 54.5473 21.7367 54.8807 21.5511C55.2178 21.3655 55.4735 21.1231 55.6477 20.8239C55.8258 20.5208 55.9148 20.197 55.9148 19.8523V18.7273C55.8542 18.7879 55.7367 18.8447 55.5625 18.8977C55.392 18.947 55.197 18.9905 54.9773 19.0284C54.7576 19.0625 54.5436 19.0947 54.3352 19.125C54.1269 19.1515 53.9527 19.1742 53.8125 19.1932C53.483 19.2348 53.1818 19.3049 52.9091 19.4034C52.6402 19.5019 52.4242 19.6439 52.2614 19.8295C52.1023 20.0114 52.0227 20.2538 52.0227 20.5568C52.0227 20.9773 52.178 21.2955 52.4886 21.5114C52.7992 21.7235 53.1951 21.8295 53.6761 21.8295ZM64.1108 23V14.2727H65.7415V15.6932H65.8494C66.0313 15.2121 66.3286 14.8371 66.7415 14.5682C67.1544 14.2955 67.6487 14.1591 68.2244 14.1591C68.8078 14.1591 69.2964 14.2955 69.6903 14.5682C70.0881 14.8409 70.3816 15.2159 70.571 15.6932H70.6619C70.8703 15.2273 71.2017 14.8561 71.6562 14.5795C72.1108 14.2992 72.6525 14.1591 73.2812 14.1591C74.0729 14.1591 74.7188 14.4072 75.2188 14.9034C75.7225 15.3996 75.9744 16.1477 75.9744 17.1477V23H74.2756V17.3068C74.2756 16.7159 74.1146 16.2879 73.7926 16.0227C73.4706 15.7576 73.0862 15.625 72.6392 15.625C72.0862 15.625 71.6562 15.7955 71.3494 16.1364C71.0426 16.4735 70.8892 16.9072 70.8892 17.4375V23H69.196V17.1989C69.196 16.7254 69.0483 16.3447 68.7528 16.0568C68.4574 15.7689 68.0729 15.625 67.5994 15.625C67.2775 15.625 66.9801 15.7102 66.7074 15.8807C66.4384 16.0473 66.2206 16.2803 66.054 16.5795C65.8911 16.8788 65.8097 17.2254 65.8097 17.6193V23H64.1108ZM80.7912 23.1932C80.2382 23.1932 79.7382 23.0909 79.2912 22.8864C78.8442 22.678 78.4901 22.3769 78.2287 21.983C77.9711 21.589 77.8423 21.1061 77.8423 20.5341C77.8423 20.0417 77.937 19.6364 78.1264 19.3182C78.3158 19 78.5715 18.7481 78.8935 18.5625C79.2154 18.3769 79.5753 18.2367 79.973 18.142C80.3707 18.0473 80.776 17.9754 81.1889 17.9261C81.7116 17.8655 82.1359 17.8163 82.4616 17.7784C82.7874 17.7367 83.0241 17.6705 83.1719 17.5795C83.3196 17.4886 83.3935 17.3409 83.3935 17.1364V17.0966C83.3935 16.6004 83.2533 16.2159 82.973 15.9432C82.6965 15.6705 82.2836 15.5341 81.7344 15.5341C81.1624 15.5341 80.7116 15.661 80.3821 15.9148C80.0563 16.1648 79.831 16.4432 79.706 16.75L78.1094 16.3864C78.2988 15.8561 78.5753 15.428 78.9389 15.1023C79.3063 14.7727 79.7287 14.5341 80.206 14.3864C80.6832 14.2348 81.1851 14.1591 81.7116 14.1591C82.0601 14.1591 82.4295 14.2008 82.8196 14.2841C83.2135 14.3636 83.581 14.5114 83.9219 14.7273C84.2666 14.9432 84.5488 15.2519 84.7685 15.6534C84.9882 16.0511 85.098 16.5682 85.098 17.2045V23H83.4389V21.8068H83.3707C83.2609 22.0265 83.0961 22.2424 82.8764 22.4545C82.6567 22.6667 82.3745 22.8428 82.0298 22.983C81.6851 23.1231 81.2723 23.1932 80.7912 23.1932ZM81.1605 21.8295C81.6302 21.8295 82.0317 21.7367 82.3651 21.5511C82.7022 21.3655 82.9579 21.1231 83.1321 20.8239C83.3101 20.5208 83.3991 20.197 83.3991 19.8523V18.7273C83.3385 18.7879 83.2211 18.8447 83.0469 18.8977C82.8764 18.947 82.6813 18.9905 82.4616 19.0284C82.242 19.0625 82.0279 19.0947 81.8196 19.125C81.6113 19.1515 81.437 19.1742 81.2969 19.1932C80.9673 19.2348 80.6662 19.3049 80.3935 19.4034C80.1245 19.5019 79.9086 19.6439 79.7457 19.8295C79.5866 20.0114 79.5071 20.2538 79.5071 20.5568C79.5071 20.9773 79.6624 21.2955 79.973 21.5114C80.2836 21.7235 80.6795 21.8295 81.1605 21.8295ZM87.3608 23V14.2727H89.0597V23H87.3608ZM88.2188 12.9261C87.9233 12.9261 87.6695 12.8277 87.4574 12.6307C87.2491 12.4299 87.1449 12.1913 87.1449 11.9148C87.1449 11.6345 87.2491 11.3958 87.4574 11.1989C87.6695 10.9981 87.9233 10.8977 88.2188 10.8977C88.5142 10.8977 88.7661 10.9981 88.9744 11.1989C89.1866 11.3958 89.2926 11.6345 89.2926 11.9148C89.2926 12.1913 89.1866 12.4299 88.9744 12.6307C88.7661 12.8277 88.5142 12.9261 88.2188 12.9261ZM97.8849 16.4034L96.3452 16.6761C96.2808 16.4792 96.1785 16.2917 96.0384 16.1136C95.902 15.9356 95.7164 15.7898 95.4815 15.6761C95.2467 15.5625 94.9531 15.5057 94.6009 15.5057C94.1198 15.5057 93.7183 15.6136 93.3963 15.8295C93.0743 16.0417 92.9134 16.3163 92.9134 16.6534C92.9134 16.9451 93.0213 17.1799 93.2372 17.358C93.4531 17.536 93.8016 17.6818 94.2827 17.7955L95.669 18.1136C96.4721 18.2992 97.0705 18.5852 97.4645 18.9716C97.8584 19.358 98.0554 19.8598 98.0554 20.4773C98.0554 21 97.9039 21.4659 97.6009 21.875C97.3016 22.2803 96.883 22.5985 96.3452 22.8295C95.8111 23.0606 95.1918 23.1761 94.4872 23.1761C93.5099 23.1761 92.7126 22.9678 92.0952 22.5511C91.4777 22.1307 91.099 21.5341 90.9588 20.7614L92.6009 20.5114C92.7031 20.9394 92.9134 21.2633 93.2315 21.483C93.5497 21.6989 93.9645 21.8068 94.4759 21.8068C95.0327 21.8068 95.4777 21.6913 95.8111 21.4602C96.1444 21.2254 96.3111 20.9394 96.3111 20.6023C96.3111 20.3295 96.2088 20.1004 96.0043 19.9148C95.8035 19.7292 95.4948 19.589 95.0781 19.4943L93.6009 19.1705C92.7865 18.9848 92.1842 18.6894 91.794 18.2841C91.4077 17.8788 91.2145 17.3655 91.2145 16.7443C91.2145 16.2292 91.3584 15.7784 91.6463 15.392C91.9342 15.0057 92.3319 14.7045 92.8395 14.4886C93.3471 14.2689 93.9285 14.1591 94.5838 14.1591C95.527 14.1591 96.2694 14.3636 96.8111 14.7727C97.3527 15.178 97.7107 15.7216 97.8849 16.4034Z" fill="black"/>
</svg>
