<svg width="18" height="25" viewBox="0 0 18 25" fill="none" xmlns="http://www.w3.org/2000/svg">
<path fill-rule="evenodd" clip-rule="evenodd" d="M0 4.53394C0 2.45104 1.64162 0.762512 3.66667 0.762512H14.3333C16.3584 0.762512 18 2.45104 18 4.53394V20.9911C18 23.074 16.3584 24.7625 14.3333 24.7625H3.66667C1.64162 24.7625 0 23.074 0 20.9911V4.53394ZM3.66667 2.81966C2.74619 2.81966 2 3.58717 2 4.53394V20.9911C2 21.9379 2.74619 22.7054 3.66667 22.7054H14.3333C15.2538 22.7054 16 21.9379 16 20.9911V4.53394C16 3.58717 15.2538 2.81966 14.3333 2.81966H3.66667Z" fill="#1094AB"/>
<path fill-rule="evenodd" clip-rule="evenodd" d="M12.6667 5.56251C12.6667 6.13058 12.219 6.59108 11.6667 6.59108H6.33333C5.78105 6.59108 5.33333 6.13058 5.33333 5.56251C5.33333 4.99445 5.78105 4.53394 6.33333 4.53394H11.6667C12.219 4.53394 12.6667 4.99445 12.6667 5.56251Z" fill="#1094AB"/>
<path fill-rule="evenodd" clip-rule="evenodd" d="M9 12.0768C9.36819 12.0768 9.66667 11.7698 9.66667 11.3911C9.66667 11.0124 9.36819 10.7054 9 10.7054C8.63181 10.7054 8.33333 11.0124 8.33333 11.3911C8.33333 11.7698 8.63181 12.0768 9 12.0768ZM9 14.1339C10.4728 14.1339 11.6667 12.9059 11.6667 11.3911C11.6667 9.87625 10.4728 8.64823 9 8.64823C7.52724 8.64823 6.33333 9.87625 6.33333 11.3911C6.33333 12.9059 7.52724 14.1339 9 14.1339Z" fill="#1094AB"/>
<path fill-rule="evenodd" clip-rule="evenodd" d="M9 17.9054C6.81164 17.9054 6.0299 19.0552 5.92848 19.3159C5.72336 19.8434 5.14139 20.0999 4.62861 19.8889C4.11583 19.678 3.86641 19.0794 4.07153 18.5519C4.50344 17.4413 6.06837 15.8482 9 15.8482C11.9316 15.8482 13.4966 17.4413 13.9285 18.5519C14.1336 19.0794 13.8842 19.678 13.3714 19.8889C12.8586 20.0999 12.2766 19.8434 12.0715 19.3159C11.9701 19.0552 11.1884 17.9054 9 17.9054Z" fill="#1094AB"/>
</svg>
