<svg xmlns="http://www.w3.org/2000/svg" xmlns:xlink="http://www.w3.org/1999/xlink" width="60" height="62.4" viewBox="0 0 60 62.4">
  <defs>
    <radialGradient id="radial-gradient" cx="0.601" cy="0.309" r="0.394" gradientUnits="objectBoundingBox">
      <stop offset="0" stop-color="#37c0f4"/>
      <stop offset="1" stop-color="#4bcc85"/>
      <stop offset="1" stop-color="#52d15c"/>
    </radialGradient>
  </defs>
  <g id="Grupo_1339" data-name="Grupo 1339" transform="translate(-664.667 -878.453)">
    <path id="Caminho_8175" data-name="Caminho 8175" d="M30,0a6.351,6.351,0,0,0-3.754,1.226l-3.155,2.3a6.354,6.354,0,0,1-3.773,1.226l-3.91-.011a6.358,6.358,0,0,0-6.074,4.41l-1.2,3.717a6.355,6.355,0,0,1-2.332,3.211l-3.17,2.285A6.353,6.353,0,0,0,.319,25.506l1.219,3.71a6.356,6.356,0,0,1,0,3.969L.319,36.894a6.353,6.353,0,0,0,2.317,7.137l3.17,2.285a6.346,6.346,0,0,1,2.332,3.207l1.2,3.721a6.358,6.358,0,0,0,6.074,4.41l3.91-.011a6.349,6.349,0,0,1,3.773,1.222l3.155,2.308a6.36,6.36,0,0,0,7.507,0l3.155-2.308a6.35,6.35,0,0,1,3.773-1.222l3.91.011a6.358,6.358,0,0,0,6.074-4.41l1.193-3.721a6.354,6.354,0,0,1,2.336-3.207l3.17-2.285a6.353,6.353,0,0,0,2.317-7.137l-1.219-3.71a6.357,6.357,0,0,1,0-3.969l1.219-3.71a6.353,6.353,0,0,0-2.317-7.137l-3.17-2.285a6.363,6.363,0,0,1-2.336-3.211L50.666,9.156a6.358,6.358,0,0,0-6.074-4.41l-3.91.011a6.354,6.354,0,0,1-3.773-1.226l-3.155-2.3A6.351,6.351,0,0,0,30,0m0,9.571A21.629,21.629,0,1,1,8.36,31.2,21.664,21.664,0,0,1,30,9.571" transform="translate(664.666 878.453)" fill="url(#radial-gradient)"/>
    <path id="Caminho_8176" data-name="Caminho 8176" d="M180.95,179.586a17.432,17.432,0,1,0,17.466,17.434,17.421,17.421,0,0,0-17.466-17.434m10.033,7.987c.574-.03,1.036.467.465,1.6l-3.186,4.445-3.126,4.216-3.3,4.059-3.482,3.9a1.939,1.939,0,0,1-2.867.094L173.24,203.4l-2.18-2.554-2.112-2.625-2.1-2.864c-.418-.809.4-1.159,1.159-.783l2.641,1.936,2.611,2.123,2.54,2.194.908.831,2.1-2.449,3.58-3.815,3.76-3.654,4.075-3.8a1.19,1.19,0,0,1,.765-.359" transform="translate(513.716 712.635)" fill="#ffb500"/>
  </g>
</svg>
