<svg id="Grupo_92" data-name="Grupo 92" xmlns="http://www.w3.org/2000/svg" xmlns:xlink="http://www.w3.org/1999/xlink" width="146.79" height="150.924" viewBox="0 0 146.79 150.924">
  <defs>
    <clipPath id="clip-path">
      <rect id="Retângulo_40" data-name="Retângulo 40" width="146.79" height="150.924" fill="#1094ab"/>
    </clipPath>
    <clipPath id="clip-path-3">
      <rect id="Retângulo_36" data-name="Retângulo 36" width="145.173" height="130.427" fill="#1094ab"/>
    </clipPath>
    <clipPath id="clip-path-4">
      <rect id="Retângulo_37" data-name="Retângulo 37" width="143.393" height="134.349" fill="#1094ab"/>
    </clipPath>
    <clipPath id="clip-path-5">
      <rect id="Retângulo_38" data-name="Retângulo 38" width="36.642" height="7.31" fill="#1094ab"/>
    </clipPath>
  </defs>
  <g id="Grupo_91" data-name="Grupo 91" clip-path="url(#clip-path)">
    <g id="Grupo_90" data-name="Grupo 90">
      <g id="Grupo_89" data-name="Grupo 89" clip-path="url(#clip-path)">
        <g id="Grupo_82" data-name="Grupo 82" opacity="0.3">
          <g id="Grupo_81" data-name="Grupo 81">
            <g id="Grupo_80" data-name="Grupo 80" clip-path="url(#clip-path-3)">
              <path id="Caminho_139" data-name="Caminho 139" d="M3.554,676.768H1.134a1.134,1.134,0,1,1,0-2.268h2.42a1.134,1.134,0,1,1,0,2.268" transform="translate(0 -572.501)" fill="#1094ab"/>
              <path id="Caminho_140" data-name="Caminho 140" d="M63.856,676.768H61.134a1.134,1.134,0,1,1,0-2.268h2.722a1.134,1.134,0,1,1,0,2.268" transform="translate(-50.927 -572.501)" fill="#1094ab"/>
              <path id="Caminho_141" data-name="Caminho 141" d="M39.634,702.688a1.134,1.134,0,0,1-1.134-1.134v-2.42a1.134,1.134,0,0,1,2.268,0v2.42a1.134,1.134,0,0,1-1.134,1.134" transform="translate(-32.678 -592.447)" fill="#1094ab"/>
              <path id="Caminho_142" data-name="Caminho 142" d="M39.634,640.99a1.134,1.134,0,0,1-1.134-1.134v-2.722a1.134,1.134,0,0,1,2.268,0v2.722a1.134,1.134,0,0,1-1.134,1.134" transform="translate(-32.678 -539.823)" fill="#1094ab"/>
              <path id="Caminho_143" data-name="Caminho 143" d="M308.554,40.768h-2.42a1.134,1.134,0,0,1,0-2.268h2.42a1.134,1.134,0,1,1,0,2.268" transform="translate(-258.877 -32.678)" fill="#1094ab"/>
              <path id="Caminho_144" data-name="Caminho 144" d="M368.856,40.768h-2.722a1.134,1.134,0,0,1,0-2.268h2.722a1.134,1.134,0,0,1,0,2.268" transform="translate(-309.804 -32.678)" fill="#1094ab"/>
              <path id="Caminho_145" data-name="Caminho 145" d="M344.634,66.688a1.134,1.134,0,0,1-1.134-1.134v-2.42a1.134,1.134,0,1,1,2.268,0v2.42a1.134,1.134,0,0,1-1.134,1.134" transform="translate(-291.555 -52.624)" fill="#1094ab"/>
              <path id="Caminho_146" data-name="Caminho 146" d="M344.634,4.99A1.134,1.134,0,0,1,343.5,3.856V1.134a1.134,1.134,0,1,1,2.268,0V3.856a1.134,1.134,0,0,1-1.134,1.134" transform="translate(-291.555)" fill="#1094ab"/>
              <path id="Caminho_147" data-name="Caminho 147" d="M870.554,170.768h-2.42a1.134,1.134,0,0,1,0-2.268h2.42a1.134,1.134,0,1,1,0,2.268" transform="translate(-735.891 -143.019)" fill="#1094ab"/>
              <path id="Caminho_148" data-name="Caminho 148" d="M930.856,170.768h-2.722a1.134,1.134,0,0,1,0-2.268h2.722a1.134,1.134,0,0,1,0,2.268" transform="translate(-786.818 -143.019)" fill="#1094ab"/>
              <path id="Caminho_149" data-name="Caminho 149" d="M906.634,196.688a1.134,1.134,0,0,1-1.134-1.134v-2.42a1.134,1.134,0,1,1,2.268,0v2.42a1.134,1.134,0,0,1-1.134,1.134" transform="translate(-768.569 -162.965)" fill="#1094ab"/>
              <path id="Caminho_150" data-name="Caminho 150" d="M906.634,134.99a1.134,1.134,0,0,1-1.134-1.134v-2.722a1.134,1.134,0,0,1,2.268,0v2.722a1.134,1.134,0,0,1-1.134,1.134" transform="translate(-768.569 -110.341)" fill="#1094ab"/>
              <path id="Caminho_151" data-name="Caminho 151" d="M113.922,821.22a3.676,3.676,0,1,1,3.676-3.676,3.68,3.68,0,0,1-3.676,3.676m0-5.084a1.408,1.408,0,1,0,1.408,1.408,1.409,1.409,0,0,0-1.408-1.408" transform="translate(-93.574 -690.794)" fill="#1094ab"/>
              <path id="Caminho_152" data-name="Caminho 152" d="M913.867,350.865a3.676,3.676,0,1,1,3.676-3.676,3.68,3.68,0,0,1-3.676,3.676m0-5.084a1.408,1.408,0,1,0,1.408,1.408,1.409,1.409,0,0,0-1.408-1.408" transform="translate(-772.55 -291.566)" fill="#1094ab"/>
            </g>
          </g>
        </g>
        <g id="Grupo_85" data-name="Grupo 85" transform="translate(3.397 16.575)" opacity="0.3">
          <g id="Grupo_84" data-name="Grupo 84">
            <g id="Grupo_83" data-name="Grupo 83" clip-path="url(#clip-path-4)">
              <path id="Caminho_153" data-name="Caminho 153" d="M720.481,112.77a1.128,1.128,0,0,1-.581-.161c-.5-.3-1.011-.6-1.516-.88a1.134,1.134,0,1,1,1.113-1.976c.522.294,1.049.6,1.566.909a1.134,1.134,0,0,1-.583,2.108" transform="translate(-612.656 -109.607)" fill="#1094ab"/>
              <path id="Caminho_154" data-name="Caminho 154" d="M24.163,332.573a1.135,1.135,0,0,1-1.124-.992,72.64,72.64,0,0,1-.006-18.189,70.972,70.972,0,0,1,8.719-26.244,1.134,1.134,0,0,1,1.973,1.119,68.717,68.717,0,0,0-8.441,25.409A70.377,70.377,0,0,0,25.29,331.3a1.136,1.136,0,0,1-1.127,1.277" transform="translate(-22.465 -259.812)" fill="#1094ab"/>
              <path id="Caminho_155" data-name="Caminho 155" d="M213.291,893.617a1.129,1.129,0,0,1-.566-.152,72.081,72.081,0,0,1-7.941-5.323,1.134,1.134,0,1,1,1.385-1.8,69.792,69.792,0,0,0,7.69,5.154,1.134,1.134,0,0,1-.568,2.117" transform="translate(-176.839 -768.686)" fill="#1094ab"/>
              <path id="Caminho_156" data-name="Caminho 156" d="M386.117,971.475a71.879,71.879,0,0,1-18.844-2.5,1.134,1.134,0,0,1,.595-2.189,70,70,0,0,0,33.1.831,1.134,1.134,0,1,1,.483,2.216,72.156,72.156,0,0,1-15.333,1.644" transform="translate(-314.42 -837.126)" fill="#1094ab"/>
              <path id="Caminho_157" data-name="Caminho 157" d="M718.942,907.853a1.134,1.134,0,0,1-.558-2.123c1.7-.956,3.372-2,4.982-3.092a1.134,1.134,0,1,1,1.276,1.875c-1.663,1.132-3.393,2.206-5.145,3.193a1.131,1.131,0,0,1-.556.146" transform="translate(-612.656 -782.548)" fill="#1094ab"/>
              <path id="Caminho_158" data-name="Caminho 158" d="M836.414,659.549a1.134,1.134,0,0,1-.841-1.895,69.491,69.491,0,0,0,15.968-30.149,1.134,1.134,0,1,1,2.2.534,71.761,71.761,0,0,1-16.49,31.136,1.131,1.131,0,0,1-.841.373" transform="translate(-712.365 -548.452)" fill="#1094ab"/>
              <path id="Caminho_159" data-name="Caminho 159" d="M951.578,454.024a1.134,1.134,0,0,1-1.134-1.134c0-2.089-.094-4.2-.279-6.265-.152-1.694-.367-3.4-.642-5.071a1.134,1.134,0,1,1,2.238-.368c.284,1.725.506,3.487.663,5.237.191,2.135.288,4.311.288,6.467a1.134,1.134,0,0,1-1.134,1.134" transform="translate(-809.319 -390.237)" fill="#1094ab"/>
            </g>
          </g>
        </g>
        <g id="Grupo_88" data-name="Grupo 88" transform="translate(66.039 7.561)" opacity="0.3">
          <g id="Grupo_87" data-name="Grupo 87">
            <g id="Grupo_86" data-name="Grupo 86" clip-path="url(#clip-path-5)">
              <path id="Caminho_160" data-name="Caminho 160" d="M472.208,57.312a1.129,1.129,0,0,1-.42-.081,69.49,69.49,0,0,0-33.82-4.489,1.134,1.134,0,0,1-.266-2.253,71.765,71.765,0,0,1,34.927,4.636,1.134,1.134,0,0,1-.421,2.188" transform="translate(-436.701 -50.002)" fill="#1094ab"/>
            </g>
          </g>
        </g>
        <path id="Caminho_161" data-name="Caminho 161" d="M581.7,503.96H561.661a5.984,5.984,0,0,1-5.977-5.977V451.937a5.984,5.984,0,0,1,5.977-5.977H581.7a5.984,5.984,0,0,1,5.977,5.977v46.046a5.984,5.984,0,0,1-5.977,5.977m-20.042-55.731a3.713,3.713,0,0,0-3.709,3.709v46.046a3.713,3.713,0,0,0,3.709,3.709H581.7a3.713,3.713,0,0,0,3.709-3.709V451.937a3.713,3.713,0,0,0-3.709-3.709Z" transform="translate(-471.653 -378.521)" fill="#1094ab"/>
        <path id="Caminho_162" data-name="Caminho 162" d="M590.544,752.712H562.16a1.134,1.134,0,0,1,0-2.268h28.384a1.134,1.134,0,0,1,0,2.268" transform="translate(-476.187 -636.961)" fill="#1094ab"/>
        <path id="Caminho_163" data-name="Caminho 163" d="M645.166,785.485h-4.055a1.134,1.134,0,1,1,0-2.268h4.055a1.134,1.134,0,0,1,0,2.268" transform="translate(-543.199 -664.778)" fill="#1094ab"/>
        <path id="Caminho_164" data-name="Caminho 164" d="M589.5,490.53H560.67a1.134,1.134,0,0,1,0-2.268H589.5a1.134,1.134,0,1,1,0,2.268" transform="translate(-474.922 -414.426)" fill="#1094ab"/>
        <path id="Caminho_165" data-name="Caminho 165" d="M197.953,245.471H150.076a8.961,8.961,0,0,1-8.951-8.951V174.544a8.961,8.961,0,0,1,8.951-8.951h87.935a8.961,8.961,0,0,1,8.951,8.951V236.52a8.938,8.938,0,0,1-5.466,8.247,1.134,1.134,0,0,1-.884-2.089,6.674,6.674,0,0,0,4.082-6.158V174.544a6.69,6.69,0,0,0-6.682-6.682H150.076a6.69,6.69,0,0,0-6.682,6.682V236.52a6.69,6.69,0,0,0,6.682,6.682h47.877a1.134,1.134,0,0,1,0,2.268" transform="translate(-119.784 -140.553)" fill="#1094ab"/>
        <path id="Caminho_166" data-name="Caminho 166" d="M202.773,612.683H148.032a1.134,1.134,0,0,1,0-2.268h54.741a1.134,1.134,0,0,1,0,2.268" transform="translate(-124.684 -518.107)" fill="#1094ab"/>
        <path id="Caminho_167" data-name="Caminho 167" d="M300.748,706.133h-39.5a1.134,1.134,0,0,1,0-2.268h16.325a8.384,8.384,0,0,0,8.375-8.375v-10.2a1.134,1.134,0,0,1,2.268,0v10.2a10.631,10.631,0,0,1-4.082,8.375h16.617a1.134,1.134,0,1,1,0,2.268" transform="translate(-220.777 -580.695)" fill="#1094ab"/>
        <path id="Caminho_168" data-name="Caminho 168" d="M204.634,278.978a1.134,1.134,0,0,1-.744-1.99l19.384-16.84a1.134,1.134,0,0,1,1.392-.075l10.779,7.5,17.916-14.412a1.134,1.134,0,0,1,1.215-.132l12.8,6.349,17.667-12.614a1.134,1.134,0,0,1,1.318,1.846l-18.221,13.009a1.134,1.134,0,0,1-1.163.093l-12.764-6.329L236.2,269.875a1.135,1.135,0,0,1-1.359.047L224.1,262.44,205.378,278.7a1.13,1.13,0,0,1-.743.278" transform="translate(-172.726 -209.271)" fill="#1094ab"/>
        <path id="Caminho_169" data-name="Caminho 169" d="M600.565,561.44a1.134,1.134,0,0,1-.805-1.933l4.977-5.017a1.134,1.134,0,0,1,1.228-.254l4.444,1.786,5.841-5.457a1.134,1.134,0,0,1,1.549,1.657l-6.368,5.95a1.134,1.134,0,0,1-1.2.224l-4.416-1.774L601.37,561.1a1.131,1.131,0,0,1-.805.335" transform="translate(-508.784 -467.048)" fill="#1094ab"/>
        <path id="Caminho_170" data-name="Caminho 170" d="M235.177,477.076a1.134,1.134,0,0,1-1.134-1.134V463.327a1.134,1.134,0,1,1,2.268,0v12.615a1.134,1.134,0,0,1-1.134,1.134" transform="translate(-198.651 -392.299)" fill="#1094ab"/>
        <path id="Caminho_171" data-name="Caminho 171" d="M290.3,439.144a1.134,1.134,0,0,1-1.134-1.134V418.637a1.134,1.134,0,1,1,2.268,0V438.01a1.134,1.134,0,0,1-1.134,1.134" transform="translate(-245.434 -354.368)" fill="#1094ab"/>
        <path id="Caminho_172" data-name="Caminho 172" d="M345.412,413.856a1.134,1.134,0,0,1-1.134-1.134V388.843a1.134,1.134,0,0,1,2.268,0v23.879a1.134,1.134,0,0,1-1.134,1.134" transform="translate(-292.216 -329.079)" fill="#1094ab"/>
        <path id="Caminho_173" data-name="Caminho 173" d="M400.531,446.731A1.134,1.134,0,0,1,399.4,445.6V427.575a1.134,1.134,0,1,1,2.268,0V445.6a1.134,1.134,0,0,1-1.134,1.134" transform="translate(-339 -361.954)" fill="#1094ab"/>
        <path id="Caminho_174" data-name="Caminho 174" d="M455.648,426.5a1.134,1.134,0,0,1-1.134-1.134V403.74a1.134,1.134,0,0,1,2.268,0v21.626a1.134,1.134,0,0,1-1.134,1.134" transform="translate(-385.782 -341.723)" fill="#1094ab"/>
        <path id="Caminho_175" data-name="Caminho 175" d="M510.766,392.362a1.134,1.134,0,0,1-1.134-1.134V363.519a1.134,1.134,0,1,1,2.268,0v27.708a1.134,1.134,0,0,1-1.134,1.134" transform="translate(-432.565 -307.585)" fill="#1094ab"/>
        <path id="Caminho_176" data-name="Caminho 176" d="M565.883,361.435a1.134,1.134,0,0,1-1.134-1.134v-7.209a1.134,1.134,0,0,1,2.268,0V360.3a1.134,1.134,0,0,1-1.134,1.134" transform="translate(-479.347 -298.734)" fill="#1094ab"/>
        <path id="Caminho_177" data-name="Caminho 177" d="M621,376.608a1.134,1.134,0,0,1-1.134-1.134v-4.505a1.134,1.134,0,0,1,2.268,0v4.505A1.134,1.134,0,0,1,621,376.608" transform="translate(-526.13 -313.907)" fill="#1094ab"/>
        <path id="Caminho_178" data-name="Caminho 178" d="M676.119,353.849a1.134,1.134,0,0,1-1.134-1.134v-8.56a1.134,1.134,0,0,1,2.268,0v8.56a1.134,1.134,0,0,1-1.134,1.134" transform="translate(-572.913 -291.148)" fill="#1094ab"/>
        <path id="Caminho_179" data-name="Caminho 179" d="M731.236,327.3a1.134,1.134,0,0,1-1.134-1.134V312.87a1.134,1.134,0,0,1,2.268,0v13.291a1.134,1.134,0,0,1-1.134,1.134" transform="translate(-619.695 -264.595)" fill="#1094ab"/>
        <path id="Caminho_180" data-name="Caminho 180" d="M600.891,646.586a1.134,1.134,0,0,1-1.134-1.134V634.639a1.134,1.134,0,0,1,2.268,0v10.813a1.134,1.134,0,0,1-1.134,1.134" transform="translate(-509.061 -537.705)" fill="#1094ab"/>
        <path id="Caminho_181" data-name="Caminho 181" d="M635.153,627.62a1.134,1.134,0,0,1-1.134-1.134V612.294a1.134,1.134,0,0,1,2.268,0v14.192a1.134,1.134,0,0,1-1.134,1.134" transform="translate(-538.142 -518.739)" fill="#1094ab"/>
        <path id="Caminho_182" data-name="Caminho 182" d="M669.415,630.149a1.134,1.134,0,0,1-1.134-1.134V615.273a1.134,1.134,0,0,1,2.268,0v13.742a1.134,1.134,0,0,1-1.134,1.134" transform="translate(-567.222 -521.268)" fill="#1094ab"/>
        <path id="Caminho_183" data-name="Caminho 183" d="M703.678,608.654a1.134,1.134,0,0,1-1.134-1.134V589.949a1.134,1.134,0,0,1,2.268,0V607.52a1.134,1.134,0,0,1-1.134,1.134" transform="translate(-596.304 -499.773)" fill="#1094ab"/>
      </g>
    </g>
  </g>
</svg>
