<svg width="40" height="33" viewBox="0 0 40 33" fill="none" xmlns="http://www.w3.org/2000/svg">
<path fill-rule="evenodd" clip-rule="evenodd" d="M20 5.85999C20.8284 5.85999 21.5 6.53156 21.5 7.35999V24.36C21.5 25.1884 20.8284 25.86 20 25.86C19.1716 25.86 18.5 25.1884 18.5 24.36V7.35999C18.5 6.53156 19.1716 5.85999 20 5.85999Z" fill="white"/>
<path fill-rule="evenodd" clip-rule="evenodd" d="M5.5 2.35999C5.5 1.53156 6.17157 0.859985 7 0.859985H33C33.8284 0.859985 34.5 1.53156 34.5 2.35999V7.35999C34.5 8.18841 33.8284 8.85999 33 8.85999H7C6.17157 8.85999 5.5 8.18841 5.5 7.35999V2.35999ZM8.5 3.85999V5.85999H31.5V3.85999H8.5Z" fill="white"/>
<path fill-rule="evenodd" clip-rule="evenodd" d="M10.326 16.3527C10.6104 16.0389 11.0141 15.86 11.4375 15.86H29.5392C29.9615 15.86 30.3643 16.038 30.6485 16.3503L36.1093 22.3503C36.6669 22.963 36.6223 23.9117 36.0096 24.4693C35.397 25.0269 34.4483 24.9823 33.8907 24.3696L28.8762 18.86H12.1025L7.11148 24.3673C6.55518 24.9811 5.60657 25.0278 4.99272 24.4715C4.37887 23.9152 4.33221 22.9666 4.88852 22.3527L10.326 16.3527Z" fill="white"/>
<path fill-rule="evenodd" clip-rule="evenodd" d="M0.5 24.36C0.5 23.5316 1.17157 22.86 2 22.86H9C9.82843 22.86 10.5 23.5316 10.5 24.36V31.36C10.5 32.1884 9.82843 32.86 9 32.86H2C1.17157 32.86 0.5 32.1884 0.5 31.36V24.36ZM3.5 25.86V29.86H7.5V25.86H3.5Z" fill="white"/>
<path fill-rule="evenodd" clip-rule="evenodd" d="M14.5 24.36C14.5 23.5316 15.1716 22.86 16 22.86H24C24.8284 22.86 25.5 23.5316 25.5 24.36V31.36C25.5 32.1884 24.8284 32.86 24 32.86H16C15.1716 32.86 14.5 32.1884 14.5 31.36V24.36ZM17.5 25.86V29.86H22.5V25.86H17.5Z" fill="white"/>
<path fill-rule="evenodd" clip-rule="evenodd" d="M29.5 24.36C29.5 23.5316 30.1716 22.86 31 22.86H38C38.8284 22.86 39.5 23.5316 39.5 24.36V31.36C39.5 32.1884 38.8284 32.86 38 32.86H31C30.1716 32.86 29.5 32.1884 29.5 31.36V24.36ZM32.5 25.86V29.86H36.5V25.86H32.5Z" fill="white"/>
</svg>
