<svg width="33" height="30" viewBox="0 0 33 30" fill="none" xmlns="http://www.w3.org/2000/svg">
<path d="M32.2405 10.2205C32.1165 9.92252 31.8785 9.68585 31.5789 9.56248L10.6803 0.952711C10.057 0.696092 9.34155 0.99032 9.08322 1.61071L0.426642 22.3973C0.302448 22.6953 0.302448 23.0298 0.426642 23.3278C0.550672 23.6258 0.788629 23.8624 1.08819 23.9858L15.1218 29.7674C15.2716 29.829 15.4306 29.86 15.5895 29.86C15.7486 29.86 15.9075 29.8292 16.0573 29.7674L25.7656 25.7672C26.0652 25.6439 26.3031 25.4072 26.4272 25.1092L32.2403 11.1508C32.3645 10.8532 32.3645 10.5184 32.2405 10.2205ZM17.8485 26.3975L19.0948 23.4045L22.1039 24.6441L17.8485 26.3975ZM24.6365 23.0553L18.9011 20.6926C18.278 20.4359 17.5623 20.7302 17.304 21.3506L14.9282 27.0557L3.15288 22.2045L10.8741 3.66447L29.5141 11.3437L24.6365 23.0553Z" fill="#030619"/>
<path d="M22.0714 15.3396L21.1356 13.0932L14.8765 15.6727L13.8137 13.1211L11.5552 14.0516L13.5534 18.8499L22.0714 15.3396Z" fill="#030619"/>
</svg>
