<svg id="Grupo_2658" data-name="Grupo 2658" xmlns="http://www.w3.org/2000/svg" xmlns:xlink="http://www.w3.org/1999/xlink" width="155.678" height="150.928" viewBox="0 0 155.678 150.928">
  <defs>
    <clipPath id="clip-path">
      <rect id="Retângulo_913" data-name="Retângulo 913" width="155.678" height="150.928" fill="none"/>
    </clipPath>
    <clipPath id="clip-path-2">
      <rect id="Retângulo_912" data-name="Retângulo 912" width="155.644" height="150.925" transform="translate(0.034 -0.001)" fill="none"/>
    </clipPath>
    <clipPath id="clip-path-3">
      <rect id="Retângulo_909" data-name="Retângulo 909" width="152.831" height="116.585" transform="translate(0 12.765)" fill="none"/>
    </clipPath>
    <clipPath id="clip-path-4">
      <rect id="Retângulo_908" data-name="Retângulo 908" width="152.797" height="116.585" transform="translate(0.034 12.765)" fill="none"/>
    </clipPath>
    <clipPath id="clip-path-5">
      <rect id="Retângulo_911" data-name="Retângulo 911" width="150.924" height="150.928" transform="translate(4.754)" fill="none"/>
    </clipPath>
    <clipPath id="clip-path-6">
      <rect id="Retângulo_910" data-name="Retângulo 910" width="150.924" height="150.924" transform="translate(4.754)" fill="none"/>
    </clipPath>
  </defs>
  <g id="Grupo_2657" data-name="Grupo 2657" clip-path="url(#clip-path)">
    <g id="Grupo_2656" data-name="Grupo 2656">
      <g id="Grupo_2655" data-name="Grupo 2655" clip-path="url(#clip-path-2)">
        <path id="Caminho_16186" data-name="Caminho 16186" d="M21.541,53.574A62.634,62.634,0,1,1,138.925,97.315l-.005.013a1.194,1.194,0,1,1-2.26-.769c.007-.022.015-.043.024-.065a60.237,60.237,0,1,0-40.27,36.995,1.194,1.194,0,0,1,.643,2.3A62.616,62.616,0,0,1,21.542,53.574" fill="#1094ab"/>
        <g id="Grupo_2649" data-name="Grupo 2649" opacity="0.3">
          <g id="Grupo_2648" data-name="Grupo 2648">
            <g id="Grupo_2647" data-name="Grupo 2647" clip-path="url(#clip-path-3)">
              <g id="Grupo_2646" data-name="Grupo 2646">
                <g id="Grupo_2645" data-name="Grupo 2645" clip-path="url(#clip-path-4)">
                  <path id="Caminho_16187" data-name="Caminho 16187" d="M3.774,101.817H1.228A1.194,1.194,0,1,1,1.16,99.43H3.774a1.194,1.194,0,1,1,.068,2.387H3.774" fill="#1094ab"/>
                  <path id="Caminho_16188" data-name="Caminho 16188" d="M13.643,101.817H10.778a1.194,1.194,0,1,1-.068-2.387h2.933a1.194,1.194,0,1,1,.068,2.387h-.068" fill="#1094ab"/>
                  <path id="Caminho_16189" data-name="Caminho 16189" d="M7.356,108.1a1.2,1.2,0,0,1-1.194-1.194v-2.547a1.194,1.194,0,0,1,2.387,0v2.547A1.2,1.2,0,0,1,7.355,108.1" fill="#1094ab"/>
                  <path id="Caminho_16190" data-name="Caminho 16190" d="M7.356,98.554A1.2,1.2,0,0,1,6.162,97.36V94.5a1.194,1.194,0,0,1,2.387,0V97.36a1.2,1.2,0,0,1-1.194,1.194" fill="#1094ab"/>
                  <path id="Caminho_16191" data-name="Caminho 16191" d="M129.4,106.751h-2.547a1.194,1.194,0,1,1-.068-2.387H129.4a1.194,1.194,0,1,1,.068,2.387H129.4" fill="#1094ab"/>
                  <path id="Caminho_16192" data-name="Caminho 16192" d="M139.268,106.751H136.4a1.194,1.194,0,1,1-.068-2.387h2.934a1.194,1.194,0,1,1,.067,2.387h-.067" fill="#1094ab"/>
                  <path id="Caminho_16193" data-name="Caminho 16193" d="M132.98,113.038a1.2,1.2,0,0,1-1.194-1.194V109.3a1.194,1.194,0,0,1,2.387,0v2.547a1.194,1.194,0,0,1-1.194,1.194" fill="#1094ab"/>
                  <path id="Caminho_16194" data-name="Caminho 16194" d="M132.98,103.488a1.2,1.2,0,0,1-1.194-1.194V99.429a1.194,1.194,0,0,1,2.387,0v2.865a1.194,1.194,0,0,1-1.194,1.194" fill="#1094ab"/>
                  <path id="Caminho_16195" data-name="Caminho 16195" d="M141.769,21.28h-2.547a1.194,1.194,0,0,1,0-2.387h2.547a1.194,1.194,0,0,1,0,2.387" fill="#1094ab"/>
                  <path id="Caminho_16196" data-name="Caminho 16196" d="M151.638,21.28h-2.865a1.194,1.194,0,0,1,0-2.387h2.865a1.194,1.194,0,0,1,0,2.387" fill="#1094ab"/>
                  <path id="Caminho_16197" data-name="Caminho 16197" d="M145.351,27.567a1.2,1.2,0,0,1-1.194-1.194V23.826a1.194,1.194,0,0,1,2.387,0v2.547a1.194,1.194,0,0,1-1.194,1.194" fill="#1094ab"/>
                  <path id="Caminho_16198" data-name="Caminho 16198" d="M145.351,18.017a1.2,1.2,0,0,1-1.194-1.194V13.959a1.194,1.194,0,0,1,2.387,0v2.865a1.194,1.194,0,0,1-1.194,1.194" fill="#1094ab"/>
                  <path id="Caminho_16199" data-name="Caminho 16199" d="M21.45,129.35a3.869,3.869,0,1,1,3.869-3.869,3.869,3.869,0,0,1-3.869,3.869m0-5.351a1.482,1.482,0,1,0,1.482,1.482A1.483,1.483,0,0,0,21.45,124" fill="#1094ab"/>
                  <path id="Caminho_16200" data-name="Caminho 16200" d="M148.772,54.487a3.869,3.869,0,1,1,3.869-3.869,3.869,3.869,0,0,1-3.869,3.869m0-5.351a1.482,1.482,0,1,0,1.482,1.482,1.483,1.483,0,0,0-1.482-1.482" fill="#1094ab"/>
                </g>
              </g>
            </g>
          </g>
        </g>
        <g id="Grupo_2654" data-name="Grupo 2654" opacity="0.3">
          <g id="Grupo_2653" data-name="Grupo 2653">
            <g id="Grupo_2652" data-name="Grupo 2652" clip-path="url(#clip-path-5)">
              <g id="Grupo_2651" data-name="Grupo 2651">
                <g id="Grupo_2650" data-name="Grupo 2650" clip-path="url(#clip-path-6)">
                  <path id="Caminho_16201" data-name="Caminho 16201" d="M123.895,16.584a1.182,1.182,0,0,1-.7-.229,73.542,73.542,0,0,0-7.158-4.6,1.194,1.194,0,0,1,1.128-2.105l.044.025a75.755,75.755,0,0,1,7.392,4.752,1.194,1.194,0,0,1-.7,2.159" fill="#1094ab"/>
                  <path id="Caminho_16202" data-name="Caminho 16202" d="M58.13,5.727a1.194,1.194,0,0,1-.354-2.334,75.992,75.992,0,0,1,40.145-1.3,1.194,1.194,0,0,1-.558,2.321A73.591,73.591,0,0,0,58.485,5.676a1.189,1.189,0,0,1-.355.054" fill="#1094ab"/>
                  <path id="Caminho_16203" data-name="Caminho 16203" d="M29.24,22.645a1.194,1.194,0,0,1-.82-2.062c1.181-1.115,2.413-2.206,3.662-3.241a1.194,1.194,0,1,1,1.556,1.811l-.032.027c-1.21,1-2.4,2.059-3.547,3.14a1.191,1.191,0,0,1-.819.325" fill="#1094ab"/>
                  <path id="Caminho_16204" data-name="Caminho 16204" d="M6.541,86.1a1.194,1.194,0,0,1-1.183-1.044,76.471,76.471,0,0,1-.006-19.145A74.695,74.695,0,0,1,14.529,38.29a1.194,1.194,0,0,1,2.077,1.178A72.316,72.316,0,0,0,7.721,66.213a74.054,74.054,0,0,0,.006,18.544A1.2,1.2,0,0,1,6.68,86.092a1.082,1.082,0,0,1-.139.009" fill="#1094ab"/>
                  <path id="Caminho_16205" data-name="Caminho 16205" d="M43.121,141.012a1.19,1.19,0,0,1-.6-.16,75.829,75.829,0,0,1-8.358-5.6,1.194,1.194,0,1,1,1.4-1.932l.054.042a73.367,73.367,0,0,0,8.094,5.425,1.194,1.194,0,0,1-.6,2.228" fill="#1094ab"/>
                  <path id="Caminho_16206" data-name="Caminho 16206" d="M80.216,150.924a75.663,75.663,0,0,1-19.834-2.634,1.194,1.194,0,0,1,.626-2.3,73.662,73.662,0,0,0,34.838.875,1.194,1.194,0,0,1,.509,2.333,75.882,75.882,0,0,1-16.139,1.73" fill="#1094ab"/>
                  <path id="Caminho_16207" data-name="Caminho 16207" d="M112.847,143.464a1.194,1.194,0,0,1-.587-2.234c1.784-1,3.549-2.1,5.244-3.254a1.194,1.194,0,0,1,1.343,1.974c-1.75,1.191-3.572,2.322-5.415,3.36a1.186,1.186,0,0,1-.585.154" fill="#1094ab"/>
                  <path id="Caminho_16208" data-name="Caminho 16208" d="M141.062,120.751A1.194,1.194,0,0,1,139.556,119c1.165-1.684,2.272-3.441,3.291-5.221a1.194,1.194,0,0,1,2.072,1.187c-1.052,1.837-2.2,3.652-3.4,5.391a1.2,1.2,0,0,1-.459.395" fill="#1094ab"/>
                  <path id="Caminho_16209" data-name="Caminho 16209" d="M154.484,76.656a1.2,1.2,0,0,1-1.194-1.194c0-2.2-.1-4.417-.293-6.594-.159-1.781-.387-3.577-.676-5.337a1.194,1.194,0,0,1,2.349-.431l.007.044c.3,1.818.533,3.672.7,5.512.2,2.248.3,4.538.3,6.807a1.2,1.2,0,0,1-1.194,1.194" fill="#1094ab"/>
                  <path id="Caminho_16210" data-name="Caminho 16210" d="M149.368,102.314a1.2,1.2,0,0,1-.664-1.553c.819-2.042,1.551-4.136,2.182-6.229.515-1.712.972-3.464,1.359-5.2a1.194,1.194,0,0,1,2.34.474l-.009.043c-.4,1.8-.872,3.607-1.4,5.377-.651,2.161-1.41,4.324-2.255,6.43a1.194,1.194,0,0,1-1.552.664" fill="#1094ab"/>
                </g>
              </g>
            </g>
          </g>
        </g>
        <path id="Caminho_16211" data-name="Caminho 16211" d="M112.061,117.1l-9.7-9.7,5.293-5.293,9.7,9.7Zm-7.138-9.7,7.138,7.138L114.8,111.8l-7.139-7.138Z" fill="#1094ab"/>
        <path id="Caminho_16212" data-name="Caminho 16212" d="M132.119,143.036c-.086,0-.171,0-.257,0a7.335,7.335,0,0,1-5.264-2.517l-15.438-17.8a5.552,5.552,0,0,1,.268-7.538l4-4a5.553,5.553,0,0,1,7.538-.267l17.8,15.438a7.31,7.31,0,0,1,.38,10.693l-3.86,3.86a7.337,7.337,0,0,1-5.172,2.141m-12.774-31.672a3.722,3.722,0,0,0-2.636,1.086l-4,4a3.739,3.739,0,0,0-.18,5.074l15.438,17.8a5.5,5.5,0,0,0,8.048.286l3.86-3.86a5.5,5.5,0,0,0-.286-8.048l-17.8-15.438a3.712,3.712,0,0,0-2.438-.906" fill="#1094ab"/>
        <path id="Caminho_16213" data-name="Caminho 16213" d="M78.109,112.412a34.562,34.562,0,0,1-27.16-55.934.9.9,0,0,1,1.42,1.121,32.751,32.751,0,1,0,51.48,0,.9.9,0,0,1,1.42-1.121,34.55,34.55,0,0,1-27.16,55.934" fill="#1094ab"/>
        <path id="Caminho_16214" data-name="Caminho 16214" d="M78.109,117.706A39.842,39.842,0,0,1,49.928,49.671c.362-.361.737-.723,1.117-1.074a.9.9,0,1,1,1.229,1.327c-.363.336-.722.681-1.067,1.027a38.069,38.069,0,1,0,53.8,0c-.344-.345-.7-.691-1.067-1.027a.9.9,0,0,1,1.23-1.327c.38.352.756.715,1.116,1.074a39.841,39.841,0,0,1-28.181,68.035" fill="#1094ab"/>
        <path id="Caminho_16215" data-name="Caminho 16215" d="M78.109,112.412a34.562,34.562,0,0,1-27.16-55.934.9.9,0,0,1,1.42,1.121,32.751,32.751,0,1,0,51.48,0,.9.9,0,0,1,1.42-1.121,34.55,34.55,0,0,1-27.16,55.934" fill="#1094ab"/>
        <path id="Caminho_16216" data-name="Caminho 16216" d="M132.322,136.083a4.017,4.017,0,1,1,4.017-4.017,4.022,4.022,0,0,1-4.017,4.017m0-6.226a2.209,2.209,0,1,0,2.209,2.209,2.212,2.212,0,0,0-2.209-2.209" fill="#1094ab"/>
        <path id="Caminho_16217" data-name="Caminho 16217" d="M100.986,96.885a.9.9,0,0,1-.9-.9V42.4H56.138V95.981a.9.9,0,0,1-1.809,0V41.5a.9.9,0,0,1,.9-.9h45.753a.9.9,0,0,1,.9.9V95.981a.9.9,0,0,1-.9.9" fill="#1094ab"/>
        <path id="Caminho_16218" data-name="Caminho 16218" d="M84.282,53.371H71.936a.9.9,0,0,1,0-1.809H84.282a.9.9,0,0,1,0,1.809" fill="#1094ab"/>
        <path id="Caminho_16219" data-name="Caminho 16219" d="M91.419,64.9H64.8a.9.9,0,0,1,0-1.809H91.419a.9.9,0,0,1,0,1.809" fill="#1094ab"/>
        <path id="Caminho_16220" data-name="Caminho 16220" d="M91.419,74.233H76.553a.9.9,0,0,1,0-1.809H91.419a.9.9,0,0,1,0,1.809" fill="#1094ab"/>
        <path id="Caminho_16221" data-name="Caminho 16221" d="M71.235,74.233H64.8a.9.9,0,0,1,0-1.809h6.435a.9.9,0,0,1,0,1.809" fill="#1094ab"/>
        <path id="Caminho_16222" data-name="Caminho 16222" d="M76.224,86.629H64.8a.9.9,0,1,1,0-1.809H76.224a.9.9,0,0,1,0,1.809" fill="#1094ab"/>
        <path id="Caminho_16223" data-name="Caminho 16223" d="M76.224,102.116H64.8a.9.9,0,1,1,0-1.809H76.224a.9.9,0,0,1,0,1.809" fill="#1094ab"/>
        <path id="Caminho_16224" data-name="Caminho 16224" d="M71.235,94.373H64.8a.9.9,0,0,1,0-1.809h6.435a.9.9,0,0,1,0,1.809" fill="#1094ab"/>
        <path id="Caminho_16225" data-name="Caminho 16225" d="M85.874,96.392a.9.9,0,0,1-.639-.265l-1.911-1.91A.9.9,0,0,1,84.6,92.938l1.271,1.271,3.4-3.4a.9.9,0,0,1,1.279,1.279l-4.039,4.038a.9.9,0,0,1-.639.265" fill="#1094ab"/>
        <path id="Caminho_16226" data-name="Caminho 16226" d="M86.81,102.116a8.648,8.648,0,1,1,8.648-8.648,8.657,8.657,0,0,1-8.648,8.648m0-15.487a6.84,6.84,0,1,0,6.839,6.839,6.847,6.847,0,0,0-6.839-6.839" fill="#1094ab"/>
        <path id="Caminho_16227" data-name="Caminho 16227" d="M96.767,38.956a.9.9,0,0,1-.9-.9V35.631H60.357v2.421a.9.9,0,0,1-1.809,0V34.727a.9.9,0,0,1,.9-.905H96.767a.9.9,0,0,1,.9.905v3.325a.9.9,0,0,1-.9.9" fill="#1094ab"/>
        <path id="Caminho_16228" data-name="Caminho 16228" d="M50.409,42.4H44.455a.9.9,0,1,1,0-1.809h5.954a.9.9,0,0,1,0,1.809" fill="#1094ab"/>
        <path id="Caminho_16229" data-name="Caminho 16229" d="M52.514,37.211a.9.9,0,0,1-.639-.265l-4.211-4.21a.9.9,0,0,1,1.279-1.279l4.21,4.21a.9.9,0,0,1-.639,1.544" fill="#1094ab"/>
      </g>
    </g>
  </g>
</svg>
