<svg width="32" height="29" viewBox="0 0 32 29" fill="none" xmlns="http://www.w3.org/2000/svg">
<path d="M16.0003 0.27832C17.095 0.27832 18.1897 0.81868 18.8186 1.8994L31.5543 23.8212C32.8167 25.9967 31.2469 28.7218 28.736 28.7218H3.26458C0.749114 28.7218 -0.816068 25.9967 0.446326 23.8212L13.1821 1.8994C13.8109 0.81868 14.9056 0.27832 16.0003 0.27832Z" fill="#D40000"/>
<path d="M14.9065 20.5815C14.9065 20.2587 15.0084 19.9882 15.217 19.7746C15.4257 19.561 15.7071 19.4566 16.0711 19.4566C16.435 19.4566 16.7164 19.561 16.9251 19.7746C17.1337 19.9882 17.2356 20.254 17.2356 20.5815C17.2356 20.909 17.1337 21.1748 16.9251 21.3884C16.7164 21.602 16.435 21.7064 16.0711 21.7064C15.7071 21.7064 15.4257 21.602 15.217 21.3884C15.0084 21.1748 14.9065 20.909 14.9065 20.5815ZM17.0658 12.8353C17.0658 13.1011 17.0609 13.4571 17.0512 13.908C17.0415 14.3589 17.027 14.8478 17.0027 15.3747C16.9833 15.9015 16.9542 16.4236 16.9154 16.941C16.8765 17.4583 16.8523 17.7337 16.8135 18.1466C16.7951 18.3423 16.6145 18.4314 16.4641 18.4646C16.3137 18.5026 16.1778 18.5168 16.0516 18.5168C15.843 18.5168 15.6683 18.4788 15.5179 18.4029C15.3675 18.3269 15.2753 18.194 15.2462 17.9994C15.217 17.7384 15.1831 17.3682 15.154 16.8888C15.1248 16.4141 15.0957 15.8873 15.0763 15.3177C15.0569 14.7434 15.0375 14.1881 15.0278 13.6375C15.0181 13.0869 14.9065 12.3121 15.2462 12.0842C15.45 11.9474 15.652 11.9474 16.045 11.9474C16.3556 11.9474 16.6485 12 16.8135 12.1423C16.9784 12.2895 17.0609 12.5173 17.0609 12.8353H17.0658Z" fill="white"/>
</svg>
