<svg width="32" height="33" viewBox="0 0 32 33" fill="none" xmlns="http://www.w3.org/2000/svg">
<path d="M9.9565 0.894367C10.2511 1.23634 10.4001 1.68318 10.3705 2.13666C10.341 2.59014 10.1354 3.01316 9.799 3.31271L6.75025 6.02364L9.799 8.73456C9.97218 8.88087 10.1148 9.06093 10.2184 9.2641C10.322 9.46728 10.3845 9.68947 10.4022 9.91758C10.42 10.1457 10.3926 10.3751 10.3217 10.5923C10.2508 10.8095 10.1378 11.01 9.98938 11.1822C9.84098 11.3543 9.66016 11.4945 9.45757 11.5945C9.25499 11.6945 9.03475 11.7523 8.80983 11.7645C8.58491 11.7767 8.35987 11.743 8.14796 11.6655C7.93606 11.5879 7.74158 11.468 7.576 11.3129L3.076 7.31281C2.89531 7.15191 2.75053 6.95367 2.65134 6.73134C2.55215 6.50901 2.50084 6.26773 2.50084 6.02364C2.50084 5.77954 2.55215 5.53826 2.65134 5.31593C2.75053 5.09361 2.89531 4.89536 3.076 4.73446L7.576 0.734363C7.91262 0.43503 8.35247 0.283737 8.79885 0.313741C9.24524 0.343744 9.66163 0.552589 9.9565 0.894367ZM14.1685 0.894367C13.8739 1.23634 13.7249 1.68318 13.7545 2.13666C13.784 2.59014 13.9896 3.01316 14.326 3.31271L17.3748 6.02364L14.326 8.73456C14.1528 8.88087 14.0102 9.06093 13.9066 9.2641C13.803 9.46728 13.7405 9.68947 13.7228 9.91758C13.705 10.1457 13.7324 10.3751 13.8033 10.5923C13.8742 10.8095 13.9872 11.01 14.1356 11.1822C14.284 11.3543 14.4648 11.4945 14.6674 11.5945C14.87 11.6945 15.0903 11.7523 15.3152 11.7645C15.5401 11.7767 15.7651 11.743 15.977 11.6655C16.1889 11.5879 16.3834 11.468 16.549 11.3129L21.049 7.31281C21.2297 7.15191 21.3745 6.95367 21.4737 6.73134C21.5729 6.50901 21.6242 6.26773 21.6242 6.02364C21.6242 5.77954 21.5729 5.53826 21.4737 5.31593C21.3745 5.09361 21.2297 4.89536 21.049 4.73446L16.549 0.734363C16.2124 0.43503 15.7725 0.283737 15.3261 0.313741C14.8798 0.343744 14.4634 0.552589 14.1685 0.894367ZM4.1875 15.1667C3.73995 15.1667 3.31072 15.3473 2.99426 15.6688C2.67779 15.9903 2.5 16.4264 2.5 16.881C2.5 17.3357 2.67779 17.7718 2.99426 18.0933C3.31072 18.4148 3.73995 18.5954 4.1875 18.5954H27.8125C28.2601 18.5954 28.6893 18.4148 29.0057 18.0933C29.3222 17.7718 29.5 17.3357 29.5 16.881C29.5 16.4264 29.3222 15.9903 29.0057 15.6688C28.6893 15.3473 28.2601 15.1667 27.8125 15.1667H4.1875ZM2.5 23.7384C2.5 23.2837 2.67779 22.8476 2.99426 22.5261C3.31072 22.2046 3.73995 22.024 4.1875 22.024H27.8125C28.2601 22.024 28.6893 22.2046 29.0057 22.5261C29.3222 22.8476 29.5 23.2837 29.5 23.7384C29.5 24.193 29.3222 24.6291 29.0057 24.9506C28.6893 25.2721 28.2601 25.4527 27.8125 25.4527H4.1875C3.73995 25.4527 3.31072 25.2721 2.99426 24.9506C2.67779 24.6291 2.5 24.193 2.5 23.7384ZM4.1875 28.8813C3.73995 28.8813 3.31072 29.062 2.99426 29.3835C2.67779 29.705 2.5 30.141 2.5 30.5957C2.5 31.0503 2.67779 31.4864 2.99426 31.8079C3.31072 32.1294 3.73995 32.31 4.1875 32.31H18.8125C19.2601 32.31 19.6893 32.1294 20.0057 31.8079C20.3222 31.4864 20.5 31.0503 20.5 30.5957C20.5 30.141 20.3222 29.705 20.0057 29.3835C19.6893 29.062 19.2601 28.8813 18.8125 28.8813H4.1875Z" fill="white"/>
</svg>
