<svg width="33" height="30" viewBox="0 0 33 30" fill="none" xmlns="http://www.w3.org/2000/svg">
<path d="M32.407 10.1705C32.283 9.87254 32.045 9.63586 31.7454 9.51249L10.8468 0.902723C10.2236 0.646104 9.50805 0.940332 9.24972 1.56072L0.593145 22.3473C0.468952 22.6453 0.468952 22.9799 0.593145 23.2778C0.717176 23.5758 0.955133 23.8125 1.2547 23.9358L15.2883 29.7174C15.4381 29.779 15.5971 29.81 15.756 29.81C15.9151 29.81 16.074 29.7792 16.2238 29.7174L25.9321 25.7172C26.2317 25.5939 26.4696 25.3572 26.5937 25.0592L32.4068 11.1008C32.531 10.8032 32.531 10.4684 32.407 10.1705ZM18.015 26.3475L19.2613 23.3545L22.2704 24.5941L18.015 26.3475ZM24.803 23.0053L19.0676 20.6426C18.4445 20.386 17.7288 20.6802 17.4705 21.3006L15.0947 27.0057L3.31938 22.1546L11.0406 3.61448L29.6806 11.2937L24.803 23.0053Z" fill="white"/>
<path d="M22.2379 15.2896L21.3021 13.0432L15.043 15.6227L13.9802 13.0711L11.7217 14.0016L13.7199 18.7999L22.2379 15.2896Z" fill="white"/>
</svg>
