<svg width="33" height="33" viewBox="0 0 33 33" fill="none" xmlns="http://www.w3.org/2000/svg">
<path fill-rule="evenodd" clip-rule="evenodd" d="M15.3802 0.767129C16.0023 0.15762 16.9977 0.15762 17.6198 0.767129L20.0315 3.13015L23.3017 2.2896C24.1452 2.07279 25.0072 2.57047 25.2412 3.40939L26.1483 6.66168L29.4006 7.56882C30.2395 7.80281 30.7372 8.6648 30.5203 9.50831L29.6798 12.7784L32.0429 15.1902C32.6524 15.8123 32.6524 16.8077 32.0429 17.4298L29.6798 19.8416L30.5203 23.1117C30.7372 23.9552 30.2395 24.8172 29.4006 25.0512L26.1483 25.9583L25.2412 29.2106C25.0072 30.0495 24.1452 30.5472 23.3017 30.3303L20.0316 29.4898L17.6198 31.8529C16.9977 32.4624 16.0023 32.4624 15.3802 31.8529L12.9684 29.4898L9.69831 30.3303C8.85481 30.5472 7.99282 30.0495 7.75883 29.2106L6.85168 25.9583L3.59939 25.0512C2.76047 24.8172 2.26279 23.9552 2.4796 23.1117L3.32015 19.8415L0.957131 17.4298C0.347623 16.8077 0.347623 15.8123 0.957131 15.1902L3.32015 12.7784L2.4796 9.50831C2.26279 8.66481 2.76046 7.80282 3.59936 7.56883L6.85168 6.66167L7.75883 3.40936C7.99282 2.57046 8.85481 2.07279 9.69831 2.2896L12.9684 3.13015L15.3802 0.767129ZM16.5 4.14997L14.5636 6.04722C14.1636 6.43911 13.5879 6.59338 13.0455 6.45398L10.42 5.77912L9.69165 8.39035C9.54121 8.92973 9.11973 9.3512 8.58035 9.50165L5.96912 10.23L6.64398 12.8555C6.78338 13.3979 6.62911 13.9736 6.23722 14.3736L4.33998 16.31L6.23722 18.2464C6.62911 18.6464 6.78338 19.2221 6.64398 19.7645L5.96913 22.39L8.58032 23.1183C9.11971 23.2687 9.5412 23.6902 9.69165 24.2296L10.42 26.8408L13.0455 26.166C13.5879 26.0266 14.1636 26.1808 14.5636 26.5727L16.5 28.47L18.4364 26.5727C18.8364 26.1808 19.4121 26.0266 19.9545 26.166L22.58 26.8408L23.3083 24.2296C23.4587 23.6902 23.8802 23.2687 24.4196 23.1183L27.0308 22.39L26.356 19.7645C26.2166 19.2221 26.3708 18.6464 26.7627 18.2464L28.66 16.31L26.7627 14.3736C26.3708 13.9736 26.2166 13.3979 26.356 12.8555L27.0308 10.23L24.4196 9.50165C23.8802 9.3512 23.4587 8.92971 23.3083 8.39032L22.58 5.77912L19.9545 6.45398C19.4121 6.59338 18.8364 6.43911 18.4364 6.04722L16.5 4.14997ZM22.4314 11.9786C23.0562 12.6035 23.0562 13.6165 22.4314 14.2414L16.0314 20.6414C15.4065 21.2662 14.3935 21.2662 13.7686 20.6414L10.5686 17.4414C9.94379 16.8165 9.94379 15.8035 10.5686 15.1786C11.1935 14.5538 12.2065 14.5538 12.8314 15.1786L14.9 17.2473L20.1686 11.9786C20.7935 11.3538 21.8065 11.3538 22.4314 11.9786Z" fill="white"/>
</svg>
