<?xml version="1.0" standalone="no"?>
<!DOCTYPE svg PUBLIC "-//W3C//DTD SVG 20010904//EN"
 "http://www.w3.org/TR/2001/REC-SVG-20010904/DTD/svg10.dtd">
<svg version="1.0" xmlns="http://www.w3.org/2000/svg"
 width="582.000000pt" height="706.000000pt" viewBox="0 0 582.000000 706.000000"
 preserveAspectRatio="xMidYMid meet">

<g transform="translate(0.000000,706.000000) scale(0.100000,-0.100000)"
fill="#000000" stroke="none">
<path d="M1841 7044 c-124 -33 -227 -121 -284 -241 -30 -64 -32 -74 -32 -183
0 -109 2 -119 32 -183 107 -225 365 -319 588 -214 279 133 339 498 117 709
-32 31 -77 65 -100 77 -97 49 -218 63 -321 35z"/>
<path d="M1418 2750 c-106 -32 -168 -110 -168 -213 0 -111 53 -176 205 -254
56 -28 109 -61 120 -72 28 -32 24 -79 -10 -109 -27 -23 -35 -24 -105 -19 -45
3 -102 15 -144 31 -37 14 -70 26 -72 26 -2 0 -4 -36 -4 -79 l0 -79 41 -16 c22
-9 74 -21 116 -27 244 -34 414 106 359 294 -21 71 -75 121 -196 182 -105 53
-140 83 -140 120 0 84 96 106 234 54 28 -10 51 -18 52 -16 6 6 54 120 54 128
0 4 -36 20 -81 34 -82 26 -202 33 -261 15z"/>
<path d="M5303 2746 c-167 -54 -245 -181 -245 -396 0 -272 128 -412 377 -413
252 -1 385 141 385 413 0 194 -64 316 -199 379 -48 22 -72 26 -166 28 -73 2
-124 -2 -152 -11z m236 -150 c63 -33 100 -122 101 -243 0 -134 -34 -212 -110
-250 -116 -59 -246 1 -281 131 -7 24 -9 84 -7 141 7 140 38 199 125 231 46 17
128 12 172 -10z"/>
<path d="M0 2345 l0 -405 85 0 85 0 0 405 0 405 -85 0 -85 0 0 -405z"/>
<path d="M372 2348 l3 -403 78 -3 79 -3 -4 304 -3 303 174 -303 175 -303 108
0 108 0 0 405 0 405 -81 0 -82 0 5 -296 5 -296 -63 109 c-35 59 -112 192 -171
295 l-108 187 -113 1 -112 0 2 -402z"/>
<path d="M1830 2675 l0 -75 110 0 110 0 0 -330 0 -330 85 0 85 0 0 330 0 329
108 3 107 3 3 73 3 72 -306 0 -305 0 0 -75z"/>
<path d="M2560 2345 l0 -405 85 0 85 0 0 405 0 405 -85 0 -85 0 0 -405z"/>
<path d="M2852 2678 l3 -73 107 -3 108 -3 2 -327 3 -327 85 0 85 0 3 328 2
327 105 0 105 0 0 75 0 75 -305 0 -306 0 3 -72z"/>
<path d="M3580 2467 c0 -333 5 -361 77 -438 61 -65 129 -91 243 -92 159 -1
256 47 309 155 l31 61 0 299 0 298 -84 0 -85 0 -3 -289 c-3 -275 -4 -291 -24
-318 -64 -87 -216 -83 -269 7 -19 33 -20 55 -23 318 l-4 282 -84 0 -84 0 0
-283z"/>
<path d="M4362 2678 l3 -73 108 -3 107 -3 0 -329 0 -330 85 0 85 0 0 330 0
330 110 0 110 0 0 75 0 75 -305 0 -306 0 3 -72z"/>
<path d="M560 1385 l0 -405 85 0 85 0 0 160 0 160 135 0 135 0 0 70 0 70 -135
0 -135 0 0 100 0 100 145 0 145 0 0 75 0 75 -230 0 -230 0 0 -405z"/>
<path d="M1180 1385 l0 -405 233 2 232 3 0 70 0 70 -147 3 -148 3 0 99 0 100
140 0 140 0 0 70 0 70 -140 0 -140 0 0 85 0 84 148 3 147 3 0 70 0 70 -232 3
-233 2 0 -405z"/>
<path d="M1810 1386 l0 -406 138 0 c240 0 344 31 432 127 72 78 93 142 94 278
1 165 -43 263 -150 334 -80 53 -130 63 -331 68 l-183 5 0 -406z m397 222 c63
-41 88 -102 88 -213 0 -187 -69 -264 -237 -265 l-78 0 0 256 0 256 93 -4 c81
-3 99 -6 134 -30z"/>
<path d="M2640 1385 l0 -405 235 0 236 0 -3 73 -3 72 -142 3 -143 3 0 99 0
100 135 0 135 0 0 70 0 70 -135 0 -135 0 0 85 0 84 143 3 142 3 3 73 3 72
-236 0 -235 0 0 -405z"/>
<path d="M3270 1385 l0 -406 88 3 87 3 3 153 3 152 42 0 42 -1 95 -154 95
-155 187 0 187 0 29 93 28 92 147 3 146 3 29 -93 28 -93 92 -3 c51 -1 92 1 92
5 0 4 -63 186 -140 403 -77 216 -140 396 -140 397 0 2 -48 2 -107 1 l-107 -3
-138 -390 c-75 -214 -139 -394 -140 -398 -4 -10 -228 317 -228 332 0 6 4 11 8
11 20 0 96 77 113 114 28 62 25 142 -8 206 -52 99 -147 130 -395 130 l-138 0
0 -405z m1088 93 l49 -158 -102 0 -102 0 37 123 c21 67 44 142 50 167 7 25 14
41 16 35 2 -5 25 -81 52 -167z m-734 133 c33 -32 37 -110 7 -140 -24 -24 -81
-41 -138 -41 l-43 0 0 106 0 106 74 -4 c62 -3 79 -7 100 -27z"/>
<path d="M4800 1385 l0 -405 248 2 247 3 0 70 0 70 -162 3 -163 2 0 330 0 330
-85 0 -85 0 0 -405z"/>
<path d="M4662 628 c-7 -7 -12 -24 -12 -38 0 -31 17 -50 45 -50 28 0 45 19 45
50 0 31 -17 50 -45 50 -12 0 -26 -5 -33 -12z"/>
<path d="M124 611 c-49 -22 -81 -61 -90 -107 -18 -96 34 -165 165 -219 112
-46 133 -66 129 -124 -2 -34 -9 -48 -30 -64 -37 -27 -117 -33 -201 -13 -38 9
-70 16 -73 16 -3 0 -4 -17 -2 -37 3 -33 7 -39 38 -50 45 -15 183 -16 235 -2
22 6 56 28 76 48 63 62 63 165 1 224 -25 24 -55 39 -179 92 -57 24 -75 47 -77
96 -2 86 85 109 240 64 17 -5 24 0 33 24 17 38 11 46 -43 60 -69 17 -175 13
-222 -8z"/>
<path d="M2651 599 c-69 -34 -103 -73 -132 -150 -25 -65 -27 -191 -4 -268 22
-70 89 -144 152 -165 53 -18 179 -21 236 -5 34 9 37 13 37 46 0 33 -2 35 -27
29 -70 -15 -152 -18 -187 -6 -109 36 -166 162 -136 303 29 140 134 201 278
164 35 -10 68 -15 72 -12 4 3 13 18 18 35 11 29 10 30 -40 45 -29 8 -86 15
-128 15 -66 0 -86 -4 -139 -31z"/>
<path d="M1540 530 c-10 -43 -17 -53 -46 -65 -46 -19 -48 -55 -4 -55 l30 0 0
-137 c1 -167 9 -209 50 -246 25 -22 40 -27 84 -27 73 0 86 6 86 41 0 28 -1 29
-55 29 -43 0 -56 4 -65 19 -5 11 -10 86 -10 170 l0 151 65 0 65 0 0 30 0 30
-64 0 -65 0 -3 53 c-3 48 -5 52 -29 55 -25 3 -28 -1 -39 -48z"/>
<path d="M3560 555 c-5 -14 -13 -37 -16 -51 -4 -16 -19 -30 -40 -39 -46 -19
-48 -55 -4 -55 l30 0 0 -132 c1 -221 21 -266 119 -276 76 -7 101 2 101 38 0
29 -1 30 -49 30 -78 0 -81 6 -81 186 l0 154 65 0 65 0 0 30 0 30 -64 0 -65 0
-3 53 c-3 45 -6 52 -25 55 -17 3 -26 -3 -33 -23z"/>
<path d="M595 462 c-44 -15 -50 -20 -47 -42 4 -37 15 -42 61 -25 103 36 171
11 171 -64 l0 -38 -79 -6 c-146 -11 -211 -57 -211 -149 0 -91 50 -138 148
-138 58 0 98 13 128 41 l22 20 10 -30 c8 -24 17 -31 36 -31 l26 0 0 194 c0
184 -1 195 -23 227 -39 58 -142 75 -242 41z m185 -278 c0 -39 -5 -51 -34 -80
-30 -30 -40 -34 -89 -34 -46 0 -59 4 -71 22 -22 31 -20 70 4 96 24 26 68 38
153 41 l37 1 0 -46z"/>
<path d="M1134 461 c-23 -10 -45 -25 -50 -32 -6 -10 -10 -7 -14 11 -5 20 -13
26 -43 28 l-37 3 2 -233 3 -233 40 0 40 0 5 165 c4 137 8 171 23 193 34 53
126 64 174 23 l28 -24 3 -182 3 -181 37 3 37 3 0 185 c0 201 -7 231 -60 266
-39 26 -142 29 -191 5z"/>
<path d="M1895 462 c-44 -15 -50 -20 -47 -42 4 -37 15 -42 61 -25 103 36 171
11 171 -64 l0 -38 -79 -6 c-146 -11 -211 -57 -211 -149 0 -91 50 -138 148
-138 58 0 98 13 128 41 l22 20 10 -30 c8 -24 17 -31 36 -31 l26 0 0 194 c0
184 -1 195 -23 227 -39 58 -142 75 -242 41z m185 -278 c0 -39 -5 -51 -34 -80
-30 -30 -40 -34 -89 -34 -46 0 -59 4 -71 22 -22 31 -20 70 4 96 24 26 68 38
153 41 l37 1 0 -46z"/>
<path d="M3142 466 c-75 -25 -72 -22 -61 -56 13 -35 11 -34 64 -15 98 35 175
5 175 -68 l0 -34 -73 -6 c-95 -7 -152 -24 -187 -57 -58 -54 -48 -162 19 -207
59 -40 179 -28 220 21 20 23 28 20 35 -15 5 -26 10 -30 33 -27 l28 3 3 180 c2
198 -4 227 -61 269 -34 25 -134 31 -195 12z m178 -266 c0 -44 -23 -93 -53
-113 -34 -22 -120 -23 -141 -1 -9 9 -16 32 -16 54 0 32 5 43 26 57 28 18 82
30 147 32 35 1 37 -1 37 -29z"/>
<path d="M3905 463 c-43 -16 -50 -21 -47 -43 4 -37 15 -42 61 -25 50 17 114
20 141 5 17 -9 40 -64 40 -96 0 -7 -33 -13 -83 -17 -154 -11 -217 -56 -217
-153 0 -48 4 -59 33 -90 28 -31 42 -37 85 -42 69 -6 116 4 151 33 l29 25 11
-31 c9 -25 15 -30 38 -27 l28 3 0 185 c0 201 -6 225 -57 263 -38 28 -147 33
-213 10z m185 -279 c0 -39 -5 -51 -34 -80 -30 -30 -40 -34 -89 -34 -46 0 -59
4 -71 22 -22 31 -20 62 7 93 22 26 76 42 150 44 l37 1 0 -46z"/>
<path d="M4452 463 c-18 -9 -41 -27 -52 -40 l-19 -24 -3 33 c-3 29 -7 33 -35
36 l-33 3 0 -236 0 -236 38 3 37 3 5 155 c5 161 9 177 54 219 21 19 37 25 76
25 41 0 50 3 54 20 13 50 9 56 -41 56 -27 0 -63 -8 -81 -17z"/>
<path d="M5003 459 c-24 -12 -43 -25 -43 -31 0 -5 -4 -6 -10 -3 -5 3 -10 15
-10 26 0 15 -7 19 -35 19 l-35 0 0 -235 0 -235 40 0 40 0 0 150 c0 170 12 220
61 245 40 21 112 19 140 -4 23 -19 24 -25 29 -203 l5 -183 38 -3 37 -3 0 189
c0 180 -1 191 -23 223 -45 68 -150 90 -234 48z"/>
<path d="M5495 470 c-40 -10 -85 -28 -85 -34 0 -11 24 -56 29 -56 3 0 24 7 46
15 56 20 118 19 145 -3 13 -11 23 -33 27 -60 l6 -42 -51 0 c-69 0 -150 -18
-190 -42 -83 -51 -83 -177 1 -228 59 -36 177 -23 216 24 19 23 29 20 33 -11 3
-24 8 -28 33 -28 l30 0 0 192 c0 178 -1 194 -21 220 -41 56 -128 77 -219 53z
m165 -262 c0 -87 -48 -138 -131 -138 -60 0 -83 18 -83 64 0 63 52 92 172 95
37 1 42 -2 42 -21z"/>
<path d="M4652 238 l3 -233 40 0 40 0 3 233 2 232 -45 0 -45 0 2 -232z"/>
</g>
</svg>
