<svg id="Grupo_2644" data-name="Grupo 2644" xmlns="http://www.w3.org/2000/svg" xmlns:xlink="http://www.w3.org/1999/xlink" width="146.79" height="150.926" viewBox="0 0 146.79 150.926">
  <defs>
    <clipPath id="clip-path">
      <rect id="Retângulo_907" data-name="Retângulo 907" width="146.79" height="150.926" fill="none"/>
    </clipPath>
    <clipPath id="clip-path-3">
      <rect id="Retângulo_903" data-name="Retângulo 903" width="145.172" height="130.426" fill="none"/>
    </clipPath>
    <clipPath id="clip-path-4">
      <rect id="Retângulo_904" data-name="Retângulo 904" width="143.394" height="134.357" transform="translate(3.396 16.569)" fill="none"/>
    </clipPath>
    <clipPath id="clip-path-5">
      <rect id="Retângulo_905" data-name="Retângulo 905" width="36.644" height="7.307" transform="translate(66.039 7.565)" fill="none"/>
    </clipPath>
  </defs>
  <g id="Grupo_2643" data-name="Grupo 2643" clip-path="url(#clip-path)">
    <g id="Grupo_2642" data-name="Grupo 2642">
      <g id="Grupo_2641" data-name="Grupo 2641" clip-path="url(#clip-path)">
        <path id="Caminho_16157" data-name="Caminho 16157" d="M73.367,37.637A6.939,6.939,0,1,1,80.306,30.7a6.946,6.946,0,0,1-6.939,6.939m0-11.846A4.907,4.907,0,1,0,78.274,30.7a4.912,4.912,0,0,0-4.907-4.907" fill="#1094ab"/>
        <path id="Caminho_16158" data-name="Caminho 16158" d="M26.719,113.45a6.938,6.938,0,1,1,6.938-6.939,6.947,6.947,0,0,1-6.938,6.939m0-11.846a4.908,4.908,0,1,0,4.907,4.907,4.912,4.912,0,0,0-4.907-4.907" fill="#1094ab"/>
        <path id="Caminho_16159" data-name="Caminho 16159" d="M55.772,113.45a6.938,6.938,0,1,1,6.939-6.939,6.946,6.946,0,0,1-6.939,6.939m0-11.846a4.908,4.908,0,1,0,4.907,4.907,4.912,4.912,0,0,0-4.907-4.907" fill="#1094ab"/>
        <path id="Caminho_16160" data-name="Caminho 16160" d="M90.961,113.45a6.938,6.938,0,1,1,6.939-6.939,6.946,6.946,0,0,1-6.939,6.939m0-11.846a4.908,4.908,0,1,0,4.907,4.907,4.912,4.912,0,0,0-4.907-4.907" fill="#1094ab"/>
        <path id="Caminho_16161" data-name="Caminho 16161" d="M120.015,113.45a6.938,6.938,0,1,1,6.938-6.939,6.946,6.946,0,0,1-6.938,6.939m0-11.846a4.908,4.908,0,1,0,4.907,4.907,4.912,4.912,0,0,0-4.907-4.907" fill="#1094ab"/>
        <path id="Caminho_16162" data-name="Caminho 16162" d="M41.246,75.544a6.938,6.938,0,1,1,6.938-6.939,6.947,6.947,0,0,1-6.938,6.939m0-11.846a4.907,4.907,0,1,0,4.907,4.907A4.912,4.912,0,0,0,41.246,63.7" fill="#1094ab"/>
        <path id="Caminho_16163" data-name="Caminho 16163" d="M105.488,75.544a6.938,6.938,0,1,1,6.938-6.939,6.947,6.947,0,0,1-6.938,6.939m0-11.846a4.907,4.907,0,1,0,4.907,4.907,4.912,4.912,0,0,0-4.907-4.907" fill="#1094ab"/>
        <rect id="Retângulo_891" data-name="Retângulo 891" width="37.841" height="1.015" transform="translate(44.684 63.755) rotate(-49.711)" fill="#1094ab"/>
        <rect id="Retângulo_892" data-name="Retângulo 892" width="37.841" height="1.015" transform="translate(44.684 63.755) rotate(-49.711)" fill="none" stroke="#1094ab" stroke-width="1"/>
        <rect id="Retângulo_893" data-name="Retângulo 893" width="1.016" height="37.84" transform="matrix(0.763, -0.646, 0.646, 0.763, 76.809, 35.545)" fill="#1094ab"/>
        <rect id="Retângulo_894" data-name="Retângulo 894" width="1.016" height="37.84" transform="matrix(0.763, -0.646, 0.646, 0.763, 76.809, 35.545)" fill="none" stroke="#1094ab" stroke-width="1"/>
        <rect id="Retângulo_895" data-name="Retângulo 895" width="28.747" height="1.015" transform="translate(28.369 100.8) rotate(-69.048)" fill="#1094ab"/>
        <rect id="Retângulo_896" data-name="Retângulo 896" width="28.747" height="1.015" transform="translate(28.369 100.8) rotate(-69.048)" fill="none" stroke="#1094ab" stroke-width="1"/>
        <rect id="Retângulo_897" data-name="Retângulo 897" width="1.015" height="28.747" transform="matrix(0.934, -0.358, 0.358, 0.934, 42.892, 74.319)" fill="#1094ab"/>
        <rect id="Retângulo_898" data-name="Retângulo 898" width="1.015" height="28.747" transform="matrix(0.934, -0.358, 0.358, 0.934, 42.892, 74.319)" fill="none" stroke="#1094ab" stroke-width="1"/>
        <rect id="Retângulo_899" data-name="Retângulo 899" width="28.328" height="1.015" transform="translate(92.611 100.8) rotate(-69.048)" fill="#1094ab"/>
        <rect id="Retângulo_900" data-name="Retângulo 900" width="28.328" height="1.015" transform="translate(92.611 100.8) rotate(-69.048)" fill="none" stroke="#1094ab" stroke-width="1"/>
        <rect id="Retângulo_901" data-name="Retângulo 901" width="1.015" height="28.747" transform="matrix(0.934, -0.358, 0.358, 0.934, 107.134, 74.319)" fill="#1094ab"/>
        <rect id="Retângulo_902" data-name="Retângulo 902" width="1.015" height="28.747" transform="matrix(0.934, -0.358, 0.358, 0.934, 107.134, 74.319)" fill="none" stroke="#1094ab" stroke-width="1"/>
        <g id="Grupo_2634" data-name="Grupo 2634" opacity="0.5">
          <g id="Grupo_2633" data-name="Grupo 2633">
            <g id="Grupo_2632" data-name="Grupo 2632" clip-path="url(#clip-path-3)">
              <path id="Caminho_16164" data-name="Caminho 16164" d="M3.554,104.267H1.134a1.134,1.134,0,1,1,0-2.268h2.42a1.134,1.134,0,1,1,0,2.268" fill="#1094ab"/>
              <path id="Caminho_16165" data-name="Caminho 16165" d="M12.929,104.267H10.207a1.134,1.134,0,1,1,0-2.268h2.722a1.134,1.134,0,1,1,0,2.268" fill="#1094ab"/>
              <path id="Caminho_16166" data-name="Caminho 16166" d="M6.956,110.241a1.134,1.134,0,0,1-1.134-1.134v-2.42a1.134,1.134,0,0,1,2.268,0v2.42a1.134,1.134,0,0,1-1.134,1.134" fill="#1094ab"/>
              <path id="Caminho_16167" data-name="Caminho 16167" d="M6.956,101.167a1.134,1.134,0,0,1-1.134-1.134V97.311a1.134,1.134,0,0,1,2.268,0v2.722a1.134,1.134,0,0,1-1.134,1.134" fill="#1094ab"/>
              <path id="Caminho_16168" data-name="Caminho 16168" d="M49.677,8.09h-2.42a1.134,1.134,0,0,1,0-2.268h2.42a1.134,1.134,0,1,1,0,2.268" fill="#1094ab"/>
              <path id="Caminho_16169" data-name="Caminho 16169" d="M59.052,8.09H56.33a1.134,1.134,0,1,1,0-2.268h2.722a1.134,1.134,0,1,1,0,2.268" fill="#1094ab"/>
              <path id="Caminho_16170" data-name="Caminho 16170" d="M53.079,14.064a1.134,1.134,0,0,1-1.134-1.134V10.51a1.134,1.134,0,0,1,2.268,0v2.42a1.134,1.134,0,0,1-1.134,1.134" fill="#1094ab"/>
              <path id="Caminho_16171" data-name="Caminho 16171" d="M53.079,4.99a1.134,1.134,0,0,1-1.134-1.134V1.134a1.134,1.134,0,0,1,2.268,0V3.856A1.134,1.134,0,0,1,53.079,4.99" fill="#1094ab"/>
              <path id="Caminho_16172" data-name="Caminho 16172" d="M134.663,27.749h-2.42a1.134,1.134,0,1,1,0-2.268h2.42a1.134,1.134,0,1,1,0,2.268" fill="#1094ab"/>
              <path id="Caminho_16173" data-name="Caminho 16173" d="M144.038,27.749h-2.722a1.134,1.134,0,0,1,0-2.268h2.722a1.134,1.134,0,1,1,0,2.268" fill="#1094ab"/>
              <path id="Caminho_16174" data-name="Caminho 16174" d="M138.065,33.723a1.134,1.134,0,0,1-1.134-1.134v-2.42a1.134,1.134,0,0,1,2.268,0v2.42a1.134,1.134,0,0,1-1.134,1.134" fill="#1094ab"/>
              <path id="Caminho_16175" data-name="Caminho 16175" d="M138.065,24.649a1.134,1.134,0,0,1-1.134-1.134V20.793a1.134,1.134,0,0,1,2.268,0v2.722a1.134,1.134,0,0,1-1.134,1.134" fill="#1094ab"/>
              <path id="Caminho_16176" data-name="Caminho 16176" d="M20.348,130.426a3.676,3.676,0,1,1,3.676-3.676,3.676,3.676,0,0,1-3.676,3.676m0-5.084a1.408,1.408,0,1,0,1.408,1.408,1.408,1.408,0,0,0-1.408-1.408" fill="#1094ab"/>
              <path id="Caminho_16177" data-name="Caminho 16177" d="M141.317,59.3a3.676,3.676,0,1,1,3.676-3.676,3.676,3.676,0,0,1-3.676,3.676m0-5.084a1.408,1.408,0,1,0,1.408,1.408,1.408,1.408,0,0,0-1.408-1.408" fill="#1094ab"/>
            </g>
          </g>
        </g>
        <g id="Grupo_2637" data-name="Grupo 2637" opacity="0.5">
          <g id="Grupo_2636" data-name="Grupo 2636">
            <g id="Grupo_2635" data-name="Grupo 2635" clip-path="url(#clip-path-4)">
              <path id="Caminho_16178" data-name="Caminho 16178" d="M111.222,19.738a1.13,1.13,0,0,1-.581-.161c-.5-.3-1.011-.6-1.516-.88a1.134,1.134,0,0,1,1.093-1.987l.02.011c.522.294,1.049.6,1.566.909a1.134,1.134,0,0,1-.583,2.108" fill="#1094ab"/>
              <path id="Caminho_16179" data-name="Caminho 16179" d="M5.095,89.336a1.135,1.135,0,0,1-1.124-.992,72.648,72.648,0,0,1-.006-18.189,70.968,70.968,0,0,1,8.719-26.244,1.134,1.134,0,0,1,1.973,1.119A68.716,68.716,0,0,0,6.216,70.439a70.422,70.422,0,0,0,.006,17.624,1.136,1.136,0,0,1-.986,1.268,1.113,1.113,0,0,1-.141.009" fill="#1094ab"/>
              <path id="Caminho_16180" data-name="Caminho 16180" d="M39.849,141.506a1.125,1.125,0,0,1-.566-.152,72.106,72.106,0,0,1-7.941-5.323,1.136,1.136,0,0,1,1.385-1.8,69.762,69.762,0,0,0,7.69,5.154,1.134,1.134,0,0,1-.568,2.117" fill="#1094ab"/>
              <path id="Caminho_16181" data-name="Caminho 16181" d="M75.094,150.924a71.859,71.859,0,0,1-18.844-2.5,1.134,1.134,0,1,1,.6-2.189,70,70,0,0,0,33.1.831,1.134,1.134,0,1,1,.483,2.216A72.186,72.186,0,0,1,75.1,150.926" fill="#1094ab"/>
              <path id="Caminho_16182" data-name="Caminho 16182" d="M109.683,141.88a1.134,1.134,0,0,1-.558-2.123c1.7-.956,3.372-2,4.982-3.092a1.134,1.134,0,0,1,1.28,1.873l0,0c-1.663,1.132-3.393,2.206-5.145,3.193a1.129,1.129,0,0,1-.556.146" fill="#1094ab"/>
              <path id="Caminho_16183" data-name="Caminho 16183" d="M127.446,127.672a1.134,1.134,0,0,1-.841-1.895,69.5,69.5,0,0,0,15.968-30.149,1.134,1.134,0,0,1,2.232.4,1.225,1.225,0,0,1-.032.133,71.758,71.758,0,0,1-16.49,31.136,1.132,1.132,0,0,1-.841.373" fill="#1094ab"/>
              <path id="Caminho_16184" data-name="Caminho 16184" d="M145.656,80.362a1.134,1.134,0,0,1-1.134-1.134c0-2.089-.094-4.2-.279-6.265-.152-1.694-.367-3.4-.642-5.071a1.134,1.134,0,1,1,2.238-.368c.284,1.725.506,3.487.663,5.237.191,2.135.288,4.311.288,6.467a1.134,1.134,0,0,1-1.134,1.134" fill="#1094ab"/>
            </g>
          </g>
        </g>
        <g id="Grupo_2640" data-name="Grupo 2640" opacity="0.5">
          <g id="Grupo_2639" data-name="Grupo 2639">
            <g id="Grupo_2638" data-name="Grupo 2638" clip-path="url(#clip-path-5)">
              <path id="Caminho_16185" data-name="Caminho 16185" d="M101.546,14.871a1.121,1.121,0,0,1-.42-.081A69.5,69.5,0,0,0,67.306,10.3a1.134,1.134,0,1,1-.266-2.253,71.76,71.76,0,0,1,34.927,4.636,1.134,1.134,0,0,1-.421,2.188" fill="#1094ab"/>
            </g>
          </g>
        </g>
      </g>
    </g>
  </g>
</svg>
