<svg width="60" height="64" viewBox="0 0 60 64" fill="none" xmlns="http://www.w3.org/2000/svg">
<path d="M29.9891 0.859985C28.6391 0.859985 27.3291 1.28999 26.2391 2.08999L23.0791 4.38999C21.9891 5.18999 20.6591 5.61999 19.3091 5.61999H15.3991C12.6291 5.59999 10.1691 7.37998 9.32908 10.02L8.12908 13.74C7.71908 15.03 6.89908 16.16 5.79908 16.95L2.62908 19.23C0.379082 20.85 -0.550918 23.74 0.319082 26.37L1.53908 30.08C1.95908 31.37 1.95908 32.76 1.53908 34.05L0.319082 37.76C-0.550918 40.39 0.389082 43.28 2.63908 44.9L5.80908 47.18C6.90908 47.97 7.72908 49.1 8.13908 50.39L9.33908 54.11C10.1891 56.75 12.6491 58.53 15.4091 58.52H19.3191C20.6791 58.5 21.9991 58.93 23.0891 59.73L26.2491 62.04C28.4891 63.67 31.5191 63.67 33.7591 62.04L36.9091 59.73C37.9991 58.93 39.3291 58.5 40.6791 58.51H44.5891C47.3591 58.53 49.8191 56.75 50.6591 54.11L51.8491 50.39C52.2691 49.1 53.0791 47.98 54.1891 47.18L57.3591 44.9C59.5991 43.28 60.5391 40.39 59.6791 37.76L58.4591 34.05C58.0391 32.76 58.0391 31.37 58.4591 30.08L59.6791 26.37C60.5491 23.74 59.6091 20.85 57.3591 19.23L54.1891 16.95C53.0891 16.16 52.2691 15.03 51.8491 13.74L50.6491 10.02C49.7991 7.37998 47.3391 5.59999 44.5791 5.60999H40.6691C39.3091 5.62999 37.9891 5.19999 36.8991 4.39999L33.7491 2.09999C32.6591 1.28999 31.3391 0.859985 29.9891 0.859985ZM29.9891 10.43C41.9391 10.43 51.6091 20.12 51.6091 32.07C51.6091 44.02 41.9191 53.69 29.9691 53.69C18.0291 53.69 8.34908 44 8.34908 32.06C8.36908 20.12 18.0491 10.44 29.9891 10.43Z" fill="#D40000"/>
<path d="M28.0391 38.14C28.0391 37.46 28.2491 36.89 28.6791 36.44C29.1091 35.99 29.6891 35.77 30.4391 35.77C31.1891 35.77 31.7691 35.99 32.1991 36.44C32.6291 36.89 32.8391 37.45 32.8391 38.14C32.8391 38.83 32.6291 39.39 32.1991 39.84C31.7691 40.29 31.1891 40.51 30.4391 40.51C29.6891 40.51 29.1091 40.29 28.6791 39.84C28.2491 39.39 28.0391 38.83 28.0391 38.14ZM32.4891 21.82C32.4891 22.38 32.4791 23.13 32.4591 24.08C32.4391 25.03 32.4091 26.06 32.3591 27.17C32.3191 28.28 32.2591 29.38 32.1791 30.47C32.0991 31.56 32.0291 32.54 31.9391 33.41C31.7891 33.52 31.5591 33.61 31.2491 33.68C30.9391 33.76 30.6591 33.79 30.3991 33.79C29.9691 33.79 29.6091 33.71 29.2991 33.55C28.9891 33.39 28.7991 33.11 28.7391 32.7C28.6791 32.15 28.6091 31.37 28.5491 30.36C28.4891 29.36 28.4291 28.25 28.3891 27.05C28.3491 25.84 28.3091 24.67 28.2891 23.51C28.2691 22.36 28.2591 21.34 28.2591 20.47C28.9391 20.09 29.6891 19.89 30.4991 19.89C31.1391 19.89 31.6291 20.05 31.9691 20.35C32.3091 20.66 32.4791 21.14 32.4791 21.81L32.4891 21.82Z" fill="#D40000"/>
</svg>
