<svg width="25" height="25" viewBox="0 0 25 25" fill="none" xmlns="http://www.w3.org/2000/svg">
<path fill-rule="evenodd" clip-rule="evenodd" d="M12.5 2.99182C7.07757 2.99182 2.68182 7.38757 2.68182 12.81C2.68182 18.2324 7.07757 22.6282 12.5 22.6282C17.9224 22.6282 22.3182 18.2324 22.3182 12.81C22.3182 7.38757 17.9224 2.99182 12.5 2.99182ZM0.5 12.81C0.5 6.18258 5.87258 0.809998 12.5 0.809998C19.1274 0.809998 24.5 6.18258 24.5 12.81C24.5 19.4374 19.1274 24.81 12.5 24.81C5.87258 24.81 0.5 19.4374 0.5 12.81Z" fill="#1094AB"/>
<path fill-rule="evenodd" clip-rule="evenodd" d="M12.5 11.7191C13.1025 11.7191 13.5909 12.2075 13.5909 12.81V17.1736C13.5909 17.7761 13.1025 18.2645 12.5 18.2645C11.8975 18.2645 11.4091 17.7761 11.4091 17.1736V12.81C11.4091 12.2075 11.8975 11.7191 12.5 11.7191Z" fill="#1094AB"/>
<path d="M13.5909 8.44636C13.5909 9.04885 13.1025 9.53727 12.5 9.53727C11.8975 9.53727 11.4091 9.04885 11.4091 8.44636C11.4091 7.84387 11.8975 7.35545 12.5 7.35545C13.1025 7.35545 13.5909 7.84387 13.5909 8.44636Z" fill="#1094AB"/>
</svg>
