<svg version="1.1" id="Layer_1" xmlns="http://www.w3.org/2000/svg" xmlns:xlink="http://www.w3.org/1999/xlink" x="0px" y="0px"
	 width="100%" viewBox="0 0 2287 1589" enable-background="new 0 0 2287 1589" xml:space="preserve">
<path fill="#FBFBFB" opacity="1.000000" stroke="none" 
	d="
M0.999996,685.000000 
	C1.000000,457.032867 1.000000,229.065750 1.000000,1.000000 
	C714.364258,1.000000 1427.728516,1.000000 2141.406738,1.340983 
	C2133.344727,28.392296 2125.277588,55.204441 2116.515381,81.787361 
	C2105.458008,115.333405 2093.981689,148.744003 2082.396973,182.112717 
	C2075.550049,201.834900 2068.144531,221.363220 2060.551758,240.992966 
	C2049.404297,242.723236 2038.695068,244.439209 2027.609131,246.132233 
	C2017.152100,250.461014 2007.072021,254.812759 1996.659058,259.244873 
	C1982.936035,267.262024 1970.347656,276.156769 1960.680664,289.063538 
	C1950.061035,300.604370 1942.301514,313.613678 1937.061401,327.960968 
	C1934.098755,336.072876 1932.425659,344.655762 1929.977295,353.383179 
	C1926.192871,369.700256 1926.344727,385.821350 1929.208496,401.745087 
	C1934.366699,430.427216 1946.717041,455.496826 1968.099609,475.866302 
	C1981.874390,488.988464 1997.116333,499.763153 2015.049927,506.162994 
	C2025.122681,509.757507 2035.640991,512.103210 2045.687622,515.228271 
	C2040.754272,525.348816 2036.294312,535.354004 2031.391357,545.137146 
	C2017.395752,573.063171 2003.441284,601.013916 1989.040649,628.731506 
	C1978.719727,648.596436 1967.706787,668.101807 1956.670532,687.902832 
	C1946.440186,704.901062 1936.791504,721.916809 1926.585449,738.591492 
	C1911.196289,763.734497 1895.495483,788.688416 1879.770752,813.624023 
	C1872.353027,825.387024 1864.571533,836.920776 1856.901367,848.875427 
	C1855.775513,850.991455 1854.807739,852.863708 1853.609131,854.574280 
	C1851.143188,858.093567 1848.553833,861.526428 1845.665527,865.031616 
	C1844.470337,866.065796 1843.563843,867.018188 1842.788574,868.067566 
	C1830.036255,885.329834 1817.415405,902.690613 1804.523804,919.848145 
	C1794.624023,933.023987 1784.547485,946.074707 1774.251587,958.942871 
	C1765.755005,969.562134 1756.745728,979.769714 1748.116699,990.285339 
	C1744.218994,995.035217 1740.692871,1000.090088 1736.855713,1005.308228 
	C1730.876221,1012.185303 1725.063843,1018.782837 1719.197510,1025.331787 
	C1704.695923,1041.520874 1690.329468,1057.835083 1675.604980,1073.819092 
	C1662.653198,1087.878906 1649.610596,1101.882935 1636.042358,1115.341309 
	C1605.197876,1145.936157 1574.321899,1176.513550 1542.823608,1206.429199 
	C1526.736328,1221.708252 1509.893433,1236.343994 1492.307251,1249.859131 
	C1461.296143,1273.691406 1429.829834,1296.977173 1397.832397,1319.464966 
	C1375.165283,1335.395630 1351.750977,1350.383667 1327.880981,1364.453857 
	C1292.400391,1385.367676 1256.829956,1406.287720 1220.177612,1425.012817 
	C1179.928345,1445.575439 1138.738281,1464.402100 1097.334351,1482.563477 
	C1066.953857,1495.889404 1035.826172,1507.645386 1004.571960,1518.815552 
	C952.823975,1537.309692 900.174438,1552.965820 846.432007,1564.651123 
	C825.586182,1569.183594 804.649353,1573.433228 783.596985,1576.842529 
	C762.726624,1580.222412 741.701294,1582.798096 720.664734,1584.953125 
	C702.064758,1586.858521 683.354431,1587.682007 664.696594,1589.035278 
	C662.784485,1589.174072 660.898254,1589.669922 659.000000,1590.000000 
	C643.635742,1590.000000 628.271484,1590.000000 612.155884,1589.707642 
	C603.635803,1588.949829 595.841858,1588.738525 588.103455,1587.968140 
	C569.681152,1586.134155 551.244995,1584.346191 532.888062,1581.970825 
	C506.033295,1578.496094 479.856354,1571.839111 454.131714,1563.510498 
	C425.092102,1554.108398 397.281586,1541.803955 371.164368,1525.975342 
	C354.851807,1516.088745 338.451935,1506.117432 324.985321,1492.353027 
	C317.691345,1484.897705 311.075226,1476.767212 304.317047,1468.802368 
	C289.296570,1451.099976 276.866608,1431.582275 267.104126,1410.644531 
	C259.622681,1394.598999 253.451294,1377.834106 248.028290,1360.961304 
	C238.646988,1331.772827 235.107117,1301.483643 234.105530,1270.946411 
	C233.719589,1259.179565 234.500153,1247.362793 235.031097,1235.581421 
	C235.493332,1225.324341 235.551300,1214.954346 237.197388,1204.864380 
	C241.002975,1181.536987 244.484543,1158.050415 250.279236,1135.181274 
	C257.279510,1107.554077 266.148315,1080.372803 274.956970,1053.241699 
	C280.229889,1037.000854 286.934753,1021.225037 293.460938,1005.175049 
	C329.520660,1005.109924 365.115479,1005.109924 400.885651,1005.109924 
	C400.885651,973.957947 400.885651,943.490967 401.182312,912.848022 
	C402.751312,910.588684 404.082092,908.538391 405.283356,906.414795 
	C407.577576,902.359253 409.797943,898.261902 412.508698,894.103760 
	C426.565155,894.025635 440.161835,894.025635 454.188263,894.025635 
	C454.188263,983.643555 454.188263,1072.701538 454.188263,1161.659180 
	C503.020081,1161.659180 551.413208,1161.659180 600.242371,1161.659180 
	C600.242371,1072.269531 600.242371,983.211487 600.242371,893.710815 
	C640.409729,893.710815 680.140259,893.710815 719.779541,893.710815 
	C719.779541,861.655334 719.779541,830.045288 719.779541,797.991577 
	C679.840454,797.991577 640.109863,797.991577 599.991333,797.991577 
	C599.991333,795.759949 599.992798,793.967346 599.991211,792.174744 
	C599.946655,743.516174 599.901733,694.857544 600.016968,645.881226 
	C604.726685,639.158752 609.062744,632.587524 613.888550,626.398010 
	C618.318176,620.716614 623.275696,615.446838 628.406616,609.975830 
	C630.983276,610.549316 633.178833,611.065002 635.320190,611.749939 
	C643.196838,614.269348 646.008484,618.051453 646.008606,625.995239 
	C646.008850,645.327759 646.008667,664.660217 646.008667,683.992737 
	C646.008667,685.587097 646.008667,687.181458 646.008667,689.215698 
	C694.367188,689.215698 742.099670,689.215698 790.273682,689.215698 
	C790.273682,794.726562 790.273682,899.789551 790.273682,1004.614990 
	C847.988586,1004.614990 905.257263,1004.614990 962.526001,1004.614990 
	C958.360596,1002.683716 954.093628,1001.437134 949.889038,1000.007080 
	C927.209167,992.293518 906.314697,981.638977 890.475525,962.995667 
	C877.228882,947.403931 871.275696,929.152954 870.976440,908.447571 
	C922.464417,908.447571 973.539368,908.447571 1024.638428,908.447571 
	C1027.101807,920.477661 1035.699463,926.317688 1046.223267,929.966492 
	C1062.285034,935.535339 1078.961792,935.982544 1095.608154,934.348389 
	C1104.115967,933.513062 1112.652344,931.496826 1120.793945,928.843201 
	C1127.995728,926.495972 1132.754517,921.064270 1132.995361,912.841248 
	C1133.236450,904.607849 1128.690308,899.105896 1121.744263,896.098022 
	C1114.786987,893.085327 1107.448853,890.189880 1100.013672,889.174194 
	C1065.210205,884.419495 1030.322754,880.274353 995.451294,876.025940 
	C973.748840,873.382019 952.340942,869.510620 932.072754,860.966736 
	C897.282410,846.301270 875.140686,822.217834 874.551025,782.488831 
	C874.005493,745.736633 889.438354,718.329712 922.610779,701.633911 
	C928.528870,698.655334 934.772522,696.268372 941.003296,693.982910 
	C946.688110,691.897400 952.559448,690.320129 958.348572,688.518860 
	C958.315674,688.260742 958.282837,688.002563 958.250000,687.744385 
	C902.866638,687.744385 847.483337,687.744385 791.991333,687.744385 
	C791.991333,657.440186 792.221130,627.609314 791.853088,597.785767 
	C791.740784,588.686951 790.932922,579.377380 788.787964,570.567383 
	C783.914978,550.551819 771.838318,536.592163 751.802673,529.874695 
	C741.107666,526.288940 730.238831,524.786926 719.202881,524.555603 
	C727.947998,516.999084 736.328979,509.456299 745.191956,502.530304 
	C764.748230,487.247955 784.154907,471.727081 804.338806,457.305878 
	C835.202209,435.254242 866.158508,413.255768 898.019592,392.698120 
	C932.831482,370.236542 968.306885,348.723053 1004.251160,328.118896 
	C1040.685181,307.233978 1077.946289,287.778107 1115.046509,268.075531 
	C1131.047241,259.578247 1147.520752,251.964966 1163.843018,244.081772 
	C1175.360352,238.519257 1186.868652,232.912552 1198.583618,227.788986 
	C1232.772949,212.836212 1266.765625,197.371536 1301.391968,183.496811 
	C1342.777100,166.913864 1384.538574,151.210556 1426.521851,136.202362 
	C1453.343140,126.614227 1480.755493,118.614937 1508.103271,110.586304 
	C1526.980835,105.044357 1546.201416,100.670609 1565.268311,95.773758 
	C1570.238403,94.497322 1575.207275,93.217049 1580.176758,91.938553 
	C1578.352661,91.279541 1576.799683,91.704720 1575.219238,91.957031 
	C1553.864624,95.366066 1532.407593,98.233482 1511.174072,102.275932 
	C1485.859863,107.095238 1460.495239,111.994690 1435.584351,118.510483 
	C1393.474854,129.524841 1351.450806,141.011154 1309.854614,153.806778 
	C1254.986694,170.684998 1201.229370,190.820206 1148.576904,213.755203 
	C1119.673950,226.345169 1090.726440,238.892853 1062.306396,252.517914 
	C1017.502441,273.997681 973.367981,296.843475 930.624634,322.234680 
	C902.974854,338.659760 875.289307,355.067047 848.226074,372.427399 
	C807.497131,398.553864 767.621887,425.968597 729.463013,455.788330 
	C714.208923,467.708832 698.913452,479.580750 683.844421,491.732269 
	C670.704163,502.328308 657.855774,513.286194 644.418457,524.051025 
	C605.706848,524.348083 567.453918,524.578064 529.204773,525.090027 
	C521.192810,525.197266 513.081482,525.724548 505.218475,527.164429 
	C494.986023,529.038330 485.199127,532.855713 477.085022,539.537964 
	C460.815918,552.936096 454.450226,571.339111 454.185272,591.521912 
	C453.614441,635.006409 454.016235,678.503723 453.740112,722.178223 
	C442.328552,737.719299 430.937256,752.898682 420.161774,768.503357 
	C413.617340,777.980835 408.024506,788.115356 401.596558,797.793579 
	C401.123047,795.806213 401.000336,793.979919 400.999725,792.153687 
	C400.988251,758.002563 400.991272,723.851379 400.991272,689.700256 
	C400.991272,687.920898 400.991272,686.141479 400.991272,684.260864 
	C353.452759,684.260864 306.403931,684.260864 259.008728,684.260864 
	C259.008728,686.299377 259.008728,688.100464 259.008728,689.901611 
	C259.008728,737.046875 259.113556,784.192566 258.918213,831.337036 
	C258.880219,840.509949 258.234406,849.763855 256.845856,858.823608 
	C255.515045,867.506592 252.281769,875.377441 244.668304,881.209045 
	C234.253113,889.186646 222.176804,891.245850 209.885986,891.789856 
	C200.265930,892.215576 190.403015,891.544250 180.921692,889.838806 
	C158.282791,885.766724 147.636292,873.779358 147.265076,850.648254 
	C146.404419,797.019775 146.991226,743.368042 146.991226,689.725769 
	C146.991226,687.943970 146.991226,686.162109 146.991226,684.361755 
	C146.072250,684.190125 145.607849,684.027649 145.143387,684.027466 
	C98.497910,684.013306 51.852428,684.002747 5.206998,684.050415 
	C3.804341,684.051819 2.402314,684.669556 0.999996,685.000000 
M1461.555542,688.030090 
	C1365.596069,688.030090 1269.636475,688.030090 1173.513184,688.030090 
	C1173.852417,688.463867 1173.996582,688.848999 1174.231445,688.915955 
	C1175.669922,689.326111 1177.130493,689.657715 1178.580688,690.027405 
	C1193.450439,693.817505 1207.914673,698.713074 1221.368042,706.213501 
	C1240.569702,716.918579 1255.736450,731.497375 1263.334229,752.553772 
	C1266.385376,761.010193 1267.914795,770.015747 1270.334961,779.551880 
	C1266.874512,779.551880 1265.068970,779.551941 1263.263428,779.551941 
	C1224.935547,779.551941 1186.607544,779.551819 1148.279663,779.551819 
	C1140.614014,779.551819 1132.944824,779.672363 1125.286255,779.440552 
	C1123.904175,779.398743 1121.651489,778.157715 1121.347900,777.047424 
	C1118.102417,765.175293 1109.464355,758.878418 1098.673950,755.055664 
	C1082.220093,749.226501 1065.131104,748.456726 1047.888428,749.608582 
	C1038.691040,750.223022 1029.689575,751.753113 1021.520813,756.352356 
	C1015.825073,759.559143 1011.754272,764.006226 1012.102051,771.044495 
	C1012.450073,778.087463 1016.880371,782.280457 1022.968445,784.635925 
	C1027.750122,786.486023 1032.740723,788.155518 1037.786987,788.905396 
	C1074.823242,794.408813 1111.931763,799.431824 1148.945190,805.080444 
	C1169.640259,808.238647 1190.309570,811.776245 1210.776978,816.143433 
	C1224.476929,819.066650 1237.195557,825.111023 1248.899658,832.995178 
	C1271.734497,848.377380 1283.055054,870.081787 1284.032959,897.371582 
	C1285.558594,939.948303 1266.478638,970.119751 1228.441284,988.442810 
	C1219.647095,992.679077 1210.275757,995.773804 1201.033325,999.002808 
	C1195.016235,1001.105042 1188.752075,1002.500610 1182.598633,1004.212708 
	C1182.641724,1004.391968 1182.684937,1004.571167 1182.728027,1004.750366 
	C1276.665894,1004.750366 1370.603760,1004.750366 1464.541626,1004.750366 
	C1463.519287,1003.700317 1462.321655,1003.382141 1461.148438,1002.991455 
	C1450.121094,999.320557 1438.810669,996.321228 1428.124634,991.835449 
	C1388.478516,975.193176 1359.303955,948.005493 1345.384644,906.439392 
	C1335.353394,876.484070 1334.147949,845.695740 1338.556396,814.621338 
	C1342.320801,788.085632 1351.676514,763.798767 1368.897095,742.944702 
	C1389.644531,717.819824 1416.913452,702.868958 1447.417358,693.048218 
	C1452.388672,691.447693 1457.344482,689.799133 1461.555542,688.030090 
M1474.711914,868.625671 
	C1479.459595,899.642517 1498.826538,921.028748 1529.189819,928.523865 
	C1542.417725,931.789185 1555.880981,932.092529 1569.402954,930.939514 
	C1599.125854,928.405090 1619.178955,911.854065 1627.169434,883.281555 
	C1627.472290,882.197876 1627.899902,881.148987 1628.308472,879.970947 
	C1630.340088,879.970947 1632.165649,879.970947 1633.991211,879.970947 
	C1661.313110,879.971008 1688.635132,879.939819 1715.956787,880.017212 
	C1718.844604,880.025391 1720.650635,879.244141 1722.479736,876.741760 
	C1731.072754,864.986145 1740.067505,853.525269 1748.775757,841.852478 
	C1753.789673,835.131531 1758.531372,828.207642 1763.926758,820.628906 
	C1760.989868,820.628906 1759.181396,820.628906 1757.372803,820.628906 
	C1716.056763,820.628845 1674.740601,820.584778 1633.424927,820.703857 
	C1629.724487,820.714539 1628.358887,819.845337 1627.864136,815.893982 
	C1624.365723,787.947388 1607.327393,769.106995 1579.890503,762.620667 
	C1564.746338,759.040405 1549.443359,759.224487 1534.260376,762.136963 
	C1504.603516,767.825867 1484.907593,784.796997 1476.789551,814.292358 
	C1471.937012,831.923889 1471.876099,849.807739 1474.711914,868.625671 
M1848.206055,689.542908 
	C1847.000122,689.031250 1845.794556,688.073181 1844.588013,688.071777 
	C1781.460083,687.999390 1718.332153,688.008057 1655.204102,688.008118 
	C1654.085938,688.008118 1652.967773,688.008118 1651.849609,688.008118 
	C1670.644409,693.708496 1688.866211,700.231750 1705.839966,709.939941 
	C1734.621704,726.401917 1756.008179,749.232361 1766.571533,781.141235 
	C1769.247314,789.223877 1770.830688,797.668152 1773.115234,806.737366 
	C1774.312012,805.202393 1775.343628,804.039612 1776.198242,802.758850 
	C1786.333252,787.568054 1796.694458,772.520325 1806.497192,757.117310 
	C1820.578369,734.991333 1834.247559,712.603088 1848.206055,689.542908 
z"/>
<path fill="#FFFFFF" opacity="1.000000" stroke="none" 
	d="
M1846.015259,864.994873 
	C1848.553833,861.526428 1851.143188,858.093567 1853.609131,854.574280 
	C1854.807739,852.863708 1855.775513,850.991455 1857.244873,848.722168 
	C1858.265381,848.028931 1859.019165,847.960449 1859.493408,847.560364 
	C1873.937256,835.371826 1891.422607,830.902222 1909.463867,827.941284 
	C1940.205444,822.895752 1971.187378,822.741089 2002.170654,824.206787 
	C2022.806641,825.183044 2043.365967,827.450073 2062.868164,834.975769 
	C2082.137695,842.411682 2096.398926,855.196289 2101.125244,875.834412 
	C2103.701172,887.080994 2104.567383,898.880188 2104.831787,910.461487 
	C2105.376221,934.277527 2104.861816,958.116028 2105.112793,981.941772 
	C2105.164307,986.840515 2105.887451,992.044861 2107.743408,996.508728 
	C2109.127441,999.837219 2112.677246,1004.403992 2115.537109,1004.610046 
	C2127.908447,1005.501343 2140.380615,1004.991638 2153.339844,1004.991638 
	C2153.339844,943.033752 2153.339844,881.639099 2153.339844,820.128418 
	C2182.144287,820.128418 2210.416016,820.128418 2238.927002,820.128418 
	C2239.391357,824.792358 2239.839111,829.288940 2240.362549,834.547485 
	C2252.181885,822.748352 2266.194580,817.649170 2281.666748,816.288513 
	C2285.593506,815.943176 2286.075684,814.325562 2286.066895,810.951660 
	C2285.962646,771.293457 2286.002686,731.634888 2285.987061,691.976379 
	C2285.986572,690.710510 2285.799561,689.444763 2285.685059,687.999878 
	C2283.379883,687.999878 2281.396240,687.999878 2279.412598,687.999878 
	C2173.934326,687.999878 2068.456055,688.001221 1962.977905,687.990234 
	C1960.986206,687.990051 1958.994385,687.845093 1957.002686,687.767700 
	C1967.706787,668.101807 1978.719727,648.596436 1989.040649,628.731506 
	C2003.441284,601.013916 2017.395752,573.063171 2031.391357,545.137146 
	C2036.294312,535.354004 2040.754272,525.348816 2046.141602,515.229553 
	C2050.795654,515.346863 2054.718994,515.849365 2058.655029,515.984131 
	C2079.663086,516.703369 2099.986572,513.010254 2119.185059,504.667969 
	C2127.957275,500.856201 2135.830566,494.975861 2144.460449,490.005676 
	C2152.593018,483.098236 2161.320801,477.008514 2167.909180,469.129578 
	C2175.319336,460.268524 2180.799072,449.793274 2187.401855,439.828430 
	C2195.056396,425.643555 2199.347412,410.741699 2200.909668,394.588470 
	C2200.930664,384.111420 2200.891846,374.063019 2200.906494,363.585388 
	C2200.639648,360.375671 2200.708740,357.480499 2199.930176,354.834808 
	C2196.789795,344.163300 2193.387939,333.568787 2190.028564,322.588440 
	C2183.143066,306.576904 2173.678467,292.740173 2161.365234,280.883698 
	C2157.916504,277.563049 2154.384277,274.329468 2150.929443,270.669922 
	C2151.100098,269.635651 2151.141602,268.952667 2151.376221,268.344086 
	C2162.884033,238.490585 2174.619385,208.722824 2185.872314,178.773743 
	C2197.359375,148.201248 2208.406250,117.462975 2219.498779,86.744164 
	C2220.040771,85.243477 2219.831299,82.644341 2218.856445,81.552605 
	C2210.453369,72.142258 2201.891357,62.867870 2193.185547,53.735184 
	C2182.280029,42.295017 2171.139404,31.079376 2160.207520,19.664272 
	C2154.355957,13.553875 2148.728516,7.228382 2143.000000,1.000006 
	C2191.327148,1.000000 2239.654053,1.000000 2287.985840,1.000000 
	C2287.990723,530.591736 2287.990723,1060.183472 2287.990723,1590.000000 
	C1745.312500,1590.000000 1202.624878,1590.000000 659.468628,1590.000000 
	C660.898254,1589.669922 662.784485,1589.174072 664.696594,1589.035278 
	C683.354431,1587.682007 702.064758,1586.858521 720.664734,1584.953125 
	C741.701294,1582.798096 762.726624,1580.222412 783.596985,1576.842529 
	C804.649353,1573.433228 825.586182,1569.183594 846.432007,1564.651123 
	C900.174438,1552.965820 952.823975,1537.309692 1004.571960,1518.815552 
	C1035.826172,1507.645386 1066.953857,1495.889404 1097.334351,1482.563477 
	C1138.738281,1464.402100 1179.928345,1445.575439 1220.177612,1425.012817 
	C1256.829956,1406.287720 1292.400391,1385.367676 1327.880981,1364.453857 
	C1351.750977,1350.383667 1375.165283,1335.395630 1397.832397,1319.464966 
	C1429.829834,1296.977173 1461.296143,1273.691406 1492.307251,1249.859131 
	C1509.893433,1236.343994 1526.736328,1221.708252 1542.823608,1206.429199 
	C1574.321899,1176.513550 1605.197876,1145.936157 1636.042358,1115.341309 
	C1649.610596,1101.882935 1662.653198,1087.878906 1675.604980,1073.819092 
	C1690.329468,1057.835083 1704.695923,1041.520874 1719.197510,1025.331787 
	C1725.063843,1018.782837 1730.876221,1012.185303 1737.324463,1005.297180 
	C1778.463257,1004.984497 1818.990723,1004.984497 1859.518311,1004.984497 
	C1858.282104,1003.434692 1856.764648,1002.880493 1855.508545,1001.966980 
	C1849.495239,997.593628 1842.585815,993.981812 1837.750854,988.539368 
	C1815.853149,963.890137 1824.396484,923.192749 1854.087891,909.082520 
	C1858.703247,906.889221 1863.629761,904.735229 1868.616821,904.049438 
	C1888.044800,901.377991 1907.513062,898.806458 1927.046997,897.149841 
	C1946.446289,895.504639 1965.972168,895.371826 1985.382202,893.821045 
	C1993.228760,893.194092 2001.126465,891.190674 2008.610718,888.659546 
	C2015.116699,886.459412 2015.956299,880.444641 2010.838623,875.706726 
	C2008.236084,873.297302 2004.886841,871.187927 2001.508179,870.207642 
	C1982.516968,864.697388 1963.374512,865.255859 1944.347046,870.083008 
	C1938.803467,871.489319 1934.310425,875.020264 1932.575562,880.661926 
	C1931.538818,884.033569 1929.781250,884.431213 1926.805054,884.421143 
	C1900.157471,884.330933 1873.509399,884.372192 1846.861572,884.358521 
	C1845.399414,884.357788 1843.937378,884.212524 1841.718018,884.094177 
	C1843.210205,877.462402 1844.612671,871.228638 1846.015259,864.994873 
M2241.197510,953.500000 
	C2241.197510,968.982849 2241.305420,984.466919 2241.120605,999.947571 
	C2241.074951,1003.767212 2241.942139,1005.324341 2246.105713,1005.098755 
	C2252.745850,1004.739014 2259.419189,1005.002563 2266.078613,1005.002563 
	C2272.664795,1005.002563 2279.250732,1005.002563 2285.773193,1005.002563 
	C2285.773193,961.934265 2285.773193,919.530457 2285.773193,875.904114 
	C2278.088867,875.904114 2270.620605,875.673401 2263.171875,875.958862 
	C2252.367920,876.372925 2245.854248,881.820923 2243.326172,892.230103 
	C2242.623047,895.124817 2242.037842,898.123413 2241.976318,901.086365 
	C2241.620850,918.222229 2241.438477,935.361755 2241.197510,953.500000 
M1934.702759,937.051086 
	C1928.717896,939.034363 1924.392944,942.479126 1924.097778,949.340942 
	C1923.828491,955.599792 1927.505981,960.826172 1934.417969,963.799622 
	C1936.690063,964.777039 1939.123535,965.807434 1941.535522,965.954407 
	C1950.148438,966.478943 1958.824829,967.301270 1967.401489,966.775696 
	C1980.828735,965.952759 1993.672485,962.548706 2004.708252,954.255493 
	C2014.483521,946.909424 2019.244629,937.302124 2017.813232,924.376526 
	C2001.090942,930.605347 1983.785645,931.305176 1966.581421,932.864319 
	C1956.176270,933.807190 1945.840820,935.517944 1934.702759,937.051086 
M1989.614014,1002.159790 
	C1988.251587,1002.847168 1986.889160,1003.534485 1984.445068,1004.767517 
	C1997.781128,1004.767517 2009.791504,1004.767517 2021.789551,1004.767517 
	C2020.356812,997.778442 2018.969971,991.013733 2017.771606,985.167786 
	C2008.862671,990.606750 1999.594116,996.265259 1989.614014,1002.159790 
z"/>
<path fill="#373435" opacity="1.000000" stroke="none" 
	d="
M599.856873,646.198975 
	C599.901733,694.857544 599.946655,743.516174 599.991211,792.174744 
	C599.992798,793.967346 599.991333,795.759949 599.991333,797.991577 
	C640.109863,797.991577 679.840454,797.991577 719.779541,797.991577 
	C719.779541,830.045288 719.779541,861.655334 719.779541,893.710815 
	C680.140259,893.710815 640.409729,893.710815 600.242371,893.710815 
	C600.242371,983.211487 600.242371,1072.269531 600.242371,1161.659180 
	C551.413208,1161.659180 503.020081,1161.659180 454.188263,1161.659180 
	C454.188263,1072.701538 454.188263,983.643555 454.188263,894.025635 
	C440.161835,894.025635 426.565155,894.025635 412.058441,893.972778 
	C407.603912,893.919922 404.059387,893.919922 399.827301,893.919922 
	C400.206085,900.756897 400.545868,906.890503 400.885651,913.024048 
	C400.885651,943.490967 400.885651,973.957947 400.885651,1005.109924 
	C365.115479,1005.109924 329.520660,1005.109924 293.003418,1005.067749 
	C281.152374,1005.025513 270.223755,1005.025513 259.095215,1005.025513 
	C259.095215,995.163696 259.095215,985.869995 259.095215,976.318604 
	C257.477020,976.828552 256.063110,977.131531 254.768982,977.704895 
	C245.626450,981.755493 236.423370,985.682983 227.399368,989.984924 
	C204.139267,1001.073425 179.154404,1005.162842 153.898956,1006.731140 
	C134.071274,1007.962280 114.113663,1007.697754 94.400925,1003.129761 
	C68.430603,997.111694 46.076584,985.559448 29.012957,964.580994 
	C15.373716,947.812500 7.905756,928.437012 4.011319,907.459717 
	C2.933428,901.653564 1.999815,895.820618 0.999998,890.000000 
	C1.000000,821.979126 1.000000,753.958191 0.999996,685.468628 
	C2.402314,684.669556 3.804341,684.051819 5.206998,684.050415 
	C51.852428,684.002747 98.497910,684.013306 145.143387,684.027466 
	C145.607849,684.027649 146.072250,684.190125 146.991226,684.361755 
	C146.991226,686.162109 146.991226,687.943970 146.991226,689.725769 
	C146.991226,743.368042 146.404419,797.019775 147.265076,850.648254 
	C147.636292,873.779358 158.282791,885.766724 180.921692,889.838806 
	C190.403015,891.544250 200.265930,892.215576 209.885986,891.789856 
	C222.176804,891.245850 234.253113,889.186646 244.668304,881.209045 
	C252.281769,875.377441 255.515045,867.506592 256.845856,858.823608 
	C258.234406,849.763855 258.880219,840.509949 258.918213,831.337036 
	C259.113556,784.192566 259.008728,737.046875 259.008728,689.901611 
	C259.008728,688.100464 259.008728,686.299377 259.008728,684.260864 
	C306.403931,684.260864 353.452759,684.260864 400.991272,684.260864 
	C400.991272,686.141479 400.991272,687.920898 400.991272,689.700256 
	C400.991272,723.851379 400.988251,758.002563 400.999725,792.153687 
	C401.000336,793.979919 401.123047,795.806213 401.928284,798.033997 
	C419.904419,798.435547 437.141235,798.435547 454.507904,798.435547 
	C454.673248,797.113831 454.859436,796.317322 454.860016,795.520630 
	C454.876984,772.076782 454.886749,748.632874 454.840637,725.189087 
	C454.838531,724.124146 454.305634,723.060181 454.019958,721.995789 
	C454.016235,678.503723 453.614441,635.006409 454.185272,591.521912 
	C454.450226,571.339111 460.815918,552.936096 477.085022,539.537964 
	C485.199127,532.855713 494.986023,529.038330 505.218475,527.164429 
	C513.081482,525.724548 521.192810,525.197266 529.204773,525.090027 
	C567.453918,524.578064 605.706848,524.348083 644.676514,524.403564 
	C669.948853,524.809265 694.503113,524.829224 719.057434,524.849121 
	C730.238831,524.786926 741.107666,526.288940 751.802673,529.874695 
	C771.838318,536.592163 783.914978,550.551819 788.787964,570.567383 
	C790.932922,579.377380 791.740784,588.686951 791.853088,597.785767 
	C792.221130,627.609314 791.991333,657.440186 791.991333,687.744385 
	C847.483337,687.744385 902.866638,687.744385 958.250000,687.744385 
	C958.282837,688.002563 958.315674,688.260742 958.348572,688.518860 
	C952.559448,690.320129 946.688110,691.897400 941.003296,693.982910 
	C934.772522,696.268372 928.528870,698.655334 922.610779,701.633911 
	C889.438354,718.329712 874.005493,745.736633 874.551025,782.488831 
	C875.140686,822.217834 897.282410,846.301270 932.072754,860.966736 
	C952.340942,869.510620 973.748840,873.382019 995.451294,876.025940 
	C1030.322754,880.274353 1065.210205,884.419495 1100.013672,889.174194 
	C1107.448853,890.189880 1114.786987,893.085327 1121.744263,896.098022 
	C1128.690308,899.105896 1133.236450,904.607849 1132.995361,912.841248 
	C1132.754517,921.064270 1127.995728,926.495972 1120.793945,928.843201 
	C1112.652344,931.496826 1104.115967,933.513062 1095.608154,934.348389 
	C1078.961792,935.982544 1062.285034,935.535339 1046.223267,929.966492 
	C1035.699463,926.317688 1027.101807,920.477661 1024.638428,908.447571 
	C973.539368,908.447571 922.464417,908.447571 870.976440,908.447571 
	C871.275696,929.152954 877.228882,947.403931 890.475525,962.995667 
	C906.314697,981.638977 927.209167,992.293518 949.889038,1000.007080 
	C954.093628,1001.437134 958.360596,1002.683716 962.526001,1004.614990 
	C905.257263,1004.614990 847.988586,1004.614990 790.273682,1004.614990 
	C790.273682,899.789551 790.273682,794.726562 790.273682,689.215698 
	C742.099670,689.215698 694.367188,689.215698 646.008667,689.215698 
	C646.008667,687.181458 646.008667,685.587097 646.008667,683.992737 
	C646.008667,664.660217 646.008850,645.327759 646.008606,625.995239 
	C646.008484,618.051453 643.196838,614.269348 635.320190,611.749939 
	C633.178833,611.065002 630.983276,610.549316 628.107666,609.698181 
	C621.225952,610.275269 614.722656,610.204163 608.989929,612.270691 
	C605.302063,613.600037 600.638977,617.746582 600.106201,621.200195 
	C598.848694,629.351929 599.799316,637.844360 599.856873,646.198975 
z"/>
<path fill="#FFFFFF" opacity="1.000000" stroke="none" 
	d="
M0.999998,890.468628 
	C1.999815,895.820618 2.933428,901.653564 4.011319,907.459717 
	C7.905756,928.437012 15.373716,947.812500 29.012957,964.580994 
	C46.076584,985.559448 68.430603,997.111694 94.400925,1003.129761 
	C114.113663,1007.697754 134.071274,1007.962280 153.898956,1006.731140 
	C179.154404,1005.162842 204.139267,1001.073425 227.399368,989.984924 
	C236.423370,985.682983 245.626450,981.755493 254.768982,977.704895 
	C256.063110,977.131531 257.477020,976.828552 259.095215,976.318604 
	C259.095215,985.869995 259.095215,995.163696 259.095215,1005.025513 
	C270.223755,1005.025513 281.152374,1005.025513 292.538513,1005.132874 
	C286.934753,1021.225037 280.229889,1037.000854 274.956970,1053.241699 
	C266.148315,1080.372803 257.279510,1107.554077 250.279236,1135.181274 
	C244.484543,1158.050415 241.002975,1181.536987 237.197388,1204.864380 
	C235.551300,1214.954346 235.493332,1225.324341 235.031097,1235.581421 
	C234.500153,1247.362793 233.719589,1259.179565 234.105530,1270.946411 
	C235.107117,1301.483643 238.646988,1331.772827 248.028290,1360.961304 
	C253.451294,1377.834106 259.622681,1394.598999 267.104126,1410.644531 
	C276.866608,1431.582275 289.296570,1451.099976 304.317047,1468.802368 
	C311.075226,1476.767212 317.691345,1484.897705 324.985321,1492.353027 
	C338.451935,1506.117432 354.851807,1516.088745 371.164368,1525.975342 
	C397.281586,1541.803955 425.092102,1554.108398 454.131714,1563.510498 
	C479.856354,1571.839111 506.033295,1578.496094 532.888062,1581.970825 
	C551.244995,1584.346191 569.681152,1586.134155 588.103455,1587.968140 
	C595.841858,1588.738525 603.635803,1588.949829 611.702271,1589.707642 
	C408.401276,1590.000000 204.802582,1590.000000 1.000000,1590.000000 
	C1.000000,1356.979126 1.000000,1123.958252 0.999998,890.468628 
z"/>
<path fill="#D2D3D5" opacity="1.000000" stroke="none" 
	d="
M2142.750000,1.000006 
	C2148.728516,7.228382 2154.355957,13.553875 2160.207520,19.664272 
	C2171.139404,31.079376 2182.280029,42.295017 2193.185547,53.735184 
	C2201.891357,62.867870 2210.453369,72.142258 2218.856445,81.552605 
	C2219.831299,82.644341 2220.040771,85.243477 2219.498779,86.744164 
	C2208.406250,117.462975 2197.359375,148.201248 2185.872314,178.773743 
	C2174.619385,208.722824 2162.884033,238.490585 2151.376221,268.344086 
	C2151.141602,268.952667 2151.100098,269.635651 2150.571777,270.646729 
	C2149.163574,270.532806 2148.090820,270.153992 2147.150879,269.563446 
	C2141.010010,265.705170 2135.117188,261.390289 2128.736572,257.987152 
	C2107.629395,246.729553 2084.980469,241.579544 2061.058105,241.659760 
	C2061.039551,241.432327 2060.990234,240.978699 2060.990234,240.978699 
	C2068.144531,221.363220 2075.550049,201.834900 2082.396973,182.112717 
	C2093.981689,148.744003 2105.458008,115.333405 2116.515381,81.787361 
	C2125.277588,55.204441 2133.344727,28.392296 2141.860352,1.340983 
	C2142.000000,1.000000 2142.500000,1.000000 2142.750000,1.000006 
z"/>
<path fill="#373435" opacity="1.000000" stroke="none" 
	d="
M1956.670532,687.902832 
	C1958.994385,687.845093 1960.986206,687.990051 1962.977905,687.990234 
	C2068.456055,688.001221 2173.934326,687.999878 2279.412598,687.999878 
	C2281.396240,687.999878 2283.379883,687.999878 2285.685059,687.999878 
	C2285.799561,689.444763 2285.986572,690.710510 2285.987061,691.976379 
	C2286.002686,731.634888 2285.962646,771.293457 2286.066895,810.951660 
	C2286.075684,814.325562 2285.593506,815.943176 2281.666748,816.288513 
	C2266.194580,817.649170 2252.181885,822.748352 2240.362549,834.547485 
	C2239.839111,829.288940 2239.391357,824.792358 2238.927002,820.128418 
	C2210.416016,820.128418 2182.144287,820.128418 2153.339844,820.128418 
	C2153.339844,881.639099 2153.339844,943.033752 2153.339844,1004.991638 
	C2140.380615,1004.991638 2127.908447,1005.501343 2115.537109,1004.610046 
	C2112.677246,1004.403992 2109.127441,999.837219 2107.743408,996.508728 
	C2105.887451,992.044861 2105.164307,986.840515 2105.112793,981.941772 
	C2104.861816,958.116028 2105.376221,934.277527 2104.831787,910.461487 
	C2104.567383,898.880188 2103.701172,887.080994 2101.125244,875.834412 
	C2096.398926,855.196289 2082.137695,842.411682 2062.868164,834.975769 
	C2043.365967,827.450073 2022.806641,825.183044 2002.170654,824.206787 
	C1971.187378,822.741089 1940.205444,822.895752 1909.463867,827.941284 
	C1891.422607,830.902222 1873.937256,835.371826 1859.493408,847.560364 
	C1859.019165,847.960449 1858.265381,848.028931 1857.298340,848.405151 
	C1864.571533,836.920776 1872.353027,825.387024 1879.770752,813.624023 
	C1895.495483,788.688416 1911.196289,763.734497 1926.585449,738.591492 
	C1936.791504,721.916809 1946.440186,704.901062 1956.670532,687.902832 
z"/>
<path fill="#383536" opacity="1.000000" stroke="none" 
	d="
M1461.931519,688.101440 
	C1457.344482,689.799133 1452.388672,691.447693 1447.417358,693.048218 
	C1416.913452,702.868958 1389.644531,717.819824 1368.897095,742.944702 
	C1351.676514,763.798767 1342.320801,788.085632 1338.556396,814.621338 
	C1334.147949,845.695740 1335.353394,876.484070 1345.384644,906.439392 
	C1359.303955,948.005493 1388.478516,975.193176 1428.124634,991.835449 
	C1438.810669,996.321228 1450.121094,999.320557 1461.148438,1002.991455 
	C1462.321655,1003.382141 1463.519287,1003.700317 1464.541626,1004.750366 
	C1370.603760,1004.750366 1276.665894,1004.750366 1182.728027,1004.750366 
	C1182.684937,1004.571167 1182.641724,1004.391968 1182.598633,1004.212708 
	C1188.752075,1002.500610 1195.016235,1001.105042 1201.033325,999.002808 
	C1210.275757,995.773804 1219.647095,992.679077 1228.441284,988.442810 
	C1266.478638,970.119751 1285.558594,939.948303 1284.032959,897.371582 
	C1283.055054,870.081787 1271.734497,848.377380 1248.899658,832.995178 
	C1237.195557,825.111023 1224.476929,819.066650 1210.776978,816.143433 
	C1190.309570,811.776245 1169.640259,808.238647 1148.945190,805.080444 
	C1111.931763,799.431824 1074.823242,794.408813 1037.786987,788.905396 
	C1032.740723,788.155518 1027.750122,786.486023 1022.968445,784.635925 
	C1016.880371,782.280457 1012.450073,778.087463 1012.102051,771.044495 
	C1011.754272,764.006226 1015.825073,759.559143 1021.520813,756.352356 
	C1029.689575,751.753113 1038.691040,750.223022 1047.888428,749.608582 
	C1065.131104,748.456726 1082.220093,749.226501 1098.673950,755.055664 
	C1109.464355,758.878418 1118.102417,765.175293 1121.347900,777.047424 
	C1121.651489,778.157715 1123.904175,779.398743 1125.286255,779.440552 
	C1132.944824,779.672363 1140.614014,779.551819 1148.279663,779.551819 
	C1186.607544,779.551819 1224.935547,779.551941 1263.263428,779.551941 
	C1265.068970,779.551941 1266.874512,779.551880 1270.334961,779.551880 
	C1267.914795,770.015747 1266.385376,761.010193 1263.334229,752.553772 
	C1255.736450,731.497375 1240.569702,716.918579 1221.368042,706.213501 
	C1207.914673,698.713074 1193.450439,693.817505 1178.580688,690.027405 
	C1177.130493,689.657715 1175.669922,689.326111 1174.231445,688.915955 
	C1173.996582,688.848999 1173.852417,688.463867 1173.513184,688.030090 
	C1269.636475,688.030090 1365.596069,688.030090 1461.931519,688.101440 
z"/>
<path fill="#D2D3D5" opacity="1.000000" stroke="none" 
	d="
M719.202881,524.555603 
	C694.503113,524.829224 669.948853,524.809265 645.136475,524.436768 
	C657.855774,513.286194 670.704163,502.328308 683.844421,491.732269 
	C698.913452,479.580750 714.208923,467.708832 729.463013,455.788330 
	C767.621887,425.968597 807.497131,398.553864 848.226074,372.427399 
	C875.289307,355.067047 902.974854,338.659760 930.624634,322.234680 
	C973.367981,296.843475 1017.502441,273.997681 1062.306396,252.517914 
	C1090.726440,238.892853 1119.673950,226.345169 1148.576904,213.755203 
	C1201.229370,190.820206 1254.986694,170.684998 1309.854614,153.806778 
	C1351.450806,141.011154 1393.474854,129.524841 1435.584351,118.510483 
	C1460.495239,111.994690 1485.859863,107.095238 1511.174072,102.275932 
	C1532.407593,98.233482 1553.864624,95.366066 1575.219238,91.957031 
	C1576.799683,91.704720 1578.352661,91.279541 1580.176758,91.938553 
	C1575.207275,93.217049 1570.238403,94.497322 1565.268311,95.773758 
	C1546.201416,100.670609 1526.980835,105.044357 1508.103271,110.586304 
	C1480.755493,118.614937 1453.343140,126.614227 1426.521851,136.202362 
	C1384.538574,151.210556 1342.777100,166.913864 1301.391968,183.496811 
	C1266.765625,197.371536 1232.772949,212.836212 1198.583618,227.788986 
	C1186.868652,232.912552 1175.360352,238.519257 1163.843018,244.081772 
	C1147.520752,251.964966 1131.047241,259.578247 1115.046509,268.075531 
	C1077.946289,287.778107 1040.685181,307.233978 1004.251160,328.118896 
	C968.306885,348.723053 932.831482,370.236542 898.019592,392.698120 
	C866.158508,413.255768 835.202209,435.254242 804.338806,457.305878 
	C784.154907,471.727081 764.748230,487.247955 745.191956,502.530304 
	C736.328979,509.456299 727.947998,516.999084 719.202881,524.555603 
z"/>
<path fill="#373435" opacity="1.000000" stroke="none" 
	d="
M1474.607910,868.204346 
	C1471.876099,849.807739 1471.937012,831.923889 1476.789551,814.292358 
	C1484.907593,784.796997 1504.603516,767.825867 1534.260376,762.136963 
	C1549.443359,759.224487 1564.746338,759.040405 1579.890503,762.620667 
	C1607.327393,769.106995 1624.365723,787.947388 1627.864136,815.893982 
	C1628.358887,819.845337 1629.724487,820.714539 1633.424927,820.703857 
	C1674.740601,820.584778 1716.056763,820.628845 1757.372803,820.628906 
	C1759.181396,820.628906 1760.989868,820.628906 1763.926758,820.628906 
	C1758.531372,828.207642 1753.789673,835.131531 1748.775757,841.852478 
	C1740.067505,853.525269 1731.072754,864.986145 1722.479736,876.741760 
	C1720.650635,879.244141 1718.844604,880.025391 1715.956787,880.017212 
	C1688.635132,879.939819 1661.313110,879.971008 1633.991211,879.970947 
	C1632.165649,879.970947 1630.340088,879.970947 1628.308472,879.970947 
	C1627.899902,881.148987 1627.472290,882.197876 1627.169434,883.281555 
	C1619.178955,911.854065 1599.125854,928.405090 1569.402954,930.939514 
	C1555.880981,932.092529 1542.417725,931.789185 1529.189819,928.523865 
	C1498.826538,921.028748 1479.459595,899.642517 1474.607910,868.204346 
z"/>
<path fill="#393637" opacity="1.000000" stroke="none" 
	d="
M1845.665527,865.031616 
	C1844.612671,871.228638 1843.210205,877.462402 1841.718018,884.094177 
	C1843.937378,884.212524 1845.399414,884.357788 1846.861572,884.358521 
	C1873.509399,884.372192 1900.157471,884.330933 1926.805054,884.421143 
	C1929.781250,884.431213 1931.538818,884.033569 1932.575562,880.661926 
	C1934.310425,875.020264 1938.803467,871.489319 1944.347046,870.083008 
	C1963.374512,865.255859 1982.516968,864.697388 2001.508179,870.207642 
	C2004.886841,871.187927 2008.236084,873.297302 2010.838623,875.706726 
	C2015.956299,880.444641 2015.116699,886.459412 2008.610718,888.659546 
	C2001.126465,891.190674 1993.228760,893.194092 1985.382202,893.821045 
	C1965.972168,895.371826 1946.446289,895.504639 1927.046997,897.149841 
	C1907.513062,898.806458 1888.044800,901.377991 1868.616821,904.049438 
	C1863.629761,904.735229 1858.703247,906.889221 1854.087891,909.082520 
	C1824.396484,923.192749 1815.853149,963.890137 1837.750854,988.539368 
	C1842.585815,993.981812 1849.495239,997.593628 1855.508545,1001.966980 
	C1856.764648,1002.880493 1858.282104,1003.434692 1859.518311,1004.984497 
	C1818.990723,1004.984497 1778.463257,1004.984497 1737.467041,1004.995605 
	C1740.692871,1000.090088 1744.218994,995.035217 1748.116699,990.285339 
	C1756.745728,979.769714 1765.755005,969.562134 1774.251587,958.942871 
	C1784.547485,946.074707 1794.624023,933.023987 1804.523804,919.848145 
	C1817.415405,902.690613 1830.036255,885.329834 1842.788574,868.067566 
	C1843.563843,867.018188 1844.470337,866.065796 1845.665527,865.031616 
z"/>
<path fill="#373435" opacity="1.000000" stroke="none" 
	d="
M1848.149170,689.934814 
	C1834.247559,712.603088 1820.578369,734.991333 1806.497192,757.117310 
	C1796.694458,772.520325 1786.333252,787.568054 1776.198242,802.758850 
	C1775.343628,804.039612 1774.312012,805.202393 1773.115234,806.737366 
	C1770.830688,797.668152 1769.247314,789.223877 1766.571533,781.141235 
	C1756.008179,749.232361 1734.621704,726.401917 1705.839966,709.939941 
	C1688.866211,700.231750 1670.644409,693.708496 1651.849609,688.008118 
	C1652.967773,688.008118 1654.085938,688.008118 1655.204102,688.008118 
	C1718.332153,688.008057 1781.460083,687.999390 1844.588013,688.071777 
	C1845.794556,688.073181 1847.000122,689.031250 1848.149170,689.934814 
z"/>
<path fill="#F8B07B" opacity="1.000000" stroke="none" 
	d="
M2187.118408,440.020264 
	C2180.799072,449.793274 2175.319336,460.268524 2167.909180,469.129578 
	C2161.320801,477.008514 2152.593018,483.098236 2144.063965,490.001099 
	C2141.876221,490.393097 2140.368896,490.600189 2139.002197,491.154297 
	C2115.235596,500.789856 2090.768311,504.925903 2065.051514,502.141083 
	C2047.662842,500.258026 2031.119629,495.785339 2015.561768,488.133484 
	C1997.871948,479.433044 1982.185913,467.960083 1969.164795,452.832275 
	C1956.539673,438.164612 1946.742310,422.042816 1940.383911,403.773956 
	C1935.111328,388.624359 1932.223022,373.082581 1931.922485,357.036041 
	C1931.897339,355.689087 1930.781128,354.362549 1930.171753,353.026520 
	C1932.425659,344.655762 1934.098755,336.072876 1937.061401,327.960968 
	C1942.301514,313.613678 1950.061035,300.604370 1960.681885,289.450928 
	C1960.508911,291.077301 1960.165894,292.539978 1959.542969,293.871704 
	C1947.461914,319.697357 1941.957764,346.482422 1946.922852,375.012177 
	C1954.788940,420.211609 1978.618286,454.004547 2019.396240,474.995331 
	C2044.896729,488.121948 2072.148926,492.960236 2100.883301,488.114441 
	C2133.714355,482.577850 2161.268555,467.884216 2183.058838,442.565125 
	C2184.053955,441.408661 2185.749268,440.854828 2187.118408,440.020264 
z"/>
<path fill="#F8B787" opacity="1.000000" stroke="none" 
	d="
M2187.401855,439.828430 
	C2185.749268,440.854828 2184.053955,441.408661 2183.058838,442.565125 
	C2161.268555,467.884216 2133.714355,482.577850 2100.883301,488.114441 
	C2072.148926,492.960236 2044.896729,488.121948 2019.396240,474.995331 
	C1978.618286,454.004547 1954.788940,420.211609 1946.922852,375.012177 
	C1941.957764,346.482422 1947.461914,319.697357 1959.542969,293.871704 
	C1960.165894,292.539978 1960.508911,291.077301 1960.981201,289.288208 
	C1970.347656,276.156769 1982.936035,267.262024 1996.656006,259.595978 
	C1995.923096,261.478302 1995.133667,263.387024 1993.754883,264.654846 
	C1982.194092,275.285492 1973.661255,288.037872 1966.929810,302.120361 
	C1958.918457,318.880615 1955.496826,336.740662 1955.193481,355.097321 
	C1955.058350,363.276520 1956.397217,371.620422 1958.114990,379.665894 
	C1966.137085,417.239899 1987.163452,445.545898 2020.649902,464.187653 
	C2041.645508,475.875946 2064.283203,480.869171 2088.544678,479.176910 
	C2103.693359,478.120270 2118.095947,474.818298 2131.732666,468.544373 
	C2162.199219,454.527344 2183.900391,431.915283 2196.697998,400.812347 
	C2197.578125,398.673340 2199.443115,396.939453 2200.849854,395.017151 
	C2199.347412,410.741699 2195.056396,425.643555 2187.401855,439.828430 
z"/>
<path fill="#F7A96F" opacity="1.000000" stroke="none" 
	d="
M1929.977295,353.383179 
	C1930.781128,354.362549 1931.897339,355.689087 1931.922485,357.036041 
	C1932.223022,373.082581 1935.111328,388.624359 1940.383911,403.773956 
	C1946.742310,422.042816 1956.539673,438.164612 1969.164795,452.832275 
	C1982.185913,467.960083 1997.871948,479.433044 2015.561768,488.133484 
	C2031.119629,495.785339 2047.662842,500.258026 2065.051514,502.141083 
	C2090.768311,504.925903 2115.235596,500.789856 2139.002197,491.154297 
	C2140.368896,490.600189 2141.876221,490.393097 2143.714844,490.029053 
	C2135.830566,494.975861 2127.957275,500.856201 2119.185059,504.667969 
	C2099.986572,513.010254 2079.663086,516.703369 2058.655029,515.984131 
	C2054.718994,515.849365 2050.795654,515.346863 2046.412598,515.012817 
	C2035.640991,512.103210 2025.122681,509.757507 2015.049927,506.162994 
	C1997.116333,499.763153 1981.874390,488.988464 1968.099609,475.866302 
	C1946.717041,455.496826 1934.366699,430.427216 1929.208496,401.745087 
	C1926.344727,385.821350 1926.192871,369.700256 1929.977295,353.383179 
z"/>
<path fill="#F9BE92" opacity="1.000000" stroke="none" 
	d="
M2060.551758,240.992981 
	C2060.990234,240.978699 2061.039551,241.432327 2060.874023,241.996002 
	C2058.420654,243.379593 2056.178711,244.372742 2053.838135,244.992798 
	C2028.109131,251.808960 2006.684570,265.141907 1990.645020,286.633789 
	C1971.598267,312.155273 1964.356567,340.921295 1969.223511,372.166168 
	C1973.743408,401.182648 1987.840820,425.394043 2011.208862,443.391785 
	C2036.927246,463.199707 2066.392822,470.858521 2098.430908,465.749176 
	C2127.248047,461.153473 2151.420898,447.222809 2169.223145,423.956573 
	C2190.667725,395.930145 2197.754150,364.232513 2190.355713,329.499969 
	C2189.906494,327.391541 2190.157471,325.134003 2190.082764,322.945801 
	C2193.387939,333.568787 2196.789795,344.163300 2199.930176,354.834808 
	C2200.708740,357.480499 2200.639648,360.375671 2200.551270,363.663879 
	C2199.397949,367.283691 2198.510986,370.369568 2197.930908,373.512115 
	C2192.550537,402.647919 2179.120117,427.315887 2156.142334,446.131378 
	C2128.563965,468.714111 2096.542725,477.068848 2061.520996,471.728241 
	C2032.243286,467.263550 2007.685303,453.120514 1988.869385,430.142975 
	C1966.286133,402.564880 1957.678589,370.497742 1963.323975,335.532104 
	C1969.093750,299.796204 1987.951416,271.993744 2019.089844,252.888153 
	C2022.244629,250.952530 2025.029541,248.414001 2027.985962,246.155212 
	C2038.695068,244.439209 2049.404297,242.723236 2060.551758,240.992981 
z"/>
<path fill="#F9BB8E" opacity="1.000000" stroke="none" 
	d="
M2027.609131,246.132263 
	C2025.029541,248.414001 2022.244629,250.952530 2019.089844,252.888153 
	C1987.951416,271.993744 1969.093750,299.796204 1963.323975,335.532104 
	C1957.678589,370.497742 1966.286133,402.564880 1988.869385,430.142975 
	C2007.685303,453.120514 2032.243286,467.263550 2061.520996,471.728241 
	C2096.542725,477.068848 2128.563965,468.714111 2156.142334,446.131378 
	C2179.120117,427.315887 2192.550537,402.647919 2197.930908,373.512115 
	C2198.510986,370.369568 2199.397949,367.283691 2200.498047,364.093109 
	C2200.891846,374.063019 2200.930664,384.111420 2200.909668,394.588440 
	C2199.443115,396.939453 2197.578125,398.673340 2196.697998,400.812347 
	C2183.900391,431.915283 2162.199219,454.527344 2131.732666,468.544373 
	C2118.095947,474.818298 2103.693359,478.120270 2088.544678,479.176910 
	C2064.283203,480.869171 2041.645508,475.875946 2020.649902,464.187653 
	C1987.163452,445.545898 1966.137085,417.239899 1958.114990,379.665894 
	C1956.397217,371.620422 1955.058350,363.276520 1955.193481,355.097321 
	C1955.496826,336.740662 1958.918457,318.880615 1966.929810,302.120361 
	C1973.661255,288.037872 1982.194092,275.285492 1993.754883,264.654846 
	C1995.133667,263.387024 1995.923096,261.478302 1996.988770,259.515564 
	C2007.072021,254.812759 2017.152100,250.461014 2027.609131,246.132263 
z"/>
<path fill="#D2D3D5" opacity="1.000000" stroke="none" 
	d="
M453.740112,722.178223 
	C454.305634,723.060181 454.838531,724.124146 454.840637,725.189087 
	C454.886749,748.632874 454.876984,772.076782 454.860016,795.520630 
	C454.859436,796.317322 454.673248,797.113831 454.507904,798.435547 
	C437.141235,798.435547 419.904419,798.435547 402.335907,798.195129 
	C408.024506,788.115356 413.617340,777.980835 420.161774,768.503357 
	C430.937256,752.898682 442.328552,737.719299 453.740112,722.178223 
z"/>
<path fill="#D2D3D5" opacity="1.000000" stroke="none" 
	d="
M600.016968,645.881226 
	C599.799316,637.844360 598.848694,629.351929 600.106201,621.200195 
	C600.638977,617.746582 605.302063,613.600037 608.989929,612.270691 
	C614.722656,610.204163 621.225952,610.275269 627.701660,609.718018 
	C623.275696,615.446838 618.318176,620.716614 613.888550,626.398010 
	C609.062744,632.587524 604.726685,639.158752 600.016968,645.881226 
z"/>
<path fill="#D2D3D5" opacity="1.000000" stroke="none" 
	d="
M401.182312,912.848022 
	C400.545868,906.890503 400.206085,900.756897 399.827301,893.919922 
	C404.059387,893.919922 407.603912,893.919922 411.598663,894.050903 
	C409.797943,898.261902 407.577576,902.359253 405.283356,906.414795 
	C404.082092,908.538391 402.751312,910.588684 401.182312,912.848022 
z"/>
<path fill="#383536" opacity="1.000000" stroke="none" 
	d="
M2241.197510,953.000000 
	C2241.438477,935.361755 2241.620850,918.222229 2241.976318,901.086365 
	C2242.037842,898.123413 2242.623047,895.124817 2243.326172,892.230103 
	C2245.854248,881.820923 2252.367920,876.372925 2263.171875,875.958862 
	C2270.620605,875.673401 2278.088867,875.904114 2285.773193,875.904114 
	C2285.773193,919.530457 2285.773193,961.934265 2285.773193,1005.002563 
	C2279.250732,1005.002563 2272.664795,1005.002563 2266.078613,1005.002563 
	C2259.419189,1005.002563 2252.745850,1004.739014 2246.105713,1005.098755 
	C2241.942139,1005.324341 2241.074951,1003.767212 2241.120605,999.947571 
	C2241.305420,984.466919 2241.197510,968.982849 2241.197510,953.000000 
z"/>
<path fill="#F9C299" opacity="1.000000" stroke="none" 
	d="
M2190.028564,322.588409 
	C2190.157471,325.134003 2189.906494,327.391541 2190.355713,329.499969 
	C2197.754150,364.232513 2190.667725,395.930145 2169.223145,423.956573 
	C2151.420898,447.222809 2127.248047,461.153473 2098.430908,465.749176 
	C2066.392822,470.858521 2036.927246,463.199707 2011.208862,443.391785 
	C1987.840820,425.394043 1973.743408,401.182648 1969.223511,372.166168 
	C1964.356567,340.921295 1971.598267,312.155273 1990.645020,286.633789 
	C2006.684570,265.141907 2028.109131,251.808960 2053.838135,244.992798 
	C2056.178711,244.372742 2058.420654,243.379593 2060.892334,242.223419 
	C2084.980469,241.579544 2107.629395,246.729553 2128.736572,257.987152 
	C2135.117188,261.390289 2141.010010,265.705170 2147.150879,269.563446 
	C2148.090820,270.153992 2149.163574,270.532806 2150.532715,271.032745 
	C2154.384277,274.329468 2157.916504,277.563049 2161.365234,280.883698 
	C2173.678467,292.740173 2183.143066,306.576904 2190.028564,322.588409 
M2151.489990,432.010101 
	C2176.922119,407.420715 2188.977539,377.723938 2184.917480,342.275024 
	C2182.101807,317.688843 2171.659424,296.576385 2153.794922,279.313721 
	C2130.330078,256.639496 2102.314941,246.695435 2069.827393,250.006470 
	C2040.047852,253.041534 2015.903076,266.690094 1997.470337,290.129791 
	C1982.621094,309.012695 1975.172974,330.812469 1975.136963,354.754181 
	C1975.109985,372.756622 1979.853394,389.732452 1988.734863,405.594910 
	C2001.453857,428.311340 2020.021973,444.121460 2044.252808,453.101044 
	C2061.598877,459.529236 2079.394043,461.699341 2097.972656,458.202850 
	C2118.130127,454.409271 2135.672852,445.943207 2151.489990,432.010101 
z"/>
<path fill="#393637" opacity="1.000000" stroke="none" 
	d="
M1935.088379,936.967407 
	C1945.840820,935.517944 1956.176270,933.807190 1966.581421,932.864319 
	C1983.785645,931.305176 2001.090942,930.605347 2017.813232,924.376526 
	C2019.244629,937.302124 2014.483521,946.909424 2004.708252,954.255493 
	C1993.672485,962.548706 1980.828735,965.952759 1967.401489,966.775696 
	C1958.824829,967.301270 1950.148438,966.478943 1941.535522,965.954407 
	C1939.123535,965.807434 1936.690063,964.777039 1934.417969,963.799622 
	C1927.505981,960.826172 1923.828491,955.599792 1924.097778,949.340942 
	C1924.392944,942.479126 1928.717896,939.034363 1935.088379,936.967407 
z"/>
<path fill="#393637" opacity="1.000000" stroke="none" 
	d="
M1989.969849,1002.041748 
	C1999.594116,996.265259 2008.862671,990.606750 2017.771606,985.167786 
	C2018.969971,991.013733 2020.356812,997.778442 2021.789551,1004.767517 
	C2009.791504,1004.767517 1997.781128,1004.767517 1984.445068,1004.767517 
	C1986.889160,1003.534485 1988.251587,1002.847168 1989.969849,1002.041748 
z"/>
<path fill="#F9C7A1" opacity="1.000000" stroke="none" 
	d="
M2151.238281,432.261963 
	C2135.672852,445.943207 2118.130127,454.409271 2097.972656,458.202850 
	C2079.394043,461.699341 2061.598877,459.529236 2044.252808,453.101044 
	C2020.021973,444.121460 2001.453857,428.311340 1988.734863,405.594910 
	C1979.853394,389.732452 1975.109985,372.756622 1975.136963,354.754181 
	C1975.172974,330.812469 1982.621094,309.012695 1997.470337,290.129791 
	C2015.903076,266.690094 2040.047852,253.041534 2069.827393,250.006470 
	C2102.314941,246.695435 2130.330078,256.639496 2153.794922,279.313721 
	C2171.659424,296.576385 2182.101807,317.688843 2184.917480,342.275024 
	C2188.977539,377.723938 2176.922119,407.420715 2151.238281,432.261963 
M2164.168213,309.369598 
	C2157.369873,296.960297 2148.540283,286.276611 2136.991943,278.021210 
	C2115.352783,262.551971 2091.376465,256.580505 2065.041748,260.977051 
	C2034.339111,266.102783 2011.505371,282.579681 1996.705811,309.802521 
	C1986.503174,328.569397 1983.405029,348.731445 1986.926758,369.905487 
	C1991.325439,396.351776 2004.445801,417.334961 2026.392578,432.576569 
	C2044.395874,445.079437 2064.431641,450.409271 2086.476074,449.113007 
	C2108.638672,447.809784 2128.041260,439.897095 2144.140381,425.104156 
	C2166.210205,404.824860 2176.708740,379.404022 2175.110596,349.085693 
	C2174.378418,335.189880 2170.735107,322.317017 2164.168213,309.369598 
z"/>
<path fill="#FACCAB" opacity="1.000000" stroke="none" 
	d="
M2164.341309,309.698303 
	C2170.735107,322.317017 2174.378418,335.189880 2175.110596,349.085693 
	C2176.708740,379.404022 2166.210205,404.824860 2144.140381,425.104156 
	C2128.041260,439.897095 2108.638672,447.809784 2086.476074,449.113007 
	C2064.431641,450.409271 2044.395874,445.079437 2026.392578,432.576569 
	C2004.445801,417.334961 1991.325439,396.351776 1986.926758,369.905487 
	C1983.405029,348.731445 1986.503174,328.569397 1996.705811,309.802521 
	C2011.505371,282.579681 2034.339111,266.102783 2065.041748,260.977051 
	C2091.376465,256.580505 2115.352783,262.551971 2136.991943,278.021210 
	C2148.540283,286.276611 2157.369873,296.960297 2164.341309,309.698303 
M2155.485107,391.838623 
	C2162.726318,376.106079 2165.649658,359.809357 2163.091064,342.464661 
	C2159.688721,319.399841 2148.672363,300.854340 2130.109619,287.217896 
	C2112.029785,273.936218 2091.583984,268.679871 2069.027100,271.885986 
	C2044.417969,275.383789 2025.107422,287.349182 2011.278564,307.708221 
	C1999.382568,325.221649 1994.884399,344.685059 1997.881714,365.911072 
	C2001.384521,390.718475 2013.576660,409.962494 2034.072754,423.958252 
	C2044.891846,431.346130 2056.900635,435.706177 2070.079590,437.310089 
	C2087.276123,439.402985 2103.392822,436.593170 2118.739502,428.799744 
	C2134.800781,420.643524 2146.762451,408.375916 2155.485107,391.838623 
z"/>
<path fill="#FAD3B6" opacity="1.000000" stroke="none" 
	d="
M2155.262939,392.139282 
	C2146.762451,408.375916 2134.800781,420.643524 2118.739502,428.799744 
	C2103.392822,436.593170 2087.276123,439.402985 2070.079590,437.310089 
	C2056.900635,435.706177 2044.891846,431.346130 2034.072754,423.958252 
	C2013.576660,409.962494 2001.384521,390.718475 1997.881714,365.911072 
	C1994.884399,344.685059 1999.382568,325.221649 2011.278564,307.708221 
	C2025.107422,287.349182 2044.417969,275.383789 2069.027100,271.885986 
	C2091.583984,268.679871 2112.029785,273.936218 2130.109619,287.217896 
	C2148.672363,300.854340 2159.688721,319.399841 2163.091064,342.464661 
	C2165.649658,359.809357 2162.726318,376.106079 2155.262939,392.139282 
M2016.832275,322.368164 
	C2012.168091,330.792572 2009.556641,339.957581 2009.121704,349.430328 
	C2008.039795,372.992218 2015.942505,393.044281 2034.101440,408.596466 
	C2063.370361,433.663452 2103.981689,431.381439 2131.266357,404.968292 
	C2143.530518,393.095764 2150.637207,377.783539 2151.805420,360.686249 
	C2153.423340,337.011383 2145.634033,316.604004 2127.338379,300.846436 
	C2110.844971,286.640839 2091.862793,280.521851 2070.139648,283.960022 
	C2046.235840,287.743256 2028.541748,300.312012 2016.832275,322.368164 
z"/>
<path fill="#FBDAC1" opacity="1.000000" stroke="none" 
	d="
M2016.985840,322.028198 
	C2028.541748,300.312012 2046.235840,287.743256 2070.139648,283.960022 
	C2091.862793,280.521851 2110.844971,286.640839 2127.338379,300.846436 
	C2145.634033,316.604004 2153.423340,337.011383 2151.805420,360.686249 
	C2150.637207,377.783539 2143.530518,393.095764 2131.266357,404.968292 
	C2103.981689,431.381439 2063.370361,433.663452 2034.101440,408.596466 
	C2015.942505,393.044281 2008.039795,372.992218 2009.121704,349.430328 
	C2009.556641,339.957581 2012.168091,330.792572 2016.985840,322.028198 
M2092.051514,413.831573 
	C2106.088623,410.298004 2118.192627,403.849365 2127.418213,392.197968 
	C2147.663330,366.629547 2144.756836,332.703430 2122.119873,310.942169 
	C2108.376221,297.730133 2091.390381,291.898193 2071.857666,294.913147 
	C2042.651978,299.421204 2022.079956,321.978394 2020.254883,351.070892 
	C2018.876465,373.043213 2027.925415,391.307129 2046.257812,404.010162 
	C2059.718994,413.337738 2074.813965,416.998535 2092.051514,413.831573 
z"/>
<path fill="#FBDFCA" opacity="1.000000" stroke="none" 
	d="
M2091.626709,413.894653 
	C2074.813965,416.998535 2059.718994,413.337738 2046.257812,404.010162 
	C2027.925415,391.307129 2018.876465,373.043213 2020.254883,351.070892 
	C2022.079956,321.978394 2042.651978,299.421204 2071.857666,294.913147 
	C2091.390381,291.898193 2108.376221,297.730133 2122.119873,310.942169 
	C2144.756836,332.703430 2147.663330,366.629547 2127.418213,392.197968 
	C2118.192627,403.849365 2106.088623,410.298004 2091.626709,413.894653 
M2075.843018,404.993835 
	C2077.674316,404.995911 2079.507080,405.044861 2081.336914,404.992920 
	C2107.427979,404.251892 2128.242188,385.849945 2130.790527,359.490784 
	C2134.169922,324.536133 2103.203613,298.444519 2071.017578,305.008423 
	C2051.064941,309.077454 2037.835205,321.086029 2032.059204,340.599701 
	C2026.614136,358.994751 2031.296997,375.345886 2043.980957,389.402863 
	C2052.214600,398.527649 2063.051758,402.884949 2075.843018,404.993835 
z"/>
<path fill="#FCE4D3" opacity="1.000000" stroke="none" 
	d="
M2075.388184,404.978912 
	C2063.051758,402.884949 2052.214600,398.527649 2043.980957,389.402863 
	C2031.296997,375.345886 2026.614136,358.994751 2032.059204,340.599701 
	C2037.835205,321.086029 2051.064941,309.077454 2071.017578,305.008423 
	C2103.203613,298.444519 2134.169922,324.536133 2130.790527,359.490784 
	C2128.242188,385.849945 2107.427979,404.251892 2081.336914,404.992920 
	C2079.507080,405.044861 2077.674316,404.995911 2075.388184,404.978912 
M2118.999756,351.731079 
	C2117.942871,337.437866 2110.720947,326.843689 2098.374023,320.309113 
	C2074.636230,307.745789 2046.965820,322.970825 2042.787109,346.924835 
	C2039.843140,363.800659 2045.425781,377.096466 2059.288818,386.627777 
	C2071.538086,395.049561 2085.029297,395.609192 2098.009033,388.814362 
	C2112.253174,381.357574 2119.585938,369.109131 2118.999756,351.731079 
z"/>
<path fill="#FCECE0" opacity="1.000000" stroke="none" 
	d="
M2119.000000,352.192261 
	C2119.585938,369.109131 2112.253174,381.357574 2098.009033,388.814362 
	C2085.029297,395.609192 2071.538086,395.049561 2059.288818,386.627777 
	C2045.425781,377.096466 2039.843140,363.800659 2042.787109,346.924835 
	C2046.965820,322.970825 2074.636230,307.745789 2098.374023,320.309113 
	C2110.720947,326.843689 2117.942871,337.437866 2119.000000,352.192261 
M2088.764404,376.585541 
	C2089.511230,376.222351 2090.258545,375.859833 2091.005127,375.495972 
	C2100.692383,370.774658 2104.692871,362.612213 2103.883789,352.331482 
	C2103.116699,342.582855 2097.793213,335.606232 2088.408691,332.319977 
	C2079.087158,329.055847 2070.666748,331.170776 2063.655518,337.930603 
	C2055.653076,345.646118 2054.770996,357.959076 2061.076172,368.140350 
	C2066.053223,376.177032 2077.708984,379.958527 2088.764404,376.585541 
z"/>
<path fill="#FDF4EE" opacity="1.000000" stroke="none" 
	d="
M2088.389893,376.732971 
	C2077.708984,379.958527 2066.053223,376.177032 2061.076172,368.140350 
	C2054.770996,357.959076 2055.653076,345.646118 2063.655518,337.930603 
	C2070.666748,331.170776 2079.087158,329.055847 2088.408691,332.319977 
	C2097.793213,335.606232 2103.116699,342.582855 2103.883789,352.331482 
	C2104.692871,362.612213 2100.692383,370.774658 2091.005127,375.495972 
	C2090.258545,375.859833 2089.511230,376.222351 2088.389893,376.732971 
z"/>
</svg>