<?xml version="1.0" standalone="no"?>
<!DOCTYPE svg PUBLIC "-//W3C//DTD SVG 20010904//EN"
 "http://www.w3.org/TR/2001/REC-SVG-20010904/DTD/svg10.dtd">
<svg version="1.0" xmlns="http://www.w3.org/2000/svg"
 width="2430.000000pt" height="1771.000000pt" viewBox="0 0 2430.000000 1771.000000"
 preserveAspectRatio="xMidYMid meet">

<g transform="translate(0.000000,1771.000000) scale(0.100000,-0.100000)"
fill="#000000" stroke="none">
<path d="M6050 11661 l-695 -6 -70 -24 c-140 -47 -250 -116 -351 -222 -76 -80
-114 -137 -164 -241 -63 -132 -84 -228 -84 -395 -1 -107 -4 -143 -13 -143 -10
0 -13 -215 -13 -1040 l0 -1040 -260 0 -260 0 0 690 0 690 -717 -2 -718 -3 -5
-1118 -5 -1119 -95 -54 c-116 -66 -172 -88 -315 -122 -93 -22 -132 -26 -255
-25 -431 2 -592 149 -630 574 -6 66 -10 482 -10 992 l0 877 -690 0 -690 0 0
-1248 c0 -1250 2 -1323 36 -1490 105 -512 478 -840 1049 -922 215 -31 514 -22
727 21 260 52 431 139 858 438 20 13 20 10 20 -183 l0 -196 720 0 720 0 0 595
0 595 260 0 260 0 0 -1545 0 -1545 770 0 770 0 0 1545 0 1545 650 0 650 0 0
505 0 505 -656 0 -657 0 8 1063 c4 584 9 1065 12 1070 2 4 126 7 275 7 l271 0
-6 -415 -6 -415 754 0 755 0 0 -1805 0 -1805 748 1 c437 0 739 4 727 9 -11 5
-57 25 -103 44 -395 166 -705 515 -805 906 -14 52 -28 118 -32 146 l-6 51 283
12 c156 7 495 22 755 34 l472 22 17 -70 c82 -333 311 -517 704 -565 326 -39
630 27 780 171 136 130 133 291 -7 419 -122 112 -318 174 -833 265 -790 141
-1255 286 -1554 486 -514 345 -567 924 -123 1345 142 136 346 248 602 334
l150 49 -882 1 -883 0 -2 243 c-2 133 -3 364 -3 512 0 251 -2 276 -23 350 -92
319 -335 562 -632 630 -91 21 -472 25 -1550 16z"/>
<path d="M12312 9879 c420 -126 692 -334 846 -644 46 -94 121 -339 108 -353
-3 -2 -305 -16 -673 -32 -367 -16 -702 -31 -744 -33 l-76 -4 -18 56 c-31 101
-83 187 -152 251 -128 120 -279 169 -545 177 -248 8 -382 -17 -496 -93 -58
-38 -108 -107 -118 -162 -10 -51 13 -112 56 -153 88 -84 212 -119 739 -209
966 -166 1419 -300 1740 -514 126 -84 197 -149 272 -249 201 -265 239 -614
101 -920 -129 -283 -414 -541 -757 -683 -60 -25 -119 -49 -130 -54 -12 -5 546
-9 1320 -9 1149 0 1336 2 1310 14 -16 8 -68 31 -115 53 -100 45 -265 150 -365
232 -97 80 -267 257 -348 365 -80 107 -193 329 -236 465 -72 225 -95 391 -95
675 0 235 13 358 59 550 147 619 583 1057 1265 1271 l105 33 -1575 0 -1575 0
97 -30z"/>
<path d="M17365 9869 c384 -129 674 -348 897 -680 27 -41 81 -137 119 -214 62
-124 68 -141 52 -147 -24 -9 -1263 -231 -1267 -227 -1 2 -13 31 -26 64 -37 93
-115 200 -189 262 -80 66 -237 145 -346 175 -68 18 -108 22 -270 22 -228 1
-311 -16 -470 -93 -334 -164 -474 -451 -475 -974 0 -589 142 -888 490 -1025
257 -101 647 -91 886 23 186 89 337 284 425 546 17 52 32 95 33 97 2 1 132
-29 289 -68 158 -38 291 -70 295 -70 15 0 232 292 553 745 212 298 550 803
718 1070 34 55 85 136 113 180 39 61 176 283 215 348 2 4 -483 7 -1079 7
l-1083 0 120 -41z"/>
<path d="M20493 9898 c-6 -7 -41 -62 -78 -123 -272 -443 -726 -1121 -1012
-1509 -40 -55 -71 -101 -70 -103 2 -1 29 6 59 17 77 27 279 66 423 82 154 17
832 17 1000 0 530 -54 769 -201 881 -542 16 -49 19 -114 24 -635 7 -628 5
-606 67 -730 55 -110 44 -105 210 -105 l143 0 0 975 0 975 490 0 490 0 0 -157
1 -158 27 34 c111 142 183 206 287 256 151 72 366 90 573 49 l32 -7 -2 844 -3
844 -1766 3 c-1406 2 -1769 -1 -1776 -10z"/>
<path d="M20164 7811 c-76 -12 -154 -40 -200 -72 -36 -24 -65 -60 -109 -133
-9 -16 -43 -14 -459 19 -279 22 -452 32 -456 26 -3 -5 -17 -25 -31 -43 -15
-18 -79 -100 -144 -183 -65 -82 -141 -177 -169 -211 -28 -34 -76 -92 -106
-129 -30 -37 -102 -124 -160 -193 -58 -68 -123 -145 -145 -172 -48 -56 -261
-301 -302 -347 -16 -18 -43 -48 -59 -65 -17 -18 -33 -39 -37 -45 -7 -10 145
-13 745 -12 443 0 745 4 733 9 -11 5 -48 20 -83 33 -152 60 -283 171 -343 292
-29 59 -34 80 -37 162 -14 307 181 487 633 581 55 12 217 40 360 62 423 66
601 98 763 140 84 22 156 40 159 40 3 0 3 27 0 60 -7 82 -34 122 -105 157 -55
27 -63 28 -227 30 -93 1 -193 -2 -221 -6z"/>
<path d="M24005 7663 c-16 -29 -34 -53 -40 -53 -5 0 -44 9 -85 20 -41 11 -118
23 -170 26 -235 16 -380 -81 -456 -306 -45 -135 -54 -243 -54 -689 l0 -411
415 0 c323 0 417 3 420 13 3 6 4 336 3 732 l-3 720 -30 -52z"/>
<path d="M20645 7169 c-38 -10 -175 -42 -304 -69 -344 -75 -438 -111 -496
-191 -32 -43 -34 -119 -5 -167 27 -44 97 -87 170 -102 76 -16 271 -8 355 15
148 40 276 128 319 219 33 70 62 296 39 309 -5 2 -39 -4 -78 -14z"/>
<path d="M20705 6434 c-92 -60 -197 -110 -314 -150 l-96 -33 293 0 c160 -1
292 2 292 7 0 4 -14 27 -30 51 -28 41 -60 126 -60 158 0 20 -9 16 -85 -33z"/>
</g>
</svg>
