<svg width="149" height="38" viewBox="0 0 149 38" fill="none" xmlns="http://www.w3.org/2000/svg">
<path d="M32.08 37.86H4.61C2.06 37.86 0 35.79 0 33.25V4.61C0 2.07 2.07 0 4.61 0H32.08C34.63 0 36.69 2.06 36.7 4.61V33.25C36.7 35.8 34.63 37.86 32.08 37.86ZM4.61 1.9C3.11 1.9 1.9 3.12 1.9 4.61V33.25C1.9 34.75 3.12 35.96 4.62 35.97H32.09C33.59 35.97 34.8 34.75 34.81 33.25V4.61C34.81 3.11 33.59 1.9 32.09 1.9H4.61Z" fill="#1094AB"/>
<path fill-rule="evenodd" clip-rule="evenodd" d="M20.47 12.63H28.29V8.41H8.49V12.62H5.42V5.44H31.27V15.62H23.45V24.62H20.47V12.63Z" fill="#1094AB"/>
<path fill-rule="evenodd" clip-rule="evenodd" d="M16.23 29.46H23.45V32.44H13.25V12.63H16.23V29.46Z" fill="#FFB500"/>
<path d="M31.27 29.3701H25.5V32.4401H31.27V29.3701Z" fill="#00FF77"/>
<path d="M142.662 22.3082C141.518 22.3082 140.409 22.0915 139.334 21.6582C138.277 21.2248 137.341 20.6095 136.526 19.8122L138.294 17.7582C138.901 18.3302 139.594 18.7982 140.374 19.1622C141.154 19.5088 141.934 19.6822 142.714 19.6822C143.685 19.6822 144.421 19.4828 144.924 19.0842C145.427 18.6855 145.678 18.1568 145.678 17.4982C145.678 16.7875 145.427 16.2762 144.924 15.9642C144.439 15.6522 143.815 15.3315 143.052 15.0022L140.712 13.9882C140.157 13.7455 139.611 13.4335 139.074 13.0522C138.554 12.6708 138.121 12.1855 137.774 11.5962C137.445 11.0068 137.28 10.2962 137.28 9.46418C137.28 8.56284 137.523 7.75684 138.008 7.04618C138.511 6.31818 139.187 5.74618 140.036 5.33018C140.903 4.89684 141.891 4.68018 143 4.68018C143.988 4.68018 144.941 4.87951 145.86 5.27818C146.779 5.65951 147.567 6.17951 148.226 6.83818L146.692 8.76218C146.155 8.31151 145.583 7.95618 144.976 7.69618C144.387 7.43618 143.728 7.30618 143 7.30618C142.203 7.30618 141.553 7.48818 141.05 7.85217C140.565 8.19884 140.322 8.68417 140.322 9.30818C140.322 9.74151 140.443 10.1055 140.686 10.4002C140.946 10.6775 141.284 10.9202 141.7 11.1282C142.116 11.3188 142.558 11.5095 143.026 11.7002L145.34 12.6622C146.345 13.0955 147.169 13.6675 147.81 14.3782C148.451 15.0715 148.772 16.0335 148.772 17.2642C148.772 18.1828 148.529 19.0235 148.044 19.7862C147.559 20.5488 146.857 21.1642 145.938 21.6322C145.037 22.0828 143.945 22.3082 142.662 22.3082Z" fill="black"/>
<path d="M123.706 21.9962V4.99219H133.95V7.54019H126.722V11.8822H132.832V14.4302H126.722V19.4482H134.21V21.9962H123.706Z" fill="black"/>
<path d="M112.79 22.308C111.317 22.308 110.017 21.9527 108.89 21.242C107.764 20.514 106.88 19.4913 106.238 18.174C105.614 16.8393 105.302 15.2533 105.302 13.416C105.302 11.5787 105.614 10.01 106.238 8.71C106.88 7.41 107.764 6.41333 108.89 5.72C110.017 5.02667 111.317 4.68 112.79 4.68C114.281 4.68 115.59 5.02667 116.716 5.72C117.843 6.41333 118.718 7.41 119.342 8.71C119.984 10.01 120.304 11.5787 120.304 13.416C120.304 15.2533 119.984 16.8393 119.342 18.174C118.718 19.4913 117.843 20.514 116.716 21.242C115.59 21.9527 114.281 22.308 112.79 22.308ZM112.79 19.682C114.125 19.682 115.191 19.1187 115.988 17.992C116.786 16.848 117.184 15.3227 117.184 13.416C117.184 11.5093 116.786 10.0187 115.988 8.944C115.191 7.852 114.125 7.306 112.79 7.306C111.456 7.306 110.39 7.852 109.592 8.944C108.795 10.0187 108.396 11.5093 108.396 13.416C108.396 15.3227 108.795 16.848 109.592 17.992C110.39 19.1187 111.456 19.682 112.79 19.682ZM114.688 3.796C114.22 3.796 113.804 3.718 113.44 3.562C113.094 3.38867 112.782 3.18933 112.504 2.964C112.227 2.73867 111.967 2.548 111.724 2.392C111.482 2.21867 111.23 2.132 110.97 2.132C110.693 2.132 110.45 2.25333 110.242 2.496C110.052 2.72133 109.93 3.094 109.878 3.614L107.902 3.458C107.972 2.29667 108.275 1.43 108.812 0.858C109.35 0.286 110.043 0 110.892 0C111.36 0 111.768 0.0866666 112.114 0.26C112.478 0.416 112.799 0.606666 113.076 0.832C113.354 1.05733 113.614 1.25667 113.856 1.43C114.099 1.586 114.35 1.664 114.61 1.664C115.217 1.664 115.581 1.16133 115.702 0.155999L117.678 0.311999C117.609 1.47333 117.306 2.34867 116.768 2.938C116.231 3.51 115.538 3.796 114.688 3.796Z" fill="black"/>
<path d="M98.8552 22.3082C97.4338 22.3082 96.1425 21.9702 94.9812 21.2942C93.8198 20.6182 92.8925 19.6302 92.1992 18.3302C91.5232 17.0128 91.1852 15.4182 91.1852 13.5462C91.1852 11.6915 91.5318 10.1055 92.2252 8.78818C92.9358 7.45351 93.8805 6.43951 95.0592 5.74618C96.2378 5.03551 97.5378 4.68018 98.9592 4.68018C100.034 4.68018 100.987 4.89684 101.819 5.33018C102.651 5.76351 103.336 6.26617 103.873 6.83818L102.261 8.78818C101.828 8.33751 101.342 7.98218 100.805 7.72218C100.285 7.44484 99.6958 7.30618 99.0372 7.30618C98.1185 7.30618 97.2952 7.55751 96.5672 8.06017C95.8565 8.54551 95.2932 9.24751 94.8772 10.1662C94.4785 11.0848 94.2792 12.1855 94.2792 13.4682C94.2792 15.4095 94.7038 16.9348 95.5532 18.0442C96.4025 19.1362 97.5378 19.6822 98.9592 19.6822C99.7218 19.6822 100.398 19.5262 100.987 19.2142C101.576 18.8848 102.114 18.4602 102.599 17.9402L104.211 19.8382C103.518 20.6355 102.72 21.2508 101.819 21.6842C100.935 22.1002 99.9472 22.3082 98.8552 22.3082ZM96.4632 28.0542L96.2032 26.7542C97.2605 26.6848 97.9798 26.5548 98.3612 26.3642C98.7598 26.1908 98.9592 25.9135 98.9592 25.5322C98.9592 25.2375 98.8118 24.9948 98.5172 24.8042C98.2398 24.6135 97.7198 24.4662 96.9572 24.3622L98.1532 21.9182H99.9732L99.2192 23.6082C99.8432 23.7642 100.32 23.9808 100.649 24.2582C100.996 24.5528 101.169 24.9688 101.169 25.5062C101.169 26.3208 100.753 26.9275 99.9212 27.3262C99.1065 27.7422 97.9538 27.9848 96.4632 28.0542Z" fill="black"/>
<path d="M84.7313 21.9962V4.99219H87.7473V21.9962H84.7313Z" fill="black"/>
<path d="M70.7411 21.9962V4.99219H80.9851V7.54019H73.7571V11.8822H79.8671V14.4302H73.7571V19.4482H81.2451V21.9962H70.7411Z" fill="black"/>
<path d="M57.6903 21.9962V4.99219H60.7063V19.4482H67.7783V21.9962H57.6903Z" fill="black"/>
<path d="M43.7 21.9962V4.99219H53.944V7.54019H46.716V11.8822H52.826V14.4302H46.716V19.4482H54.204V21.9962H43.7Z" fill="black"/>
<path d="M145.886 35.8342C145.446 35.8342 145.019 35.7508 144.606 35.5842C144.199 35.4175 143.839 35.1808 143.526 34.8742L144.206 34.0842C144.439 34.3042 144.706 34.4842 145.006 34.6242C145.306 34.7575 145.606 34.8242 145.906 34.8242C146.279 34.8242 146.563 34.7475 146.756 34.5942C146.949 34.4408 147.046 34.2375 147.046 33.9842C147.046 33.7108 146.949 33.5142 146.756 33.3942C146.569 33.2742 146.329 33.1508 146.036 33.0242L145.136 32.6342C144.923 32.5408 144.713 32.4208 144.506 32.2742C144.306 32.1275 144.139 31.9408 144.006 31.7142C143.879 31.4875 143.816 31.2142 143.816 30.8942C143.816 30.5475 143.909 30.2375 144.096 29.9642C144.289 29.6842 144.549 29.4642 144.876 29.3042C145.209 29.1375 145.589 29.0542 146.016 29.0542C146.396 29.0542 146.763 29.1308 147.116 29.2842C147.469 29.4308 147.773 29.6308 148.026 29.8842L147.436 30.6242C147.229 30.4508 147.009 30.3142 146.776 30.2142C146.549 30.1142 146.296 30.0642 146.016 30.0642C145.709 30.0642 145.459 30.1342 145.266 30.2742C145.079 30.4075 144.986 30.5942 144.986 30.8342C144.986 31.0008 145.033 31.1408 145.126 31.2542C145.226 31.3608 145.356 31.4542 145.516 31.5342C145.676 31.6075 145.846 31.6808 146.026 31.7542L146.916 32.1242C147.303 32.2908 147.619 32.5108 147.866 32.7842C148.113 33.0508 148.236 33.4208 148.236 33.8942C148.236 34.2475 148.143 34.5708 147.956 34.8642C147.769 35.1575 147.499 35.3942 147.146 35.5742C146.799 35.7475 146.379 35.8342 145.886 35.8342Z" fill="black"/>
<path d="M135.995 35.714V29.174H139.935V30.154H137.155V31.824H139.505V32.804H137.155V34.734H140.035V35.714H135.995Z" fill="black"/>
<path d="M129.256 35.714V30.154H127.366V29.174H132.306V30.154H130.416V35.714H129.256Z" fill="black"/>
<path d="M118.773 35.714V29.174H119.963L122.003 32.854L122.674 34.244H122.713C122.687 33.9107 122.653 33.5474 122.613 33.154C122.58 32.7607 122.563 32.3807 122.563 32.014V29.174H123.674V35.714H122.483L120.443 32.034L119.773 30.644H119.733C119.76 30.9907 119.79 31.354 119.823 31.734C119.863 32.114 119.883 32.4874 119.883 32.854V35.714H118.773Z" fill="black"/>
<path d="M110.793 35.714V29.174H114.733V30.154H111.953V31.824H114.303V32.804H111.953V34.734H114.833V35.714H110.793Z" fill="black"/>
<path d="M102.275 35.714V29.174H104.485C104.938 29.174 105.345 29.234 105.705 29.354C106.071 29.474 106.358 29.6774 106.565 29.964C106.778 30.244 106.885 30.6274 106.885 31.114C106.885 31.614 106.765 32.0174 106.525 32.324C106.291 32.6307 105.978 32.8507 105.585 32.984L107.145 35.714H105.845L104.435 33.154H103.435V35.714H102.275ZM103.435 32.234H104.365C104.811 32.234 105.151 32.1407 105.385 31.954C105.625 31.7607 105.745 31.4807 105.745 31.114C105.745 30.7407 105.625 30.4807 105.385 30.334C105.151 30.1807 104.811 30.104 104.365 30.104H103.435V32.234Z" fill="black"/>
<path d="M95.4385 32.234L95.2085 33.034H96.8785L96.6485 32.234C96.5419 31.8874 96.4385 31.5307 96.3385 31.164C96.2452 30.7974 96.1519 30.434 96.0585 30.074H96.0185C95.9319 30.4407 95.8385 30.8074 95.7385 31.174C95.6452 31.534 95.5452 31.8874 95.4385 32.234ZM93.2485 35.714L95.3785 29.174H96.7385L98.8685 35.714H97.6485L97.1385 33.944H94.9385L94.4285 35.714H93.2485Z" fill="black"/>
<path d="M86.1763 35.714V29.174H88.2363C88.7229 29.174 89.1563 29.2374 89.5363 29.364C89.9163 29.4907 90.2163 29.7007 90.4363 29.994C90.6563 30.2874 90.7663 30.6874 90.7663 31.194C90.7663 31.674 90.6563 32.0707 90.4363 32.384C90.2163 32.6974 89.9196 32.9307 89.5463 33.084C89.1729 33.2374 88.7496 33.314 88.2763 33.314H87.3363V35.714H86.1763ZM87.3363 32.384H88.1863C89.1463 32.384 89.6263 31.9874 89.6263 31.194C89.6263 30.7807 89.4996 30.4974 89.2463 30.344C88.9996 30.184 88.6329 30.104 88.1463 30.104H87.3363V32.384Z" fill="black"/>
<path d="M80.0371 35.8342C79.5971 35.8342 79.1704 35.7508 78.7571 35.5842C78.3504 35.4175 77.9904 35.1808 77.6771 34.8742L78.3571 34.0842C78.5904 34.3042 78.8571 34.4842 79.1571 34.6242C79.4571 34.7575 79.7571 34.8242 80.0571 34.8242C80.4304 34.8242 80.7137 34.7475 80.9071 34.5942C81.1004 34.4408 81.1971 34.2375 81.1971 33.9842C81.1971 33.7108 81.1004 33.5142 80.9071 33.3942C80.7204 33.2742 80.4804 33.1508 80.1871 33.0242L79.2871 32.6342C79.0737 32.5408 78.8637 32.4208 78.6571 32.2742C78.4571 32.1275 78.2904 31.9408 78.1571 31.7142C78.0304 31.4875 77.9671 31.2142 77.9671 30.8942C77.9671 30.5475 78.0604 30.2375 78.2471 29.9642C78.4404 29.6842 78.7004 29.4642 79.0271 29.3042C79.3604 29.1375 79.7404 29.0542 80.1671 29.0542C80.5471 29.0542 80.9137 29.1308 81.2671 29.2842C81.6204 29.4308 81.9237 29.6308 82.1771 29.8842L81.5871 30.6242C81.3804 30.4508 81.1604 30.3142 80.9271 30.2142C80.7004 30.1142 80.4471 30.0642 80.1671 30.0642C79.8604 30.0642 79.6104 30.1342 79.4171 30.2742C79.2304 30.4075 79.1371 30.5942 79.1371 30.8342C79.1371 31.0008 79.1837 31.1408 79.2771 31.2542C79.3771 31.3608 79.5071 31.4542 79.6671 31.5342C79.8271 31.6075 79.9971 31.6808 80.1771 31.7542L81.0671 32.1242C81.4537 32.2908 81.7704 32.5108 82.0171 32.7842C82.2637 33.0508 82.3871 33.4208 82.3871 33.8942C82.3871 34.2475 82.2937 34.5708 82.1071 34.8642C81.9204 35.1575 81.6504 35.3942 81.2971 35.5742C80.9504 35.7475 80.5304 35.8342 80.0371 35.8342Z" fill="black"/>
<path d="M68.9645 35.714V29.174H70.1545L72.1945 32.854L72.8645 34.244H72.9045C72.8779 33.9107 72.8445 33.5474 72.8045 33.154C72.7712 32.7607 72.7545 32.3807 72.7545 32.014V29.174H73.8645V35.714H72.6745L70.6345 32.034L69.9645 30.644H69.9245C69.9512 30.9907 69.9812 31.354 70.0145 31.734C70.0545 32.114 70.0745 32.4874 70.0745 32.854V35.714H68.9645Z" fill="black"/>
<path d="M62.1284 32.234L61.8984 33.034H63.5684L63.3384 32.234C63.2317 31.8874 63.1284 31.5307 63.0284 31.164C62.935 30.7974 62.8417 30.434 62.7484 30.074H62.7084C62.6217 30.4407 62.5284 30.8074 62.4284 31.174C62.335 31.534 62.235 31.8874 62.1284 32.234ZM59.9384 35.714L62.0684 29.174H63.4284L65.5584 35.714H64.3384L63.8284 33.944H61.6284L61.1184 35.714H59.9384Z" fill="black"/>
<path d="M52.329 35.714V29.174H54.539C54.9923 29.174 55.399 29.234 55.759 29.354C56.1256 29.474 56.4123 29.6774 56.619 29.964C56.8323 30.244 56.939 30.6274 56.939 31.114C56.939 31.614 56.819 32.0174 56.579 32.324C56.3456 32.6307 56.0323 32.8507 55.639 32.984L57.199 35.714H55.899L54.489 33.154H53.489V35.714H52.329ZM53.489 32.234H54.419C54.8656 32.234 55.2056 32.1407 55.439 31.954C55.679 31.7607 55.799 31.4807 55.799 31.114C55.799 30.7407 55.679 30.4807 55.439 30.334C55.2056 30.1807 54.8656 30.104 54.419 30.104H53.489V32.234Z" fill="black"/>
<path d="M45.59 35.714V30.154H43.7V29.174H48.64V30.154H46.75V35.714H45.59Z" fill="black"/>
</svg>
