<svg width="100" height="50" viewBox="0 0 100 50" fill="none" xmlns="http://www.w3.org/2000/svg">
<path d="M0.00227575 0H32.417V2.73587H18.9136V31.1889H16.1879V2.77417H2.69533V31.271C2.70623 35.0246 5.74818 38.0614 9.49338 38.0505C9.50429 38.0505 9.50974 38.0505 9.52064 38.0505H25.6953C27.6306 38.0395 29.4678 37.1914 30.738 35.7304C31.8119 34.4938 32.4116 32.9125 32.4225 31.271H35.1101C35.121 33.104 35.8679 34.855 37.1762 36.1299C38.4301 37.361 40.1092 38.0505 41.8645 38.0505H55.8423C57.3414 38.0505 58.9006 38.2037 60.3343 37.6565C62.9292 36.7208 64.7064 34.3023 64.8264 31.5336V26.4011C63.6325 25.0879 62.3296 23.8732 61.0921 22.5709C57.0743 18.5218 53.0511 14.4782 49.0333 10.4401C49.6602 9.79441 50.2926 9.15969 50.925 8.51402C56.4746 14.0678 62.0188 19.6326 67.5521 25.2083V31.3476C67.4813 36.5129 63.3109 40.6714 58.1646 40.7097H41.5647C38.3592 40.5948 35.4317 38.8658 33.7636 36.1189C32.0845 38.9095 29.0971 40.6386 25.848 40.7097H11.4287C9.96767 40.7097 8.4794 40.8027 7.06745 40.3978C3.76928 39.5224 1.18526 36.9452 0.30211 33.6348C-0.0904002 32.2778 0.0186303 30.8497 0.00227575 29.4544V0ZM39.7984 0.257172C40.5616 0.0711326 41.3466 -0.0109435 42.1317 0.00547174H55.6896C57.1942 0.0383022 58.7261 -0.114907 60.2035 0.246228C62.7057 0.837176 64.87 2.41851 66.2002 4.62362C67.8738 1.85492 70.8231 0.12585 74.0449 0.0273587H88.6168C90.0779 0.0273587 91.5661 -0.0601891 92.9781 0.355663C96.3362 1.28039 98.9257 3.97248 99.727 7.3759C99.9669 8.68912 100.049 10.0242 99.9724 11.3539V27.1562H83.7868V40.7207H67.5412V37.9848H81.061V9.50441H83.7868V24.4204H97.2902V9.58101C97.3284 5.8657 94.3791 2.807 90.6775 2.7304H74.2139C72.126 2.7687 70.1689 3.78097 68.9259 5.46627C68.0537 6.64269 67.5794 8.05987 67.563 9.5263H64.8754C64.8591 7.72062 64.1395 5.99703 62.8638 4.72211C61.6209 3.46908 59.9364 2.75228 58.1755 2.72493H43.609C42.3879 2.72493 41.1395 2.62643 39.9565 3.00398C37.1163 3.86305 35.1592 6.47307 35.121 9.44969V14.3743C40.3926 19.6709 45.6643 24.973 50.9304 30.2751C50.2926 30.9098 49.6711 31.5555 49.0387 32.1957C43.4945 26.6474 37.9503 21.0881 32.417 15.5178V9.12686C32.5424 4.95192 35.8133 1.19831 39.8093 0.257172H39.7984Z" fill="#1094AB"/>
<path d="M43.6581 43.7082H44.852V49.853H43.9361C43.8598 49.656 43.778 49.4536 43.7071 49.2621C43.1947 49.9734 42.208 50.1321 41.4993 49.6232C41.4557 49.5904 41.4175 49.563 41.3793 49.5247C40.8724 48.9009 40.6488 48.0911 40.7742 47.2977C40.7742 46.5864 41.1286 45.9243 41.7228 45.5413C42.426 45.1966 43.2765 45.4045 43.7453 46.0337C43.6472 45.2622 43.6199 44.4798 43.6581 43.7028M42.4588 46.4386C41.8536 46.8709 41.9136 47.7737 42.0771 48.4194C42.2298 48.8571 42.7095 49.0924 43.1456 48.9338C43.331 48.8681 43.4836 48.7422 43.5872 48.5781C43.7835 48.0254 43.7944 47.4235 43.6199 46.86C43.44 46.4332 42.9494 46.2307 42.5187 46.4113C42.4969 46.4222 42.4751 46.4277 42.4588 46.4386ZM11.0252 43.8341C11.396 43.5988 12.1156 43.6918 12.1156 44.239C12.23 44.8901 11.3033 45.0981 10.9271 44.6986C10.7363 44.4305 10.7745 44.0639 11.0089 43.8341M29.3587 43.8341C29.724 43.6043 30.449 43.6864 30.449 44.2281C30.5472 44.715 30.0129 44.9996 29.5986 44.8792C29.1025 44.8409 28.9935 44.1131 29.3424 43.8341M34.0852 43.7247H35.2791V49.8749H34.3741L34.1343 49.3277C33.6164 50.0226 32.6297 50.1704 31.9373 49.6505C31.8065 49.5521 31.692 49.4317 31.5939 49.2949C31.0705 48.3319 31.0542 47.1773 31.5393 46.1979C31.9918 45.4428 32.9731 45.1966 33.7254 45.6562C33.8999 45.7601 34.0579 45.9024 34.1779 46.0666C34.0907 45.3005 34.0579 44.5235 34.0961 43.752M32.8586 46.4879C32.5152 46.8217 32.3516 47.2922 32.4116 47.7683C32.368 48.1951 32.537 48.6164 32.8586 48.9009C33.262 49.1417 33.7854 49.0049 34.0252 48.6C34.0307 48.589 34.0361 48.5781 34.0416 48.5671C34.2106 48.0364 34.2269 47.4619 34.0743 46.9256C33.9162 46.4879 33.4365 46.2635 33.0004 46.4222C32.9513 46.4386 32.9077 46.4605 32.8586 46.4879ZM54.9209 43.752H56.1148V49.9022H55.2208C55.1445 49.7053 55.0627 49.5138 54.9864 49.3551C54.4794 50.0555 53.4981 50.2087 52.8003 49.6998C52.6258 49.5739 52.4841 49.4153 52.3751 49.2292C51.9172 48.2881 51.9172 47.1883 52.3751 46.2471C52.8221 45.4866 53.7979 45.2403 54.5557 45.689C54.7356 45.793 54.8882 45.9352 55.0136 46.0994C54.9318 45.3333 54.9046 44.5618 54.9373 43.7903M53.7053 46.5262C53.1601 46.9968 53.1601 47.8832 53.3782 48.5234C53.5526 48.9502 54.0378 49.1581 54.4685 48.9775C54.6484 48.9009 54.801 48.7641 54.8882 48.5945C55.0518 48.0583 55.0518 47.4892 54.8882 46.953C54.7301 46.5207 54.2504 46.3018 53.8197 46.466C53.7707 46.4824 53.7271 46.5043 53.6834 46.5317M68.0373 45.0269C68.1136 44.5564 68.2717 43.9982 68.7787 43.8396C69.2857 43.6809 69.76 44.0858 70.2452 44.2335C70.5396 44.2664 70.6322 43.9764 70.7631 43.7794H71.3082C71.2319 44.2609 71.0357 44.8464 70.5069 44.9777C69.9781 45.109 69.5474 44.6603 69.0458 44.5618C68.7842 44.5618 68.7133 44.8464 68.5879 45.0105H68.0428M93.6649 43.7739H94.8643V49.9241H93.6649V43.7958M0.0022626 44.1569H1.21795V47.8175C1.17434 48.2443 1.3924 48.6602 1.76311 48.8736C2.18287 49.0432 2.65716 49.0158 3.05512 48.8024C3.37131 48.5124 3.5294 48.0911 3.48034 47.6643V44.1569H4.69058V47.9871C4.67967 48.6383 4.34168 49.2402 3.79107 49.5904C3.04421 49.9843 2.16652 50.0609 1.35969 49.8038C0.585576 49.563 0.0513263 48.8571 0.0240687 48.0473C-0.00864046 46.7286 0.0240687 45.4154 0.0240687 44.0967M64.1994 44.2773C65.1317 43.9052 66.1729 43.9599 67.0615 44.425C66.9361 44.7424 66.8053 45.0652 66.669 45.3826C66.162 45.1309 65.595 45.0269 65.0335 45.0871C64.7391 45.1473 64.5483 45.4428 64.6138 45.7383C64.641 45.8696 64.7173 45.9845 64.8209 46.0611C65.4478 46.5152 66.2765 46.6849 66.7835 47.3086C67.3014 48.0528 67.1215 49.076 66.3801 49.5958C66.3582 49.6122 66.3364 49.6287 66.3146 49.6396C65.3715 50.0664 64.2976 50.0664 63.3545 49.6396V48.4687C64.0413 48.7422 64.8046 49.0924 65.5351 48.8517C65.8131 48.7368 65.9494 48.4194 65.8349 48.1403C65.8076 48.0692 65.764 48.009 65.7095 47.9543C65.1208 47.4345 64.2485 47.3141 63.747 46.6794C63.1909 45.99 63.2999 44.9832 63.9868 44.425C64.0468 44.3758 64.1122 44.332 64.1776 44.2937M79.1966 49.8913V44.1131C80.1779 44.1679 81.2028 43.9654 82.1513 44.2992C83.5088 44.7916 83.4651 47.0351 82.1513 47.5822C81.5844 47.7902 80.9847 47.8722 80.385 47.8339V49.8694H79.2075M80.4232 45.1145V46.8052C80.7939 46.8271 81.1646 46.7779 81.5135 46.652C81.9169 46.3949 82.0368 45.8586 81.7806 45.4537C81.7534 45.41 81.7206 45.3662 81.6879 45.3279C81.3281 45.0379 80.8266 45.1418 80.3959 45.1145M6.87119 46.0392C7.56898 45.0762 9.47156 45.1418 9.7605 46.4222C9.83682 47.5658 9.85862 48.7094 9.82046 49.853H8.62658V47.2922C8.65929 46.9803 8.54481 46.6739 8.32674 46.4551C7.92333 46.2143 7.39998 46.3511 7.16557 46.7615C7.12196 46.8381 7.08925 46.9202 7.06744 47.0022C6.96931 47.9488 6.94206 48.9009 6.98022 49.853H5.78633V45.4756H6.70219C6.7567 45.6616 6.81122 45.8532 6.87119 46.0228M18.3194 45.585C19.1971 45.1473 20.2601 45.3443 20.9143 46.0775C21.236 46.6411 21.3668 47.2922 21.285 47.9379H18.4339C18.4502 48.3592 18.6901 48.7422 19.0608 48.9392C19.7259 49.087 20.4237 48.9939 21.0343 48.682V49.6068C20.1838 49.9843 19.2189 50.0062 18.3521 49.6779C17.6325 49.3004 17.2018 48.5288 17.2618 47.7136C17.1691 46.849 17.5998 46.0118 18.3521 45.5796M18.4938 47.1171H20.2274C20.2165 46.6301 19.8186 46.2417 19.3334 46.2526C19.3279 46.2526 19.3225 46.2526 19.317 46.2526C18.8264 46.2526 18.5593 46.6958 18.4938 47.1226M23.1385 46.2198C23.4983 45.6015 24.2016 45.2732 24.9048 45.3826L24.8231 46.5098C24.2288 46.4277 23.4329 46.5864 23.2912 47.2758C23.2094 48.1294 23.2912 48.983 23.2585 49.8366H22.0537V45.4592H22.9641C23.0241 45.7164 23.0786 45.9735 23.1331 46.2307M25.8098 45.6124C26.6766 45.2786 27.647 45.3169 28.4865 45.7109L28.143 46.57C27.5979 46.4113 26.9546 46.0611 26.4204 46.4113V46.7013C26.9219 47.1335 27.6415 47.1992 28.143 47.6315C28.65 48.1349 28.6555 48.9556 28.1539 49.4645C28.0613 49.5575 27.9577 49.6396 27.8378 49.6998C26.9873 50.0172 26.0551 50.0172 25.2047 49.6998V48.7039C25.7989 48.9994 26.4694 49.1034 27.1236 48.9939C27.2872 48.9283 27.3744 48.7422 27.309 48.5781C27.2872 48.5288 27.2599 48.4851 27.2163 48.4468C26.7256 48.0802 26.0878 47.9707 25.6081 47.5877C25.112 47.1664 25.0466 46.4222 25.4718 45.9243C25.5645 45.8149 25.6735 45.7218 25.7989 45.6507M36.5002 45.8039C37.3452 45.3716 38.3265 45.306 39.226 45.6124C39.7003 45.8422 39.9947 46.3292 39.9783 46.8545V49.853H39.1442C39.0679 49.6505 38.9916 49.4481 38.9207 49.2456C38.3756 49.9241 37.4379 50.1266 36.6638 49.7381C35.857 49.2675 35.8515 47.8066 36.7456 47.4235C37.4161 47.1992 38.1193 47.1007 38.8226 47.1335C38.7735 46.849 38.7899 46.4605 38.4682 46.3347C37.9231 46.2362 37.367 46.3183 36.8764 46.5754L36.4784 45.7601M37.3125 48.4358C37.1762 49.1034 38.0812 49.169 38.4682 48.8681C38.8117 48.6547 38.7844 48.217 38.8117 47.8668C38.2992 47.9105 37.4706 47.7847 37.3125 48.4139M45.8223 46.5535C46.2857 45.2239 48.2374 44.9667 49.1805 45.9079C49.7256 46.4551 49.6875 47.2266 49.6766 47.9215H46.8254C46.8418 48.3483 47.0871 48.7313 47.4687 48.9228C48.1338 49.0651 48.8261 48.9721 49.4313 48.6656V49.5904C48.4881 50.0336 47.3869 50.0007 46.4711 49.4973C45.5498 48.8517 45.4844 47.5275 45.8223 46.5481M46.8581 47.0952H48.5863C48.5808 46.6137 48.1883 46.2252 47.7031 46.2307C47.6922 46.2307 47.6868 46.2307 47.6759 46.2307C47.1852 46.2307 46.9181 46.6739 46.8581 47.1007M57.1343 46.4988C57.6249 45.2239 59.4784 44.9832 60.4052 45.8586C60.9503 46.4058 60.9503 47.1992 60.9503 47.9051H58.0883C58.1046 48.3154 58.3336 48.6875 58.6879 48.89C59.3639 49.0541 60.0726 48.972 60.6941 48.6547V49.5794C59.7619 50.0007 58.688 49.9788 57.7775 49.5138C56.8017 48.8736 56.7309 47.4837 57.107 46.4824M58.1155 47.0843H59.8382C59.8382 46.6192 59.473 46.2307 59.0096 46.2143C58.4917 46.1486 58.1755 46.6301 58.1155 47.0843ZM67.9283 45.7164C68.7733 45.2841 69.7545 45.2184 70.6541 45.5249C71.1501 45.7492 71.4663 46.2526 71.4391 46.7998V49.8092H70.6213L70.3978 49.2019C69.9072 49.8038 69.1004 50.039 68.3644 49.7983C67.3559 49.4864 67.2414 47.8011 68.2172 47.3852C68.8877 47.1554 69.591 47.0569 70.2997 47.0952C70.2506 46.8052 70.2997 46.4113 69.9399 46.2854C69.4002 46.1924 68.8441 46.2854 68.359 46.5371C68.2172 46.2635 68.0864 45.99 67.9555 45.7273M68.7896 48.4139C68.6642 49.076 69.5637 49.1307 69.9454 48.8353C70.2943 48.6219 70.267 48.1841 70.2888 47.8339C69.7763 47.8777 68.9423 47.7519 68.7896 48.4139ZM73.696 45.4264C74.5573 45.1582 75.495 45.4373 76.0729 46.1322C76.5744 46.942 76.6398 47.9543 76.2419 48.8188C75.5713 50.2524 73.1781 50.2415 72.5076 48.8188C71.9624 47.6424 72.2568 45.7656 73.696 45.4318M73.9522 46.3894C73.3198 46.7998 73.4071 47.73 73.5706 48.3702C73.7233 48.8134 74.203 49.0487 74.6446 48.8954C74.8572 48.8243 75.0316 48.6656 75.1298 48.4632C75.3206 47.916 75.3206 47.3196 75.1298 46.7724C74.9117 46.3401 74.3883 46.1705 73.9577 46.3839M84.1302 45.7328C84.9752 45.3005 85.9619 45.2349 86.856 45.5467C87.3575 45.782 87.6519 46.3018 87.6028 46.8545V49.8475H86.7633L86.5398 49.2347C85.9946 49.9077 85.0624 50.1156 84.2883 49.7326C83.4815 49.2621 83.4651 47.8066 84.3592 47.4181C85.0297 47.1883 85.733 47.0898 86.4417 47.1226C86.3926 46.8435 86.409 46.4551 86.0928 46.3237C85.5476 46.2252 84.9916 46.3128 84.5009 46.57C84.3646 46.2964 84.2283 46.0228 84.0975 45.7601M84.9316 48.4358C84.7953 49.0979 85.6948 49.169 86.0819 48.8681C86.4308 48.6547 86.4035 48.217 86.4308 47.8668C85.9183 47.9105 85.0951 47.7847 84.9316 48.4139M97.0994 45.4373C97.928 45.1856 98.8221 45.4264 99.4163 46.0556C99.9615 46.8435 100.07 47.8503 99.7052 48.7368C99.1001 50.2579 96.6033 50.2907 95.9219 48.8243C95.3495 47.6534 95.6656 45.782 97.0994 45.4373ZM97.3611 46.4003C96.7396 46.8107 96.8159 47.7409 96.9904 48.3756C97.143 48.8188 97.6282 49.0487 98.0643 48.8954C98.2769 48.8188 98.4514 48.6656 98.5495 48.4632C98.7403 47.916 98.7403 47.3196 98.5495 46.7724C98.3315 46.3456 97.8081 46.176 97.3829 46.3894C97.3774 46.3894 97.372 46.3949 97.3665 46.4003M10.8781 49.8475V45.4701H12.0719V49.8475H10.8726M12.5081 45.4701H13.7565C14.1708 46.5645 14.5142 47.6807 14.7868 48.8188C15.0594 47.6862 15.4028 46.57 15.8117 45.4756H17.0655C16.5204 46.9366 15.9752 48.403 15.3974 49.853H14.1599C13.6147 48.3866 13.0696 46.9366 12.5244 45.4756M29.2443 49.853V45.4482H30.4272V49.8256H29.2333M88.655 45.4482H89.8543C89.8543 46.4277 89.8053 47.4071 89.8925 48.3811C89.947 48.7587 90.2904 49.0213 90.6666 48.9666C90.7157 48.9611 90.7702 48.9447 90.8192 48.9283C91.2227 48.797 91.4898 48.4139 91.4734 47.9871C91.5279 47.1445 91.4734 46.2964 91.4734 45.4482H92.6728V49.8256H91.7569C91.6969 49.6287 91.637 49.4371 91.5825 49.2402C90.8629 50.236 88.8567 50.1266 88.6713 48.7696C88.5732 47.6752 88.6713 46.5426 88.6277 45.4318L88.655 45.4482Z" fill="#1094AB"/>
</svg>
