<svg width="100" height="51" viewBox="0 0 100 51" fill="none" xmlns="http://www.w3.org/2000/svg">
<path d="M0.00233678 0.810059H32.4171V3.54593H18.9137V31.999H16.1879V3.58423H2.69539V32.081C2.70629 35.8347 5.74825 38.8715 9.49344 38.8605C9.50435 38.8605 9.5098 38.8605 9.5207 38.8605H25.6954C27.6307 38.8496 29.4678 38.0015 30.738 36.5405C31.812 35.3039 32.4117 33.7226 32.4226 32.081H35.1102C35.1211 33.9141 35.8679 35.665 37.1763 36.9399C38.4301 38.1711 40.1092 38.8605 41.8646 38.8605H55.8423C57.3415 38.8605 58.9006 39.0137 60.3344 38.4666C62.9293 37.5309 64.7065 35.1124 64.8264 32.3437V27.2112C63.6326 25.898 62.3296 24.6833 61.0921 23.381C57.0744 19.3319 53.0511 15.2883 49.0334 11.2501C49.6603 10.6045 50.2927 9.96975 50.925 9.32408C56.4747 14.8779 62.0189 20.4427 67.5522 26.0184V32.1576C67.4813 37.323 63.3109 41.4815 58.1647 41.5198H41.5648C38.3593 41.4049 35.4318 39.6758 33.7636 36.929C32.0846 39.7196 29.0971 41.4487 25.848 41.5198H11.4287C9.96773 41.5198 8.47946 41.6128 7.06751 41.2079C3.76934 40.3324 1.18532 37.7552 0.302171 34.4448C-0.0903392 33.0878 0.0186914 31.6597 0.00233678 30.2644V0.810059ZM39.7985 1.06723C40.5617 0.881191 41.3467 0.799115 42.1317 0.81553H55.6897C57.1943 0.848361 58.7262 0.695152 60.2035 1.05629C62.7058 1.64723 64.87 3.22857 66.2002 5.43368C67.8738 2.66498 70.8231 0.935909 74.045 0.837417H88.6169C90.0779 0.837417 91.5662 0.749869 92.9781 1.16572C96.3363 2.09045 98.9257 4.78254 99.7271 8.18596C99.967 9.49918 100.049 10.8343 99.9724 12.1639V27.9663H83.7868V41.5307H67.5413V38.7949H81.0611V10.3145H83.7868V25.2304H97.2903V10.3911C97.3284 6.67576 94.3792 3.61706 90.6776 3.54046H74.214C72.126 3.57876 70.1689 4.59103 68.926 6.27632C68.0537 7.45275 67.5795 8.86993 67.5631 10.3364H64.8755C64.8591 8.53068 64.1395 6.80708 62.8639 5.53217C61.6209 4.27914 59.9364 3.56234 58.1756 3.53498H43.6091C42.388 3.53498 41.1396 3.43649 39.9566 3.81404C37.1163 4.67311 35.1592 7.28312 35.1211 10.2598V15.1843C40.3927 20.481 45.6643 25.7831 50.9305 31.0852C50.2927 31.7199 49.6712 32.3656 49.0388 33.0058C43.4946 27.4574 37.9504 21.8981 32.4171 16.3279V9.93692C32.5425 5.76198 35.8134 2.00837 39.8094 1.06723H39.7985Z" fill="white"/>
<path d="M43.6581 44.5183H44.852V50.6631H43.9362C43.8599 50.4661 43.7781 50.2636 43.7072 50.0721C43.1948 50.7834 42.208 50.9421 41.4993 50.4332C41.4557 50.4004 41.4176 50.3731 41.3794 50.3348C40.8724 49.711 40.6489 48.9012 40.7743 48.1078C40.7743 47.3964 41.1286 46.7344 41.7229 46.3513C42.4261 46.0066 43.2765 46.2145 43.7454 46.8438C43.6472 46.0723 43.62 45.2898 43.6581 44.5128M42.4588 47.2487C41.8537 47.681 41.9137 48.5838 42.0772 49.2295C42.2299 49.6672 42.7096 49.9025 43.1457 49.7438C43.3311 49.6781 43.4837 49.5523 43.5873 49.3881C43.7835 48.8355 43.7944 48.2336 43.62 47.67C43.4401 47.2432 42.9494 47.0408 42.5188 47.2213C42.497 47.2323 42.4752 47.2378 42.4588 47.2487ZM11.0253 44.6441C11.396 44.4089 12.1156 44.5019 12.1156 45.0491C12.2301 45.7002 11.3033 45.9081 10.9272 45.5087C10.7364 45.2406 10.7745 44.874 11.009 44.6441M29.3588 44.6441C29.724 44.4143 30.4491 44.4964 30.4491 45.0381C30.5472 45.5251 30.013 45.8096 29.5987 45.6892C29.1026 45.6509 28.9935 44.9232 29.3424 44.6441M34.0853 44.5347H35.2792V50.6849H34.3742L34.1343 50.1378C33.6164 50.8327 32.6297 50.9804 31.9374 50.4606C31.8065 50.3621 31.692 50.2417 31.5939 50.1049C31.0706 49.1419 31.0542 47.9874 31.5394 47.0079C31.9919 46.2528 32.9732 46.0066 33.7255 46.4662C33.8999 46.5702 34.058 46.7125 34.1779 46.8766C34.0907 46.1106 34.058 45.3336 34.0962 44.5621M32.8587 47.2979C32.5152 47.6317 32.3517 48.1023 32.4117 48.5783C32.368 49.0051 32.537 49.4264 32.8587 49.711C33.2621 49.9517 33.7854 49.8149 34.0253 49.41C34.0308 49.3991 34.0362 49.3881 34.0417 49.3772C34.2107 48.8464 34.227 48.2719 34.0744 47.7357C33.9163 47.2979 33.4365 47.0736 33.0004 47.2323C32.9514 47.2487 32.9077 47.2706 32.8587 47.2979ZM54.921 44.5621H56.1149V50.7123H55.2208C55.1445 50.5153 55.0627 50.3238 54.9864 50.1651C54.4794 50.8655 53.4982 51.0187 52.8004 50.5099C52.6259 50.384 52.4842 50.2253 52.3751 50.0393C51.9172 49.0981 51.9172 47.9983 52.3751 47.0572C52.8222 46.2966 53.798 46.0504 54.5558 46.4991C54.7356 46.603 54.8883 46.7453 55.0137 46.9094C54.9319 46.1434 54.9046 45.3719 54.9374 44.6004M53.7053 47.3362C53.1602 47.8068 53.1602 48.6932 53.3782 49.3334C53.5527 49.7602 54.0379 49.9682 54.4685 49.7876C54.6484 49.711 54.8011 49.5742 54.8883 49.4046C55.0518 48.8683 55.0518 48.2993 54.8883 47.763C54.7302 47.3308 54.2505 47.1119 53.8198 47.2761C53.7707 47.2925 53.7271 47.3144 53.6835 47.3417M68.0374 45.837C68.1137 45.3664 68.2718 44.8083 68.7788 44.6496C69.2858 44.4909 69.7601 44.8958 70.2452 45.0436C70.5396 45.0764 70.6323 44.7864 70.7631 44.5894H71.3083C71.232 45.0709 71.0357 45.6564 70.5069 45.7877C69.9781 45.9191 69.5474 45.4704 69.0459 45.3719C68.7842 45.3719 68.7134 45.6564 68.588 45.8206H68.0428M93.665 44.584H94.8643V50.7342H93.665V44.6058M0.00232363 44.967H1.21801V48.6276C1.1744 49.0544 1.39246 49.4702 1.76317 49.6836C2.18293 49.8532 2.65722 49.8259 3.05518 49.6125C3.37137 49.3225 3.52946 48.9012 3.4804 48.4744V44.967H4.69064V48.7972C4.67973 49.4483 4.34174 50.0502 3.79113 50.4004C3.04428 50.7944 2.16658 50.871 1.35975 50.6138C0.585637 50.3731 0.0513874 49.6672 0.0241297 48.8574C-0.00857942 47.5387 0.0241297 46.2255 0.0241297 44.9068M64.1995 45.0874C65.1317 44.7153 66.173 44.77 67.0616 45.2351C66.9362 45.5525 66.8053 45.8753 66.669 46.1926C66.162 45.941 65.5951 45.837 65.0336 45.8972C64.7392 45.9574 64.5484 46.2528 64.6138 46.5483C64.6411 46.6796 64.7174 46.7945 64.821 46.8711C65.4479 47.3253 66.2765 47.4949 66.7835 48.1187C67.3014 48.8629 67.1215 49.8861 66.3801 50.4059C66.3583 50.4223 66.3365 50.4387 66.3147 50.4497C65.3716 50.8765 64.2976 50.8765 63.3545 50.4497V49.2787C64.0414 49.5523 64.8046 49.9025 65.5351 49.6617C65.8132 49.5468 65.9494 49.2295 65.835 48.9504C65.8077 48.8793 65.7641 48.8191 65.7096 48.7644C65.1208 48.2445 64.2486 48.1242 63.747 47.4894C63.191 46.8 63.3 45.7932 63.9869 45.2351C64.0469 45.1859 64.1123 45.1421 64.1777 45.1038M79.1967 50.7014V44.9232C80.1779 44.9779 81.2028 44.7755 82.1514 45.1092C83.5088 45.6017 83.4652 47.8451 82.1514 48.3923C81.5844 48.6002 80.9847 48.6823 80.3851 48.644V50.6795H79.2076M80.4232 45.9245V47.6153C80.794 47.6372 81.1647 47.5879 81.5135 47.4621C81.917 47.2049 82.0369 46.6687 81.7807 46.2638C81.7534 46.22 81.7207 46.1762 81.688 46.1379C81.3282 45.8479 80.8267 45.9519 80.396 45.9245M6.87125 46.8493C7.56904 45.8862 9.47163 45.9519 9.76056 47.2323C9.83688 48.3759 9.85868 49.5195 9.82052 50.6631H8.62664V48.1023C8.65935 47.7904 8.54487 47.484 8.32681 47.2651C7.92339 47.0244 7.40005 47.1611 7.16563 47.5715C7.12202 47.6481 7.08931 47.7302 7.0675 47.8123C6.96937 48.7589 6.94212 49.711 6.98028 50.6631H5.78639V46.2857H6.70225C6.75676 46.4717 6.81128 46.6632 6.87125 46.8328M18.3195 46.3951C19.1971 45.9574 20.2602 46.1543 20.9144 46.8876C21.236 47.4511 21.3669 48.1023 21.2851 48.748H18.4339C18.4503 49.1693 18.6902 49.5523 19.0609 49.7493C19.7259 49.897 20.4237 49.804 21.0343 49.4921V50.4168C20.1839 50.7944 19.219 50.8163 18.3522 50.488C17.6326 50.1104 17.2019 49.3389 17.2619 48.5236C17.1692 47.6591 17.5999 46.8219 18.3522 46.3896M18.4939 47.9272H20.2275C20.2166 47.4402 19.8186 47.0517 19.3334 47.0627C19.328 47.0627 19.3225 47.0627 19.3171 47.0627C18.8264 47.0627 18.5593 47.5059 18.4939 47.9327M23.1386 47.0298C23.4984 46.4115 24.2017 46.0832 24.9049 46.1926L24.8231 47.3198C24.2289 47.2378 23.433 47.3964 23.2912 48.0859C23.2095 48.9395 23.2912 49.7931 23.2585 50.6466H22.0537V46.2693H22.9642C23.0241 46.5264 23.0786 46.7836 23.1332 47.0408M25.8099 46.4225C26.6766 46.0887 27.647 46.127 28.4866 46.521L28.1431 47.38C27.5979 47.2213 26.9547 46.8711 26.4204 47.2213V47.5113C26.922 47.9436 27.6416 48.0093 28.1431 48.4415C28.6501 48.9449 28.6555 49.7657 28.154 50.2746C28.0613 50.3676 27.9578 50.4497 27.8378 50.5099C26.9874 50.8272 26.0552 50.8272 25.2047 50.5099V49.514C25.7989 49.8095 26.4695 49.9134 27.1237 49.804C27.2872 49.7383 27.3744 49.5523 27.309 49.3881C27.2872 49.3389 27.26 49.2951 27.2163 49.2568C26.7257 48.8902 26.0879 48.7808 25.6081 48.3978C25.1121 47.9764 25.0466 47.2323 25.4719 46.7344C25.5645 46.6249 25.6736 46.5319 25.7989 46.4608M36.5003 46.614C37.3453 46.1817 38.3266 46.116 39.2261 46.4225C39.7003 46.6523 39.9947 47.1393 39.9784 47.6645V50.6631H39.1443C39.068 50.4606 38.9916 50.2582 38.9208 50.0557C38.3756 50.7342 37.438 50.9366 36.6638 50.5482C35.857 50.0776 35.8516 48.6166 36.7456 48.2336C37.4162 48.0093 38.1194 47.9108 38.8226 47.9436C38.7736 47.6591 38.7899 47.2706 38.4683 47.1447C37.9231 47.0462 37.3671 47.1283 36.8764 47.3855L36.4785 46.5702M37.3126 49.2459C37.1763 49.9134 38.0812 49.9791 38.4683 49.6781C38.8117 49.4647 38.7845 49.027 38.8117 48.6768C38.2993 48.7206 37.4707 48.5947 37.3126 49.224M45.8224 47.3636C46.2858 46.034 48.2374 45.7768 49.1805 46.7179C49.7257 47.2651 49.6875 48.0366 49.6766 48.7315H46.8255C46.8418 49.1583 47.0872 49.5414 47.4688 49.7329C48.1339 49.8751 48.8262 49.7821 49.4313 49.4757V50.4004C48.4882 50.8436 47.387 50.8108 46.4711 50.3074C45.5498 49.6617 45.4844 48.3376 45.8224 47.3581M46.8582 47.9053H48.5863C48.5809 47.4238 48.1884 47.0353 47.7032 47.0408C47.6923 47.0408 47.6868 47.0408 47.6759 47.0408C47.1853 47.0408 46.9182 47.484 46.8582 47.9108M57.1343 47.3089C57.625 46.034 59.4785 45.7932 60.4052 46.6687C60.9504 47.2159 60.9504 48.0093 60.9504 48.7151H58.0883C58.1047 49.1255 58.3337 49.4976 58.688 49.7C59.364 49.8642 60.0727 49.7821 60.6942 49.4647V50.3895C59.762 50.8108 58.688 50.7889 57.7776 50.3238C56.8018 49.6836 56.7309 48.2938 57.1071 47.2925M58.1156 47.8944H59.8383C59.8383 47.4293 59.473 47.0408 59.0096 47.0244C58.4918 46.9587 58.1756 47.4402 58.1156 47.8944ZM67.9283 46.5264C68.7733 46.0942 69.7546 46.0285 70.6541 46.3349C71.1502 46.5593 71.4664 47.0627 71.4391 47.6098V50.6193H70.6214L70.3979 50.0119C69.9072 50.6138 69.1004 50.8491 68.3645 50.6083C67.3559 50.2965 67.2415 48.6112 68.2173 48.1953C68.8878 47.9655 69.5911 47.867 70.2998 47.9053C70.2507 47.6153 70.2998 47.2213 69.94 47.0955C69.4003 47.0025 68.8442 47.0955 68.359 47.3472C68.2173 47.0736 68.0864 46.8 67.9556 46.5374M68.7897 49.224C68.6643 49.8861 69.5638 49.9408 69.9454 49.6453C70.2943 49.4319 70.267 48.9942 70.2888 48.644C69.7764 48.6878 68.9423 48.5619 68.7897 49.224ZM73.6961 46.2364C74.5574 45.9683 75.4951 46.2474 76.0729 46.9423C76.5745 47.7521 76.6399 48.7644 76.2419 49.6289C75.5714 51.0625 73.1782 51.0516 72.5076 49.6289C71.9625 48.4525 72.2569 46.5757 73.6961 46.2419M73.9523 47.1994C73.3199 47.6098 73.4071 48.54 73.5707 49.1802C73.7233 49.6234 74.203 49.8587 74.6446 49.7055C74.8572 49.6344 75.0317 49.4757 75.1298 49.2732C75.3206 48.7261 75.3206 48.1296 75.1298 47.5825C74.9118 47.1502 74.3884 46.9806 73.9577 47.194M84.1303 46.5428C84.9753 46.1106 85.962 46.0449 86.856 46.3568C87.3576 46.5921 87.652 47.1119 87.6029 47.6645V50.6576H86.7634L86.5399 50.0448C85.9947 50.7178 85.0625 50.9257 84.2884 50.5427C83.4816 50.0721 83.4652 48.6166 84.3593 48.2281C85.0298 47.9983 85.733 47.8998 86.4417 47.9327C86.3927 47.6536 86.409 47.2651 86.0928 47.1338C85.5477 47.0353 84.9916 47.1228 84.501 47.38C84.3647 47.1064 84.2284 46.8328 84.0976 46.5702M84.9317 49.2459C84.7954 49.908 85.6949 49.9791 86.0819 49.6781C86.4308 49.4647 86.4036 49.027 86.4308 48.6768C85.9184 48.7206 85.0952 48.5947 84.9317 49.224M97.0995 46.2474C97.9281 45.9957 98.8222 46.2364 99.4164 46.8657C99.9615 47.6536 100.071 48.6604 99.7053 49.5468C99.1002 51.068 96.6034 51.1008 95.9219 49.6344C95.3495 48.4634 95.6657 46.5921 97.0995 46.2474ZM97.3611 47.2104C96.7397 47.6208 96.816 48.551 96.9904 49.1857C97.1431 49.6289 97.6283 49.8587 98.0644 49.7055C98.277 49.6289 98.4514 49.4757 98.5496 49.2732C98.7404 48.7261 98.7404 48.1296 98.5496 47.5825C98.3315 47.1557 97.8082 46.986 97.3829 47.1994C97.3775 47.1994 97.372 47.2049 97.3666 47.2104M10.8781 50.6576V46.2802H12.072V50.6576H10.8727M12.5081 46.2802H13.7565C14.1708 47.3745 14.5143 48.4908 14.7869 49.6289C15.0594 48.4963 15.4029 47.38 15.8118 46.2857H17.0656C16.5204 47.7466 15.9753 49.213 15.3974 50.6631H14.1599C13.6148 49.1966 13.0696 47.7466 12.5245 46.2857M29.2443 50.6631V46.2583H30.4273V50.6357H29.2334M88.655 46.2583H89.8544C89.8544 47.2378 89.8053 48.2172 89.8925 49.1912C89.9471 49.5687 90.2905 49.8314 90.6667 49.7766C90.7157 49.7712 90.7702 49.7547 90.8193 49.7383C91.2227 49.607 91.4898 49.224 91.4735 48.7972C91.528 47.9545 91.4735 47.1064 91.4735 46.2583H92.6728V50.6357H91.757C91.697 50.4387 91.637 50.2472 91.5825 50.0502C90.8629 51.0461 88.8568 50.9366 88.6714 49.5797C88.5733 48.4853 88.6714 47.3527 88.6278 46.2419L88.655 46.2583Z" fill="white"/>
</svg>
