<svg width="149" height="39" viewBox="0 0 149 39" fill="none" xmlns="http://www.w3.org/2000/svg">
<path d="M32.08 38.1226H4.61C2.06 38.1226 0 36.0526 0 33.5126V4.87257C0 2.33257 2.07 0.262573 4.61 0.262573H32.08C34.63 0.262573 36.69 2.32257 36.7 4.87257V33.5126C36.7 36.0626 34.63 38.1226 32.08 38.1226ZM4.61 2.16257C3.11 2.16257 1.9 3.38257 1.9 4.87257V33.5126C1.9 35.0126 3.12 36.2226 4.62 36.2326H32.09C33.59 36.2326 34.8 35.0126 34.81 33.5126V4.87257C34.81 3.37257 33.59 2.16257 32.09 2.16257H4.61Z" fill="white"/>
<path fill-rule="evenodd" clip-rule="evenodd" d="M20.4279 12.892H28.2318V8.67203H8.4725V12.882H5.40881V5.70203H31.2057V15.882H23.4017V24.882H20.4279V12.892Z" fill="white"/>
<path fill-rule="evenodd" clip-rule="evenodd" d="M16.1966 29.7225H23.4017V32.7025H13.2227V12.8925H16.1966V29.7225Z" fill="#FFB500"/>
<path d="M31.2056 29.6327H25.4475V32.7027H31.2056V29.6327Z" fill="#00FF77"/>
<path d="M142.662 22.5707C141.518 22.5707 140.409 22.3541 139.334 21.9207C138.277 21.4874 137.341 20.8721 136.526 20.0747L138.294 18.0207C138.901 18.5927 139.594 19.0607 140.374 19.4247C141.154 19.7714 141.934 19.9447 142.714 19.9447C143.685 19.9447 144.421 19.7454 144.924 19.3467C145.427 18.9481 145.678 18.4194 145.678 17.7607C145.678 17.0501 145.427 16.5387 144.924 16.2267C144.439 15.9147 143.815 15.5941 143.052 15.2647L140.712 14.2507C140.157 14.0081 139.611 13.6961 139.074 13.3147C138.554 12.9334 138.121 12.4481 137.774 11.8587C137.445 11.2694 137.28 10.5587 137.28 9.72675C137.28 8.82541 137.523 8.01941 138.008 7.30875C138.511 6.58075 139.187 6.00875 140.036 5.59275C140.903 5.15942 141.891 4.94275 143 4.94275C143.988 4.94275 144.941 5.14208 145.86 5.54075C146.779 5.92208 147.567 6.44208 148.226 7.10075L146.692 9.02475C146.155 8.57408 145.583 8.21875 144.976 7.95875C144.387 7.69875 143.728 7.56875 143 7.56875C142.203 7.56875 141.553 7.75075 141.05 8.11475C140.565 8.46141 140.322 8.94675 140.322 9.57075C140.322 10.0041 140.443 10.3681 140.686 10.6627C140.946 10.9401 141.284 11.1827 141.7 11.3907C142.116 11.5814 142.558 11.7721 143.026 11.9627L145.34 12.9247C146.345 13.3581 147.169 13.9301 147.81 14.6407C148.451 15.3341 148.772 16.2961 148.772 17.5267C148.772 18.4454 148.529 19.2861 148.044 20.0487C147.559 20.8114 146.857 21.4267 145.938 21.8947C145.037 22.3454 143.945 22.5707 142.662 22.5707Z" fill="white"/>
<path d="M123.706 22.2588V5.25476H133.95V7.80276H126.722V12.1448H132.832V14.6928H126.722V19.7108H134.21V22.2588H123.706Z" fill="white"/>
<path d="M112.79 22.5706C111.317 22.5706 110.017 22.2152 108.89 21.5046C107.764 20.7766 106.88 19.7539 106.238 18.4366C105.614 17.1019 105.302 15.5159 105.302 13.6786C105.302 11.8412 105.614 10.2726 106.238 8.97257C106.88 7.67257 107.764 6.67591 108.89 5.98257C110.017 5.28924 111.317 4.94257 112.79 4.94257C114.281 4.94257 115.59 5.28924 116.716 5.98257C117.843 6.67591 118.718 7.67257 119.342 8.97257C119.984 10.2726 120.304 11.8412 120.304 13.6786C120.304 15.5159 119.984 17.1019 119.342 18.4366C118.718 19.7539 117.843 20.7766 116.716 21.5046C115.59 22.2152 114.281 22.5706 112.79 22.5706ZM112.79 19.9446C114.125 19.9446 115.191 19.3812 115.988 18.2546C116.786 17.1106 117.184 15.5852 117.184 13.6786C117.184 11.7719 116.786 10.2812 115.988 9.20657C115.191 8.11457 114.125 7.56857 112.79 7.56857C111.456 7.56857 110.39 8.11457 109.592 9.20657C108.795 10.2812 108.396 11.7719 108.396 13.6786C108.396 15.5852 108.795 17.1106 109.592 18.2546C110.39 19.3812 111.456 19.9446 112.79 19.9446ZM114.688 4.05857C114.22 4.05857 113.804 3.98057 113.44 3.82457C113.094 3.65124 112.782 3.45191 112.504 3.22657C112.227 3.00124 111.967 2.81057 111.724 2.65457C111.482 2.48124 111.23 2.39457 110.97 2.39457C110.693 2.39457 110.45 2.51591 110.242 2.75857C110.052 2.98391 109.93 3.35657 109.878 3.87657L107.902 3.72057C107.972 2.55924 108.275 1.69257 108.812 1.12057C109.35 0.548573 110.043 0.262573 110.892 0.262573C111.36 0.262573 111.768 0.34924 112.114 0.522573C112.478 0.678573 112.799 0.86924 113.076 1.09457C113.354 1.31991 113.614 1.51924 113.856 1.69257C114.099 1.84857 114.35 1.92657 114.61 1.92657C115.217 1.92657 115.581 1.42391 115.702 0.418572L117.678 0.574572C117.609 1.73591 117.306 2.61124 116.768 3.20057C116.231 3.77257 115.538 4.05857 114.688 4.05857Z" fill="white"/>
<path d="M98.8551 22.5707C97.4338 22.5707 96.1424 22.2327 94.9811 21.5567C93.8198 20.8807 92.8924 19.8927 92.1991 18.5927C91.5231 17.2754 91.1851 15.6807 91.1851 13.8087C91.1851 11.9541 91.5318 10.3681 92.2251 9.05075C92.9358 7.71608 93.8804 6.70208 95.0591 6.00875C96.2378 5.29808 97.5378 4.94275 98.9591 4.94275C100.034 4.94275 100.987 5.15942 101.819 5.59275C102.651 6.02608 103.336 6.52875 103.873 7.10075L102.261 9.05075C101.828 8.60008 101.342 8.24475 100.805 7.98475C100.285 7.70742 99.6958 7.56875 99.0371 7.56875C98.1184 7.56875 97.2951 7.82008 96.5671 8.32275C95.8564 8.80808 95.2931 9.51008 94.8771 10.4287C94.4784 11.3474 94.2791 12.4481 94.2791 13.7307C94.2791 15.6721 94.7038 17.1974 95.5531 18.3067C96.4024 19.3988 97.5378 19.9447 98.9591 19.9447C99.7218 19.9447 100.398 19.7887 100.987 19.4767C101.576 19.1474 102.114 18.7227 102.599 18.2027L104.211 20.1007C103.518 20.8981 102.72 21.5134 101.819 21.9467C100.935 22.3627 99.9471 22.5707 98.8551 22.5707ZM96.4631 28.3167L96.2031 27.0167C97.2604 26.9474 97.9798 26.8174 98.3611 26.6267C98.7598 26.4534 98.9591 26.1761 98.9591 25.7947C98.9591 25.5001 98.8118 25.2574 98.5171 25.0667C98.2398 24.8761 97.7198 24.7287 96.9571 24.6247L98.1531 22.1807H99.9731L99.2191 23.8707C99.8431 24.0267 100.32 24.2434 100.649 24.5208C100.996 24.8154 101.169 25.2314 101.169 25.7687C101.169 26.5834 100.753 27.1901 99.9211 27.5887C99.1064 28.0047 97.9538 28.2474 96.4631 28.3167Z" fill="white"/>
<path d="M84.7312 22.2588V5.25476H87.7472V22.2588H84.7312Z" fill="white"/>
<path d="M70.741 22.2588V5.25476H80.985V7.80276H73.757V12.1448H79.867V14.6928H73.757V19.7108H81.245V22.2588H70.741Z" fill="white"/>
<path d="M57.6902 22.2588V5.25476H60.7062V19.7108H67.7782V22.2588H57.6902Z" fill="white"/>
<path d="M43.7 22.2588V5.25476H53.944V7.80276H46.716V12.1448H52.826V14.6928H46.716V19.7108H54.204V22.2588H43.7Z" fill="white"/>
<path d="M145.886 36.0967C145.446 36.0967 145.019 36.0134 144.606 35.8467C144.199 35.6801 143.839 35.4434 143.526 35.1367L144.206 34.3467C144.439 34.5667 144.706 34.7467 145.006 34.8867C145.306 35.0201 145.606 35.0867 145.906 35.0867C146.279 35.0867 146.562 35.0101 146.756 34.8567C146.949 34.7034 147.046 34.5001 147.046 34.2467C147.046 33.9734 146.949 33.7767 146.756 33.6567C146.569 33.5367 146.329 33.4134 146.036 33.2867L145.136 32.8967C144.922 32.8034 144.712 32.6834 144.506 32.5367C144.306 32.3901 144.139 32.2034 144.006 31.9767C143.879 31.7501 143.816 31.4767 143.816 31.1567C143.816 30.8101 143.909 30.5001 144.096 30.2267C144.289 29.9467 144.549 29.7267 144.876 29.5667C145.209 29.4001 145.589 29.3167 146.016 29.3167C146.396 29.3167 146.762 29.3934 147.116 29.5467C147.469 29.6934 147.772 29.8934 148.026 30.1467L147.436 30.8867C147.229 30.7134 147.009 30.5767 146.776 30.4767C146.549 30.3767 146.296 30.3267 146.016 30.3267C145.709 30.3267 145.459 30.3967 145.266 30.5367C145.079 30.6701 144.986 30.8567 144.986 31.0967C144.986 31.2634 145.032 31.4034 145.126 31.5167C145.226 31.6234 145.356 31.7167 145.516 31.7967C145.676 31.8701 145.846 31.9434 146.026 32.0167L146.916 32.3867C147.302 32.5534 147.619 32.7734 147.866 33.0467C148.112 33.3134 148.236 33.6834 148.236 34.1567C148.236 34.5101 148.142 34.8334 147.956 35.1267C147.769 35.4201 147.499 35.6567 147.146 35.8367C146.799 36.0101 146.379 36.0967 145.886 36.0967Z" fill="white"/>
<path d="M135.995 35.9766V29.4366H139.935V30.4166H137.155V32.0866H139.505V33.0666H137.155V34.9966H140.035V35.9766H135.995Z" fill="white"/>
<path d="M129.256 35.9766V30.4166H127.366V29.4366H132.306V30.4166H130.416V35.9766H129.256Z" fill="white"/>
<path d="M118.773 35.9766V29.4366H119.963L122.003 33.1166L122.673 34.5066H122.713C122.687 34.1733 122.653 33.81 122.613 33.4166C122.58 33.0233 122.563 32.6433 122.563 32.2766V29.4366H123.673V35.9766H122.483L120.443 32.2966L119.773 30.9066H119.733C119.76 31.2533 119.79 31.6166 119.823 31.9966C119.863 32.3766 119.883 32.75 119.883 33.1166V35.9766H118.773Z" fill="white"/>
<path d="M110.793 35.9766V29.4366H114.733V30.4166H111.953V32.0866H114.303V33.0666H111.953V34.9966H114.833V35.9766H110.793Z" fill="white"/>
<path d="M102.275 35.9766V29.4366H104.485C104.938 29.4366 105.345 29.4966 105.705 29.6166C106.071 29.7366 106.358 29.94 106.565 30.2266C106.778 30.5066 106.885 30.89 106.885 31.3766C106.885 31.8766 106.765 32.28 106.525 32.5866C106.291 32.8933 105.978 33.1133 105.585 33.2466L107.145 35.9766H105.845L104.435 33.4166H103.435V35.9766H102.275ZM103.435 32.4966H104.365C104.811 32.4966 105.151 32.4033 105.385 32.2166C105.625 32.0233 105.745 31.7433 105.745 31.3766C105.745 31.0033 105.625 30.7433 105.385 30.5966C105.151 30.4433 104.811 30.3666 104.365 30.3666H103.435V32.4966Z" fill="white"/>
<path d="M95.4385 32.4966L95.2085 33.2966H96.8785L96.6485 32.4966C96.5418 32.15 96.4385 31.7933 96.3385 31.4266C96.2451 31.06 96.1518 30.6966 96.0585 30.3366H96.0185C95.9318 30.7033 95.8385 31.07 95.7385 31.4366C95.6451 31.7966 95.5451 32.15 95.4385 32.4966ZM93.2485 35.9766L95.3785 29.4366H96.7385L98.8685 35.9766H97.6485L97.1385 34.2066H94.9385L94.4285 35.9766H93.2485Z" fill="white"/>
<path d="M86.1762 35.9766V29.4366H88.2362C88.7229 29.4366 89.1562 29.5 89.5362 29.6266C89.9162 29.7533 90.2162 29.9633 90.4362 30.2566C90.6562 30.55 90.7662 30.95 90.7662 31.4566C90.7662 31.9366 90.6562 32.3333 90.4362 32.6466C90.2162 32.96 89.9195 33.1933 89.5462 33.3466C89.1729 33.5 88.7495 33.5766 88.2762 33.5766H87.3362V35.9766H86.1762ZM87.3362 32.6466H88.1862C89.1462 32.6466 89.6262 32.25 89.6262 31.4566C89.6262 31.0433 89.4995 30.76 89.2462 30.6066C88.9995 30.4466 88.6329 30.3666 88.1462 30.3666H87.3362V32.6466Z" fill="white"/>
<path d="M80.037 36.0967C79.597 36.0967 79.1703 36.0134 78.757 35.8467C78.3503 35.6801 77.9903 35.4434 77.677 35.1367L78.357 34.3467C78.5903 34.5667 78.857 34.7467 79.157 34.8867C79.457 35.0201 79.757 35.0867 80.057 35.0867C80.4303 35.0867 80.7137 35.0101 80.907 34.8567C81.1003 34.7034 81.197 34.5001 81.197 34.2467C81.197 33.9734 81.1003 33.7767 80.907 33.6567C80.7203 33.5367 80.4803 33.4134 80.187 33.2867L79.287 32.8967C79.0737 32.8034 78.8637 32.6834 78.657 32.5367C78.457 32.3901 78.2903 32.2034 78.157 31.9767C78.0303 31.7501 77.967 31.4767 77.967 31.1567C77.967 30.8101 78.0603 30.5001 78.247 30.2267C78.4403 29.9467 78.7003 29.7267 79.027 29.5667C79.3603 29.4001 79.7403 29.3167 80.167 29.3167C80.547 29.3167 80.9137 29.3934 81.267 29.5467C81.6203 29.6934 81.9237 29.8934 82.177 30.1467L81.587 30.8867C81.3803 30.7134 81.1603 30.5767 80.927 30.4767C80.7003 30.3767 80.447 30.3267 80.167 30.3267C79.8603 30.3267 79.6103 30.3967 79.417 30.5367C79.2303 30.6701 79.137 30.8567 79.137 31.0967C79.137 31.2634 79.1837 31.4034 79.277 31.5167C79.377 31.6234 79.507 31.7167 79.667 31.7967C79.827 31.8701 79.997 31.9434 80.177 32.0167L81.067 32.3867C81.4537 32.5534 81.7703 32.7734 82.017 33.0467C82.2637 33.3134 82.387 33.6834 82.387 34.1567C82.387 34.5101 82.2937 34.8334 82.107 35.1267C81.9203 35.4201 81.6503 35.6567 81.297 35.8367C80.9503 36.0101 80.5303 36.0967 80.037 36.0967Z" fill="white"/>
<path d="M68.9645 35.9766V29.4366H70.1545L72.1945 33.1166L72.8645 34.5066H72.9045C72.8778 34.1733 72.8445 33.81 72.8045 33.4166C72.7711 33.0233 72.7545 32.6433 72.7545 32.2766V29.4366H73.8645V35.9766H72.6745L70.6345 32.2966L69.9645 30.9066H69.9245C69.9511 31.2533 69.9811 31.6166 70.0145 31.9966C70.0545 32.3766 70.0745 32.75 70.0745 33.1166V35.9766H68.9645Z" fill="white"/>
<path d="M62.1283 32.4966L61.8983 33.2966H63.5683L63.3383 32.4966C63.2316 32.15 63.1283 31.7933 63.0283 31.4266C62.935 31.06 62.8416 30.6966 62.7483 30.3366H62.7083C62.6216 30.7033 62.5283 31.07 62.4283 31.4366C62.335 31.7966 62.235 32.15 62.1283 32.4966ZM59.9383 35.9766L62.0683 29.4366H63.4283L65.5583 35.9766H64.3383L63.8283 34.2066H61.6283L61.1183 35.9766H59.9383Z" fill="white"/>
<path d="M52.3289 35.9766V29.4366H54.5389C54.9923 29.4366 55.3989 29.4966 55.7589 29.6166C56.1256 29.7366 56.4123 29.94 56.6189 30.2266C56.8323 30.5066 56.9389 30.89 56.9389 31.3766C56.9389 31.8766 56.8189 32.28 56.5789 32.5866C56.3456 32.8933 56.0323 33.1133 55.6389 33.2466L57.1989 35.9766H55.8989L54.4889 33.4166H53.4889V35.9766H52.3289ZM53.4889 32.4966H54.4189C54.8656 32.4966 55.2056 32.4033 55.4389 32.2166C55.6789 32.0233 55.7989 31.7433 55.7989 31.3766C55.7989 31.0033 55.6789 30.7433 55.4389 30.5966C55.2056 30.4433 54.8656 30.3666 54.4189 30.3666H53.4889V32.4966Z" fill="white"/>
<path d="M45.59 35.9766V30.4166H43.7V29.4366H48.64V30.4166H46.75V35.9766H45.59Z" fill="white"/>
</svg>
