<svg xmlns="http://www.w3.org/2000/svg" width="160.479" height="37.865" viewBox="0 0 160.479 37.865">
  <g id="Grupo_2611" data-name="Grupo 2611" transform="translate(-24 -66.532)">
    <path id="Caminho_1" data-name="Caminho 1" d="M31.084,36.864H3.612A4.617,4.617,0,0,1-1,32.252V3.612A4.617,4.617,0,0,1,3.612-1H31.084A4.617,4.617,0,0,1,35.7,3.612v28.64A4.617,4.617,0,0,1,31.084,36.864ZM3.612.9A2.719,2.719,0,0,0,.9,3.612v28.64a2.719,2.719,0,0,0,2.716,2.716H31.084A2.719,2.719,0,0,0,33.8,32.252V3.612A2.719,2.719,0,0,0,31.084.9Z" transform="translate(25 67.532)" fill="#fff"/>
    <path id="Caminho_2" data-name="Caminho 2" d="M85.26,89.826V77.843h7.82V73.62h-19.8v3.535h0v.669H70.215V70.64H96.06V80.823H88.239v9Z" transform="translate(-40.79 1.319)" fill="#fff" fill-rule="evenodd"/>
    <path id="Caminho_3" data-name="Caminho 3" d="M174.4,180.688h4.245v0h2.979v2.982h-10.2V163.86H174.4v16.828Z" transform="translate(-134.173 -84.698)" fill="#ffb500" fill-rule="evenodd"/>
    <g id="Grupo_1337" data-name="Grupo 1337" transform="translate(0 0.223)">
      <path id="Caminho_4" data-name="Caminho 4" d="M555.825,25.982h10.241v2.539h-7.222v4.36h6.119v2.539h-6.119v5.037h7.483V43h-10.5Z" transform="translate(-487.789 46.066)" fill="#fff"/>
      <path id="Caminho_5" data-name="Caminho 5" d="M785.154,25.982h3.018V40.458h7.066V43H785.154Z" transform="translate(-704.149 46.066)" fill="#fff"/>
      <path id="Caminho_6" data-name="Caminho 6" d="M1005.01,25.982h10.241v2.539h-7.223v4.36h6.119v2.539h-6.119v5.037h7.483V43h-10.5Z" transform="translate(-911.57 46.066)" fill="#fff"/>
      <path id="Caminho_7" data-name="Caminho 7" d="M1213.729,29.338c0-5.568,3.487-8.877,7.8-8.877a6.764,6.764,0,0,1,4.9,2.154l-1.613,1.946a4.444,4.444,0,0,0-3.226-1.478c-2.768,0-4.756,2.342-4.756,6.161,0,3.882,1.832,6.234,4.683,6.234a4.787,4.787,0,0,0,3.632-1.748l1.613,1.894a6.786,6.786,0,0,1-5.36,2.477c-4.277,0-7.67-3.132-7.67-8.763" transform="translate(-1108.485 51.275)" fill="#fff"/>
      <path id="Caminho_8" data-name="Caminho 8" d="M1464.53,28.521h-4.912V25.982h12.842v2.539h-4.912V43h-3.018Z" transform="translate(-1340.467 46.066)" fill="#fff"/>
      <rect id="Ret창ngulo_4" data-name="Ret창ngulo 4" width="3.018" height="17.016" transform="translate(134.035 72.048)" fill="#fff"/>
      <path id="Caminho_9" data-name="Caminho 9" d="M1823.093,29.214c0-5.505,3.07-8.752,7.5-8.752s7.5,3.263,7.5,8.752c0,5.505-3.07,8.888-7.5,8.888s-7.5-3.382-7.5-8.888m11.906,0c0-3.819-1.728-6.13-4.4-6.13s-4.4,2.31-4.4,6.13,1.727,6.265,4.4,6.265,4.4-2.446,4.4-6.265" transform="translate(-1683.386 51.274)" fill="#fff"/>
      <path id="Caminho_10" data-name="Caminho 10" d="M2135.83,25.982h3.1l5.287,9.564,1.759,3.632h.1c-.146-1.759-.385-3.913-.385-5.807V25.982h2.872V43h-3.1l-5.287-9.58-1.759-3.616h-.1c.146,1.8.385,3.851.385,5.745V43h-2.872Z" transform="translate(-1978.436 46.066)" fill="#fff"/>
      <path id="Caminho_11" data-name="Caminho 11" d="M2398.326,35.609l1.759-2.071a6.683,6.683,0,0,0,4.434,1.941c1.915,0,2.966-.869,2.966-2.2,0-1.4-1.1-1.847-2.643-2.5l-2.326-1.009c-1.676-.7-3.44-2.024-3.44-4.511,0-2.711,2.394-4.8,5.714-4.8a7.457,7.457,0,0,1,5.245,2.17l-1.55,1.915a5.479,5.479,0,0,0-3.694-1.462c-1.613,0-2.664.755-2.664,2,0,1.337,1.3,1.832,2.706,2.409l2.295.963c2.024.843,3.44,2.123,3.44,4.59,0,2.758-2.29,5.058-6.109,5.058a8.765,8.765,0,0,1-6.13-2.492" transform="translate(-2226.087 51.274)" fill="#fff"/>
      <path id="Caminho_12" data-name="Caminho 12" d="M565.511,400.64h1.954c1.255,0,2.178.344,2.178,1.347a1.228,1.228,0,0,1-.848,1.183v.033a1.3,1.3,0,0,1,1.173,1.3c0,1.093-1,1.6-2.346,1.6h-2.111Zm1.857,2.256c.852,0,1.214-.3,1.214-.772,0-.528-.4-.729-1.192-.729h-.8v1.5Zm.142,2.453c.9,0,1.4-.287,1.4-.9,0-.575-.486-.825-1.4-.825h-.915v1.728Z" transform="translate(-497.475 -307.457)" fill="#fff"/>
      <path id="Caminho_13" data-name="Caminho 13" d="M724.016,400.639h3.676v.815H725.1v1.4h2.2v.815h-2.2v1.618h2.686v.815h-3.769Z" transform="translate(-646.927 -307.457)" fill="#fff"/>
      <path id="Caminho_14" data-name="Caminho 14" d="M967.994,401.455H966.23v-.815h4.61v.815h-1.763V406.1h-1.083Z" transform="translate(-875.309 -307.457)" fill="#fff"/>
      <path id="Caminho_15" data-name="Caminho 15" d="M1125.193,400.639h2.059c1.27,0,2.249.4,2.249,1.621,0,1.175-.979,1.708-2.249,1.708h-.975V406.1h-1.083Zm1.947,2.553c.837,0,1.292-.311,1.292-.932s-.456-.845-1.292-.845h-.863v1.778Zm-.092.516.784-.578,1.907,2.973h-1.218Z" transform="translate(-1025.193 -307.457)" fill="#fff"/>
      <path id="Caminho_16" data-name="Caminho 16" d="M1278.545,400.639h1.27l1.991,5.464h-1.147l-.93-2.907c-.194-.578-.374-1.2-.553-1.8h-.037c-.168.6-.347,1.223-.542,1.8l-.938,2.907h-1.106Zm-.815,3.223h2.877v.76h-2.877Z" transform="translate(-1167.909 -307.457)" fill="#fff"/>
      <path id="Caminho_17" data-name="Caminho 17" d="M1443.923,400.639h1.113l1.9,3.071.631,1.166h.037c-.052-.565-.138-1.257-.138-1.865v-2.373h1.031V406.1h-1.113l-1.9-3.076-.631-1.161h-.037c.052.578.138,1.236.138,1.845V406.1h-1.031Z" transform="translate(-1325.719 -307.457)" fill="#fff"/>
      <path id="Caminho_18" data-name="Caminho 18" d="M1602.641,403.747l.632-.665a2.541,2.541,0,0,0,1.591.623c.688,0,1.065-.279,1.065-.705,0-.449-.394-.593-.949-.8l-.835-.324a1.61,1.61,0,0,1-1.235-1.449c0-.871.859-1.541,2.051-1.541a2.844,2.844,0,0,1,1.883.7l-.557.615a2.1,2.1,0,0,0-1.326-.47c-.579,0-.956.242-.956.642,0,.43.465.588.971.774l.824.309c.726.271,1.235.682,1.235,1.474,0,.886-.822,1.624-2.193,1.624a3.35,3.35,0,0,1-2.2-.8" transform="translate(-1475.372 -305.801)" fill="#fff"/>
      <path id="Caminho_19" data-name="Caminho 19" d="M1758.4,400.639h1.924c1.356,0,2.361.421,2.361,1.684,0,1.218-1.009,1.771-2.323,1.771h-.878V406.1H1758.4Zm1.871,2.68c.911,0,1.345-.324,1.345-1s-.474-.909-1.382-.909h-.751v1.9Z" transform="translate(-1622.237 -307.457)" fill="#fff"/>
      <path id="Caminho_20" data-name="Caminho 20" d="M1894.923,400.639h1.27l1.991,5.464h-1.147l-.93-2.907c-.194-.578-.374-1.2-.553-1.8h-.038c-.168.6-.347,1.223-.541,1.8l-.938,2.907h-1.106Zm-.814,3.223h2.877v.76h-2.877Z" transform="translate(-1749.084 -307.457)" fill="#fff"/>
      <path id="Caminho_21" data-name="Caminho 21" d="M2060.3,400.639h2.059c1.27,0,2.249.4,2.249,1.621,0,1.175-.979,1.708-2.249,1.708h-.975V406.1H2060.3Zm1.947,2.553c.836,0,1.292-.311,1.292-.932s-.456-.845-1.292-.845h-.863v1.778Zm-.092.516.784-.578,1.907,2.973h-1.218Z" transform="translate(-1906.895 -307.457)" fill="#fff"/>
      <path id="Caminho_22" data-name="Caminho 22" d="M2218.333,400.639h3.676v.815h-2.593v1.4h2.2v.815h-2.2v1.618h2.686v.815h-3.77Z" transform="translate(-2055.901 -307.457)" fill="#fff"/>
      <path id="Caminho_23" data-name="Caminho 23" d="M2365.262,400.639h1.113l1.9,3.071.631,1.166h.038c-.052-.565-.138-1.257-.138-1.865v-2.373h1.031V406.1h-1.113l-1.9-3.076-.632-1.161h-.037c.052.578.138,1.236.138,1.845V406.1h-1.031Z" transform="translate(-2194.439 -307.457)" fill="#fff"/>
      <path id="Caminho_24" data-name="Caminho 24" d="M2525.4,401.455h-1.763v-.815h4.61v.815h-1.763V406.1H2525.4Z" transform="translate(-2343.768 -307.457)" fill="#fff"/>
    </g>
    <rect id="Ret창ngulo_5" data-name="Ret창ngulo 5" width="5.774" height="3.073" transform="translate(49.497 95.897)" fill="#0f7"/>
  </g>
</svg>
