<?xml version="1.0" encoding="UTF-8" standalone="no"?>
<!DOCTYPE svg PUBLIC "-//W3C//DTD SVG 1.1//EN" "http://www.w3.org/Graphics/SVG/1.1/DTD/svg11.dtd">
<svg xmlns="http://www.w3.org/2000/svg" version="1.1" viewBox="0.00 0.00 259.00 224.00">
<g stroke-width="2.00" fill="none" stroke-linecap="butt">
<path stroke="#80e3ea" vector-effect="non-scaling-stroke" d="
  M 218.16 126.12
  Q 223.94 131.42 228.47 136.34
  C 230.13 138.14 231.26 141.13 231.25 143.50
  Q 231.21 161.88 231.29 181.83
  Q 231.31 185.97 235.62 186.29
  Q 235.71 186.30 235.81 186.29
  Q 240.31 186.09 240.25 181.45
  Q 240.05 166.66 240.27 149.67
  Q 240.37 142.41 239.75 139.35
  Q 238.60 133.60 234.21 129.12
  Q 226.88 121.65 218.37 113.79
  A 2.26 2.25 21.6 0 1 217.65 112.14
  Q 217.67 79.45 217.65 45.55
  C 217.65 43.34 216.02 41.38 213.87 41.07
  Q 197.69 38.71 180.46 34.96
  C 163.05 31.16 145.57 30.78 132.07 43.21
  Q 131.51 43.73 130.95 43.22
  C 116.70 30.20 98.58 31.35 80.71 35.31
  Q 64.90 38.82 49.08 41.08
  C 46.67 41.43 45.42 43.48 45.43 45.77
  Q 45.48 78.53 45.44 112.06
  A 2.16 2.15 68.8 0 1 44.74 113.65
  Q 36.35 121.39 28.93 129.00
  Q 22.86 135.23 22.85 142.91
  Q 22.81 160.85 22.81 181.57
  C 22.81 188.19 31.74 187.96 31.75 181.43
  Q 31.79 163.07 31.72 144.45
  C 31.71 141.12 32.82 137.96 35.12 135.61
  Q 39.28 131.35 44.68 126.18
  Q 45.46 125.44 45.46 126.52
  L 45.45 137.46
  A 2.98 2.96 -20.8 0 1 44.44 139.69
  C 41.76 142.04 38.64 144.95 41.88 148.62
  C 43.72 150.71 46.69 150.13 48.48 148.39
  Q 59.50 137.67 69.09 128.17
  Q 71.76 125.53 71.92 129.28
  Q 71.99 131.04 72.07 132.81
  Q 72.20 135.88 69.99 138.02
  L 63.89 143.91
  Q 63.44 144.34 63.46 144.97
  Q 63.59 149.50 63.41 154.12
  C 63.24 158.61 61.00 161.34 57.43 163.55
  C 54.96 165.08 54.19 168.32 56.22 170.53
  C 58.94 173.50 61.99 171.71 64.51 169.75
  Q 70.55 165.07 71.90 158.51
  Q 72.00 157.99 72.51 157.86
  L 81.23 155.55
  Q 81.61 155.46 81.61 155.84
  Q 81.61 158.50 81.63 161.05
  C 81.67 165.09 79.51 168.61 76.81 171.50
  C 75.45 172.97 72.62 174.68 72.61 176.70
  Q 72.57 184.04 72.70 191.13
  Q 72.78 195.32 76.98 195.34
  Q 77.04 195.34 77.15 195.34
  Q 81.34 195.35 81.51 191.17
  Q 81.75 185.25 81.64 179.97
  A 1.19 1.18 -22.4 0 1 82.01 179.09
  C 87.33 174.06 90.80 167.76 90.76 160.26
  Q 90.74 156.78 90.75 153.69
  Q 90.75 153.09 91.33 152.94
  C 104.94 149.47 117.46 148.61 127.75 159.69
  C 131.66 163.91 134.76 160.07 137.54 157.51
  C 147.33 148.52 159.75 149.84 171.70 152.95
  Q 172.25 153.09 172.25 153.66
  C 172.30 157.57 171.95 161.70 172.76 165.45
  Q 174.36 172.78 181.02 179.10
  A 1.19 1.17 23.2 0 1 181.39 180.00
  Q 181.21 184.59 181.49 191.19
  C 181.73 196.97 190.16 196.87 190.30 191.12
  Q 190.46 184.32 190.33 177.22
  Q 190.29 174.94 189.11 174.08
  Q 179.87 167.32 181.46 156.05
  Q 181.54 155.51 182.07 155.65
  L 190.38 157.83
  A 1.00 0.99 -89.1 0 1 191.11 158.59
  Q 192.71 166.04 200.13 170.87
  Q 203.11 172.80 206.19 171.04
  Q 207.12 170.50 207.44 169.59
  Q 208.81 165.73 205.37 163.50
  Q 199.31 159.57 199.47 152.94
  C 199.54 150.01 199.52 147.06 199.48 144.16
  Q 199.48 143.63 199.08 143.26
  L 193.36 137.91
  A 7.68 7.65 -67.2 0 1 190.94 131.94
  Q 191.00 130.52 191.07 129.09
  Q 191.24 125.54 193.77 128.04
  Q 204.69 138.82 214.56 148.44
  Q 217.36 151.17 220.75 148.99
  Q 220.93 148.87 221.08 148.70
  Q 223.93 145.37 221.07 142.20
  Q 219.65 140.62 218.06 139.19
  A 1.28 1.26 21.4 0 1 217.64 138.25
  L 217.67 126.33
  Q 217.67 125.67 218.16 126.12"
/>
<path stroke="#80e3ea" vector-effect="non-scaling-stroke" d="
  M 96.04 142.66
  C 105.87 140.66 117.52 140.97 126.28 146.84
  Q 126.99 147.31 126.99 146.46
  L 126.99 52.54
  A 1.62 1.59 -68.1 0 0 126.51 51.39
  Q 116.03 41.03 101.25 41.67
  Q 93.49 42.01 91.23 42.48
  Q 73.20 46.27 54.98 49.49
  Q 54.51 49.58 54.51 50.05
  L 54.51 129.06
  Q 54.51 129.87 55.07 129.29
  Q 59.83 124.43 65.16 119.48
  C 71.16 113.92 78.20 119.20 80.22 125.45
  C 83.04 134.21 80.07 141.68 73.38 147.39
  Q 71.75 148.78 73.81 148.18
  Q 85.13 144.87 96.04 142.66"
/>
<path stroke="#80e3ea" vector-effect="non-scaling-stroke" d="
  M 163.50 41.70
  C 153.37 40.95 144.86 43.77 137.50 50.42
  C 136.64 51.19 136.01 51.81 136.01 53.04
  Q 136.05 99.57 136.00 146.39
  Q 136.00 147.20 136.69 146.77
  C 147.69 140.01 160.41 140.74 172.78 143.86
  C 178.28 145.25 183.79 146.62 189.27 148.16
  Q 189.71 148.28 190.15 148.22
  A 0.43 0.42 60.7 0 0 190.36 147.47
  Q 186.50 144.36 184.35 140.89
  C 180.21 134.20 180.80 123.56 187.37 118.79
  C 192.09 115.35 196.43 117.78 200.11 121.54
  Q 204.13 125.65 207.98 129.26
  Q 208.54 129.78 208.54 129.02
  L 208.54 50.20
  Q 208.54 49.58 207.94 49.47
  Q 190.83 46.46 174.47 43.04
  C 170.97 42.30 167.11 41.96 163.50 41.70"
/>
<path stroke="#80e3ea" vector-effect="non-scaling-stroke" d="
  M 113.27 70.73
  A 4.43 4.43 0.0 0 0 108.84 66.30
  L 72.54 66.30
  A 4.43 4.43 0.0 0 0 68.11 70.73
  L 68.11 70.95
  A 4.43 4.43 0.0 0 0 72.54 75.38
  L 108.84 75.38
  A 4.43 4.43 0.0 0 0 113.27 70.95
  L 113.27 70.73"
/>
<path stroke="#80e3ea" vector-effect="non-scaling-stroke" d="
  M 113.27 88.88
  A 4.40 4.40 0.0 0 0 108.87 84.48
  L 72.51 84.48
  A 4.40 4.40 0.0 0 0 68.11 88.88
  L 68.11 89.08
  A 4.40 4.40 0.0 0 0 72.51 93.48
  L 108.87 93.48
  A 4.40 4.40 0.0 0 0 113.27 89.08
  L 113.27 88.88"
/>
<path stroke="#80e3ea" vector-effect="non-scaling-stroke" d="
  M 104.20 106.98
  A 4.41 4.41 0.0 0 0 99.79 102.57
  L 72.53 102.57
  A 4.41 4.41 0.0 0 0 68.12 106.98
  L 68.12 107.20
  A 4.41 4.41 0.0 0 0 72.53 111.61
  L 99.79 111.61
  A 4.41 4.41 0.0 0 0 104.20 107.20
  L 104.20 106.98"
/>
<path stroke="#80e3ea" vector-effect="non-scaling-stroke" d="
  M 176.8270 65.0679
  A 0.26 0.26 0.0 0 0 176.5675 64.8075
  L 168.0275 64.7926
  A 0.26 0.26 0.0 0 0 167.7670 65.0521
  L 167.7530 73.0921
  A 0.26 0.26 0.0 0 0 168.0125 73.3525
  L 176.5525 73.3674
  A 0.26 0.26 0.0 0 0 176.8130 73.1079
  L 176.8270 65.0679"
/>
<path stroke="#80e3ea" vector-effect="non-scaling-stroke" d="
  M 166.99 102.78
  L 162.15 102.78
  Q 161.34 102.79 161.33 103.60
  L 161.30 110.86
  Q 161.30 111.91 162.36 111.91
  L 182.42 111.92
  Q 183.51 111.92 183.51 110.83
  L 183.52 103.97
  Q 183.52 102.41 181.99 102.69
  Q 180.48 102.97 177.43 102.69
  Q 176.86 102.64 176.86 102.07
  L 176.88 80.50
  A 0.38 0.38 0.0 0 0 176.50 80.12
  L 164.06 80.13
  Q 163.26 80.13 163.25 80.94
  L 163.25 88.37
  Q 163.24 89.25 164.12 89.25
  L 167.24 89.25
  Q 167.74 89.25 167.74 89.75
  L 167.75 102.01
  Q 167.75 102.77 166.99 102.78"
/>
</g>
<path fill="#ffffff" d="
  M 0.00 0.00
  L 259.00 0.00
  L 259.00 224.00
  L 0.00 224.00
  L 0.00 0.00
  Z
  M 218.16 126.12
  Q 223.94 131.42 228.47 136.34
  C 230.13 138.14 231.26 141.13 231.25 143.50
  Q 231.21 161.88 231.29 181.83
  Q 231.31 185.97 235.62 186.29
  Q 235.71 186.30 235.81 186.29
  Q 240.31 186.09 240.25 181.45
  Q 240.05 166.66 240.27 149.67
  Q 240.37 142.41 239.75 139.35
  Q 238.60 133.60 234.21 129.12
  Q 226.88 121.65 218.37 113.79
  A 2.26 2.25 21.6 0 1 217.65 112.14
  Q 217.67 79.45 217.65 45.55
  C 217.65 43.34 216.02 41.38 213.87 41.07
  Q 197.69 38.71 180.46 34.96
  C 163.05 31.16 145.57 30.78 132.07 43.21
  Q 131.51 43.73 130.95 43.22
  C 116.70 30.20 98.58 31.35 80.71 35.31
  Q 64.90 38.82 49.08 41.08
  C 46.67 41.43 45.42 43.48 45.43 45.77
  Q 45.48 78.53 45.44 112.06
  A 2.16 2.15 68.8 0 1 44.74 113.65
  Q 36.35 121.39 28.93 129.00
  Q 22.86 135.23 22.85 142.91
  Q 22.81 160.85 22.81 181.57
  C 22.81 188.19 31.74 187.96 31.75 181.43
  Q 31.79 163.07 31.72 144.45
  C 31.71 141.12 32.82 137.96 35.12 135.61
  Q 39.28 131.35 44.68 126.18
  Q 45.46 125.44 45.46 126.52
  L 45.45 137.46
  A 2.98 2.96 -20.8 0 1 44.44 139.69
  C 41.76 142.04 38.64 144.95 41.88 148.62
  C 43.72 150.71 46.69 150.13 48.48 148.39
  Q 59.50 137.67 69.09 128.17
  Q 71.76 125.53 71.92 129.28
  Q 71.99 131.04 72.07 132.81
  Q 72.20 135.88 69.99 138.02
  L 63.89 143.91
  Q 63.44 144.34 63.46 144.97
  Q 63.59 149.50 63.41 154.12
  C 63.24 158.61 61.00 161.34 57.43 163.55
  C 54.96 165.08 54.19 168.32 56.22 170.53
  C 58.94 173.50 61.99 171.71 64.51 169.75
  Q 70.55 165.07 71.90 158.51
  Q 72.00 157.99 72.51 157.86
  L 81.23 155.55
  Q 81.61 155.46 81.61 155.84
  Q 81.61 158.50 81.63 161.05
  C 81.67 165.09 79.51 168.61 76.81 171.50
  C 75.45 172.97 72.62 174.68 72.61 176.70
  Q 72.57 184.04 72.70 191.13
  Q 72.78 195.32 76.98 195.34
  Q 77.04 195.34 77.15 195.34
  Q 81.34 195.35 81.51 191.17
  Q 81.75 185.25 81.64 179.97
  A 1.19 1.18 -22.4 0 1 82.01 179.09
  C 87.33 174.06 90.80 167.76 90.76 160.26
  Q 90.74 156.78 90.75 153.69
  Q 90.75 153.09 91.33 152.94
  C 104.94 149.47 117.46 148.61 127.75 159.69
  C 131.66 163.91 134.76 160.07 137.54 157.51
  C 147.33 148.52 159.75 149.84 171.70 152.95
  Q 172.25 153.09 172.25 153.66
  C 172.30 157.57 171.95 161.70 172.76 165.45
  Q 174.36 172.78 181.02 179.10
  A 1.19 1.17 23.2 0 1 181.39 180.00
  Q 181.21 184.59 181.49 191.19
  C 181.73 196.97 190.16 196.87 190.30 191.12
  Q 190.46 184.32 190.33 177.22
  Q 190.29 174.94 189.11 174.08
  Q 179.87 167.32 181.46 156.05
  Q 181.54 155.51 182.07 155.65
  L 190.38 157.83
  A 1.00 0.99 -89.1 0 1 191.11 158.59
  Q 192.71 166.04 200.13 170.87
  Q 203.11 172.80 206.19 171.04
  Q 207.12 170.50 207.44 169.59
  Q 208.81 165.73 205.37 163.50
  Q 199.31 159.57 199.47 152.94
  C 199.54 150.01 199.52 147.06 199.48 144.16
  Q 199.48 143.63 199.08 143.26
  L 193.36 137.91
  A 7.68 7.65 -67.2 0 1 190.94 131.94
  Q 191.00 130.52 191.07 129.09
  Q 191.24 125.54 193.77 128.04
  Q 204.69 138.82 214.56 148.44
  Q 217.36 151.17 220.75 148.99
  Q 220.93 148.87 221.08 148.70
  Q 223.93 145.37 221.07 142.20
  Q 219.65 140.62 218.06 139.19
  A 1.28 1.26 21.4 0 1 217.64 138.25
  L 217.67 126.33
  Q 217.67 125.67 218.16 126.12
  Z"
/>
<path fill="#00c6d4" d="
  M 218.16 126.12
  Q 217.67 125.67 217.67 126.33
  L 217.64 138.25
  A 1.28 1.26 21.4 0 0 218.06 139.19
  Q 219.65 140.62 221.07 142.20
  Q 223.93 145.37 221.08 148.70
  Q 220.93 148.87 220.75 148.99
  Q 217.36 151.17 214.56 148.44
  Q 204.69 138.82 193.77 128.04
  Q 191.24 125.54 191.07 129.09
  Q 191.00 130.52 190.94 131.94
  A 7.68 7.65 -67.2 0 0 193.36 137.91
  L 199.08 143.26
  Q 199.48 143.63 199.48 144.16
  C 199.52 147.06 199.54 150.01 199.47 152.94
  Q 199.31 159.57 205.37 163.50
  Q 208.81 165.73 207.44 169.59
  Q 207.12 170.50 206.19 171.04
  Q 203.11 172.80 200.13 170.87
  Q 192.71 166.04 191.11 158.59
  A 1.00 0.99 -89.1 0 0 190.38 157.83
  L 182.07 155.65
  Q 181.54 155.51 181.46 156.05
  Q 179.87 167.32 189.11 174.08
  Q 190.29 174.94 190.33 177.22
  Q 190.46 184.32 190.30 191.12
  C 190.16 196.87 181.73 196.97 181.49 191.19
  Q 181.21 184.59 181.39 180.00
  A 1.19 1.17 23.2 0 0 181.02 179.10
  Q 174.36 172.78 172.76 165.45
  C 171.95 161.70 172.30 157.57 172.25 153.66
  Q 172.25 153.09 171.70 152.95
  C 159.75 149.84 147.33 148.52 137.54 157.51
  C 134.76 160.07 131.66 163.91 127.75 159.69
  C 117.46 148.61 104.94 149.47 91.33 152.94
  Q 90.75 153.09 90.75 153.69
  Q 90.74 156.78 90.76 160.26
  C 90.80 167.76 87.33 174.06 82.01 179.09
  A 1.19 1.18 -22.4 0 0 81.64 179.97
  Q 81.75 185.25 81.51 191.17
  Q 81.34 195.35 77.15 195.34
  Q 77.04 195.34 76.98 195.34
  Q 72.78 195.32 72.70 191.13
  Q 72.57 184.04 72.61 176.70
  C 72.62 174.68 75.45 172.97 76.81 171.50
  C 79.51 168.61 81.67 165.09 81.63 161.05
  Q 81.61 158.50 81.61 155.84
  Q 81.61 155.46 81.23 155.55
  L 72.51 157.86
  Q 72.00 157.99 71.90 158.51
  Q 70.55 165.07 64.51 169.75
  C 61.99 171.71 58.94 173.50 56.22 170.53
  C 54.19 168.32 54.96 165.08 57.43 163.55
  C 61.00 161.34 63.24 158.61 63.41 154.12
  Q 63.59 149.50 63.46 144.97
  Q 63.44 144.34 63.89 143.91
  L 69.99 138.02
  Q 72.20 135.88 72.07 132.81
  Q 71.99 131.04 71.92 129.28
  Q 71.76 125.53 69.09 128.17
  Q 59.50 137.67 48.48 148.39
  C 46.69 150.13 43.72 150.71 41.88 148.62
  C 38.64 144.95 41.76 142.04 44.44 139.69
  A 2.98 2.96 -20.8 0 0 45.45 137.46
  L 45.46 126.52
  Q 45.46 125.44 44.68 126.18
  Q 39.28 131.35 35.12 135.61
  C 32.82 137.96 31.71 141.12 31.72 144.45
  Q 31.79 163.07 31.75 181.43
  C 31.74 187.96 22.81 188.19 22.81 181.57
  Q 22.81 160.85 22.85 142.91
  Q 22.86 135.23 28.93 129.00
  Q 36.35 121.39 44.74 113.65
  A 2.16 2.15 68.8 0 0 45.44 112.06
  Q 45.48 78.53 45.43 45.77
  C 45.42 43.48 46.67 41.43 49.08 41.08
  Q 64.90 38.82 80.71 35.31
  C 98.58 31.35 116.70 30.20 130.95 43.22
  Q 131.51 43.73 132.07 43.21
  C 145.57 30.78 163.05 31.16 180.46 34.96
  Q 197.69 38.71 213.87 41.07
  C 216.02 41.38 217.65 43.34 217.65 45.55
  Q 217.67 79.45 217.65 112.14
  A 2.26 2.25 21.6 0 0 218.37 113.79
  Q 226.88 121.65 234.21 129.12
  Q 238.60 133.60 239.75 139.35
  Q 240.37 142.41 240.27 149.67
  Q 240.05 166.66 240.25 181.45
  Q 240.31 186.09 235.81 186.29
  Q 235.71 186.30 235.62 186.29
  Q 231.31 185.97 231.29 181.83
  Q 231.21 161.88 231.25 143.50
  C 231.26 141.13 230.13 138.14 228.47 136.34
  Q 223.94 131.42 218.16 126.12
  Z
  M 96.04 142.66
  C 105.87 140.66 117.52 140.97 126.28 146.84
  Q 126.99 147.31 126.99 146.46
  L 126.99 52.54
  A 1.62 1.59 -68.1 0 0 126.51 51.39
  Q 116.03 41.03 101.25 41.67
  Q 93.49 42.01 91.23 42.48
  Q 73.20 46.27 54.98 49.49
  Q 54.51 49.58 54.51 50.05
  L 54.51 129.06
  Q 54.51 129.87 55.07 129.29
  Q 59.83 124.43 65.16 119.48
  C 71.16 113.92 78.20 119.20 80.22 125.45
  C 83.04 134.21 80.07 141.68 73.38 147.39
  Q 71.75 148.78 73.81 148.18
  Q 85.13 144.87 96.04 142.66
  Z
  M 163.50 41.70
  C 153.37 40.95 144.86 43.77 137.50 50.42
  C 136.64 51.19 136.01 51.81 136.01 53.04
  Q 136.05 99.57 136.00 146.39
  Q 136.00 147.20 136.69 146.77
  C 147.69 140.01 160.41 140.74 172.78 143.86
  C 178.28 145.25 183.79 146.62 189.27 148.16
  Q 189.71 148.28 190.15 148.22
  A 0.43 0.42 60.7 0 0 190.36 147.47
  Q 186.50 144.36 184.35 140.89
  C 180.21 134.20 180.80 123.56 187.37 118.79
  C 192.09 115.35 196.43 117.78 200.11 121.54
  Q 204.13 125.65 207.98 129.26
  Q 208.54 129.78 208.54 129.02
  L 208.54 50.20
  Q 208.54 49.58 207.94 49.47
  Q 190.83 46.46 174.47 43.04
  C 170.97 42.30 167.11 41.96 163.50 41.70
  Z"
/>
<path fill="#ffffff" d="
  M 126.28 146.84
  C 117.52 140.97 105.87 140.66 96.04 142.66
  Q 85.13 144.87 73.81 148.18
  Q 71.75 148.78 73.38 147.39
  C 80.07 141.68 83.04 134.21 80.22 125.45
  C 78.20 119.20 71.16 113.92 65.16 119.48
  Q 59.83 124.43 55.07 129.29
  Q 54.51 129.87 54.51 129.06
  L 54.51 50.05
  Q 54.51 49.58 54.98 49.49
  Q 73.20 46.27 91.23 42.48
  Q 93.49 42.01 101.25 41.67
  Q 116.03 41.03 126.51 51.39
  A 1.62 1.59 -68.1 0 1 126.99 52.54
  L 126.99 146.46
  Q 126.99 147.31 126.28 146.84
  Z
  M 113.27 70.73
  A 4.43 4.43 0.0 0 0 108.84 66.30
  L 72.54 66.30
  A 4.43 4.43 0.0 0 0 68.11 70.73
  L 68.11 70.95
  A 4.43 4.43 0.0 0 0 72.54 75.38
  L 108.84 75.38
  A 4.43 4.43 0.0 0 0 113.27 70.95
  L 113.27 70.73
  Z
  M 113.27 88.88
  A 4.40 4.40 0.0 0 0 108.87 84.48
  L 72.51 84.48
  A 4.40 4.40 0.0 0 0 68.11 88.88
  L 68.11 89.08
  A 4.40 4.40 0.0 0 0 72.51 93.48
  L 108.87 93.48
  A 4.40 4.40 0.0 0 0 113.27 89.08
  L 113.27 88.88
  Z
  M 104.20 106.98
  A 4.41 4.41 0.0 0 0 99.79 102.57
  L 72.53 102.57
  A 4.41 4.41 0.0 0 0 68.12 106.98
  L 68.12 107.20
  A 4.41 4.41 0.0 0 0 72.53 111.61
  L 99.79 111.61
  A 4.41 4.41 0.0 0 0 104.20 107.20
  L 104.20 106.98
  Z"
/>
<path fill="#ffffff" d="
  M 137.50 50.42
  C 144.86 43.77 153.37 40.95 163.50 41.70
  C 167.11 41.96 170.97 42.30 174.47 43.04
  Q 190.83 46.46 207.94 49.47
  Q 208.54 49.58 208.54 50.20
  L 208.54 129.02
  Q 208.54 129.78 207.98 129.26
  Q 204.13 125.65 200.11 121.54
  C 196.43 117.78 192.09 115.35 187.37 118.79
  C 180.80 123.56 180.21 134.20 184.35 140.89
  Q 186.50 144.36 190.36 147.47
  A 0.43 0.42 60.7 0 1 190.15 148.22
  Q 189.71 148.28 189.27 148.16
  C 183.79 146.62 178.28 145.25 172.78 143.86
  C 160.41 140.74 147.69 140.01 136.69 146.77
  Q 136.00 147.20 136.00 146.39
  Q 136.05 99.57 136.01 53.04
  C 136.01 51.81 136.64 51.19 137.50 50.42
  Z
  M 176.8270 65.0679
  A 0.26 0.26 0.0 0 0 176.5675 64.8075
  L 168.0275 64.7926
  A 0.26 0.26 0.0 0 0 167.7670 65.0521
  L 167.7530 73.0921
  A 0.26 0.26 0.0 0 0 168.0125 73.3525
  L 176.5525 73.3674
  A 0.26 0.26 0.0 0 0 176.8130 73.1079
  L 176.8270 65.0679
  Z
  M 166.99 102.78
  L 162.15 102.78
  Q 161.34 102.79 161.33 103.60
  L 161.30 110.86
  Q 161.30 111.91 162.36 111.91
  L 182.42 111.92
  Q 183.51 111.92 183.51 110.83
  L 183.52 103.97
  Q 183.52 102.41 181.99 102.69
  Q 180.48 102.97 177.43 102.69
  Q 176.86 102.64 176.86 102.07
  L 176.88 80.50
  A 0.38 0.38 0.0 0 0 176.50 80.12
  L 164.06 80.13
  Q 163.26 80.13 163.25 80.94
  L 163.25 88.37
  Q 163.24 89.25 164.12 89.25
  L 167.24 89.25
  Q 167.74 89.25 167.74 89.75
  L 167.75 102.01
  Q 167.75 102.77 166.99 102.78
  Z"
/>
<rect fill="#00c6d4" x="-4.53" y="-4.28" transform="translate(172.29,69.08) rotate(0.1)" width="9.06" height="8.56" rx="0.26"/>
<rect fill="#00c6d4" x="68.11" y="66.30" width="45.16" height="9.08" rx="4.43"/>
<path fill="#00c6d4" d="
  M 167.75 102.01
  L 167.74 89.75
  Q 167.74 89.25 167.24 89.25
  L 164.12 89.25
  Q 163.24 89.25 163.25 88.37
  L 163.25 80.94
  Q 163.26 80.13 164.06 80.13
  L 176.50 80.12
  A 0.38 0.38 0.0 0 1 176.88 80.50
  L 176.86 102.07
  Q 176.86 102.64 177.43 102.69
  Q 180.48 102.97 181.99 102.69
  Q 183.52 102.41 183.52 103.97
  L 183.51 110.83
  Q 183.51 111.92 182.42 111.92
  L 162.36 111.91
  Q 161.30 111.91 161.30 110.86
  L 161.33 103.60
  Q 161.34 102.79 162.15 102.78
  L 166.99 102.78
  Q 167.75 102.77 167.75 102.01
  Z"
/>
<rect fill="#00c6d4" x="68.11" y="84.48" width="45.16" height="9.00" rx="4.40"/>
<rect fill="#00c6d4" x="68.12" y="102.57" width="36.08" height="9.04" rx="4.41"/>
</svg>
