<svg width="24" height="25" viewBox="0 0 24 25" fill="none" xmlns="http://www.w3.org/2000/svg">
<path fill-rule="evenodd" clip-rule="evenodd" d="M12 2.34615C6.39219 2.34615 1.84615 6.89219 1.84615 12.5C1.84615 18.1078 6.39219 22.6538 12 22.6538C17.6078 22.6538 22.1538 18.1078 22.1538 12.5C22.1538 6.89219 17.6078 2.34615 12 2.34615ZM0 12.5C0 5.87258 5.37258 0.5 12 0.5C18.6274 0.5 24 5.87258 24 12.5C24 19.1274 18.6274 24.5 12 24.5C5.37258 24.5 0 19.1274 0 12.5ZM8.57805 9.07806C8.93854 8.71757 9.523 8.71757 9.88348 9.07805L12 11.1946L14.1165 9.07808C14.477 8.71759 15.0615 8.71759 15.422 9.07808C15.7824 9.43856 15.7825 10.023 15.422 10.3835L13.3055 12.5L15.422 14.6165C15.7825 14.977 15.7824 15.5615 15.422 15.9219C15.0615 16.2824 14.477 16.2824 14.1165 15.9219L12 13.8054L9.8835 15.9219C9.52302 16.2824 8.93856 16.2824 8.57808 15.9219C8.21759 15.5615 8.21759 14.977 8.57808 14.6165L10.6946 12.5L8.57806 10.3835C8.21757 10.023 8.21757 9.43854 8.57805 9.07806Z" fill="#1094AB"/>
</svg>
