<svg width="131" height="35" viewBox="0 0 131 35" fill="none" xmlns="http://www.w3.org/2000/svg">
<rect width="131" height="35" rx="17.5" fill="#FFB500"/>
<path d="M17.6065 23V11.3636H21.8679C22.6937 11.3636 23.3774 11.5 23.919 11.7727C24.4607 12.0417 24.866 12.4072 25.1349 12.8693C25.4039 13.3277 25.5384 13.8447 25.5384 14.4205C25.5384 14.9053 25.4493 15.3144 25.2713 15.6477C25.0933 15.9773 24.8546 16.2424 24.5554 16.4432C24.2599 16.6402 23.9342 16.7841 23.5781 16.875V16.9886C23.9645 17.0076 24.3414 17.1326 24.7088 17.3636C25.08 17.5909 25.3868 17.9148 25.6293 18.3352C25.8717 18.7557 25.9929 19.267 25.9929 19.8693C25.9929 20.464 25.8527 20.9981 25.5724 21.4716C25.2959 21.9413 24.8679 22.3144 24.2884 22.5909C23.7088 22.8636 22.9683 23 22.0668 23H17.6065ZM19.3622 21.4943H21.8963C22.7372 21.4943 23.3395 21.3314 23.7031 21.0057C24.0668 20.6799 24.2486 20.2727 24.2486 19.7841C24.2486 19.4167 24.1558 19.0795 23.9702 18.7727C23.7846 18.4659 23.5194 18.2216 23.1747 18.0398C22.8338 17.858 22.4285 17.767 21.9588 17.767H19.3622V21.4943ZM19.3622 16.3977H21.7145C22.1084 16.3977 22.4626 16.322 22.777 16.1705C23.0952 16.0189 23.3471 15.8068 23.5327 15.5341C23.7221 15.2576 23.8168 14.9318 23.8168 14.5568C23.8168 14.0758 23.6482 13.6723 23.3111 13.3466C22.974 13.0208 22.4569 12.858 21.7599 12.858H19.3622V16.3977ZM30.4787 23.1932C29.9257 23.1932 29.4257 23.0909 28.9787 22.8864C28.5317 22.678 28.1776 22.3769 27.9162 21.983C27.6586 21.589 27.5298 21.1061 27.5298 20.5341C27.5298 20.0417 27.6245 19.6364 27.8139 19.3182C28.0033 19 28.259 18.7481 28.581 18.5625C28.9029 18.3769 29.2628 18.2367 29.6605 18.142C30.0582 18.0473 30.4635 17.9754 30.8764 17.9261C31.3991 17.8655 31.8234 17.8163 32.1491 17.7784C32.4749 17.7367 32.7116 17.6705 32.8594 17.5795C33.0071 17.4886 33.081 17.3409 33.081 17.1364V17.0966C33.081 16.6004 32.9408 16.2159 32.6605 15.9432C32.384 15.6705 31.9711 15.5341 31.4219 15.5341C30.8499 15.5341 30.3991 15.661 30.0696 15.9148C29.7438 16.1648 29.5185 16.4432 29.3935 16.75L27.7969 16.3864C27.9863 15.8561 28.2628 15.428 28.6264 15.1023C28.9938 14.7727 29.4162 14.5341 29.8935 14.3864C30.3707 14.2348 30.8726 14.1591 31.3991 14.1591C31.7476 14.1591 32.117 14.2008 32.5071 14.2841C32.901 14.3636 33.2685 14.5114 33.6094 14.7273C33.9541 14.9432 34.2363 15.2519 34.456 15.6534C34.6757 16.0511 34.7855 16.5682 34.7855 17.2045V23H33.1264V21.8068H33.0582C32.9484 22.0265 32.7836 22.2424 32.5639 22.4545C32.3442 22.6667 32.062 22.8428 31.7173 22.983C31.3726 23.1231 30.9598 23.1932 30.4787 23.1932ZM30.848 21.8295C31.3177 21.8295 31.7192 21.7367 32.0526 21.5511C32.3897 21.3655 32.6454 21.1231 32.8196 20.8239C32.9976 20.5208 33.0866 20.197 33.0866 19.8523V18.7273C33.026 18.7879 32.9086 18.8447 32.7344 18.8977C32.5639 18.947 32.3688 18.9905 32.1491 19.0284C31.9295 19.0625 31.7154 19.0947 31.5071 19.125C31.2988 19.1515 31.1245 19.1742 30.9844 19.1932C30.6548 19.2348 30.3537 19.3049 30.081 19.4034C29.812 19.5019 29.5961 19.6439 29.4332 19.8295C29.2741 20.0114 29.1946 20.2538 29.1946 20.5568C29.1946 20.9773 29.3499 21.2955 29.6605 21.5114C29.9711 21.7235 30.367 21.8295 30.848 21.8295ZM37.0483 23V14.2727H38.7472V23H37.0483ZM37.9062 12.9261C37.6108 12.9261 37.357 12.8277 37.1449 12.6307C36.9366 12.4299 36.8324 12.1913 36.8324 11.9148C36.8324 11.6345 36.9366 11.3958 37.1449 11.1989C37.357 10.9981 37.6108 10.8977 37.9062 10.8977C38.2017 10.8977 38.4536 10.9981 38.6619 11.1989C38.8741 11.3958 38.9801 11.6345 38.9801 11.9148C38.9801 12.1913 38.8741 12.4299 38.6619 12.6307C38.4536 12.8277 38.2017 12.9261 37.9062 12.9261ZM42.3736 14.2727L44.2997 17.6705L46.2429 14.2727H48.1009L45.3793 18.6364L48.1236 23H46.2656L44.2997 19.7386L42.3395 23H40.4759L43.1918 18.6364L40.5099 14.2727H42.3736ZM52.3693 23.1932C51.8163 23.1932 51.3163 23.0909 50.8693 22.8864C50.4223 22.678 50.0682 22.3769 49.8068 21.983C49.5492 21.589 49.4205 21.1061 49.4205 20.5341C49.4205 20.0417 49.5152 19.6364 49.7045 19.3182C49.8939 19 50.1496 18.7481 50.4716 18.5625C50.7936 18.3769 51.1534 18.2367 51.5511 18.142C51.9489 18.0473 52.3542 17.9754 52.767 17.9261C53.2898 17.8655 53.714 17.8163 54.0398 17.7784C54.3655 17.7367 54.6023 17.6705 54.75 17.5795C54.8977 17.4886 54.9716 17.3409 54.9716 17.1364V17.0966C54.9716 16.6004 54.8314 16.2159 54.5511 15.9432C54.2746 15.6705 53.8617 15.5341 53.3125 15.5341C52.7405 15.5341 52.2898 15.661 51.9602 15.9148C51.6345 16.1648 51.4091 16.4432 51.2841 16.75L49.6875 16.3864C49.8769 15.8561 50.1534 15.428 50.517 15.1023C50.8845 14.7727 51.3068 14.5341 51.7841 14.3864C52.2614 14.2348 52.7633 14.1591 53.2898 14.1591C53.6383 14.1591 54.0076 14.2008 54.3977 14.2841C54.7917 14.3636 55.1591 14.5114 55.5 14.7273C55.8447 14.9432 56.1269 15.2519 56.3466 15.6534C56.5663 16.0511 56.6761 16.5682 56.6761 17.2045V23H55.017V21.8068H54.9489C54.839 22.0265 54.6742 22.2424 54.4545 22.4545C54.2348 22.6667 53.9527 22.8428 53.608 22.983C53.2633 23.1231 52.8504 23.1932 52.3693 23.1932ZM52.7386 21.8295C53.2083 21.8295 53.6098 21.7367 53.9432 21.5511C54.2803 21.3655 54.536 21.1231 54.7102 20.8239C54.8883 20.5208 54.9773 20.197 54.9773 19.8523V18.7273C54.9167 18.7879 54.7992 18.8447 54.625 18.8977C54.4545 18.947 54.2595 18.9905 54.0398 19.0284C53.8201 19.0625 53.6061 19.0947 53.3977 19.125C53.1894 19.1515 53.0152 19.1742 52.875 19.1932C52.5455 19.2348 52.2443 19.3049 51.9716 19.4034C51.7027 19.5019 51.4867 19.6439 51.3239 19.8295C51.1648 20.0114 51.0852 20.2538 51.0852 20.5568C51.0852 20.9773 51.2405 21.2955 51.5511 21.5114C51.8617 21.7235 52.2576 21.8295 52.7386 21.8295ZM58.9389 23V14.2727H60.581V15.6591H60.6719C60.831 15.1894 61.1113 14.8201 61.5128 14.5511C61.9181 14.2784 62.3764 14.142 62.8878 14.142C62.9938 14.142 63.1188 14.1458 63.2628 14.1534C63.4105 14.161 63.526 14.1705 63.6094 14.1818V15.8068C63.5412 15.7879 63.42 15.767 63.2457 15.7443C63.0715 15.7178 62.8973 15.7045 62.723 15.7045C62.3215 15.7045 61.9635 15.7898 61.6491 15.9602C61.3385 16.1269 61.0923 16.3598 60.9105 16.6591C60.7287 16.9545 60.6378 17.2917 60.6378 17.6705V23H58.9389ZM73.4673 14.2727V15.6364H68.5355V14.2727H73.4673ZM69.8878 23V13.2614C69.8878 12.7159 70.0071 12.2633 70.2457 11.9034C70.4844 11.5398 70.8007 11.2689 71.1946 11.0909C71.5885 10.9091 72.0166 10.8182 72.4787 10.8182C72.8196 10.8182 73.1113 10.8466 73.3537 10.9034C73.5961 10.9564 73.776 11.0057 73.8935 11.0511L73.4957 12.4261C73.4162 12.4034 73.3139 12.3769 73.1889 12.3466C73.0639 12.3125 72.9124 12.2955 72.7344 12.2955C72.3215 12.2955 72.026 12.3977 71.848 12.6023C71.6738 12.8068 71.5866 13.1023 71.5866 13.4886V23H69.8878ZM78.5526 23.1761C77.7344 23.1761 77.0204 22.9886 76.4105 22.6136C75.8007 22.2386 75.3272 21.714 74.9901 21.0398C74.6529 20.3655 74.4844 19.5777 74.4844 18.6761C74.4844 17.7708 74.6529 16.9792 74.9901 16.3011C75.3272 15.6231 75.8007 15.0966 76.4105 14.7216C77.0204 14.3466 77.7344 14.1591 78.5526 14.1591C79.3707 14.1591 80.0848 14.3466 80.6946 14.7216C81.3045 15.0966 81.7779 15.6231 82.1151 16.3011C82.4522 16.9792 82.6207 17.7708 82.6207 18.6761C82.6207 19.5777 82.4522 20.3655 82.1151 21.0398C81.7779 21.714 81.3045 22.2386 80.6946 22.6136C80.0848 22.9886 79.3707 23.1761 78.5526 23.1761ZM78.5582 21.75C79.0885 21.75 79.5279 21.6098 79.8764 21.3295C80.2249 21.0492 80.4825 20.6761 80.6491 20.2102C80.8196 19.7443 80.9048 19.2311 80.9048 18.6705C80.9048 18.1136 80.8196 17.6023 80.6491 17.1364C80.4825 16.6667 80.2249 16.2898 79.8764 16.0057C79.5279 15.7216 79.0885 15.5795 78.5582 15.5795C78.0241 15.5795 77.581 15.7216 77.2287 16.0057C76.8802 16.2898 76.6207 16.6667 76.4503 17.1364C76.2836 17.6023 76.2003 18.1136 76.2003 18.6705C76.2003 19.2311 76.2836 19.7443 76.4503 20.2102C76.6207 20.6761 76.8802 21.0492 77.2287 21.3295C77.581 21.6098 78.0241 21.75 78.5582 21.75ZM86.2159 11.3636V23H84.517V11.3636H86.2159ZM90.2003 17.8182V23H88.5014V11.3636H90.1776V15.6932H90.2855C90.4901 15.2235 90.8026 14.8504 91.223 14.5739C91.6435 14.2973 92.1927 14.1591 92.8707 14.1591C93.4692 14.1591 93.992 14.2822 94.4389 14.5284C94.8897 14.7746 95.2382 15.142 95.4844 15.6307C95.7344 16.1155 95.8594 16.7216 95.8594 17.4489V23H94.1605V17.6534C94.1605 17.0133 93.9957 16.517 93.6662 16.1648C93.3366 15.8087 92.8783 15.6307 92.2912 15.6307C91.8897 15.6307 91.5298 15.7159 91.2116 15.8864C90.8973 16.0568 90.6491 16.3068 90.4673 16.6364C90.2893 16.9621 90.2003 17.3561 90.2003 17.8182ZM100.666 23.1932C100.113 23.1932 99.6132 23.0909 99.1662 22.8864C98.7192 22.678 98.3651 22.3769 98.1037 21.983C97.8461 21.589 97.7173 21.1061 97.7173 20.5341C97.7173 20.0417 97.812 19.6364 98.0014 19.3182C98.1908 19 98.4465 18.7481 98.7685 18.5625C99.0904 18.3769 99.4503 18.2367 99.848 18.142C100.246 18.0473 100.651 17.9754 101.064 17.9261C101.587 17.8655 102.011 17.8163 102.337 17.7784C102.662 17.7367 102.899 17.6705 103.047 17.5795C103.195 17.4886 103.268 17.3409 103.268 17.1364V17.0966C103.268 16.6004 103.128 16.2159 102.848 15.9432C102.571 15.6705 102.159 15.5341 101.609 15.5341C101.037 15.5341 100.587 15.661 100.257 15.9148C99.9313 16.1648 99.706 16.4432 99.581 16.75L97.9844 16.3864C98.1738 15.8561 98.4503 15.428 98.8139 15.1023C99.1813 14.7727 99.6037 14.5341 100.081 14.3864C100.558 14.2348 101.06 14.1591 101.587 14.1591C101.935 14.1591 102.304 14.2008 102.695 14.2841C103.089 14.3636 103.456 14.5114 103.797 14.7273C104.142 14.9432 104.424 15.2519 104.643 15.6534C104.863 16.0511 104.973 16.5682 104.973 17.2045V23H103.314V21.8068H103.246C103.136 22.0265 102.971 22.2424 102.751 22.4545C102.532 22.6667 102.25 22.8428 101.905 22.983C101.56 23.1231 101.147 23.1932 100.666 23.1932ZM101.036 21.8295C101.505 21.8295 101.907 21.7367 102.24 21.5511C102.577 21.3655 102.833 21.1231 103.007 20.8239C103.185 20.5208 103.274 20.197 103.274 19.8523V18.7273C103.214 18.7879 103.096 18.8447 102.922 18.8977C102.751 18.947 102.556 18.9905 102.337 19.0284C102.117 19.0625 101.903 19.0947 101.695 19.125C101.486 19.1515 101.312 19.1742 101.172 19.1932C100.842 19.2348 100.541 19.3049 100.268 19.4034C99.9995 19.5019 99.7836 19.6439 99.6207 19.8295C99.4616 20.0114 99.3821 20.2538 99.3821 20.5568C99.3821 20.9773 99.5374 21.2955 99.848 21.5114C100.159 21.7235 100.554 21.8295 101.036 21.8295ZM113.776 16.4034L112.236 16.6761C112.171 16.4792 112.069 16.2917 111.929 16.1136C111.793 15.9356 111.607 15.7898 111.372 15.6761C111.137 15.5625 110.844 15.5057 110.491 15.5057C110.01 15.5057 109.609 15.6136 109.287 15.8295C108.965 16.0417 108.804 16.3163 108.804 16.6534C108.804 16.9451 108.912 17.1799 109.128 17.358C109.344 17.536 109.692 17.6818 110.173 17.7955L111.56 18.1136C112.363 18.2992 112.961 18.5852 113.355 18.9716C113.749 19.358 113.946 19.8598 113.946 20.4773C113.946 21 113.795 21.4659 113.491 21.875C113.192 22.2803 112.774 22.5985 112.236 22.8295C111.702 23.0606 111.082 23.1761 110.378 23.1761C109.401 23.1761 108.603 22.9678 107.986 22.5511C107.368 22.1307 106.99 21.5341 106.849 20.7614L108.491 20.5114C108.594 20.9394 108.804 21.2633 109.122 21.483C109.44 21.6989 109.855 21.8068 110.366 21.8068C110.923 21.8068 111.368 21.6913 111.702 21.4602C112.035 21.2254 112.202 20.9394 112.202 20.6023C112.202 20.3295 112.099 20.1004 111.895 19.9148C111.694 19.7292 111.385 19.589 110.969 19.4943L109.491 19.1705C108.677 18.9848 108.075 18.6894 107.685 18.2841C107.298 17.8788 107.105 17.3655 107.105 16.7443C107.105 16.2292 107.249 15.7784 107.537 15.392C107.825 15.0057 108.223 14.7045 108.73 14.4886C109.238 14.2689 109.819 14.1591 110.474 14.1591C111.418 14.1591 112.16 14.3636 112.702 14.7727C113.243 15.178 113.601 15.7216 113.776 16.4034Z" fill="black"/>
</svg>
