<svg id="Grupo_14" data-name="Grupo 14" xmlns="http://www.w3.org/2000/svg" xmlns:xlink="http://www.w3.org/1999/xlink" width="155.644" height="150.924" viewBox="0 0 155.644 150.924">
  <defs>
    <clipPath id="clip-path">
      <rect id="Retângulo_12" data-name="Retângulo 12" width="155.644" height="150.924" fill="#1094ab"/>
    </clipPath>
    <clipPath id="clip-path-3">
      <rect id="Retângulo_9" data-name="Retângulo 9" width="152.797" height="116.585" fill="#1094ab"/>
    </clipPath>
    <clipPath id="clip-path-4">
      <rect id="Retângulo_10" data-name="Retângulo 10" width="150.924" height="150.924" fill="#1094ab"/>
    </clipPath>
    <clipPath id="clip-path-5">
      <rect id="Retângulo_41" data-name="Retângulo 41" width="79.836" height="90.651" fill="#1094ab"/>
    </clipPath>
  </defs>
  <g id="Grupo_13" data-name="Grupo 13" clip-path="url(#clip-path)">
    <g id="Grupo_12" data-name="Grupo 12">
      <g id="Grupo_11" data-name="Grupo 11" clip-path="url(#clip-path)">
        <path id="Caminho_35" data-name="Caminho 35" d="M172.881,205.859a62.635,62.635,0,1,1,0-125.27,1.194,1.194,0,1,1,0,2.387,60.237,60.237,0,1,0,48.73,24.812,1.194,1.194,0,0,1,1.93-1.406,62.615,62.615,0,0,1-50.66,99.476" transform="translate(-92.699 -67.762)" fill="#1094ab"/>
        <g id="Grupo_7" data-name="Grupo 7" transform="translate(0 12.765)" opacity="0.3">
          <g id="Grupo_6" data-name="Grupo 6">
            <g id="Grupo_5" data-name="Grupo 5" clip-path="url(#clip-path-3)">
              <path id="Caminho_36" data-name="Caminho 36" d="M3.74,627.087H1.194a1.194,1.194,0,1,1,0-2.387H3.74a1.194,1.194,0,1,1,0,2.387" transform="translate(0 -538.035)" fill="#1094ab"/>
              <path id="Caminho_37" data-name="Caminho 37" d="M64.059,627.087H61.194a1.194,1.194,0,1,1,0-2.387h2.865a1.194,1.194,0,1,1,0,2.387" transform="translate(-50.45 -538.035)" fill="#1094ab"/>
              <path id="Caminho_38" data-name="Caminho 38" d="M39.694,653.134A1.194,1.194,0,0,1,38.5,651.94v-2.547a1.194,1.194,0,0,1,2.387,0v2.547a1.194,1.194,0,0,1-1.194,1.194" transform="translate(-32.372 -557.795)" fill="#1094ab"/>
              <path id="Caminho_39" data-name="Caminho 39" d="M39.694,591.452a1.194,1.194,0,0,1-1.194-1.194v-2.865a1.194,1.194,0,0,1,2.387,0v2.865a1.194,1.194,0,0,1-1.194,1.194" transform="translate(-32.372 -505.663)" fill="#1094ab"/>
              <path id="Caminho_40" data-name="Caminho 40" d="M636.74,713.087h-2.547a1.194,1.194,0,1,1,0-2.387h2.547a1.194,1.194,0,1,1,0,2.387" transform="translate(-532.249 -610.347)" fill="#1094ab"/>
              <path id="Caminho_41" data-name="Caminho 41" d="M697.059,713.087h-2.865a1.194,1.194,0,1,1,0-2.387h2.865a1.194,1.194,0,1,1,0,2.387" transform="translate(-582.7 -610.347)" fill="#1094ab"/>
              <path id="Caminho_42" data-name="Caminho 42" d="M672.694,739.134a1.194,1.194,0,0,1-1.194-1.194v-2.547a1.194,1.194,0,0,1,2.387,0v2.547a1.194,1.194,0,0,1-1.194,1.194" transform="translate(-564.622 -630.107)" fill="#1094ab"/>
              <path id="Caminho_43" data-name="Caminho 43" d="M672.694,677.452a1.194,1.194,0,0,1-1.194-1.194v-2.865a1.194,1.194,0,0,1,2.387,0v2.865a1.194,1.194,0,0,1-1.194,1.194" transform="translate(-564.622 -577.975)" fill="#1094ab"/>
              <path id="Caminho_44" data-name="Caminho 44" d="M870.74,121.087h-2.547a1.194,1.194,0,0,1,0-2.387h2.547a1.194,1.194,0,0,1,0,2.387" transform="translate(-729.005 -112.572)" fill="#1094ab"/>
              <path id="Caminho_45" data-name="Caminho 45" d="M931.059,121.087h-2.865a1.194,1.194,0,0,1,0-2.387h2.865a1.194,1.194,0,0,1,0,2.387" transform="translate(-779.455 -112.572)" fill="#1094ab"/>
              <path id="Caminho_46" data-name="Caminho 46" d="M906.694,147.134a1.194,1.194,0,0,1-1.194-1.194v-2.547a1.194,1.194,0,0,1,2.387,0v2.547a1.194,1.194,0,0,1-1.194,1.194" transform="translate(-761.377 -132.332)" fill="#1094ab"/>
              <path id="Caminho_47" data-name="Caminho 47" d="M906.694,85.452a1.194,1.194,0,0,1-1.194-1.194V81.394a1.194,1.194,0,0,1,2.387,0v2.865a1.194,1.194,0,0,1-1.194,1.194" transform="translate(-761.377 -80.2)" fill="#1094ab"/>
              <path id="Caminho_48" data-name="Caminho 48" d="M114.115,771.806a3.869,3.869,0,1,1,3.869-3.869,3.873,3.873,0,0,1-3.869,3.869m0-5.351a1.482,1.482,0,1,0,1.482,1.482,1.483,1.483,0,0,0-1.482-1.482" transform="translate(-92.699 -655.221)" fill="#1094ab"/>
              <path id="Caminho_49" data-name="Caminho 49" d="M914.06,301.451a3.869,3.869,0,1,1,3.869-3.869,3.873,3.873,0,0,1-3.869,3.869m0-5.351a1.482,1.482,0,1,0,1.482,1.482,1.483,1.483,0,0,0-1.482-1.482" transform="translate(-765.322 -259.729)" fill="#1094ab"/>
            </g>
          </g>
        </g>
        <g id="Grupo_10" data-name="Grupo 10" transform="translate(4.72 0)" opacity="0.3">
          <g id="Grupo_9" data-name="Grupo 9">
            <g id="Grupo_8" data-name="Grupo 8" clip-path="url(#clip-path-4)">
              <path id="Caminho_51" data-name="Caminho 51" d="M733.464,66.872a1.188,1.188,0,0,1-.7-.229,73.413,73.413,0,0,0-7.158-4.6,1.194,1.194,0,1,1,1.172-2.08,75.839,75.839,0,0,1,7.392,4.752,1.194,1.194,0,0,1-.7,2.159" transform="translate(-614.323 -50.288)" fill="#1094ab"/>
              <path id="Caminho_52" data-name="Caminho 52" d="M358.706,5.727a1.194,1.194,0,0,1-.354-2.334,75.982,75.982,0,0,1,40.145-1.3,1.194,1.194,0,0,1-.558,2.321,73.594,73.594,0,0,0-38.878,1.262,1.2,1.2,0,0,1-.355.054" transform="translate(-305.33 0)" fill="#1094ab"/>
              <path id="Caminho_53" data-name="Caminho 53" d="M177.188,112.806a1.194,1.194,0,0,1-.82-2.062c1.181-1.115,2.413-2.206,3.662-3.241a1.194,1.194,0,1,1,1.524,1.838c-1.21,1-2.4,2.059-3.547,3.14a1.19,1.19,0,0,1-.819.325" transform="translate(-152.702 -90.161)" fill="#1094ab"/>
              <path id="Caminho_54" data-name="Caminho 54" d="M31.443,285.189a1.194,1.194,0,0,1-1.183-1.044A76.465,76.465,0,0,1,30.254,265a74.7,74.7,0,0,1,9.177-27.623,1.194,1.194,0,0,1,2.077,1.178A72.32,72.32,0,0,0,32.623,265.3a74.073,74.073,0,0,0,.006,18.544,1.2,1.2,0,0,1-1.186,1.344" transform="translate(-29.656 -199.087)" fill="#1094ab"/>
              <path id="Caminho_55" data-name="Caminho 55" d="M220.951,844.212a1.19,1.19,0,0,1-.6-.16,75.839,75.839,0,0,1-8.358-5.6,1.194,1.194,0,1,1,1.458-1.89,73.451,73.451,0,0,0,8.094,5.425,1.194,1.194,0,0,1-.6,2.228" transform="translate(-182.584 -703.2)" fill="#1094ab"/>
              <path id="Caminho_56" data-name="Caminho 56" d="M394.341,921.922a75.663,75.663,0,0,1-19.834-2.634,1.194,1.194,0,0,1,.626-2.3,73.67,73.67,0,0,0,34.838.875,1.194,1.194,0,0,1,.509,2.333,75.943,75.943,0,0,1-16.139,1.73" transform="translate(-318.879 -770.998)" fill="#1094ab"/>
              <path id="Caminho_57" data-name="Caminho 57" d="M726.191,858.337a1.194,1.194,0,0,1-.587-2.234c1.784-1.005,3.549-2.1,5.244-3.254a1.194,1.194,0,0,1,1.343,1.974c-1.75,1.191-3.572,2.322-5.415,3.36a1.19,1.19,0,0,1-.585.154" transform="translate(-614.323 -716.932)" fill="#1094ab"/>
              <path id="Caminho_58" data-name="Caminho 58" d="M843.664,611.477a1.194,1.194,0,0,1-.885-1.994,73.141,73.141,0,0,0,16.807-31.732,1.194,1.194,0,1,1,2.32.562,75.533,75.533,0,0,1-17.357,32.771,1.191,1.191,0,0,1-.886.393" transform="translate(-713.1 -485.025)" fill="#1094ab"/>
              <path id="Caminho_59" data-name="Caminho 59" d="M958.876,404.949a1.194,1.194,0,0,1-1.194-1.194c0-2.2-.1-4.417-.293-6.594-.159-1.781-.387-3.577-.676-5.337a1.194,1.194,0,1,1,2.356-.387c.3,1.818.533,3.672.7,5.512.2,2.248.3,4.538.3,6.807a1.194,1.194,0,0,1-1.194,1.194" transform="translate(-809.146 -328.293)" fill="#1094ab"/>
            </g>
          </g>
        </g>
        <path id="Caminho_198" data-name="Caminho 198" d="M600.565,561.44a1.134,1.134,0,0,1-.805-1.933l4.977-5.017a1.134,1.134,0,0,1,1.228-.254l4.444,1.786,5.841-5.457a1.134,1.134,0,0,1,1.549,1.657l-6.368,5.95a1.134,1.134,0,0,1-1.2.224l-4.416-1.774L601.37,561.1a1.131,1.131,0,0,1-.805.335" transform="translate(-513.179 -505.048)" fill="#1094ab"/>
        <path id="Caminho_199" data-name="Caminho 199" d="M600.891,646.586a1.134,1.134,0,0,1-1.134-1.134V634.639a1.134,1.134,0,0,1,2.268,0v10.813a1.134,1.134,0,0,1-1.134,1.134" transform="translate(-513.456 -575.705)" fill="#1094ab"/>
        <path id="Caminho_200" data-name="Caminho 200" d="M635.153,627.62a1.134,1.134,0,0,1-1.134-1.134V612.294a1.134,1.134,0,0,1,2.268,0v14.192a1.134,1.134,0,0,1-1.134,1.134" transform="translate(-542.537 -556.739)" fill="#1094ab"/>
        <path id="Caminho_201" data-name="Caminho 201" d="M669.415,630.149a1.134,1.134,0,0,1-1.134-1.134V615.273a1.134,1.134,0,0,1,2.268,0v13.742a1.134,1.134,0,0,1-1.134,1.134" transform="translate(-571.618 -559.268)" fill="#1094ab"/>
        <path id="Caminho_202" data-name="Caminho 202" d="M703.678,608.654a1.134,1.134,0,0,1-1.134-1.134V589.949a1.134,1.134,0,0,1,2.268,0V607.52a1.134,1.134,0,0,1-1.134,1.134" transform="translate(-600.699 -537.773)" fill="#1094ab"/>
        <g id="Grupo_93" data-name="Grupo 93" transform="translate(40.667 21.824)">
          <g id="Grupo_93-2" data-name="Grupo 93" clip-path="url(#clip-path-5)">
            <path id="Caminho_184" data-name="Caminho 184" d="M201.155,0H172.393a1.156,1.156,0,0,0-.208.02l-.012,0a1.12,1.12,0,0,0-.2.058l-.015.005a1.117,1.117,0,0,0-.183.1l-.013.008a1.136,1.136,0,0,0-.174.142h0l-16.54,16.54h0a1.118,1.118,0,0,0-.142.174l-.008.012a1.1,1.1,0,0,0-.1.184l-.005.015a1.094,1.094,0,0,0-.058.2l0,.012a1.125,1.125,0,0,0-.02.208h0v38.6a4.187,4.187,0,0,0,4.182,4.182h42.253a4.187,4.187,0,0,0,4.182-4.182V4.182A4.187,4.187,0,0,0,201.155,0M171.26,3.869V14.625a1.917,1.917,0,0,1-1.915,1.915H158.589Zm31.811,52.4a1.918,1.918,0,0,1-1.916,1.916H158.9a1.918,1.918,0,0,1-1.916-1.916V18.806h12.358a4.186,4.186,0,0,0,4.182-4.182V2.266h27.628a1.918,1.918,0,0,1,1.916,1.916Z" transform="translate(-125.5)" fill="#1094ab"/>
            <path id="Caminho_185" data-name="Caminho 185" d="M78.732,124.325l-9.207,9.208a1.133,1.133,0,0,0,1.6,1.6l9.207-9.208a1.133,1.133,0,1,0-1.6-1.6" transform="translate(-56.125 -100.576)" fill="#1094ab"/>
            <path id="Caminho_186" data-name="Caminho 186" d="M323.018,342.38l-9.868,9.868a1.133,1.133,0,1,0,1.6,1.6l9.868-9.868a1.133,1.133,0,1,0-1.6-1.6" transform="translate(-253.741 -277.45)" fill="#1094ab"/>
            <path id="Caminho_187" data-name="Caminho 187" d="M38.037,199.819a1.13,1.13,0,0,0,.8-.332l1.742-1.742a1.133,1.133,0,1,0-1.6-1.6l-1.742,1.742a1.133,1.133,0,0,0,.8,1.934" transform="translate(-29.934 -158.831)" fill="#1094ab"/>
            <path id="Caminho_188" data-name="Caminho 188" d="M280.613,419.2l-1.856,1.856a1.133,1.133,0,0,0,1.6,1.6l1.856-1.856a1.133,1.133,0,0,0-1.6-1.6" transform="translate(-225.842 -339.76)" fill="#1094ab"/>
            <path id="Caminho_189" data-name="Caminho 189" d="M2.078,233.044.335,234.786a1.133,1.133,0,1,0,1.6,1.6l1.742-1.742a1.133,1.133,0,0,0-1.6-1.6" transform="translate(-0.003 -188.763)" fill="#1094ab"/>
            <path id="Caminho_190" data-name="Caminho 190" d="M78.73,342.38l-9.207,9.207a1.133,1.133,0,1,0,1.6,1.6l9.207-9.207a1.133,1.133,0,1,0-1.6-1.6" transform="translate(-56.124 -277.45)" fill="#1094ab"/>
            <path id="Caminho_191" data-name="Caminho 191" d="M38.975,414.2l-1.742,1.742a1.133,1.133,0,0,0,1.6,1.6l1.742-1.742a1.133,1.133,0,0,0-1.6-1.6" transform="translate(-29.932 -335.703)" fill="#1094ab"/>
            <path id="Caminho_192" data-name="Caminho 192" d="M2.075,451.1.332,452.841a1.133,1.133,0,1,0,1.6,1.6L3.677,452.7a1.133,1.133,0,1,0-1.6-1.6" transform="translate(0 -365.636)" fill="#1094ab"/>
            <path id="Caminho_193" data-name="Caminho 193" d="M241.3,458.5l-1.856,1.856a1.133,1.133,0,1,0,1.6,1.6l1.856-1.856a1.133,1.133,0,0,0-1.6-1.6" transform="translate(-193.958 -371.644)" fill="#1094ab"/>
            <path id="Caminho_194" data-name="Caminho 194" d="M201.585,349.125a1.133,1.133,0,0,0-1.6,0l-7.292,7.292a1.133,1.133,0,0,0,1.6,1.6l7.291-7.292a1.133,1.133,0,0,0,0-1.6" transform="translate(-156.031 -282.921)" fill="#1094ab"/>
            <path id="Caminho_195" data-name="Caminho 195" d="M77.157,252.977l7.292-7.292a1.133,1.133,0,0,0-1.6-1.6l-7.292,7.292a1.133,1.133,0,0,0,1.6,1.6" transform="translate(-61.017 -197.717)" fill="#1094ab"/>
            <path id="Caminho_196" data-name="Caminho 196" d="M164.454,407.82l-1.9,1.9a1.133,1.133,0,1,0,1.6,1.6l1.9-1.9a1.133,1.133,0,0,0-1.6-1.6" transform="translate(-131.588 -330.531)" fill="#1094ab"/>
            <path id="Caminho_197" data-name="Caminho 197" d="M47.319,302.777l-1.9,1.9a1.133,1.133,0,0,0,1.6,1.6l1.9-1.9a1.133,1.133,0,0,0-1.6-1.6" transform="translate(-36.574 -245.326)" fill="#1094ab"/>
          </g>
        </g>
      </g>
    </g>
  </g>
</svg>
