<svg width="20" height="21" viewBox="0 0 20 21" fill="none" xmlns="http://www.w3.org/2000/svg">
<path d="M18.498 14.2625H1.5V19.2625H18.498V14.2625ZM19.9445 13.2344L19.9661 13.2961L19.9892 13.397L19.9981 13.4956V20.0125C19.9981 20.3922 19.7159 20.706 19.3499 20.7557L19.2481 20.7625H0.75C0.3703 20.7625 0.05651 20.4803 0.00685 20.1143L0 20.0125V13.5131L0.00184011 13.4602L0.0127101 13.3747C0.0228501 13.3209 0.0384099 13.2697 0.0589399 13.2212L2.81824 7.20255C2.92517 6.96932 3.14245 6.80934 3.39153 6.77299L3.5 6.76512L6.03982 6.76435L5.25089 8.13458L5.18282 8.26435L3.981 8.26452L1.918 12.7623H18.07L16.0428 8.41635L16.9052 6.91905C16.9718 6.96991 17.0301 7.03209 17.0771 7.10362L17.1297 7.19805L19.9445 13.2344ZM11.3652 0.818175L11.4566 0.863145L16.6447 3.86627C16.9729 4.05623 17.1033 4.45773 16.9636 4.7998L16.9187 4.89142L14.112 9.76352L15.25 9.76412C15.6642 9.76412 16 10.0999 16 10.5141C16 10.8938 15.7178 11.2076 15.3518 11.2573L15.25 11.2641L13.248 11.2635L13.2471 11.2665H9.16909L9.16599 11.2635L4.75 11.2641C4.33579 11.2641 4 10.9283 4 10.5141C4 10.1344 4.28215 9.82062 4.64823 9.77102L4.75 9.76412L6.573 9.76352L6.39145 9.65882C6.06327 9.46882 5.93285 9.06732 6.0726 8.72524L6.11747 8.63362L10.4341 1.13788C10.6235 0.808855 11.024 0.678095 11.3652 0.818175ZM11.3559 2.53781L7.78781 8.73371L9.56599 9.76352H12.383L15.248 4.7907L11.3559 2.53781Z" fill="#1094AB"/>
</svg>
